%TF.GenerationSoftware,KiCad,Pcbnew,(6.0.7)*%
%TF.CreationDate,2022-08-26T01:09:57-07:00*%
%TF.ProjectId,RP2040_Injector,52503230-3430-45f4-996e-6a6563746f72,rev?*%
%TF.SameCoordinates,Original*%
%TF.FileFunction,Soldermask,Top*%
%TF.FilePolarity,Negative*%
%FSLAX46Y46*%
G04 Gerber Fmt 4.6, Leading zero omitted, Abs format (unit mm)*
G04 Created by KiCad (PCBNEW (6.0.7)) date 2022-08-26 01:09:57*
%MOMM*%
%LPD*%
G01*
G04 APERTURE LIST*
G04 Aperture macros list*
%AMRoundRect*
0 Rectangle with rounded corners*
0 $1 Rounding radius*
0 $2 $3 $4 $5 $6 $7 $8 $9 X,Y pos of 4 corners*
0 Add a 4 corners polygon primitive as box body*
4,1,4,$2,$3,$4,$5,$6,$7,$8,$9,$2,$3,0*
0 Add four circle primitives for the rounded corners*
1,1,$1+$1,$2,$3*
1,1,$1+$1,$4,$5*
1,1,$1+$1,$6,$7*
1,1,$1+$1,$8,$9*
0 Add four rect primitives between the rounded corners*
20,1,$1+$1,$2,$3,$4,$5,0*
20,1,$1+$1,$4,$5,$6,$7,0*
20,1,$1+$1,$6,$7,$8,$9,0*
20,1,$1+$1,$8,$9,$2,$3,0*%
G04 Aperture macros list end*
%ADD10RoundRect,0.135000X-0.135000X-0.185000X0.135000X-0.185000X0.135000X0.185000X-0.135000X0.185000X0*%
%ADD11RoundRect,0.140000X-0.140000X-0.170000X0.140000X-0.170000X0.140000X0.170000X-0.140000X0.170000X0*%
%ADD12R,2.000000X1.500000*%
%ADD13R,2.000000X3.800000*%
%ADD14RoundRect,0.140000X0.170000X-0.140000X0.170000X0.140000X-0.170000X0.140000X-0.170000X-0.140000X0*%
%ADD15RoundRect,0.140000X0.140000X0.170000X-0.140000X0.170000X-0.140000X-0.170000X0.140000X-0.170000X0*%
%ADD16RoundRect,0.150000X0.650000X0.150000X-0.650000X0.150000X-0.650000X-0.150000X0.650000X-0.150000X0*%
%ADD17C,1.250000*%
%ADD18R,1.508000X1.508000*%
%ADD19C,1.508000*%
%ADD20O,3.150000X1.575000*%
%ADD21R,1.700000X1.700000*%
%ADD22O,1.700000X1.700000*%
%ADD23RoundRect,0.250000X0.475000X-0.250000X0.475000X0.250000X-0.475000X0.250000X-0.475000X-0.250000X0*%
%ADD24RoundRect,0.135000X-0.185000X0.135000X-0.185000X-0.135000X0.185000X-0.135000X0.185000X0.135000X0*%
%ADD25RoundRect,0.006000X0.094000X-0.414000X0.094000X0.414000X-0.094000X0.414000X-0.094000X-0.414000X0*%
%ADD26RoundRect,0.020000X0.400000X-0.080000X0.400000X0.080000X-0.400000X0.080000X-0.400000X-0.080000X0*%
%ADD27R,3.100000X3.100000*%
%ADD28R,1.200000X1.400000*%
G04 APERTURE END LIST*
D10*
%TO.C,R2*%
X155490000Y-96000000D03*
X156510000Y-96000000D03*
%TD*%
D11*
%TO.C,C15*%
X171350000Y-99650000D03*
X172310000Y-99650000D03*
%TD*%
D12*
%TO.C,U1*%
X135400000Y-101200000D03*
X135400000Y-103500000D03*
D13*
X141700000Y-103500000D03*
D12*
X135400000Y-105800000D03*
%TD*%
D14*
%TO.C,C13*%
X157990000Y-96360000D03*
X157990000Y-95400000D03*
%TD*%
%TO.C,C14*%
X146300000Y-106580000D03*
X146300000Y-105620000D03*
%TD*%
D11*
%TO.C,C4*%
X163545000Y-105950000D03*
X164505000Y-105950000D03*
%TD*%
D15*
%TO.C,C9*%
X155080000Y-98700000D03*
X154120000Y-98700000D03*
%TD*%
D16*
%TO.C,U2*%
X155700000Y-106405000D03*
X155700000Y-105135000D03*
X155700000Y-103865000D03*
X155700000Y-102595000D03*
X148500000Y-102595000D03*
X148500000Y-103865000D03*
X148500000Y-105135000D03*
X148500000Y-106405000D03*
%TD*%
D15*
%TO.C,C12*%
X155080000Y-99800000D03*
X154120000Y-99800000D03*
%TD*%
D17*
%TO.C,J1*%
X127300000Y-98850000D03*
X127300000Y-103350000D03*
D18*
X129400000Y-104600000D03*
D19*
X129400000Y-102100000D03*
X129400000Y-100100000D03*
X129400000Y-97600000D03*
D20*
X127300000Y-106800000D03*
X127300000Y-95400000D03*
%TD*%
D11*
%TO.C,C11*%
X167570000Y-99750000D03*
X168530000Y-99750000D03*
%TD*%
D14*
%TO.C,C10*%
X160090000Y-96360000D03*
X160090000Y-95400000D03*
%TD*%
D11*
%TO.C,C3*%
X159920000Y-105950000D03*
X160880000Y-105950000D03*
%TD*%
D21*
%TO.C,J2*%
X170970000Y-102875000D03*
D22*
X170970000Y-105415000D03*
%TD*%
D14*
%TO.C,C7*%
X161140000Y-96360000D03*
X161140000Y-95400000D03*
%TD*%
D23*
%TO.C,C2*%
X144400000Y-106200000D03*
X144400000Y-104300000D03*
%TD*%
D11*
%TO.C,C5*%
X167570000Y-100850000D03*
X168530000Y-100850000D03*
%TD*%
D14*
%TO.C,C16*%
X168550000Y-96300000D03*
X168550000Y-95340000D03*
%TD*%
D10*
%TO.C,R3*%
X155490000Y-97100000D03*
X156510000Y-97100000D03*
%TD*%
D14*
%TO.C,C8*%
X159040000Y-96360000D03*
X159040000Y-95400000D03*
%TD*%
D24*
%TO.C,R1*%
X167170000Y-105650000D03*
X167170000Y-106670000D03*
%TD*%
D23*
%TO.C,C1*%
X132300000Y-105300000D03*
X132300000Y-103400000D03*
%TD*%
D25*
%TO.C,U3*%
X159935000Y-104585000D03*
X160335000Y-104585000D03*
X160735000Y-104585000D03*
X161135000Y-104585000D03*
X161535000Y-104585000D03*
X161935000Y-104585000D03*
X162335000Y-104585000D03*
X162735000Y-104585000D03*
X163135000Y-104585000D03*
X163535000Y-104585000D03*
X163935000Y-104585000D03*
X164335000Y-104585000D03*
X164735000Y-104585000D03*
X165135000Y-104585000D03*
D26*
X165970000Y-103750000D03*
X165970000Y-103350000D03*
X165970000Y-102950000D03*
X165970000Y-102550000D03*
X165970000Y-102150000D03*
X165970000Y-101750000D03*
X165970000Y-101350000D03*
X165970000Y-100950000D03*
X165970000Y-100550000D03*
X165970000Y-100150000D03*
X165970000Y-99750000D03*
X165970000Y-99350000D03*
X165970000Y-98950000D03*
X165970000Y-98550000D03*
D25*
X165135000Y-97715000D03*
X164735000Y-97715000D03*
X164335000Y-97715000D03*
X163935000Y-97715000D03*
X163535000Y-97715000D03*
X163135000Y-97715000D03*
X162735000Y-97715000D03*
X162335000Y-97715000D03*
X161935000Y-97715000D03*
X161535000Y-97715000D03*
X161135000Y-97715000D03*
X160735000Y-97715000D03*
X160335000Y-97715000D03*
X159935000Y-97715000D03*
D26*
X159100000Y-98550000D03*
X159100000Y-98950000D03*
X159100000Y-99350000D03*
X159100000Y-99750000D03*
X159100000Y-100150000D03*
X159100000Y-100550000D03*
X159100000Y-100950000D03*
X159100000Y-101350000D03*
X159100000Y-101750000D03*
X159100000Y-102150000D03*
X159100000Y-102550000D03*
X159100000Y-102950000D03*
X159100000Y-103350000D03*
X159100000Y-103750000D03*
D27*
X162535000Y-101150000D03*
%TD*%
D28*
%TO.C,HSE1*%
X171750000Y-97950000D03*
X171750000Y-95750000D03*
X170150000Y-95750000D03*
X170150000Y-97950000D03*
%TD*%
D14*
%TO.C,C6*%
X163550000Y-96355000D03*
X163550000Y-95395000D03*
%TD*%
M02*
