M48
; DRILL file {KiCad (6.0.7)} date Fri Aug 26 02:46:53 2022
; FORMAT={-:-/ absolute / metric / decimal}
; #@! TF.CreationDate,2022-08-26T02:46:53-07:00
; #@! TF.GenerationSoftware,Kicad,Pcbnew,(6.0.7)
; #@! TF.FileFunction,MixedPlating,1,2
FMAT,2
METRIC
; #@! TA.AperFunction,Plated,PTH,ComponentDrill
T1C0.350
; #@! TA.AperFunction,Plated,PTH,ViaDrill
T2C0.400
; #@! TA.AperFunction,Plated,PTH,ComponentDrill
T3C1.000
; #@! TA.AperFunction,Plated,PTH,ComponentDrill
T4C1.050
; #@! TA.AperFunction,NonPlated,NPTH,ComponentDrill
T5C1.250
%
G90
G05
T1
X161.25Y-99.875
X161.25Y-101.15
X161.25Y-102.425
X162.525Y-99.875
X162.525Y-101.15
X162.525Y-102.425
X163.8Y-99.875
X163.8Y-101.15
X163.8Y-102.425
T2
X130.1Y-95.85
X132.9Y-100.1
X133.3Y-102.0
X144.4Y-102.95
X153.0Y-98.7
X153.0Y-99.8
X153.89Y-102.6
X156.277Y-99.803
X157.06Y-106.89
X160.385Y-100.51
X161.8Y-105.95
X162.33Y-95.4
X164.55Y-95.4
X164.8Y-99.18
X165.53Y-105.95
X165.53Y-106.95
X167.25Y-103.31
X167.38Y-95.34
X167.58Y-98.88
X169.35Y-100.29
X170.3Y-99.2
X173.15Y-97.75
T3
X129.4Y-97.6
X129.4Y-100.1
X129.4Y-102.1
X129.4Y-104.6
X170.97Y-102.875
X170.97Y-105.415
T5
X127.3Y-98.85
X127.3Y-103.35
T4
G00X128.075Y-95.4
M15
G01X126.525Y-95.4
M16
G05
G00X128.075Y-106.8
M15
G01X126.525Y-106.8
M16
G05
T0
M30
