%TF.GenerationSoftware,KiCad,Pcbnew,(6.0.7)*%
%TF.CreationDate,2022-08-28T18:35:31-07:00*%
%TF.ProjectId,RP2040_Injector,52503230-3430-45f4-996e-6a6563746f72,rev?*%
%TF.SameCoordinates,Original*%
%TF.FileFunction,Legend,Top*%
%TF.FilePolarity,Positive*%
%FSLAX46Y46*%
G04 Gerber Fmt 4.6, Leading zero omitted, Abs format (unit mm)*
G04 Created by KiCad (PCBNEW (6.0.7)) date 2022-08-28 18:35:31*
%MOMM*%
%LPD*%
G01*
G04 APERTURE LIST*
%ADD10C,0.150000*%
%ADD11C,0.125000*%
%ADD12C,0.120000*%
%ADD13C,0.127000*%
%ADD14C,0.200000*%
G04 APERTURE END LIST*
D10*
X100509882Y-91891439D02*
X99802775Y-91184332D01*
X100072149Y-91453706D02*
X100105821Y-91352691D01*
X100240508Y-91218004D01*
X100341523Y-91184332D01*
X100408866Y-91184332D01*
X100509882Y-91218004D01*
X100711912Y-91420034D01*
X100745584Y-91521049D01*
X100745584Y-91588393D01*
X100711912Y-91689408D01*
X100577225Y-91824095D01*
X100476210Y-91857767D01*
X101082301Y-91251675D02*
X101183317Y-91218004D01*
X101318004Y-91083317D01*
X101351675Y-90982301D01*
X101318004Y-90881286D01*
X101284332Y-90847614D01*
X101183317Y-90813943D01*
X101082301Y-90847614D01*
X100981286Y-90948630D01*
X100880271Y-90982301D01*
X100779256Y-90948630D01*
X100745584Y-90914958D01*
X100711912Y-90813943D01*
X100745584Y-90712927D01*
X100846599Y-90611912D01*
X100947614Y-90578240D01*
X101991439Y-90342538D02*
X101957767Y-90443553D01*
X101823080Y-90578240D01*
X101722065Y-90611912D01*
X101654721Y-90611912D01*
X101553706Y-90578240D01*
X101351675Y-90376210D01*
X101318004Y-90275195D01*
X101318004Y-90207851D01*
X101351675Y-90106836D01*
X101486362Y-89972149D01*
X101587378Y-89938477D01*
X101210591Y-93467613D02*
X101345278Y-93332926D01*
X101378950Y-93231911D01*
X101378950Y-93164568D01*
X101345278Y-92996209D01*
X101244263Y-92827850D01*
X100974889Y-92558476D01*
X100873873Y-92524804D01*
X100806530Y-92524804D01*
X100705515Y-92558476D01*
X100570828Y-92693163D01*
X100537156Y-92794178D01*
X100537156Y-92861522D01*
X100570828Y-92962537D01*
X100739186Y-93130896D01*
X100840202Y-93164568D01*
X100907545Y-93164568D01*
X101008560Y-93130896D01*
X101143247Y-92996209D01*
X101176919Y-92895194D01*
X101176919Y-92827850D01*
X101143247Y-92726835D01*
X101614652Y-91581995D02*
X101917698Y-93097224D01*
X101917698Y-91480980D02*
X101917698Y-91413637D01*
X101951369Y-91312621D01*
X102119728Y-91144263D01*
X102220743Y-91110591D01*
X102288087Y-91110591D01*
X102389102Y-91144263D01*
X102456446Y-91211606D01*
X102523789Y-91346293D01*
X102523789Y-92154415D01*
X102961522Y-91716682D01*
X102591133Y-90807545D02*
X102591133Y-90740202D01*
X102624804Y-90639186D01*
X102793163Y-90470828D01*
X102894178Y-90437156D01*
X102961522Y-90437156D01*
X103062537Y-90470828D01*
X103129881Y-90538171D01*
X103197224Y-90672858D01*
X103197224Y-91480980D01*
X103634957Y-91043247D01*
%TO.C,*%
D11*
%TO.C,C6*%
X113516666Y-99378571D02*
X113492857Y-99402380D01*
X113421428Y-99426190D01*
X113373809Y-99426190D01*
X113302380Y-99402380D01*
X113254761Y-99354761D01*
X113230952Y-99307142D01*
X113207142Y-99211904D01*
X113207142Y-99140476D01*
X113230952Y-99045238D01*
X113254761Y-98997619D01*
X113302380Y-98950000D01*
X113373809Y-98926190D01*
X113421428Y-98926190D01*
X113492857Y-98950000D01*
X113516666Y-98973809D01*
X113945238Y-98926190D02*
X113850000Y-98926190D01*
X113802380Y-98950000D01*
X113778571Y-98973809D01*
X113730952Y-99045238D01*
X113707142Y-99140476D01*
X113707142Y-99330952D01*
X113730952Y-99378571D01*
X113754761Y-99402380D01*
X113802380Y-99426190D01*
X113897619Y-99426190D01*
X113945238Y-99402380D01*
X113969047Y-99378571D01*
X113992857Y-99330952D01*
X113992857Y-99211904D01*
X113969047Y-99164285D01*
X113945238Y-99140476D01*
X113897619Y-99116666D01*
X113802380Y-99116666D01*
X113754761Y-99140476D01*
X113730952Y-99164285D01*
X113707142Y-99211904D01*
%TO.C,C14*%
X120178571Y-99678571D02*
X120154761Y-99702380D01*
X120083333Y-99726190D01*
X120035714Y-99726190D01*
X119964285Y-99702380D01*
X119916666Y-99654761D01*
X119892857Y-99607142D01*
X119869047Y-99511904D01*
X119869047Y-99440476D01*
X119892857Y-99345238D01*
X119916666Y-99297619D01*
X119964285Y-99250000D01*
X120035714Y-99226190D01*
X120083333Y-99226190D01*
X120154761Y-99250000D01*
X120178571Y-99273809D01*
X120654761Y-99726190D02*
X120369047Y-99726190D01*
X120511904Y-99726190D02*
X120511904Y-99226190D01*
X120464285Y-99297619D01*
X120416666Y-99345238D01*
X120369047Y-99369047D01*
X121083333Y-99392857D02*
X121083333Y-99726190D01*
X120964285Y-99202380D02*
X120845238Y-99559523D01*
X121154761Y-99559523D01*
%TO.C,R2*%
X119726190Y-93713333D02*
X119488095Y-93880000D01*
X119726190Y-93999047D02*
X119226190Y-93999047D01*
X119226190Y-93808571D01*
X119250000Y-93760952D01*
X119273809Y-93737142D01*
X119321428Y-93713333D01*
X119392857Y-93713333D01*
X119440476Y-93737142D01*
X119464285Y-93760952D01*
X119488095Y-93808571D01*
X119488095Y-93999047D01*
X119273809Y-93522857D02*
X119250000Y-93499047D01*
X119226190Y-93451428D01*
X119226190Y-93332380D01*
X119250000Y-93284761D01*
X119273809Y-93260952D01*
X119321428Y-93237142D01*
X119369047Y-93237142D01*
X119440476Y-93260952D01*
X119726190Y-93546666D01*
X119726190Y-93237142D01*
%TO.C,C4*%
X117316666Y-87478571D02*
X117292857Y-87502380D01*
X117221428Y-87526190D01*
X117173809Y-87526190D01*
X117102380Y-87502380D01*
X117054761Y-87454761D01*
X117030952Y-87407142D01*
X117007142Y-87311904D01*
X117007142Y-87240476D01*
X117030952Y-87145238D01*
X117054761Y-87097619D01*
X117102380Y-87050000D01*
X117173809Y-87026190D01*
X117221428Y-87026190D01*
X117292857Y-87050000D01*
X117316666Y-87073809D01*
X117745238Y-87192857D02*
X117745238Y-87526190D01*
X117626190Y-87002380D02*
X117507142Y-87359523D01*
X117816666Y-87359523D01*
D10*
%TO.C,*%
D11*
%TO.C,C10*%
X122678571Y-90978571D02*
X122654761Y-91002380D01*
X122583333Y-91026190D01*
X122535714Y-91026190D01*
X122464285Y-91002380D01*
X122416666Y-90954761D01*
X122392857Y-90907142D01*
X122369047Y-90811904D01*
X122369047Y-90740476D01*
X122392857Y-90645238D01*
X122416666Y-90597619D01*
X122464285Y-90550000D01*
X122535714Y-90526190D01*
X122583333Y-90526190D01*
X122654761Y-90550000D01*
X122678571Y-90573809D01*
X123154761Y-91026190D02*
X122869047Y-91026190D01*
X123011904Y-91026190D02*
X123011904Y-90526190D01*
X122964285Y-90597619D01*
X122916666Y-90645238D01*
X122869047Y-90669047D01*
X123464285Y-90526190D02*
X123511904Y-90526190D01*
X123559523Y-90550000D01*
X123583333Y-90573809D01*
X123607142Y-90621428D01*
X123630952Y-90716666D01*
X123630952Y-90835714D01*
X123607142Y-90930952D01*
X123583333Y-90978571D01*
X123559523Y-91002380D01*
X123511904Y-91026190D01*
X123464285Y-91026190D01*
X123416666Y-91002380D01*
X123392857Y-90978571D01*
X123369047Y-90930952D01*
X123345238Y-90835714D01*
X123345238Y-90716666D01*
X123369047Y-90621428D01*
X123392857Y-90573809D01*
X123416666Y-90550000D01*
X123464285Y-90526190D01*
D10*
%TO.C,*%
D11*
%TO.C,R4*%
X104516666Y-92326190D02*
X104350000Y-92088095D01*
X104230952Y-92326190D02*
X104230952Y-91826190D01*
X104421428Y-91826190D01*
X104469047Y-91850000D01*
X104492857Y-91873809D01*
X104516666Y-91921428D01*
X104516666Y-91992857D01*
X104492857Y-92040476D01*
X104469047Y-92064285D01*
X104421428Y-92088095D01*
X104230952Y-92088095D01*
X104945238Y-91992857D02*
X104945238Y-92326190D01*
X104826190Y-91802380D02*
X104707142Y-92159523D01*
X105016666Y-92159523D01*
%TO.C,C15*%
X123378571Y-94121428D02*
X123402380Y-94145238D01*
X123426190Y-94216666D01*
X123426190Y-94264285D01*
X123402380Y-94335714D01*
X123354761Y-94383333D01*
X123307142Y-94407142D01*
X123211904Y-94430952D01*
X123140476Y-94430952D01*
X123045238Y-94407142D01*
X122997619Y-94383333D01*
X122950000Y-94335714D01*
X122926190Y-94264285D01*
X122926190Y-94216666D01*
X122950000Y-94145238D01*
X122973809Y-94121428D01*
X123426190Y-93645238D02*
X123426190Y-93930952D01*
X123426190Y-93788095D02*
X122926190Y-93788095D01*
X122997619Y-93835714D01*
X123045238Y-93883333D01*
X123069047Y-93930952D01*
X122926190Y-93192857D02*
X122926190Y-93430952D01*
X123164285Y-93454761D01*
X123140476Y-93430952D01*
X123116666Y-93383333D01*
X123116666Y-93264285D01*
X123140476Y-93216666D01*
X123164285Y-93192857D01*
X123211904Y-93169047D01*
X123330952Y-93169047D01*
X123378571Y-93192857D01*
X123402380Y-93216666D01*
X123426190Y-93264285D01*
X123426190Y-93383333D01*
X123402380Y-93430952D01*
X123378571Y-93454761D01*
%TO.C,C11*%
X107078571Y-90378571D02*
X107054761Y-90402380D01*
X106983333Y-90426190D01*
X106935714Y-90426190D01*
X106864285Y-90402380D01*
X106816666Y-90354761D01*
X106792857Y-90307142D01*
X106769047Y-90211904D01*
X106769047Y-90140476D01*
X106792857Y-90045238D01*
X106816666Y-89997619D01*
X106864285Y-89950000D01*
X106935714Y-89926190D01*
X106983333Y-89926190D01*
X107054761Y-89950000D01*
X107078571Y-89973809D01*
X107554761Y-90426190D02*
X107269047Y-90426190D01*
X107411904Y-90426190D02*
X107411904Y-89926190D01*
X107364285Y-89997619D01*
X107316666Y-90045238D01*
X107269047Y-90069047D01*
X108030952Y-90426190D02*
X107745238Y-90426190D01*
X107888095Y-90426190D02*
X107888095Y-89926190D01*
X107840476Y-89997619D01*
X107792857Y-90045238D01*
X107745238Y-90069047D01*
%TO.C,R3*%
X104516666Y-91126190D02*
X104350000Y-90888095D01*
X104230952Y-91126190D02*
X104230952Y-90626190D01*
X104421428Y-90626190D01*
X104469047Y-90650000D01*
X104492857Y-90673809D01*
X104516666Y-90721428D01*
X104516666Y-90792857D01*
X104492857Y-90840476D01*
X104469047Y-90864285D01*
X104421428Y-90888095D01*
X104230952Y-90888095D01*
X104683333Y-90626190D02*
X104992857Y-90626190D01*
X104826190Y-90816666D01*
X104897619Y-90816666D01*
X104945238Y-90840476D01*
X104969047Y-90864285D01*
X104992857Y-90911904D01*
X104992857Y-91030952D01*
X104969047Y-91078571D01*
X104945238Y-91102380D01*
X104897619Y-91126190D01*
X104754761Y-91126190D01*
X104707142Y-91102380D01*
X104683333Y-91078571D01*
%TO.C,C2*%
X109016666Y-87578571D02*
X108992857Y-87602380D01*
X108921428Y-87626190D01*
X108873809Y-87626190D01*
X108802380Y-87602380D01*
X108754761Y-87554761D01*
X108730952Y-87507142D01*
X108707142Y-87411904D01*
X108707142Y-87340476D01*
X108730952Y-87245238D01*
X108754761Y-87197619D01*
X108802380Y-87150000D01*
X108873809Y-87126190D01*
X108921428Y-87126190D01*
X108992857Y-87150000D01*
X109016666Y-87173809D01*
X109207142Y-87173809D02*
X109230952Y-87150000D01*
X109278571Y-87126190D01*
X109397619Y-87126190D01*
X109445238Y-87150000D01*
X109469047Y-87173809D01*
X109492857Y-87221428D01*
X109492857Y-87269047D01*
X109469047Y-87340476D01*
X109183333Y-87626190D01*
X109492857Y-87626190D01*
%TO.C,C8*%
X107316666Y-89378571D02*
X107292857Y-89402380D01*
X107221428Y-89426190D01*
X107173809Y-89426190D01*
X107102380Y-89402380D01*
X107054761Y-89354761D01*
X107030952Y-89307142D01*
X107007142Y-89211904D01*
X107007142Y-89140476D01*
X107030952Y-89045238D01*
X107054761Y-88997619D01*
X107102380Y-88950000D01*
X107173809Y-88926190D01*
X107221428Y-88926190D01*
X107292857Y-88950000D01*
X107316666Y-88973809D01*
X107602380Y-89140476D02*
X107554761Y-89116666D01*
X107530952Y-89092857D01*
X107507142Y-89045238D01*
X107507142Y-89021428D01*
X107530952Y-88973809D01*
X107554761Y-88950000D01*
X107602380Y-88926190D01*
X107697619Y-88926190D01*
X107745238Y-88950000D01*
X107769047Y-88973809D01*
X107792857Y-89021428D01*
X107792857Y-89045238D01*
X107769047Y-89092857D01*
X107745238Y-89116666D01*
X107697619Y-89140476D01*
X107602380Y-89140476D01*
X107554761Y-89164285D01*
X107530952Y-89188095D01*
X107507142Y-89235714D01*
X107507142Y-89330952D01*
X107530952Y-89378571D01*
X107554761Y-89402380D01*
X107602380Y-89426190D01*
X107697619Y-89426190D01*
X107745238Y-89402380D01*
X107769047Y-89378571D01*
X107792857Y-89330952D01*
X107792857Y-89235714D01*
X107769047Y-89188095D01*
X107745238Y-89164285D01*
X107697619Y-89140476D01*
%TO.C,R5*%
X112316666Y-100326190D02*
X112150000Y-100088095D01*
X112030952Y-100326190D02*
X112030952Y-99826190D01*
X112221428Y-99826190D01*
X112269047Y-99850000D01*
X112292857Y-99873809D01*
X112316666Y-99921428D01*
X112316666Y-99992857D01*
X112292857Y-100040476D01*
X112269047Y-100064285D01*
X112221428Y-100088095D01*
X112030952Y-100088095D01*
X112769047Y-99826190D02*
X112530952Y-99826190D01*
X112507142Y-100064285D01*
X112530952Y-100040476D01*
X112578571Y-100016666D01*
X112697619Y-100016666D01*
X112745238Y-100040476D01*
X112769047Y-100064285D01*
X112792857Y-100111904D01*
X112792857Y-100230952D01*
X112769047Y-100278571D01*
X112745238Y-100302380D01*
X112697619Y-100326190D01*
X112578571Y-100326190D01*
X112530952Y-100302380D01*
X112507142Y-100278571D01*
%TO.C,C7*%
X111516666Y-97778571D02*
X111492857Y-97802380D01*
X111421428Y-97826190D01*
X111373809Y-97826190D01*
X111302380Y-97802380D01*
X111254761Y-97754761D01*
X111230952Y-97707142D01*
X111207142Y-97611904D01*
X111207142Y-97540476D01*
X111230952Y-97445238D01*
X111254761Y-97397619D01*
X111302380Y-97350000D01*
X111373809Y-97326190D01*
X111421428Y-97326190D01*
X111492857Y-97350000D01*
X111516666Y-97373809D01*
X111683333Y-97326190D02*
X112016666Y-97326190D01*
X111802380Y-97826190D01*
%TO.C,C5*%
X122816666Y-91978571D02*
X122792857Y-92002380D01*
X122721428Y-92026190D01*
X122673809Y-92026190D01*
X122602380Y-92002380D01*
X122554761Y-91954761D01*
X122530952Y-91907142D01*
X122507142Y-91811904D01*
X122507142Y-91740476D01*
X122530952Y-91645238D01*
X122554761Y-91597619D01*
X122602380Y-91550000D01*
X122673809Y-91526190D01*
X122721428Y-91526190D01*
X122792857Y-91550000D01*
X122816666Y-91573809D01*
X123269047Y-91526190D02*
X123030952Y-91526190D01*
X123007142Y-91764285D01*
X123030952Y-91740476D01*
X123078571Y-91716666D01*
X123197619Y-91716666D01*
X123245238Y-91740476D01*
X123269047Y-91764285D01*
X123292857Y-91811904D01*
X123292857Y-91930952D01*
X123269047Y-91978571D01*
X123245238Y-92002380D01*
X123197619Y-92026190D01*
X123078571Y-92026190D01*
X123030952Y-92002380D01*
X123007142Y-91978571D01*
D10*
%TO.C,*%
D11*
%TO.C,C1*%
X108216666Y-91878571D02*
X108192857Y-91902380D01*
X108121428Y-91926190D01*
X108073809Y-91926190D01*
X108002380Y-91902380D01*
X107954761Y-91854761D01*
X107930952Y-91807142D01*
X107907142Y-91711904D01*
X107907142Y-91640476D01*
X107930952Y-91545238D01*
X107954761Y-91497619D01*
X108002380Y-91450000D01*
X108073809Y-91426190D01*
X108121428Y-91426190D01*
X108192857Y-91450000D01*
X108216666Y-91473809D01*
X108692857Y-91926190D02*
X108407142Y-91926190D01*
X108550000Y-91926190D02*
X108550000Y-91426190D01*
X108502380Y-91497619D01*
X108454761Y-91545238D01*
X108407142Y-91569047D01*
%TO.C,C9*%
X108248480Y-94578571D02*
X108224671Y-94602380D01*
X108153242Y-94626190D01*
X108105623Y-94626190D01*
X108034194Y-94602380D01*
X107986575Y-94554761D01*
X107962766Y-94507142D01*
X107938956Y-94411904D01*
X107938956Y-94340476D01*
X107962766Y-94245238D01*
X107986575Y-94197619D01*
X108034194Y-94150000D01*
X108105623Y-94126190D01*
X108153242Y-94126190D01*
X108224671Y-94150000D01*
X108248480Y-94173809D01*
X108486575Y-94626190D02*
X108581814Y-94626190D01*
X108629433Y-94602380D01*
X108653242Y-94578571D01*
X108700861Y-94507142D01*
X108724671Y-94411904D01*
X108724671Y-94221428D01*
X108700861Y-94173809D01*
X108677052Y-94150000D01*
X108629433Y-94126190D01*
X108534194Y-94126190D01*
X108486575Y-94150000D01*
X108462766Y-94173809D01*
X108438956Y-94221428D01*
X108438956Y-94340476D01*
X108462766Y-94388095D01*
X108486575Y-94411904D01*
X108534194Y-94435714D01*
X108629433Y-94435714D01*
X108677052Y-94411904D01*
X108700861Y-94388095D01*
X108724671Y-94340476D01*
%TO.C,C3*%
X113716666Y-87478571D02*
X113692857Y-87502380D01*
X113621428Y-87526190D01*
X113573809Y-87526190D01*
X113502380Y-87502380D01*
X113454761Y-87454761D01*
X113430952Y-87407142D01*
X113407142Y-87311904D01*
X113407142Y-87240476D01*
X113430952Y-87145238D01*
X113454761Y-87097619D01*
X113502380Y-87050000D01*
X113573809Y-87026190D01*
X113621428Y-87026190D01*
X113692857Y-87050000D01*
X113716666Y-87073809D01*
X113883333Y-87026190D02*
X114192857Y-87026190D01*
X114026190Y-87216666D01*
X114097619Y-87216666D01*
X114145238Y-87240476D01*
X114169047Y-87264285D01*
X114192857Y-87311904D01*
X114192857Y-87430952D01*
X114169047Y-87478571D01*
X114145238Y-87502380D01*
X114097619Y-87526190D01*
X113954761Y-87526190D01*
X113907142Y-87502380D01*
X113883333Y-87478571D01*
%TO.C,C16*%
X100578571Y-97521428D02*
X100602380Y-97545238D01*
X100626190Y-97616666D01*
X100626190Y-97664285D01*
X100602380Y-97735714D01*
X100554761Y-97783333D01*
X100507142Y-97807142D01*
X100411904Y-97830952D01*
X100340476Y-97830952D01*
X100245238Y-97807142D01*
X100197619Y-97783333D01*
X100150000Y-97735714D01*
X100126190Y-97664285D01*
X100126190Y-97616666D01*
X100150000Y-97545238D01*
X100173809Y-97521428D01*
X100626190Y-97045238D02*
X100626190Y-97330952D01*
X100626190Y-97188095D02*
X100126190Y-97188095D01*
X100197619Y-97235714D01*
X100245238Y-97283333D01*
X100269047Y-97330952D01*
X100126190Y-96616666D02*
X100126190Y-96711904D01*
X100150000Y-96759523D01*
X100173809Y-96783333D01*
X100245238Y-96830952D01*
X100340476Y-96854761D01*
X100530952Y-96854761D01*
X100578571Y-96830952D01*
X100602380Y-96807142D01*
X100626190Y-96759523D01*
X100626190Y-96664285D01*
X100602380Y-96616666D01*
X100578571Y-96592857D01*
X100530952Y-96569047D01*
X100411904Y-96569047D01*
X100364285Y-96592857D01*
X100340476Y-96616666D01*
X100316666Y-96664285D01*
X100316666Y-96759523D01*
X100340476Y-96807142D01*
X100364285Y-96830952D01*
X100411904Y-96854761D01*
D12*
%TO.C,C6*%
X114190000Y-97832164D02*
X114190000Y-98047836D01*
X114910000Y-97832164D02*
X114910000Y-98047836D01*
%TO.C,J2*%
X118650000Y-98010000D02*
X119710000Y-98010000D01*
X115590000Y-98010000D02*
X115590000Y-100130000D01*
X117650000Y-98010000D02*
X115590000Y-98010000D01*
X117650000Y-98010000D02*
X117650000Y-100130000D01*
X119710000Y-98010000D02*
X119710000Y-99070000D01*
X117650000Y-100130000D02*
X115590000Y-100130000D01*
%TO.C,C14*%
X122330348Y-99149302D02*
X122114676Y-99149302D01*
X122330348Y-99869302D02*
X122114676Y-99869302D01*
%TO.C,R2*%
X120650000Y-93783641D02*
X120650000Y-93476359D01*
X119890000Y-93783641D02*
X119890000Y-93476359D01*
%TO.C,C4*%
X116503978Y-88426802D02*
X116719650Y-88426802D01*
X116503978Y-87706802D02*
X116719650Y-87706802D01*
%TO.C,HSE1*%
X120301814Y-98809302D02*
X123501814Y-98809302D01*
X123501814Y-98809302D02*
X123501814Y-94809302D01*
%TO.C,C10*%
X120603978Y-91076802D02*
X120819650Y-91076802D01*
X120603978Y-90356802D02*
X120819650Y-90356802D01*
%TO.C,R4*%
X105968173Y-92509302D02*
X106275455Y-92509302D01*
X105968173Y-91749302D02*
X106275455Y-91749302D01*
D13*
%TO.C,U2*%
X118611814Y-89316802D02*
X118131814Y-89316802D01*
X118611814Y-96316802D02*
X118611814Y-95836802D01*
X118611814Y-96316802D02*
X118131814Y-96316802D01*
X111611814Y-89316802D02*
X111611814Y-89796802D01*
X111611814Y-96316802D02*
X111611814Y-95836802D01*
X111611814Y-89316802D02*
X112091814Y-89316802D01*
X118611814Y-89316802D02*
X118611814Y-89796802D01*
X111611814Y-96316802D02*
X112091814Y-96316802D01*
D14*
X111020814Y-97007802D02*
G75*
G03*
X111020814Y-97007802I-100000J0D01*
G01*
D12*
%TO.C,C15*%
X121793978Y-94469302D02*
X122009650Y-94469302D01*
X121793978Y-93749302D02*
X122009650Y-93749302D01*
%TO.C,C11*%
X109619650Y-90799302D02*
X109403978Y-90799302D01*
X109619650Y-90079302D02*
X109403978Y-90079302D01*
%TO.C,R3*%
X105968173Y-91259302D02*
X106275455Y-91259302D01*
X105968173Y-90499302D02*
X106275455Y-90499302D01*
%TO.C,C2*%
X109619650Y-87779302D02*
X109403978Y-87779302D01*
X109619650Y-88499302D02*
X109403978Y-88499302D01*
%TO.C,C8*%
X109619650Y-89649302D02*
X109403978Y-89649302D01*
X109619650Y-88929302D02*
X109403978Y-88929302D01*
%TO.C,U3*%
X102916814Y-94934302D02*
X102916814Y-95194302D01*
X108366814Y-94934302D02*
X108366814Y-95194302D01*
X108366814Y-100124302D02*
X110041814Y-100124302D01*
X105641814Y-94934302D02*
X108366814Y-94934302D01*
X105641814Y-94934302D02*
X102916814Y-94934302D01*
X105641814Y-100384302D02*
X102916814Y-100384302D01*
X105641814Y-100384302D02*
X108366814Y-100384302D01*
X102916814Y-100384302D02*
X102916814Y-100124302D01*
X108366814Y-100384302D02*
X108366814Y-100124302D01*
%TO.C,R5*%
X114143641Y-99690000D02*
X113836359Y-99690000D01*
X114143641Y-100450000D02*
X113836359Y-100450000D01*
%TO.C,C7*%
X112853978Y-97926802D02*
X113069650Y-97926802D01*
X112853978Y-97206802D02*
X113069650Y-97206802D01*
%TO.C,C5*%
X120722164Y-92176802D02*
X120937836Y-92176802D01*
X120722164Y-91456802D02*
X120937836Y-91456802D01*
%TO.C,C1*%
X108439650Y-92109302D02*
X108223978Y-92109302D01*
X108439650Y-92829302D02*
X108223978Y-92829302D01*
%TO.C,C9*%
X108439650Y-93109302D02*
X108223978Y-93109302D01*
X108439650Y-93829302D02*
X108223978Y-93829302D01*
%TO.C,C3*%
X112953978Y-87706802D02*
X113169650Y-87706802D01*
X112953978Y-88426802D02*
X113169650Y-88426802D01*
%TO.C,C16*%
X100060000Y-99137836D02*
X100060000Y-98922164D01*
X100780000Y-99137836D02*
X100780000Y-98922164D01*
%TD*%
M02*
