%TF.GenerationSoftware,KiCad,Pcbnew,(6.0.7)*%
%TF.CreationDate,2022-08-26T01:09:57-07:00*%
%TF.ProjectId,RP2040_Injector,52503230-3430-45f4-996e-6a6563746f72,rev?*%
%TF.SameCoordinates,Original*%
%TF.FileFunction,Copper,L2,Bot*%
%TF.FilePolarity,Positive*%
%FSLAX46Y46*%
G04 Gerber Fmt 4.6, Leading zero omitted, Abs format (unit mm)*
G04 Created by KiCad (PCBNEW (6.0.7)) date 2022-08-26 01:09:57*
%MOMM*%
%LPD*%
G01*
G04 APERTURE LIST*
%TA.AperFunction,ComponentPad*%
%ADD10C,0.600000*%
%TD*%
%TA.AperFunction,ComponentPad*%
%ADD11R,1.508000X1.508000*%
%TD*%
%TA.AperFunction,ComponentPad*%
%ADD12C,1.508000*%
%TD*%
%TA.AperFunction,ComponentPad*%
%ADD13O,3.150000X1.575000*%
%TD*%
%TA.AperFunction,ComponentPad*%
%ADD14R,1.700000X1.700000*%
%TD*%
%TA.AperFunction,ComponentPad*%
%ADD15O,1.700000X1.700000*%
%TD*%
%TA.AperFunction,ViaPad*%
%ADD16C,0.800000*%
%TD*%
%TA.AperFunction,Conductor*%
%ADD17C,0.800000*%
%TD*%
%TA.AperFunction,Conductor*%
%ADD18C,0.200000*%
%TD*%
%TA.AperFunction,Conductor*%
%ADD19C,0.300000*%
%TD*%
G04 APERTURE END LIST*
D10*
%TO.P,,57*%
%TO.N,GND*%
X163800000Y-99875000D03*
%TD*%
%TO.P,,57*%
%TO.N,GND*%
X161250000Y-99875000D03*
%TD*%
%TO.P,,57*%
%TO.N,GND*%
X162525000Y-101150000D03*
%TD*%
%TO.P,,57*%
%TO.N,GND*%
X163800000Y-101150000D03*
%TD*%
D11*
%TO.P,J1,1,VCC*%
%TO.N,VCC*%
X129400000Y-104600000D03*
D12*
%TO.P,J1,2,D-*%
%TO.N,USB_DM*%
X129400000Y-102100000D03*
%TO.P,J1,3,D+*%
%TO.N,USB_DP*%
X129400000Y-100100000D03*
%TO.P,J1,4,GND*%
%TO.N,GND*%
X129400000Y-97600000D03*
D13*
%TO.P,J1,S1,SHIELD*%
X127300000Y-106800000D03*
%TO.P,J1,S2,SHIELD*%
X127300000Y-95400000D03*
%TD*%
D10*
%TO.P,,57*%
%TO.N,GND*%
X162525000Y-102425000D03*
%TD*%
%TO.P,,57*%
%TO.N,GND*%
X161250000Y-102425000D03*
%TD*%
D14*
%TO.P,J2,1,Pin_1*%
%TO.N,GND*%
X170970000Y-102875000D03*
D15*
%TO.P,J2,2,Pin_2*%
%TO.N,/~{USB_BOOT}*%
X170970000Y-105415000D03*
%TD*%
D10*
%TO.P,,57*%
%TO.N,GND*%
X162525000Y-99875000D03*
%TD*%
%TO.P,,57*%
%TO.N,GND*%
X163800000Y-102425000D03*
%TD*%
%TO.P,,57*%
%TO.N,GND*%
X161250000Y-101150000D03*
%TD*%
D16*
%TO.N,GND*%
X133300000Y-102000000D03*
X173150000Y-97750000D03*
X153000000Y-99800000D03*
X164550000Y-95400000D03*
X167380000Y-95340000D03*
X167250000Y-103310000D03*
X153000000Y-98700000D03*
X169350500Y-100290000D03*
X161800000Y-105950000D03*
X162330000Y-95400000D03*
X153890000Y-102600000D03*
X144400000Y-102950000D03*
X170300000Y-99200000D03*
X165530000Y-105950000D03*
%TO.N,USB_DP*%
X132900000Y-100100000D03*
%TO.N,/QSPI_CSN*%
X157060000Y-106890000D03*
X165530000Y-106949503D03*
%TO.N,+1V1*%
X156276750Y-99803250D03*
X164800000Y-99180000D03*
X167580000Y-98880000D03*
X160385498Y-100510000D03*
%TD*%
D17*
%TO.N,USB_DP*%
X132900000Y-100100000D02*
X129400000Y-100100000D01*
D18*
%TO.N,/QSPI_CSN*%
X157060000Y-106890000D02*
X165470497Y-106890000D01*
X165470497Y-106890000D02*
X165530000Y-106949503D01*
%TO.N,+1V1*%
X159678748Y-99803250D02*
X160385498Y-100510000D01*
X156276750Y-99803250D02*
X159678748Y-99803250D01*
D19*
X164800000Y-99180000D02*
X167280000Y-99180000D01*
X167280000Y-99180000D02*
X167580000Y-98880000D01*
%TD*%
%TA.AperFunction,Conductor*%
%TO.N,GND*%
G36*
X125924556Y-94319407D02*
G01*
X125960520Y-94368907D01*
X125960520Y-94430093D01*
X125921895Y-94480158D01*
X125922316Y-94480694D01*
X125920198Y-94482357D01*
X125919850Y-94482809D01*
X125918610Y-94483605D01*
X125762835Y-94605968D01*
X125756038Y-94612441D01*
X125626211Y-94762053D01*
X125620761Y-94769695D01*
X125521566Y-94941159D01*
X125517664Y-94949682D01*
X125452678Y-95136820D01*
X125450458Y-95145930D01*
X125437618Y-95234482D01*
X125439877Y-95247628D01*
X125440913Y-95248637D01*
X125446759Y-95250000D01*
X129153550Y-95250000D01*
X129166235Y-95245878D01*
X129168186Y-95243194D01*
X129167942Y-95241486D01*
X129121533Y-95048917D01*
X129118479Y-95040045D01*
X129036489Y-94859718D01*
X129031813Y-94851586D01*
X128917203Y-94690016D01*
X128911074Y-94682916D01*
X128767978Y-94545930D01*
X128760620Y-94540119D01*
X128671645Y-94482669D01*
X128633016Y-94435220D01*
X128629654Y-94374127D01*
X128662843Y-94322726D01*
X128725347Y-94300500D01*
X174010500Y-94300500D01*
X174068691Y-94319407D01*
X174104655Y-94368907D01*
X174109500Y-94399500D01*
X174109500Y-107800500D01*
X174090593Y-107858691D01*
X174041093Y-107894655D01*
X174010500Y-107899500D01*
X128733635Y-107899500D01*
X128675444Y-107880593D01*
X128639480Y-107831093D01*
X128639480Y-107769907D01*
X128678105Y-107719842D01*
X128677684Y-107719306D01*
X128679802Y-107717643D01*
X128680150Y-107717191D01*
X128681390Y-107716395D01*
X128837165Y-107594032D01*
X128843962Y-107587559D01*
X128973789Y-107437947D01*
X128979239Y-107430305D01*
X129078434Y-107258841D01*
X129082336Y-107250318D01*
X129147322Y-107063180D01*
X129149542Y-107054070D01*
X129162382Y-106965518D01*
X129160123Y-106952372D01*
X129159087Y-106951363D01*
X129153241Y-106950000D01*
X125446450Y-106950000D01*
X125433765Y-106954122D01*
X125431814Y-106956806D01*
X125432057Y-106958510D01*
X125478467Y-107151083D01*
X125481521Y-107159955D01*
X125563511Y-107340282D01*
X125568187Y-107348414D01*
X125682797Y-107509984D01*
X125688926Y-107517084D01*
X125832022Y-107654070D01*
X125839380Y-107659881D01*
X125928355Y-107717331D01*
X125966984Y-107764780D01*
X125970346Y-107825873D01*
X125937157Y-107877274D01*
X125874653Y-107899500D01*
X124849500Y-107899500D01*
X124791309Y-107880593D01*
X124755345Y-107831093D01*
X124750500Y-107800500D01*
X124750500Y-106890000D01*
X156454318Y-106890000D01*
X156474956Y-107046762D01*
X156535464Y-107192841D01*
X156631718Y-107318282D01*
X156757159Y-107414536D01*
X156903238Y-107475044D01*
X157060000Y-107495682D01*
X157216762Y-107475044D01*
X157362841Y-107414536D01*
X157488282Y-107318282D01*
X157556613Y-107229232D01*
X157607037Y-107194577D01*
X157635154Y-107190500D01*
X164913698Y-107190500D01*
X164971889Y-107209407D01*
X164997560Y-107241985D01*
X164999736Y-107240729D01*
X165002981Y-107246349D01*
X165005464Y-107252344D01*
X165101718Y-107377785D01*
X165227159Y-107474039D01*
X165373238Y-107534547D01*
X165530000Y-107555185D01*
X165686762Y-107534547D01*
X165832841Y-107474039D01*
X165958282Y-107377785D01*
X166054536Y-107252344D01*
X166115044Y-107106265D01*
X166135682Y-106949503D01*
X166115044Y-106792741D01*
X166054536Y-106646662D01*
X165958282Y-106521221D01*
X165832841Y-106424967D01*
X165686762Y-106364459D01*
X165530000Y-106343821D01*
X165373238Y-106364459D01*
X165227159Y-106424967D01*
X165101718Y-106521221D01*
X165079045Y-106550769D01*
X165028623Y-106585423D01*
X165000505Y-106589500D01*
X157635154Y-106589500D01*
X157576963Y-106570593D01*
X157556612Y-106550768D01*
X157488282Y-106461718D01*
X157362841Y-106365464D01*
X157216762Y-106304956D01*
X157060000Y-106284318D01*
X156903238Y-106304956D01*
X156757159Y-106365464D01*
X156631718Y-106461718D01*
X156535464Y-106587159D01*
X156474956Y-106733238D01*
X156454318Y-106890000D01*
X124750500Y-106890000D01*
X124750500Y-106634482D01*
X125437618Y-106634482D01*
X125439877Y-106647628D01*
X125440913Y-106648637D01*
X125446759Y-106650000D01*
X127134320Y-106650000D01*
X127147005Y-106645878D01*
X127150000Y-106641757D01*
X127150000Y-106634320D01*
X127450000Y-106634320D01*
X127454122Y-106647005D01*
X127458243Y-106650000D01*
X129153550Y-106650000D01*
X129166235Y-106645878D01*
X129168186Y-106643194D01*
X129167942Y-106641486D01*
X129121533Y-106448917D01*
X129118479Y-106440045D01*
X129036489Y-106259718D01*
X129031813Y-106251586D01*
X128917203Y-106090016D01*
X128911074Y-106082916D01*
X128767978Y-105945930D01*
X128760616Y-105940116D01*
X128594203Y-105832665D01*
X128585874Y-105828348D01*
X128402146Y-105754303D01*
X128393148Y-105751637D01*
X128197599Y-105713449D01*
X128190546Y-105712593D01*
X128189866Y-105712560D01*
X128187419Y-105712500D01*
X127465680Y-105712500D01*
X127452995Y-105716622D01*
X127450000Y-105720743D01*
X127450000Y-106634320D01*
X127150000Y-106634320D01*
X127150000Y-105728180D01*
X127145878Y-105715495D01*
X127141757Y-105712500D01*
X126463009Y-105712500D01*
X126458295Y-105712725D01*
X126310618Y-105726814D01*
X126301397Y-105728590D01*
X126111324Y-105784351D01*
X126102612Y-105787835D01*
X125926500Y-105878539D01*
X125918613Y-105883603D01*
X125762835Y-106005968D01*
X125756038Y-106012441D01*
X125626211Y-106162053D01*
X125620761Y-106169695D01*
X125521566Y-106341159D01*
X125517664Y-106349682D01*
X125452678Y-106536820D01*
X125450458Y-106545930D01*
X125437618Y-106634482D01*
X124750500Y-106634482D01*
X124750500Y-105373748D01*
X128445500Y-105373748D01*
X128446448Y-105378512D01*
X128454258Y-105417776D01*
X128457133Y-105432231D01*
X128501448Y-105498552D01*
X128567769Y-105542867D01*
X128577332Y-105544769D01*
X128577334Y-105544770D01*
X128600005Y-105549279D01*
X128626252Y-105554500D01*
X130173748Y-105554500D01*
X130199995Y-105549279D01*
X130222666Y-105544770D01*
X130222668Y-105544769D01*
X130232231Y-105542867D01*
X130298552Y-105498552D01*
X130342867Y-105432231D01*
X130345743Y-105417776D01*
X130349226Y-105400262D01*
X169914520Y-105400262D01*
X169931759Y-105605553D01*
X169933092Y-105610201D01*
X169933092Y-105610202D01*
X169966922Y-105728180D01*
X169988544Y-105803586D01*
X169990759Y-105807896D01*
X170007132Y-105839755D01*
X170082712Y-105986818D01*
X170210677Y-106148270D01*
X170214357Y-106151402D01*
X170214359Y-106151404D01*
X170327017Y-106247283D01*
X170367564Y-106281791D01*
X170371787Y-106284151D01*
X170371791Y-106284154D01*
X170411342Y-106306258D01*
X170547398Y-106382297D01*
X170551996Y-106383791D01*
X170738724Y-106444463D01*
X170738726Y-106444464D01*
X170743329Y-106445959D01*
X170947894Y-106470351D01*
X170952716Y-106469980D01*
X170952719Y-106469980D01*
X171020541Y-106464761D01*
X171153300Y-106454546D01*
X171351725Y-106399145D01*
X171356038Y-106396966D01*
X171356044Y-106396964D01*
X171531289Y-106308441D01*
X171531291Y-106308440D01*
X171535610Y-106306258D01*
X171595179Y-106259718D01*
X171694135Y-106182406D01*
X171694139Y-106182402D01*
X171697951Y-106179424D01*
X171832564Y-106023472D01*
X171834957Y-106019260D01*
X171931934Y-105848550D01*
X171931935Y-105848547D01*
X171934323Y-105844344D01*
X171938209Y-105832665D01*
X171997824Y-105653454D01*
X171997824Y-105653452D01*
X171999351Y-105648863D01*
X172011392Y-105553552D01*
X172024823Y-105447228D01*
X172025171Y-105444474D01*
X172025583Y-105415000D01*
X172023667Y-105395454D01*
X172005952Y-105214780D01*
X172005951Y-105214776D01*
X172005480Y-105209970D01*
X171945935Y-105012749D01*
X171849218Y-104830849D01*
X171719011Y-104671200D01*
X171560275Y-104539882D01*
X171379055Y-104441897D01*
X171315855Y-104422333D01*
X171186875Y-104382407D01*
X171186871Y-104382406D01*
X171182254Y-104380977D01*
X171177446Y-104380472D01*
X171177443Y-104380471D01*
X170982185Y-104359949D01*
X170982183Y-104359949D01*
X170977369Y-104359443D01*
X170917354Y-104364905D01*
X170777022Y-104377675D01*
X170777017Y-104377676D01*
X170772203Y-104378114D01*
X170574572Y-104436280D01*
X170570288Y-104438519D01*
X170570287Y-104438520D01*
X170559428Y-104444197D01*
X170392002Y-104531726D01*
X170388231Y-104534758D01*
X170235220Y-104657781D01*
X170235217Y-104657783D01*
X170231447Y-104660815D01*
X170228333Y-104664526D01*
X170228332Y-104664527D01*
X170219585Y-104674952D01*
X170099024Y-104818630D01*
X170096689Y-104822878D01*
X170096688Y-104822879D01*
X170089955Y-104835126D01*
X169999776Y-104999162D01*
X169937484Y-105195532D01*
X169936944Y-105200344D01*
X169936944Y-105200345D01*
X169916960Y-105378512D01*
X169914520Y-105400262D01*
X130349226Y-105400262D01*
X130353552Y-105378512D01*
X130354500Y-105373748D01*
X130354500Y-103826252D01*
X130349279Y-103800005D01*
X130344770Y-103777334D01*
X130344769Y-103777332D01*
X130342867Y-103767769D01*
X130342112Y-103766639D01*
X169820000Y-103766639D01*
X169820346Y-103772485D01*
X169822234Y-103788353D01*
X169826128Y-103802519D01*
X169864770Y-103889514D01*
X169874946Y-103904321D01*
X169941108Y-103970367D01*
X169955931Y-103980517D01*
X170042980Y-104019000D01*
X170057185Y-104022873D01*
X170072580Y-104024668D01*
X170078292Y-104025000D01*
X170804320Y-104025000D01*
X170817005Y-104020878D01*
X170820000Y-104016757D01*
X170820000Y-104009320D01*
X171120000Y-104009320D01*
X171124122Y-104022005D01*
X171128243Y-104025000D01*
X171861639Y-104025000D01*
X171867485Y-104024654D01*
X171883353Y-104022766D01*
X171897519Y-104018872D01*
X171984514Y-103980230D01*
X171999321Y-103970054D01*
X172065367Y-103903892D01*
X172075517Y-103889069D01*
X172114000Y-103802020D01*
X172117873Y-103787815D01*
X172119668Y-103772420D01*
X172120000Y-103766708D01*
X172120000Y-103040680D01*
X172115878Y-103027995D01*
X172111757Y-103025000D01*
X171135680Y-103025000D01*
X171122995Y-103029122D01*
X171120000Y-103033243D01*
X171120000Y-104009320D01*
X170820000Y-104009320D01*
X170820000Y-103040680D01*
X170815878Y-103027995D01*
X170811757Y-103025000D01*
X169835680Y-103025000D01*
X169822995Y-103029122D01*
X169820000Y-103033243D01*
X169820000Y-103766639D01*
X130342112Y-103766639D01*
X130298552Y-103701448D01*
X130232231Y-103657133D01*
X130222668Y-103655231D01*
X130222666Y-103655230D01*
X130199995Y-103650721D01*
X130173748Y-103645500D01*
X128626252Y-103645500D01*
X128600005Y-103650721D01*
X128577334Y-103655230D01*
X128577332Y-103655231D01*
X128567769Y-103657133D01*
X128501448Y-103701448D01*
X128457133Y-103767769D01*
X128455231Y-103777332D01*
X128455230Y-103777334D01*
X128450721Y-103800005D01*
X128445500Y-103826252D01*
X128445500Y-105373748D01*
X124750500Y-105373748D01*
X124750500Y-103300840D01*
X126420711Y-103300840D01*
X126430667Y-103490801D01*
X126432090Y-103495967D01*
X126479757Y-103669025D01*
X126479759Y-103669029D01*
X126481181Y-103674193D01*
X126569898Y-103842460D01*
X126692678Y-103987751D01*
X126696937Y-103991007D01*
X126839531Y-104100029D01*
X126839534Y-104100031D01*
X126843793Y-104103287D01*
X127016193Y-104183678D01*
X127021424Y-104184847D01*
X127021426Y-104184848D01*
X127109896Y-104204623D01*
X127201834Y-104225174D01*
X127206054Y-104225410D01*
X127206279Y-104225423D01*
X127206296Y-104225423D01*
X127207665Y-104225500D01*
X127347517Y-104225500D01*
X127378287Y-104222157D01*
X127483784Y-104210697D01*
X127483789Y-104210696D01*
X127489109Y-104210118D01*
X127669396Y-104149445D01*
X127832447Y-104051474D01*
X127918547Y-103970054D01*
X127966762Y-103924460D01*
X127966765Y-103924456D01*
X127970658Y-103920775D01*
X128051363Y-103802020D01*
X128074565Y-103767880D01*
X128074566Y-103767878D01*
X128077578Y-103763446D01*
X128117933Y-103662552D01*
X128146230Y-103591806D01*
X128146231Y-103591802D01*
X128148221Y-103586827D01*
X128179289Y-103399160D01*
X128169333Y-103209199D01*
X128144340Y-103118462D01*
X128120243Y-103030975D01*
X128120241Y-103030971D01*
X128118819Y-103025807D01*
X128030102Y-102857540D01*
X127920641Y-102728010D01*
X127910782Y-102716343D01*
X127910780Y-102716341D01*
X127907322Y-102712249D01*
X127858114Y-102674627D01*
X127760469Y-102599971D01*
X127760466Y-102599969D01*
X127756207Y-102596713D01*
X127583807Y-102516322D01*
X127578576Y-102515153D01*
X127578574Y-102515152D01*
X127485350Y-102494314D01*
X127398166Y-102474826D01*
X127393946Y-102474590D01*
X127393721Y-102474577D01*
X127393704Y-102474577D01*
X127392335Y-102474500D01*
X127252483Y-102474500D01*
X127221713Y-102477843D01*
X127116216Y-102489303D01*
X127116211Y-102489304D01*
X127110891Y-102489882D01*
X126930604Y-102550555D01*
X126767553Y-102648526D01*
X126759086Y-102656533D01*
X126633238Y-102775540D01*
X126633235Y-102775544D01*
X126629342Y-102779225D01*
X126578902Y-102853446D01*
X126539114Y-102911993D01*
X126522422Y-102936554D01*
X126506429Y-102976539D01*
X126473484Y-103058908D01*
X126451779Y-103113173D01*
X126420711Y-103300840D01*
X124750500Y-103300840D01*
X124750500Y-102086609D01*
X128440975Y-102086609D01*
X128444580Y-102129533D01*
X128453536Y-102236183D01*
X128456639Y-102273139D01*
X128508235Y-102453075D01*
X128529429Y-102494314D01*
X128583729Y-102599971D01*
X128593797Y-102619562D01*
X128710068Y-102766259D01*
X128852618Y-102887579D01*
X128856840Y-102889939D01*
X128856845Y-102889942D01*
X128949152Y-102941530D01*
X129016018Y-102978900D01*
X129020616Y-102980394D01*
X129189438Y-103035248D01*
X129189440Y-103035249D01*
X129194043Y-103036744D01*
X129379914Y-103058908D01*
X129384736Y-103058537D01*
X129384739Y-103058537D01*
X129561721Y-103044919D01*
X129561726Y-103044918D01*
X129566549Y-103044547D01*
X129746841Y-102994209D01*
X129774190Y-102980394D01*
X129842626Y-102945824D01*
X160947137Y-102945824D01*
X160947418Y-102947598D01*
X160948259Y-102948610D01*
X160953409Y-102951584D01*
X161087375Y-103007073D01*
X161099800Y-103010403D01*
X161243566Y-103029330D01*
X161256434Y-103029330D01*
X161400200Y-103010403D01*
X161412625Y-103007073D01*
X161546591Y-102951584D01*
X161548115Y-102950703D01*
X161551468Y-102945824D01*
X162222137Y-102945824D01*
X162222418Y-102947598D01*
X162223259Y-102948610D01*
X162228409Y-102951584D01*
X162362375Y-103007073D01*
X162374800Y-103010403D01*
X162518566Y-103029330D01*
X162531434Y-103029330D01*
X162675200Y-103010403D01*
X162687625Y-103007073D01*
X162821591Y-102951584D01*
X162823115Y-102950703D01*
X162826468Y-102945824D01*
X163497137Y-102945824D01*
X163497418Y-102947598D01*
X163498259Y-102948610D01*
X163503409Y-102951584D01*
X163637375Y-103007073D01*
X163649800Y-103010403D01*
X163793566Y-103029330D01*
X163806434Y-103029330D01*
X163950200Y-103010403D01*
X163962625Y-103007073D01*
X164096591Y-102951584D01*
X164098115Y-102950703D01*
X164103010Y-102943581D01*
X164102962Y-102941782D01*
X164100077Y-102937209D01*
X163811086Y-102648218D01*
X163799203Y-102642164D01*
X163794172Y-102642960D01*
X163503191Y-102933941D01*
X163497137Y-102945824D01*
X162826468Y-102945824D01*
X162828010Y-102943581D01*
X162827962Y-102941782D01*
X162825077Y-102937209D01*
X162536086Y-102648218D01*
X162524203Y-102642164D01*
X162519172Y-102642960D01*
X162228191Y-102933941D01*
X162222137Y-102945824D01*
X161551468Y-102945824D01*
X161553010Y-102943581D01*
X161552962Y-102941782D01*
X161550077Y-102937209D01*
X161261086Y-102648218D01*
X161249203Y-102642164D01*
X161244172Y-102642960D01*
X160953191Y-102933941D01*
X160947137Y-102945824D01*
X129842626Y-102945824D01*
X129909600Y-102911993D01*
X129909602Y-102911992D01*
X129913921Y-102909810D01*
X129939351Y-102889942D01*
X130057612Y-102797547D01*
X130057614Y-102797545D01*
X130061427Y-102794566D01*
X130183738Y-102652867D01*
X130260019Y-102518588D01*
X130273809Y-102494314D01*
X130273810Y-102494311D01*
X130276198Y-102490108D01*
X130295716Y-102431434D01*
X160645670Y-102431434D01*
X160664597Y-102575200D01*
X160667927Y-102587625D01*
X160723416Y-102721588D01*
X160724296Y-102723112D01*
X160731421Y-102728010D01*
X160733216Y-102727963D01*
X160737793Y-102725075D01*
X161026782Y-102436086D01*
X161032024Y-102425797D01*
X161467164Y-102425797D01*
X161467960Y-102430828D01*
X161758941Y-102721809D01*
X161770824Y-102727863D01*
X161772596Y-102727583D01*
X161773610Y-102726739D01*
X161776584Y-102721588D01*
X161796036Y-102674627D01*
X161835772Y-102628101D01*
X161895267Y-102613817D01*
X161951795Y-102637232D01*
X161978964Y-102674627D01*
X161998416Y-102721588D01*
X161999296Y-102723112D01*
X162006421Y-102728010D01*
X162008216Y-102727963D01*
X162012793Y-102725075D01*
X162301782Y-102436086D01*
X162307024Y-102425797D01*
X162742164Y-102425797D01*
X162742960Y-102430828D01*
X163033941Y-102721809D01*
X163045824Y-102727863D01*
X163047596Y-102727583D01*
X163048610Y-102726739D01*
X163051584Y-102721588D01*
X163071036Y-102674627D01*
X163110772Y-102628101D01*
X163170267Y-102613817D01*
X163226795Y-102637232D01*
X163253964Y-102674627D01*
X163273416Y-102721588D01*
X163274296Y-102723112D01*
X163281421Y-102728010D01*
X163283216Y-102727963D01*
X163287793Y-102725075D01*
X163576782Y-102436086D01*
X163582024Y-102425797D01*
X164017164Y-102425797D01*
X164017960Y-102430828D01*
X164308941Y-102721809D01*
X164320824Y-102727863D01*
X164322596Y-102727583D01*
X164323610Y-102726739D01*
X164326584Y-102721588D01*
X164331666Y-102709320D01*
X169820000Y-102709320D01*
X169824122Y-102722005D01*
X169828243Y-102725000D01*
X170804320Y-102725000D01*
X170817005Y-102720878D01*
X170820000Y-102716757D01*
X170820000Y-102709320D01*
X171120000Y-102709320D01*
X171124122Y-102722005D01*
X171128243Y-102725000D01*
X172104320Y-102725000D01*
X172117005Y-102720878D01*
X172120000Y-102716757D01*
X172120000Y-101983361D01*
X172119654Y-101977515D01*
X172117766Y-101961647D01*
X172113872Y-101947481D01*
X172075230Y-101860486D01*
X172065054Y-101845679D01*
X171998892Y-101779633D01*
X171984069Y-101769483D01*
X171897020Y-101731000D01*
X171882815Y-101727127D01*
X171867420Y-101725332D01*
X171861708Y-101725000D01*
X171135680Y-101725000D01*
X171122995Y-101729122D01*
X171120000Y-101733243D01*
X171120000Y-102709320D01*
X170820000Y-102709320D01*
X170820000Y-101740680D01*
X170815878Y-101727995D01*
X170811757Y-101725000D01*
X170078361Y-101725000D01*
X170072515Y-101725346D01*
X170056647Y-101727234D01*
X170042481Y-101731128D01*
X169955486Y-101769770D01*
X169940679Y-101779946D01*
X169874633Y-101846108D01*
X169864483Y-101860931D01*
X169826000Y-101947980D01*
X169822127Y-101962185D01*
X169820332Y-101977580D01*
X169820000Y-101983292D01*
X169820000Y-102709320D01*
X164331666Y-102709320D01*
X164382073Y-102587625D01*
X164385403Y-102575200D01*
X164404330Y-102431434D01*
X164404330Y-102418566D01*
X164385403Y-102274800D01*
X164382073Y-102262375D01*
X164326584Y-102128412D01*
X164325704Y-102126888D01*
X164318579Y-102121990D01*
X164316784Y-102122037D01*
X164312207Y-102124925D01*
X164023218Y-102413914D01*
X164017164Y-102425797D01*
X163582024Y-102425797D01*
X163582836Y-102424203D01*
X163582040Y-102419172D01*
X163291059Y-102128191D01*
X163279176Y-102122137D01*
X163277404Y-102122417D01*
X163276390Y-102123261D01*
X163273416Y-102128412D01*
X163253964Y-102175373D01*
X163214228Y-102221899D01*
X163154733Y-102236183D01*
X163098205Y-102212768D01*
X163071036Y-102175373D01*
X163051584Y-102128412D01*
X163050704Y-102126888D01*
X163043579Y-102121990D01*
X163041784Y-102122037D01*
X163037207Y-102124925D01*
X162748218Y-102413914D01*
X162742164Y-102425797D01*
X162307024Y-102425797D01*
X162307836Y-102424203D01*
X162307040Y-102419172D01*
X162016059Y-102128191D01*
X162004176Y-102122137D01*
X162002404Y-102122417D01*
X162001390Y-102123261D01*
X161998416Y-102128412D01*
X161978964Y-102175373D01*
X161939228Y-102221899D01*
X161879733Y-102236183D01*
X161823205Y-102212768D01*
X161796036Y-102175373D01*
X161776584Y-102128412D01*
X161775704Y-102126888D01*
X161768579Y-102121990D01*
X161766784Y-102122037D01*
X161762207Y-102124925D01*
X161473218Y-102413914D01*
X161467164Y-102425797D01*
X161032024Y-102425797D01*
X161032836Y-102424203D01*
X161032040Y-102419172D01*
X160741059Y-102128191D01*
X160729176Y-102122137D01*
X160727404Y-102122417D01*
X160726390Y-102123261D01*
X160723416Y-102128412D01*
X160667927Y-102262375D01*
X160664597Y-102274800D01*
X160645670Y-102418566D01*
X160645670Y-102431434D01*
X130295716Y-102431434D01*
X130335283Y-102312491D01*
X130340255Y-102273139D01*
X130358396Y-102129533D01*
X130358744Y-102126780D01*
X130359118Y-102100000D01*
X130347115Y-101977580D01*
X130341324Y-101918516D01*
X130341323Y-101918512D01*
X130340852Y-101913706D01*
X130339455Y-101909078D01*
X130338653Y-101906421D01*
X160946990Y-101906421D01*
X160947037Y-101908216D01*
X160949925Y-101912793D01*
X161238914Y-102201782D01*
X161250797Y-102207836D01*
X161255828Y-102207040D01*
X161546809Y-101916059D01*
X161551719Y-101906421D01*
X162221990Y-101906421D01*
X162222037Y-101908216D01*
X162224925Y-101912793D01*
X162513914Y-102201782D01*
X162525797Y-102207836D01*
X162530828Y-102207040D01*
X162821809Y-101916059D01*
X162826719Y-101906421D01*
X163496990Y-101906421D01*
X163497037Y-101908216D01*
X163499925Y-101912793D01*
X163788914Y-102201782D01*
X163800797Y-102207836D01*
X163805828Y-102207040D01*
X164096809Y-101916059D01*
X164102863Y-101904176D01*
X164102582Y-101902402D01*
X164101741Y-101901390D01*
X164096591Y-101898416D01*
X164049628Y-101878964D01*
X164003102Y-101839228D01*
X163988818Y-101779733D01*
X164012233Y-101723205D01*
X164049628Y-101696036D01*
X164096591Y-101676584D01*
X164098115Y-101675703D01*
X164103010Y-101668581D01*
X164102962Y-101666782D01*
X164100077Y-101662209D01*
X163811086Y-101373218D01*
X163799203Y-101367164D01*
X163794172Y-101367960D01*
X163503191Y-101658941D01*
X163497137Y-101670824D01*
X163497418Y-101672598D01*
X163498259Y-101673610D01*
X163503409Y-101676583D01*
X163550373Y-101696036D01*
X163596899Y-101735772D01*
X163611183Y-101795267D01*
X163587769Y-101851795D01*
X163550373Y-101878964D01*
X163503412Y-101898416D01*
X163501888Y-101899296D01*
X163496990Y-101906421D01*
X162826719Y-101906421D01*
X162827863Y-101904176D01*
X162827582Y-101902402D01*
X162826741Y-101901390D01*
X162821591Y-101898416D01*
X162774628Y-101878964D01*
X162728102Y-101839228D01*
X162713818Y-101779733D01*
X162737233Y-101723205D01*
X162774628Y-101696036D01*
X162821591Y-101676584D01*
X162823115Y-101675703D01*
X162828010Y-101668581D01*
X162827962Y-101666782D01*
X162825077Y-101662209D01*
X162536086Y-101373218D01*
X162524203Y-101367164D01*
X162519172Y-101367960D01*
X162228191Y-101658941D01*
X162222137Y-101670824D01*
X162222418Y-101672598D01*
X162223259Y-101673610D01*
X162228409Y-101676583D01*
X162275373Y-101696036D01*
X162321899Y-101735772D01*
X162336183Y-101795267D01*
X162312769Y-101851795D01*
X162275373Y-101878964D01*
X162228412Y-101898416D01*
X162226888Y-101899296D01*
X162221990Y-101906421D01*
X161551719Y-101906421D01*
X161552863Y-101904176D01*
X161552582Y-101902402D01*
X161551741Y-101901390D01*
X161546591Y-101898416D01*
X161499628Y-101878964D01*
X161453102Y-101839228D01*
X161438818Y-101779733D01*
X161462233Y-101723205D01*
X161499628Y-101696036D01*
X161546591Y-101676584D01*
X161548115Y-101675703D01*
X161553010Y-101668581D01*
X161552962Y-101666782D01*
X161550077Y-101662209D01*
X161261086Y-101373218D01*
X161249203Y-101367164D01*
X161244172Y-101367960D01*
X160953191Y-101658941D01*
X160947137Y-101670824D01*
X160947418Y-101672598D01*
X160948259Y-101673610D01*
X160953409Y-101676583D01*
X161000373Y-101696036D01*
X161046899Y-101735772D01*
X161061183Y-101795267D01*
X161037769Y-101851795D01*
X161000373Y-101878964D01*
X160953412Y-101898416D01*
X160951888Y-101899296D01*
X160946990Y-101906421D01*
X130338653Y-101906421D01*
X130288148Y-101739141D01*
X130288146Y-101739136D01*
X130286749Y-101734509D01*
X130198870Y-101569232D01*
X130080562Y-101424173D01*
X130018968Y-101373218D01*
X129940059Y-101307938D01*
X129940057Y-101307937D01*
X129936332Y-101304855D01*
X129771673Y-101215824D01*
X129743268Y-101207031D01*
X129704815Y-101195128D01*
X129654818Y-101159858D01*
X129635100Y-101101937D01*
X129653193Y-101043488D01*
X129707468Y-101005202D01*
X129742178Y-100995511D01*
X129742179Y-100995511D01*
X129746841Y-100994209D01*
X129774190Y-100980394D01*
X129909600Y-100911993D01*
X129909602Y-100911992D01*
X129913921Y-100909810D01*
X129939351Y-100889942D01*
X130057611Y-100797548D01*
X130057615Y-100797545D01*
X130061427Y-100794566D01*
X130113005Y-100734812D01*
X130165341Y-100703116D01*
X130187948Y-100700500D01*
X132854151Y-100700500D01*
X132867072Y-100701347D01*
X132900000Y-100705682D01*
X132932928Y-100701347D01*
X132939361Y-100700500D01*
X133056762Y-100685044D01*
X133202841Y-100624536D01*
X133328282Y-100528282D01*
X133424536Y-100402841D01*
X133485044Y-100256762D01*
X133505682Y-100100000D01*
X133485044Y-99943238D01*
X133427059Y-99803250D01*
X155671068Y-99803250D01*
X155691706Y-99960012D01*
X155752214Y-100106091D01*
X155848468Y-100231532D01*
X155973909Y-100327786D01*
X156119988Y-100388294D01*
X156230484Y-100402841D01*
X156269595Y-100407990D01*
X156276750Y-100408932D01*
X156283906Y-100407990D01*
X156323016Y-100402841D01*
X156433512Y-100388294D01*
X156579591Y-100327786D01*
X156705032Y-100231532D01*
X156773363Y-100142482D01*
X156823787Y-100107827D01*
X156851904Y-100103750D01*
X159513269Y-100103750D01*
X159571460Y-100122657D01*
X159583273Y-100132746D01*
X159766318Y-100315791D01*
X159794095Y-100370308D01*
X159794467Y-100398714D01*
X159779816Y-100510000D01*
X159800454Y-100666762D01*
X159802938Y-100672759D01*
X159812169Y-100695046D01*
X159860962Y-100812841D01*
X159957216Y-100938282D01*
X160082657Y-101034536D01*
X160228736Y-101095044D01*
X160385498Y-101115682D01*
X160391932Y-101114835D01*
X160537811Y-101095630D01*
X160597972Y-101106780D01*
X160640089Y-101151163D01*
X160648886Y-101180861D01*
X160664597Y-101300200D01*
X160667927Y-101312625D01*
X160723416Y-101446588D01*
X160724296Y-101448112D01*
X160731421Y-101453010D01*
X160733216Y-101452963D01*
X160737793Y-101450075D01*
X161037071Y-101150797D01*
X161467164Y-101150797D01*
X161467960Y-101155828D01*
X161758941Y-101446809D01*
X161770824Y-101452863D01*
X161772596Y-101452583D01*
X161773610Y-101451739D01*
X161776584Y-101446588D01*
X161796036Y-101399627D01*
X161835772Y-101353101D01*
X161895267Y-101338817D01*
X161951795Y-101362232D01*
X161978964Y-101399627D01*
X161998416Y-101446588D01*
X161999296Y-101448112D01*
X162006421Y-101453010D01*
X162008216Y-101452963D01*
X162012793Y-101450075D01*
X162301782Y-101161086D01*
X162307024Y-101150797D01*
X162742164Y-101150797D01*
X162742960Y-101155828D01*
X163033941Y-101446809D01*
X163045824Y-101452863D01*
X163047596Y-101452583D01*
X163048610Y-101451739D01*
X163051584Y-101446588D01*
X163071036Y-101399627D01*
X163110772Y-101353101D01*
X163170267Y-101338817D01*
X163226795Y-101362232D01*
X163253964Y-101399627D01*
X163273416Y-101446588D01*
X163274296Y-101448112D01*
X163281421Y-101453010D01*
X163283216Y-101452963D01*
X163287793Y-101450075D01*
X163576782Y-101161086D01*
X163582024Y-101150797D01*
X164017164Y-101150797D01*
X164017960Y-101155828D01*
X164308941Y-101446809D01*
X164320824Y-101452863D01*
X164322596Y-101452583D01*
X164323610Y-101451739D01*
X164326584Y-101446588D01*
X164382073Y-101312625D01*
X164385403Y-101300200D01*
X164404330Y-101156434D01*
X164404330Y-101143566D01*
X164385403Y-100999800D01*
X164382073Y-100987375D01*
X164326584Y-100853412D01*
X164325704Y-100851888D01*
X164318579Y-100846990D01*
X164316784Y-100847037D01*
X164312207Y-100849925D01*
X164023218Y-101138914D01*
X164017164Y-101150797D01*
X163582024Y-101150797D01*
X163582836Y-101149203D01*
X163582040Y-101144172D01*
X163291059Y-100853191D01*
X163279176Y-100847137D01*
X163277404Y-100847417D01*
X163276390Y-100848261D01*
X163273416Y-100853412D01*
X163253964Y-100900373D01*
X163214228Y-100946899D01*
X163154733Y-100961183D01*
X163098205Y-100937768D01*
X163071036Y-100900373D01*
X163051584Y-100853412D01*
X163050704Y-100851888D01*
X163043579Y-100846990D01*
X163041784Y-100847037D01*
X163037207Y-100849925D01*
X162748218Y-101138914D01*
X162742164Y-101150797D01*
X162307024Y-101150797D01*
X162307836Y-101149203D01*
X162307040Y-101144172D01*
X162016059Y-100853191D01*
X162004176Y-100847137D01*
X162002404Y-100847417D01*
X162001390Y-100848261D01*
X161998416Y-100853412D01*
X161978964Y-100900373D01*
X161939228Y-100946899D01*
X161879733Y-100961183D01*
X161823205Y-100937768D01*
X161796036Y-100900373D01*
X161776584Y-100853412D01*
X161775704Y-100851888D01*
X161768579Y-100846990D01*
X161766784Y-100847037D01*
X161762207Y-100849925D01*
X161473218Y-101138914D01*
X161467164Y-101150797D01*
X161037071Y-101150797D01*
X161546809Y-100641059D01*
X161551719Y-100631421D01*
X162221990Y-100631421D01*
X162222037Y-100633216D01*
X162224925Y-100637793D01*
X162513914Y-100926782D01*
X162525797Y-100932836D01*
X162530828Y-100932040D01*
X162821809Y-100641059D01*
X162826719Y-100631421D01*
X163496990Y-100631421D01*
X163497037Y-100633216D01*
X163499925Y-100637793D01*
X163788914Y-100926782D01*
X163800797Y-100932836D01*
X163805828Y-100932040D01*
X164096809Y-100641059D01*
X164102863Y-100629176D01*
X164102582Y-100627402D01*
X164101741Y-100626390D01*
X164096591Y-100623416D01*
X164049628Y-100603964D01*
X164003102Y-100564228D01*
X163988818Y-100504733D01*
X164012233Y-100448205D01*
X164049628Y-100421036D01*
X164096591Y-100401584D01*
X164098115Y-100400703D01*
X164103010Y-100393581D01*
X164102962Y-100391782D01*
X164100077Y-100387209D01*
X163811086Y-100098218D01*
X163799203Y-100092164D01*
X163794172Y-100092960D01*
X163503191Y-100383941D01*
X163497137Y-100395824D01*
X163497418Y-100397598D01*
X163498259Y-100398610D01*
X163503409Y-100401583D01*
X163550373Y-100421036D01*
X163596899Y-100460772D01*
X163611183Y-100520267D01*
X163587769Y-100576795D01*
X163550373Y-100603964D01*
X163503412Y-100623416D01*
X163501888Y-100624296D01*
X163496990Y-100631421D01*
X162826719Y-100631421D01*
X162827863Y-100629176D01*
X162827582Y-100627402D01*
X162826741Y-100626390D01*
X162821591Y-100623416D01*
X162774628Y-100603964D01*
X162728102Y-100564228D01*
X162713818Y-100504733D01*
X162737233Y-100448205D01*
X162774628Y-100421036D01*
X162821591Y-100401584D01*
X162823115Y-100400703D01*
X162828010Y-100393581D01*
X162827962Y-100391782D01*
X162825077Y-100387209D01*
X162536086Y-100098218D01*
X162524203Y-100092164D01*
X162519172Y-100092960D01*
X162228191Y-100383941D01*
X162222137Y-100395824D01*
X162222418Y-100397598D01*
X162223259Y-100398610D01*
X162228409Y-100401583D01*
X162275373Y-100421036D01*
X162321899Y-100460772D01*
X162336183Y-100520267D01*
X162312769Y-100576795D01*
X162275373Y-100603964D01*
X162228412Y-100623416D01*
X162226888Y-100624296D01*
X162221990Y-100631421D01*
X161551719Y-100631421D01*
X161552863Y-100629176D01*
X161552582Y-100627402D01*
X161551741Y-100626390D01*
X161546591Y-100623416D01*
X161499628Y-100603964D01*
X161453102Y-100564228D01*
X161438818Y-100504733D01*
X161462233Y-100448205D01*
X161499628Y-100421036D01*
X161546591Y-100401584D01*
X161548115Y-100400703D01*
X161553010Y-100393581D01*
X161552962Y-100391782D01*
X161550077Y-100387209D01*
X161038665Y-99875797D01*
X161467164Y-99875797D01*
X161467960Y-99880828D01*
X161758941Y-100171809D01*
X161770824Y-100177863D01*
X161772596Y-100177583D01*
X161773610Y-100176739D01*
X161776584Y-100171588D01*
X161796036Y-100124627D01*
X161835772Y-100078101D01*
X161895267Y-100063817D01*
X161951795Y-100087232D01*
X161978964Y-100124627D01*
X161998416Y-100171588D01*
X161999296Y-100173112D01*
X162006421Y-100178010D01*
X162008216Y-100177963D01*
X162012793Y-100175075D01*
X162301782Y-99886086D01*
X162307024Y-99875797D01*
X162742164Y-99875797D01*
X162742960Y-99880828D01*
X163033941Y-100171809D01*
X163045824Y-100177863D01*
X163047596Y-100177583D01*
X163048610Y-100176739D01*
X163051584Y-100171588D01*
X163071036Y-100124627D01*
X163110772Y-100078101D01*
X163170267Y-100063817D01*
X163226795Y-100087232D01*
X163253964Y-100124627D01*
X163273416Y-100171588D01*
X163274296Y-100173112D01*
X163281421Y-100178010D01*
X163283216Y-100177963D01*
X163287793Y-100175075D01*
X163576782Y-99886086D01*
X163582836Y-99874203D01*
X163582040Y-99869172D01*
X163291059Y-99578191D01*
X163279176Y-99572137D01*
X163277404Y-99572417D01*
X163276390Y-99573261D01*
X163273416Y-99578412D01*
X163253964Y-99625373D01*
X163214228Y-99671899D01*
X163154733Y-99686183D01*
X163098205Y-99662768D01*
X163071036Y-99625373D01*
X163051584Y-99578412D01*
X163050704Y-99576888D01*
X163043579Y-99571990D01*
X163041784Y-99572037D01*
X163037207Y-99574925D01*
X162748218Y-99863914D01*
X162742164Y-99875797D01*
X162307024Y-99875797D01*
X162307836Y-99874203D01*
X162307040Y-99869172D01*
X162016059Y-99578191D01*
X162004176Y-99572137D01*
X162002404Y-99572417D01*
X162001390Y-99573261D01*
X161998416Y-99578412D01*
X161978964Y-99625373D01*
X161939228Y-99671899D01*
X161879733Y-99686183D01*
X161823205Y-99662768D01*
X161796036Y-99625373D01*
X161776584Y-99578412D01*
X161775704Y-99576888D01*
X161768579Y-99571990D01*
X161766784Y-99572037D01*
X161762207Y-99574925D01*
X161473218Y-99863914D01*
X161467164Y-99875797D01*
X161038665Y-99875797D01*
X160741059Y-99578191D01*
X160729176Y-99572137D01*
X160727404Y-99572417D01*
X160726390Y-99573261D01*
X160723416Y-99578412D01*
X160667927Y-99712375D01*
X160664597Y-99724800D01*
X160649533Y-99839224D01*
X160623192Y-99894449D01*
X160569421Y-99923644D01*
X160538458Y-99924455D01*
X160391932Y-99905165D01*
X160385498Y-99904318D01*
X160274214Y-99918969D01*
X160214055Y-99907819D01*
X160191289Y-99890820D01*
X159929068Y-99628599D01*
X159926368Y-99625470D01*
X159924173Y-99620981D01*
X159907542Y-99605553D01*
X159887926Y-99587357D01*
X159885250Y-99584781D01*
X159871471Y-99571002D01*
X159867761Y-99568457D01*
X159863848Y-99565021D01*
X159848803Y-99551065D01*
X159842102Y-99544849D01*
X159831412Y-99540584D01*
X159812096Y-99530270D01*
X159810141Y-99528929D01*
X159810138Y-99528928D01*
X159802602Y-99523758D01*
X159776689Y-99517609D01*
X159762864Y-99513236D01*
X159744616Y-99505956D01*
X159744614Y-99505956D01*
X159738126Y-99503367D01*
X159731833Y-99502750D01*
X159725664Y-99502750D01*
X159702805Y-99500075D01*
X159702575Y-99500020D01*
X159702573Y-99500020D01*
X159693682Y-99497910D01*
X159664761Y-99501846D01*
X159651411Y-99502750D01*
X156851904Y-99502750D01*
X156793713Y-99483843D01*
X156773362Y-99464018D01*
X156772636Y-99463072D01*
X156705032Y-99374968D01*
X156680861Y-99356421D01*
X160946990Y-99356421D01*
X160947037Y-99358216D01*
X160949925Y-99362793D01*
X161238914Y-99651782D01*
X161250797Y-99657836D01*
X161255828Y-99657040D01*
X161546809Y-99366059D01*
X161551719Y-99356421D01*
X162221990Y-99356421D01*
X162222037Y-99358216D01*
X162224925Y-99362793D01*
X162513914Y-99651782D01*
X162525797Y-99657836D01*
X162530828Y-99657040D01*
X162821809Y-99366059D01*
X162826719Y-99356421D01*
X163496990Y-99356421D01*
X163497037Y-99358216D01*
X163499925Y-99362793D01*
X164308941Y-100171809D01*
X164320824Y-100177863D01*
X164322596Y-100177583D01*
X164323610Y-100176739D01*
X164326584Y-100171588D01*
X164382073Y-100037625D01*
X164385403Y-100025200D01*
X164404330Y-99881434D01*
X164404330Y-99868566D01*
X164398517Y-99824412D01*
X164409667Y-99764251D01*
X164454049Y-99722134D01*
X164514711Y-99714148D01*
X164534553Y-99720025D01*
X164643238Y-99765044D01*
X164800000Y-99785682D01*
X164956762Y-99765044D01*
X165102841Y-99704536D01*
X165228282Y-99608282D01*
X165258246Y-99569233D01*
X165308669Y-99534577D01*
X165336787Y-99530500D01*
X167232052Y-99530500D01*
X167252888Y-99532718D01*
X167254170Y-99532994D01*
X167263261Y-99534951D01*
X167295071Y-99531186D01*
X167300963Y-99530839D01*
X167300963Y-99530836D01*
X167305030Y-99530500D01*
X167309115Y-99530500D01*
X167313141Y-99529830D01*
X167313152Y-99529829D01*
X167327119Y-99527504D01*
X167331726Y-99526848D01*
X167354689Y-99524130D01*
X167371012Y-99522198D01*
X167371013Y-99522198D01*
X167379138Y-99521236D01*
X167386122Y-99517882D01*
X167387454Y-99517461D01*
X167395103Y-99516188D01*
X167437174Y-99493488D01*
X167441293Y-99491390D01*
X167453907Y-99485333D01*
X167509682Y-99476424D01*
X167580000Y-99485682D01*
X167595382Y-99483657D01*
X167618655Y-99480593D01*
X167736762Y-99465044D01*
X167882841Y-99404536D01*
X168008282Y-99308282D01*
X168104536Y-99182841D01*
X168165044Y-99036762D01*
X168185682Y-98880000D01*
X168165044Y-98723238D01*
X168104536Y-98577159D01*
X168008282Y-98451718D01*
X167882841Y-98355464D01*
X167736762Y-98294956D01*
X167580000Y-98274318D01*
X167423238Y-98294956D01*
X167277159Y-98355464D01*
X167151718Y-98451718D01*
X167055464Y-98577159D01*
X166994956Y-98723238D01*
X166994109Y-98729674D01*
X166992299Y-98743421D01*
X166965959Y-98798646D01*
X166912189Y-98827842D01*
X166894146Y-98829500D01*
X165336787Y-98829500D01*
X165278596Y-98810593D01*
X165258245Y-98790767D01*
X165232236Y-98756871D01*
X165228282Y-98751718D01*
X165102841Y-98655464D01*
X164956762Y-98594956D01*
X164800000Y-98574318D01*
X164643238Y-98594956D01*
X164497159Y-98655464D01*
X164371718Y-98751718D01*
X164275464Y-98877159D01*
X164214956Y-99023238D01*
X164205929Y-99091806D01*
X164196701Y-99161903D01*
X164194318Y-99180000D01*
X164195165Y-99186434D01*
X164195165Y-99186435D01*
X164201024Y-99230941D01*
X164189874Y-99291101D01*
X164145491Y-99333218D01*
X164084829Y-99341204D01*
X164064985Y-99335326D01*
X163962622Y-99292926D01*
X163950200Y-99289597D01*
X163806434Y-99270670D01*
X163793566Y-99270670D01*
X163649800Y-99289597D01*
X163637375Y-99292927D01*
X163503412Y-99348416D01*
X163501888Y-99349296D01*
X163496990Y-99356421D01*
X162826719Y-99356421D01*
X162827863Y-99354176D01*
X162827582Y-99352402D01*
X162826741Y-99351390D01*
X162821591Y-99348416D01*
X162687625Y-99292927D01*
X162675200Y-99289597D01*
X162531434Y-99270670D01*
X162518566Y-99270670D01*
X162374800Y-99289597D01*
X162362375Y-99292927D01*
X162228412Y-99348416D01*
X162226888Y-99349296D01*
X162221990Y-99356421D01*
X161551719Y-99356421D01*
X161552863Y-99354176D01*
X161552582Y-99352402D01*
X161551741Y-99351390D01*
X161546591Y-99348416D01*
X161412625Y-99292927D01*
X161400200Y-99289597D01*
X161256434Y-99270670D01*
X161243566Y-99270670D01*
X161099800Y-99289597D01*
X161087375Y-99292927D01*
X160953412Y-99348416D01*
X160951888Y-99349296D01*
X160946990Y-99356421D01*
X156680861Y-99356421D01*
X156579591Y-99278714D01*
X156433512Y-99218206D01*
X156276750Y-99197568D01*
X156119988Y-99218206D01*
X155973909Y-99278714D01*
X155848468Y-99374968D01*
X155752214Y-99500409D01*
X155691706Y-99646488D01*
X155671068Y-99803250D01*
X133427059Y-99803250D01*
X133424536Y-99797159D01*
X133328282Y-99671718D01*
X133202841Y-99575464D01*
X133056762Y-99514956D01*
X132968734Y-99503367D01*
X132927284Y-99497910D01*
X132906434Y-99495165D01*
X132900000Y-99494318D01*
X132867073Y-99498653D01*
X132854151Y-99499500D01*
X130189006Y-99499500D01*
X130130815Y-99480593D01*
X130112290Y-99463075D01*
X130080562Y-99424173D01*
X130065490Y-99411704D01*
X129940059Y-99307938D01*
X129940057Y-99307937D01*
X129936332Y-99304855D01*
X129799631Y-99230941D01*
X129775927Y-99218124D01*
X129775926Y-99218124D01*
X129771673Y-99215824D01*
X129592857Y-99160472D01*
X129588047Y-99159966D01*
X129588045Y-99159966D01*
X129411512Y-99141411D01*
X129411510Y-99141411D01*
X129406696Y-99140905D01*
X129347586Y-99146285D01*
X129225099Y-99157432D01*
X129225096Y-99157433D01*
X129220279Y-99157871D01*
X129215637Y-99159237D01*
X129215633Y-99159238D01*
X129045355Y-99209353D01*
X129045352Y-99209354D01*
X129040708Y-99210721D01*
X129021639Y-99220690D01*
X128879119Y-99295197D01*
X128879115Y-99295200D01*
X128874822Y-99297444D01*
X128871046Y-99300480D01*
X128871043Y-99300482D01*
X128801469Y-99356421D01*
X128728940Y-99414736D01*
X128725832Y-99418440D01*
X128611728Y-99554424D01*
X128611725Y-99554428D01*
X128608619Y-99558130D01*
X128518441Y-99722163D01*
X128516978Y-99726776D01*
X128516976Y-99726780D01*
X128494651Y-99797159D01*
X128461841Y-99900588D01*
X128461301Y-99905402D01*
X128441524Y-100081718D01*
X128440975Y-100086609D01*
X128444002Y-100122657D01*
X128455264Y-100256762D01*
X128456639Y-100273139D01*
X128508235Y-100453075D01*
X128537490Y-100510000D01*
X128585781Y-100603964D01*
X128593797Y-100619562D01*
X128710068Y-100766259D01*
X128852618Y-100887579D01*
X128856840Y-100889939D01*
X128856845Y-100889942D01*
X128950415Y-100942236D01*
X129016018Y-100978900D01*
X129020616Y-100980394D01*
X129097955Y-101005523D01*
X129147455Y-101041487D01*
X129166362Y-101099678D01*
X129147455Y-101157869D01*
X129095313Y-101194650D01*
X129045358Y-101209352D01*
X129045354Y-101209354D01*
X129040708Y-101210721D01*
X129003692Y-101230072D01*
X128879119Y-101295197D01*
X128879115Y-101295200D01*
X128874822Y-101297444D01*
X128871046Y-101300480D01*
X128871043Y-101300482D01*
X128780578Y-101373218D01*
X128728940Y-101414736D01*
X128725832Y-101418440D01*
X128611728Y-101554424D01*
X128611725Y-101554428D01*
X128608619Y-101558130D01*
X128518441Y-101722163D01*
X128516978Y-101726776D01*
X128516976Y-101726780D01*
X128500111Y-101779946D01*
X128461841Y-101900588D01*
X128440975Y-102086609D01*
X124750500Y-102086609D01*
X124750500Y-98800840D01*
X126420711Y-98800840D01*
X126430667Y-98990801D01*
X126432090Y-98995967D01*
X126479757Y-99169025D01*
X126479759Y-99169029D01*
X126481181Y-99174193D01*
X126569898Y-99342460D01*
X126601724Y-99380121D01*
X126688529Y-99482841D01*
X126692678Y-99487751D01*
X126737733Y-99522198D01*
X126839531Y-99600029D01*
X126839534Y-99600031D01*
X126843793Y-99603287D01*
X127016193Y-99683678D01*
X127021424Y-99684847D01*
X127021426Y-99684848D01*
X127091830Y-99700585D01*
X127201834Y-99725174D01*
X127206054Y-99725410D01*
X127206279Y-99725423D01*
X127206296Y-99725423D01*
X127207665Y-99725500D01*
X127347517Y-99725500D01*
X127378501Y-99722134D01*
X127483784Y-99710697D01*
X127483789Y-99710696D01*
X127489109Y-99710118D01*
X127669396Y-99649445D01*
X127832447Y-99551474D01*
X127902020Y-99485682D01*
X127966762Y-99424460D01*
X127966765Y-99424456D01*
X127970658Y-99420775D01*
X128047108Y-99308282D01*
X128074565Y-99267880D01*
X128074566Y-99267878D01*
X128077578Y-99263446D01*
X128118967Y-99159966D01*
X128146230Y-99091806D01*
X128146231Y-99091802D01*
X128148221Y-99086827D01*
X128155517Y-99042759D01*
X128178413Y-98904450D01*
X128179289Y-98899160D01*
X128171832Y-98756871D01*
X128169614Y-98714553D01*
X128169613Y-98714549D01*
X128169333Y-98709199D01*
X128148886Y-98634967D01*
X128120243Y-98530975D01*
X128120241Y-98530971D01*
X128118819Y-98525807D01*
X128076773Y-98446060D01*
X128771901Y-98446060D01*
X128772392Y-98449160D01*
X128774327Y-98451610D01*
X128791869Y-98466541D01*
X128799788Y-98472043D01*
X128971766Y-98568159D01*
X128980588Y-98572014D01*
X129167969Y-98632898D01*
X129177382Y-98634967D01*
X129373018Y-98658295D01*
X129382645Y-98658497D01*
X129579083Y-98643382D01*
X129588574Y-98641708D01*
X129778336Y-98588725D01*
X129787316Y-98585243D01*
X129963173Y-98496411D01*
X129971311Y-98491246D01*
X130019475Y-98453617D01*
X130026934Y-98442559D01*
X130026863Y-98440532D01*
X130024165Y-98436297D01*
X129411086Y-97823218D01*
X129399203Y-97817164D01*
X129394172Y-97817960D01*
X128777955Y-98434177D01*
X128771901Y-98446060D01*
X128076773Y-98446060D01*
X128030102Y-98357540D01*
X127919751Y-98226957D01*
X127910782Y-98216343D01*
X127910780Y-98216341D01*
X127907322Y-98212249D01*
X127823976Y-98148526D01*
X127760469Y-98099971D01*
X127760466Y-98099969D01*
X127756207Y-98096713D01*
X127583807Y-98016322D01*
X127578576Y-98015153D01*
X127578574Y-98015152D01*
X127484799Y-97994191D01*
X127398166Y-97974826D01*
X127393946Y-97974590D01*
X127393721Y-97974577D01*
X127393704Y-97974577D01*
X127392335Y-97974500D01*
X127252483Y-97974500D01*
X127221713Y-97977843D01*
X127116216Y-97989303D01*
X127116211Y-97989304D01*
X127110891Y-97989882D01*
X126930604Y-98050555D01*
X126767553Y-98148526D01*
X126736896Y-98177517D01*
X126633238Y-98275540D01*
X126633235Y-98275544D01*
X126629342Y-98279225D01*
X126522422Y-98436554D01*
X126517380Y-98449160D01*
X126458072Y-98597440D01*
X126451779Y-98613173D01*
X126450904Y-98618458D01*
X126450903Y-98618462D01*
X126436737Y-98704033D01*
X126420711Y-98800840D01*
X124750500Y-98800840D01*
X124750500Y-97590033D01*
X128341408Y-97590033D01*
X128357894Y-97786369D01*
X128359632Y-97795837D01*
X128413938Y-97985223D01*
X128417489Y-97994191D01*
X128507543Y-98169418D01*
X128512763Y-98177517D01*
X128546170Y-98219667D01*
X128557282Y-98227050D01*
X128559492Y-98226957D01*
X128563454Y-98224414D01*
X129176782Y-97611086D01*
X129182024Y-97600797D01*
X129617164Y-97600797D01*
X129617960Y-97605828D01*
X130234520Y-98222388D01*
X130246403Y-98228442D01*
X130249686Y-98227923D01*
X130251890Y-98226194D01*
X130262274Y-98214164D01*
X130267831Y-98206286D01*
X130365147Y-98034981D01*
X130369063Y-98026186D01*
X130431254Y-97839233D01*
X130433388Y-97829839D01*
X130458339Y-97632325D01*
X130458726Y-97626797D01*
X130459061Y-97602759D01*
X130458831Y-97597262D01*
X130439402Y-97399096D01*
X130437533Y-97389658D01*
X130380586Y-97201040D01*
X130376915Y-97192136D01*
X130284419Y-97018176D01*
X130279086Y-97010150D01*
X130254361Y-96979834D01*
X130243148Y-96972608D01*
X130240568Y-96972752D01*
X130237155Y-96974977D01*
X129623218Y-97588914D01*
X129617164Y-97600797D01*
X129182024Y-97600797D01*
X129182836Y-97599203D01*
X129182040Y-97594172D01*
X128566130Y-96978262D01*
X128554247Y-96972208D01*
X128551329Y-96972670D01*
X128548637Y-96974811D01*
X128529228Y-96997941D01*
X128523793Y-97005879D01*
X128428877Y-97178532D01*
X128425079Y-97187393D01*
X128365509Y-97375184D01*
X128363504Y-97384615D01*
X128341542Y-97580405D01*
X128341408Y-97590033D01*
X124750500Y-97590033D01*
X124750500Y-96757084D01*
X128772797Y-96757084D01*
X128772915Y-96759481D01*
X128775300Y-96763168D01*
X129388914Y-97376782D01*
X129400797Y-97382836D01*
X129405828Y-97382040D01*
X130021467Y-96766401D01*
X130027521Y-96754518D01*
X130027088Y-96751783D01*
X130024740Y-96748851D01*
X129995968Y-96725049D01*
X129987985Y-96719665D01*
X129814672Y-96625955D01*
X129805801Y-96622226D01*
X129617583Y-96563962D01*
X129608151Y-96562026D01*
X129412210Y-96541432D01*
X129402572Y-96541365D01*
X129206364Y-96559221D01*
X129196898Y-96561027D01*
X129007901Y-96616652D01*
X128998960Y-96620265D01*
X128824373Y-96711536D01*
X128816297Y-96716821D01*
X128780100Y-96745925D01*
X128772797Y-96757084D01*
X124750500Y-96757084D01*
X124750500Y-95556806D01*
X125431814Y-95556806D01*
X125432057Y-95558510D01*
X125478467Y-95751083D01*
X125481521Y-95759955D01*
X125563511Y-95940282D01*
X125568187Y-95948414D01*
X125682797Y-96109984D01*
X125688926Y-96117084D01*
X125832022Y-96254070D01*
X125839384Y-96259884D01*
X126005797Y-96367335D01*
X126014126Y-96371652D01*
X126197854Y-96445697D01*
X126206852Y-96448363D01*
X126402401Y-96486551D01*
X126409454Y-96487407D01*
X126410134Y-96487440D01*
X126412581Y-96487500D01*
X127134320Y-96487500D01*
X127147005Y-96483378D01*
X127150000Y-96479257D01*
X127150000Y-96471820D01*
X127450000Y-96471820D01*
X127454122Y-96484505D01*
X127458243Y-96487500D01*
X128136991Y-96487500D01*
X128141705Y-96487275D01*
X128289382Y-96473186D01*
X128298603Y-96471410D01*
X128488676Y-96415649D01*
X128497388Y-96412165D01*
X128673500Y-96321461D01*
X128681387Y-96316397D01*
X128837165Y-96194032D01*
X128843962Y-96187559D01*
X128973789Y-96037947D01*
X128979239Y-96030305D01*
X129078434Y-95858841D01*
X129082336Y-95850318D01*
X129147322Y-95663180D01*
X129149542Y-95654070D01*
X129162382Y-95565518D01*
X129160123Y-95552372D01*
X129159087Y-95551363D01*
X129153241Y-95550000D01*
X127465680Y-95550000D01*
X127452995Y-95554122D01*
X127450000Y-95558243D01*
X127450000Y-96471820D01*
X127150000Y-96471820D01*
X127150000Y-95565680D01*
X127145878Y-95552995D01*
X127141757Y-95550000D01*
X125446450Y-95550000D01*
X125433765Y-95554122D01*
X125431814Y-95556806D01*
X124750500Y-95556806D01*
X124750500Y-94399500D01*
X124769407Y-94341309D01*
X124818907Y-94305345D01*
X124849500Y-94300500D01*
X125866365Y-94300500D01*
X125924556Y-94319407D01*
G37*
%TD.AperFunction*%
%TD*%
M02*
