%TF.GenerationSoftware,KiCad,Pcbnew,(6.0.7)*%
%TF.CreationDate,2022-08-28T18:35:31-07:00*%
%TF.ProjectId,RP2040_Injector,52503230-3430-45f4-996e-6a6563746f72,rev?*%
%TF.SameCoordinates,Original*%
%TF.FileFunction,Copper,L4,Bot*%
%TF.FilePolarity,Positive*%
%FSLAX46Y46*%
G04 Gerber Fmt 4.6, Leading zero omitted, Abs format (unit mm)*
G04 Created by KiCad (PCBNEW (6.0.7)) date 2022-08-28 18:35:31*
%MOMM*%
%LPD*%
G01*
G04 APERTURE LIST*
G04 Aperture macros list*
%AMRoundRect*
0 Rectangle with rounded corners*
0 $1 Rounding radius*
0 $2 $3 $4 $5 $6 $7 $8 $9 X,Y pos of 4 corners*
0 Add a 4 corners polygon primitive as box body*
4,1,4,$2,$3,$4,$5,$6,$7,$8,$9,$2,$3,0*
0 Add four circle primitives for the rounded corners*
1,1,$1+$1,$2,$3*
1,1,$1+$1,$4,$5*
1,1,$1+$1,$6,$7*
1,1,$1+$1,$8,$9*
0 Add four rect primitives between the rounded corners*
20,1,$1+$1,$2,$3,$4,$5,0*
20,1,$1+$1,$4,$5,$6,$7,0*
20,1,$1+$1,$6,$7,$8,$9,0*
20,1,$1+$1,$8,$9,$2,$3,0*%
G04 Aperture macros list end*
%TA.AperFunction,ComponentPad*%
%ADD10C,0.600000*%
%TD*%
%TA.AperFunction,ComponentPad*%
%ADD11R,1.350000X1.350000*%
%TD*%
%TA.AperFunction,ComponentPad*%
%ADD12O,1.350000X1.350000*%
%TD*%
%TA.AperFunction,SMDPad,CuDef*%
%ADD13RoundRect,0.250000X-0.475000X0.250000X-0.475000X-0.250000X0.475000X-0.250000X0.475000X0.250000X0*%
%TD*%
%TA.AperFunction,SMDPad,CuDef*%
%ADD14RoundRect,0.243750X-0.243750X-0.456250X0.243750X-0.456250X0.243750X0.456250X-0.243750X0.456250X0*%
%TD*%
%TA.AperFunction,SMDPad,CuDef*%
%ADD15RoundRect,0.250000X0.250000X0.475000X-0.250000X0.475000X-0.250000X-0.475000X0.250000X-0.475000X0*%
%TD*%
%TA.AperFunction,ComponentPad*%
%ADD16R,1.508000X1.508000*%
%TD*%
%TA.AperFunction,ComponentPad*%
%ADD17C,1.508000*%
%TD*%
%TA.AperFunction,ComponentPad*%
%ADD18O,3.150000X1.575000*%
%TD*%
%TA.AperFunction,SMDPad,CuDef*%
%ADD19R,2.000000X1.500000*%
%TD*%
%TA.AperFunction,SMDPad,CuDef*%
%ADD20R,2.000000X3.800000*%
%TD*%
%TA.AperFunction,SMDPad,CuDef*%
%ADD21RoundRect,0.135000X0.185000X-0.135000X0.185000X0.135000X-0.185000X0.135000X-0.185000X-0.135000X0*%
%TD*%
%TA.AperFunction,SMDPad,CuDef*%
%ADD22RoundRect,0.218750X0.256250X-0.218750X0.256250X0.218750X-0.256250X0.218750X-0.256250X-0.218750X0*%
%TD*%
%TA.AperFunction,ViaPad*%
%ADD23C,0.800000*%
%TD*%
%TA.AperFunction,Conductor*%
%ADD24C,0.500000*%
%TD*%
%TA.AperFunction,Conductor*%
%ADD25C,0.300000*%
%TD*%
G04 APERTURE END LIST*
D10*
%TO.P,,57*%
%TO.N,GND*%
X116400000Y-91550000D03*
%TD*%
D11*
%TO.P,J2,1,Pin_1*%
%TO.N,GND*%
X118650000Y-99070000D03*
D12*
%TO.P,J2,2,Pin_2*%
%TO.N,/~{USB_BOOT}*%
X116650000Y-99070000D03*
%TD*%
D10*
%TO.P,,57*%
%TO.N,GND*%
X115125000Y-91550000D03*
%TD*%
%TO.P,,57*%
%TO.N,GND*%
X115125000Y-92825000D03*
%TD*%
%TO.P,,57*%
%TO.N,GND*%
X113850000Y-94100000D03*
%TD*%
%TO.P,,57*%
%TO.N,GND*%
X116400000Y-92825000D03*
%TD*%
%TO.P,,57*%
%TO.N,GND*%
X116400000Y-94100000D03*
%TD*%
%TO.P,,57*%
%TO.N,GND*%
X113850000Y-92825000D03*
%TD*%
%TO.P,,57*%
%TO.N,GND*%
X113850000Y-91550000D03*
%TD*%
%TO.P,,57*%
%TO.N,GND*%
X115125000Y-94100000D03*
%TD*%
D13*
%TO.P,C13,1*%
%TO.N,+3V3*%
X102720000Y-97820000D03*
%TO.P,C13,2*%
%TO.N,GND*%
X102720000Y-99720000D03*
%TD*%
D14*
%TO.P,F1,1*%
%TO.N,VCC*%
X101092500Y-93610000D03*
%TO.P,F1,2*%
%TO.N,Net-(C12-Pad1)*%
X102967500Y-93610000D03*
%TD*%
D15*
%TO.P,C12,1*%
%TO.N,Net-(C12-Pad1)*%
X102950000Y-95700000D03*
%TO.P,C12,2*%
%TO.N,GND*%
X101050000Y-95700000D03*
%TD*%
D16*
%TO.P,J1,1,VCC*%
%TO.N,VCC*%
X98337500Y-90255750D03*
D17*
%TO.P,J1,2,D-*%
%TO.N,USB_D-*%
X98337500Y-92755750D03*
%TO.P,J1,3,D+*%
%TO.N,USB_D+*%
X98337500Y-94755750D03*
%TO.P,J1,4,GND*%
%TO.N,GND*%
X98337500Y-97255750D03*
D18*
%TO.P,J1,S1,SHIELD*%
X96237500Y-88055750D03*
%TO.P,J1,S2,SHIELD*%
X96237500Y-99455750D03*
%TD*%
D19*
%TO.P,U1,1,GND*%
%TO.N,GND*%
X105140000Y-99160000D03*
D20*
%TO.P,U1,2,VO*%
%TO.N,+3V3*%
X111440000Y-96860000D03*
D19*
X105140000Y-96860000D03*
%TO.P,U1,3,VI*%
%TO.N,Net-(C12-Pad1)*%
X105140000Y-94560000D03*
%TD*%
D21*
%TO.P,R1,1*%
%TO.N,Net-(D1-Pad1)*%
X102400000Y-90010000D03*
%TO.P,R1,2*%
%TO.N,GND*%
X102400000Y-88990000D03*
%TD*%
D22*
%TO.P,D1,1,K*%
%TO.N,Net-(D1-Pad1)*%
X101000000Y-89787500D03*
%TO.P,D1,2,A*%
%TO.N,+3V3*%
X101000000Y-88212500D03*
%TD*%
D23*
%TO.N,+3V3*%
X116150000Y-87350000D03*
X110680000Y-89410000D03*
X107150000Y-97650000D03*
X121170000Y-92726302D03*
X109980000Y-87390000D03*
X112560000Y-87310000D03*
X107150000Y-96650000D03*
X100410000Y-100240000D03*
X112190000Y-98310000D03*
X109400000Y-92475000D03*
X101930000Y-87870000D03*
X115300000Y-97450000D03*
%TO.N,GND*%
X96260000Y-89530000D03*
X107700000Y-98800000D03*
X99300000Y-98500000D03*
X113460000Y-98290000D03*
X108330000Y-90379802D03*
X94200000Y-88000000D03*
X99300000Y-99400000D03*
X107950000Y-95648802D03*
X103150000Y-88990000D03*
X106800000Y-98800000D03*
X114280000Y-88060000D03*
X108320000Y-88140000D03*
X114550000Y-99110000D03*
X121880000Y-90710000D03*
X107201844Y-92906113D03*
X108330000Y-89320000D03*
X106800000Y-99800000D03*
X121800000Y-100200000D03*
X122008186Y-91820000D03*
X107700000Y-99800000D03*
X122370000Y-93370000D03*
X96300000Y-97900000D03*
X94200000Y-99400000D03*
X117830000Y-88050000D03*
%TD*%
D24*
%TO.N,+3V3*%
X101587500Y-88212500D02*
X101930000Y-87870000D01*
X101000000Y-88212500D02*
X101587500Y-88212500D01*
%TO.N,GND*%
X102400000Y-88990000D02*
X103150000Y-88990000D01*
D25*
%TO.N,Net-(D1-Pad1)*%
X102400000Y-90010000D02*
X101222500Y-90010000D01*
X101222500Y-90010000D02*
X101000000Y-89787500D01*
D24*
%TO.N,VCC*%
X98337500Y-91053036D02*
X96965268Y-92425268D01*
X98748250Y-96051750D02*
X101092500Y-93707500D01*
X96965268Y-92425268D02*
X96965268Y-95095268D01*
X98337500Y-90255750D02*
X98337500Y-91053036D01*
X101092500Y-93707500D02*
X101092500Y-93610000D01*
X96965268Y-95095268D02*
X97921750Y-96051750D01*
X97921750Y-96051750D02*
X98748250Y-96051750D01*
%TD*%
%TA.AperFunction,Conductor*%
%TO.N,Net-(C12-Pad1)*%
G36*
X103880993Y-92442907D02*
G01*
X103912603Y-92481326D01*
X104267000Y-93245000D01*
X106554000Y-93245000D01*
X106612191Y-93263907D01*
X106648155Y-93313407D01*
X106653000Y-93344000D01*
X106653000Y-95834500D01*
X106634093Y-95892691D01*
X106584593Y-95928655D01*
X106554000Y-95933500D01*
X106464000Y-95933500D01*
X106454124Y-95933931D01*
X106447162Y-95934235D01*
X106447148Y-95934236D01*
X106446093Y-95934282D01*
X106433243Y-95935406D01*
X106348398Y-95962157D01*
X106347678Y-95959872D01*
X106296377Y-95965052D01*
X106262353Y-95950615D01*
X106242025Y-95937032D01*
X106218231Y-95921133D01*
X106208668Y-95919231D01*
X106208666Y-95919230D01*
X106185995Y-95914721D01*
X106159748Y-95909500D01*
X104120252Y-95909500D01*
X104094005Y-95914721D01*
X104071334Y-95919230D01*
X104071332Y-95919231D01*
X104061769Y-95921133D01*
X103995448Y-95965448D01*
X103951133Y-96031769D01*
X103939500Y-96090252D01*
X103939500Y-96095110D01*
X103939039Y-96099790D01*
X103914519Y-96155847D01*
X103861732Y-96186785D01*
X103845734Y-96188947D01*
X103770645Y-96192910D01*
X103770644Y-96192910D01*
X103765096Y-96193203D01*
X103763758Y-96193584D01*
X103704744Y-96184709D01*
X103661144Y-96141783D01*
X103650000Y-96096151D01*
X103650000Y-95865680D01*
X103645878Y-95852995D01*
X103641757Y-95850000D01*
X102265681Y-95850000D01*
X102252996Y-95854122D01*
X102250001Y-95858243D01*
X102250001Y-96226443D01*
X102250220Y-96231086D01*
X102252411Y-96254269D01*
X102254976Y-96265965D01*
X102295362Y-96380966D01*
X102302209Y-96393899D01*
X102320514Y-96418682D01*
X102339878Y-96476723D01*
X102321428Y-96535060D01*
X102272212Y-96571412D01*
X102240881Y-96576500D01*
X102107000Y-96576500D01*
X102048809Y-96557593D01*
X102012845Y-96508093D01*
X102008000Y-96477500D01*
X102008000Y-95534320D01*
X102250000Y-95534320D01*
X102254122Y-95547005D01*
X102258243Y-95550000D01*
X102784320Y-95550000D01*
X102797005Y-95545878D01*
X102800000Y-95541757D01*
X102800000Y-95534320D01*
X103100000Y-95534320D01*
X103104122Y-95547005D01*
X103108243Y-95550000D01*
X103634319Y-95550000D01*
X103647004Y-95545878D01*
X103649999Y-95541757D01*
X103649999Y-95324840D01*
X103940000Y-95324840D01*
X103940948Y-95334462D01*
X103949702Y-95378474D01*
X103957021Y-95396142D01*
X103990389Y-95446082D01*
X104003918Y-95459611D01*
X104053858Y-95492979D01*
X104071526Y-95500298D01*
X104115538Y-95509052D01*
X104125160Y-95510000D01*
X104974320Y-95510000D01*
X104987005Y-95505878D01*
X104990000Y-95501757D01*
X104990000Y-95494320D01*
X105290000Y-95494320D01*
X105294122Y-95507005D01*
X105298243Y-95510000D01*
X106154840Y-95510000D01*
X106164462Y-95509052D01*
X106208474Y-95500298D01*
X106226142Y-95492979D01*
X106276082Y-95459611D01*
X106289611Y-95446082D01*
X106322979Y-95396142D01*
X106330298Y-95378474D01*
X106339052Y-95334462D01*
X106340000Y-95324840D01*
X106340000Y-94725680D01*
X106335878Y-94712995D01*
X106331757Y-94710000D01*
X105305680Y-94710000D01*
X105292995Y-94714122D01*
X105290000Y-94718243D01*
X105290000Y-95494320D01*
X104990000Y-95494320D01*
X104990000Y-94725680D01*
X104985878Y-94712995D01*
X104981757Y-94710000D01*
X103955680Y-94710000D01*
X103942995Y-94714122D01*
X103940000Y-94718243D01*
X103940000Y-95324840D01*
X103649999Y-95324840D01*
X103649999Y-95173557D01*
X103649780Y-95168914D01*
X103647589Y-95145731D01*
X103645024Y-95134035D01*
X103604638Y-95019034D01*
X103597791Y-95006101D01*
X103526192Y-94909165D01*
X103515835Y-94898808D01*
X103418899Y-94827209D01*
X103405966Y-94820362D01*
X103290969Y-94779978D01*
X103279266Y-94777410D01*
X103256082Y-94775218D01*
X103251446Y-94775000D01*
X103115680Y-94775000D01*
X103102995Y-94779122D01*
X103100000Y-94783243D01*
X103100000Y-95534320D01*
X102800000Y-95534320D01*
X102800000Y-94790681D01*
X102795878Y-94777996D01*
X102791757Y-94775001D01*
X102648557Y-94775001D01*
X102643914Y-94775220D01*
X102620731Y-94777411D01*
X102609035Y-94779976D01*
X102494034Y-94820362D01*
X102481101Y-94827209D01*
X102384165Y-94898808D01*
X102373808Y-94909165D01*
X102302209Y-95006101D01*
X102295362Y-95019034D01*
X102254978Y-95134031D01*
X102252410Y-95145734D01*
X102250218Y-95168918D01*
X102250000Y-95173554D01*
X102250000Y-95534320D01*
X102008000Y-95534320D01*
X102008000Y-94116945D01*
X102280000Y-94116945D01*
X102280218Y-94121581D01*
X102282369Y-94144335D01*
X102284936Y-94156031D01*
X102324699Y-94269261D01*
X102331545Y-94282189D01*
X102402028Y-94377617D01*
X102412383Y-94387972D01*
X102507811Y-94458455D01*
X102520739Y-94465301D01*
X102633969Y-94505064D01*
X102645665Y-94507631D01*
X102668419Y-94509782D01*
X102673055Y-94510000D01*
X102801820Y-94510000D01*
X102814505Y-94505878D01*
X102817500Y-94501757D01*
X102817500Y-94494320D01*
X103117500Y-94494320D01*
X103121622Y-94507005D01*
X103125743Y-94510000D01*
X103261945Y-94510000D01*
X103266581Y-94509782D01*
X103289335Y-94507631D01*
X103301031Y-94505064D01*
X103414261Y-94465301D01*
X103427189Y-94458455D01*
X103514022Y-94394320D01*
X103940000Y-94394320D01*
X103944122Y-94407005D01*
X103948243Y-94410000D01*
X104974320Y-94410000D01*
X104987005Y-94405878D01*
X104990000Y-94401757D01*
X104990000Y-94394320D01*
X105290000Y-94394320D01*
X105294122Y-94407005D01*
X105298243Y-94410000D01*
X106324320Y-94410000D01*
X106337005Y-94405878D01*
X106340000Y-94401757D01*
X106340000Y-93795160D01*
X106339052Y-93785538D01*
X106330298Y-93741526D01*
X106322979Y-93723858D01*
X106289611Y-93673918D01*
X106276082Y-93660389D01*
X106226142Y-93627021D01*
X106208474Y-93619702D01*
X106164462Y-93610948D01*
X106154840Y-93610000D01*
X105305680Y-93610000D01*
X105292995Y-93614122D01*
X105290000Y-93618243D01*
X105290000Y-94394320D01*
X104990000Y-94394320D01*
X104990000Y-93625680D01*
X104985878Y-93612995D01*
X104981757Y-93610000D01*
X104125160Y-93610000D01*
X104115538Y-93610948D01*
X104071526Y-93619702D01*
X104053858Y-93627021D01*
X104003918Y-93660389D01*
X103990389Y-93673918D01*
X103957021Y-93723858D01*
X103949702Y-93741526D01*
X103940948Y-93785538D01*
X103940000Y-93795160D01*
X103940000Y-94394320D01*
X103514022Y-94394320D01*
X103522617Y-94387972D01*
X103532972Y-94377617D01*
X103603455Y-94282189D01*
X103610301Y-94269261D01*
X103650064Y-94156031D01*
X103652631Y-94144335D01*
X103654782Y-94121581D01*
X103655000Y-94116945D01*
X103655000Y-93775680D01*
X103650878Y-93762995D01*
X103646757Y-93760000D01*
X103133180Y-93760000D01*
X103120495Y-93764122D01*
X103117500Y-93768243D01*
X103117500Y-94494320D01*
X102817500Y-94494320D01*
X102817500Y-93775680D01*
X102813378Y-93762995D01*
X102809257Y-93760000D01*
X102295680Y-93760000D01*
X102282995Y-93764122D01*
X102280000Y-93768243D01*
X102280000Y-94116945D01*
X102008000Y-94116945D01*
X102008000Y-93444320D01*
X102280000Y-93444320D01*
X102284122Y-93457005D01*
X102288243Y-93460000D01*
X102801820Y-93460000D01*
X102814505Y-93455878D01*
X102817500Y-93451757D01*
X102817500Y-93444320D01*
X103117500Y-93444320D01*
X103121622Y-93457005D01*
X103125743Y-93460000D01*
X103639320Y-93460000D01*
X103652005Y-93455878D01*
X103655000Y-93451757D01*
X103655000Y-93103055D01*
X103654782Y-93098419D01*
X103652631Y-93075665D01*
X103650064Y-93063969D01*
X103610301Y-92950739D01*
X103603455Y-92937811D01*
X103532972Y-92842383D01*
X103522617Y-92832028D01*
X103427189Y-92761545D01*
X103414261Y-92754699D01*
X103301031Y-92714936D01*
X103289335Y-92712369D01*
X103266581Y-92710218D01*
X103261945Y-92710000D01*
X103133180Y-92710000D01*
X103120495Y-92714122D01*
X103117500Y-92718243D01*
X103117500Y-93444320D01*
X102817500Y-93444320D01*
X102817500Y-92725680D01*
X102813378Y-92712995D01*
X102809257Y-92710000D01*
X102673055Y-92710000D01*
X102668419Y-92710218D01*
X102645665Y-92712369D01*
X102633969Y-92714936D01*
X102520739Y-92754699D01*
X102507811Y-92761545D01*
X102412383Y-92832028D01*
X102402028Y-92842383D01*
X102331545Y-92937811D01*
X102324699Y-92950739D01*
X102284936Y-93063969D01*
X102282369Y-93075665D01*
X102280218Y-93098419D01*
X102280000Y-93103055D01*
X102280000Y-93444320D01*
X102008000Y-93444320D01*
X102008000Y-92523000D01*
X102026907Y-92464809D01*
X102076407Y-92428845D01*
X102107000Y-92424000D01*
X103822802Y-92424000D01*
X103880993Y-92442907D01*
G37*
%TD.AperFunction*%
%TD*%
%TA.AperFunction,Conductor*%
%TO.N,GND*%
G36*
X100268445Y-95255138D02*
G01*
X100297479Y-95296602D01*
X100300000Y-95315755D01*
X100300000Y-95536952D01*
X100303638Y-95546948D01*
X100308925Y-95550000D01*
X101126000Y-95550000D01*
X101173566Y-95567313D01*
X101198876Y-95611150D01*
X101200000Y-95624000D01*
X101200000Y-96661952D01*
X101203638Y-96671948D01*
X101208925Y-96675000D01*
X101295507Y-96675000D01*
X101343073Y-96692313D01*
X101368383Y-96736150D01*
X101365045Y-96774308D01*
X101360894Y-96785713D01*
X101360334Y-96788887D01*
X101360333Y-96788892D01*
X101357233Y-96806474D01*
X101348500Y-96856000D01*
X101348500Y-98732000D01*
X101349282Y-98749907D01*
X101350406Y-98762757D01*
X101351620Y-98766608D01*
X101351621Y-98766612D01*
X101371146Y-98828536D01*
X101377157Y-98847602D01*
X101402467Y-98891439D01*
X101433322Y-98932174D01*
X101438757Y-98935684D01*
X101506656Y-98979539D01*
X101506661Y-98979541D01*
X101510147Y-98981793D01*
X101514051Y-98983214D01*
X101514053Y-98983215D01*
X101533545Y-98990310D01*
X101557713Y-98999106D01*
X101560887Y-98999666D01*
X101560892Y-98999667D01*
X101600000Y-99006563D01*
X101600000Y-100549500D01*
X101042527Y-100549500D01*
X100994961Y-100532187D01*
X100969651Y-100488350D01*
X100974160Y-100447182D01*
X100993188Y-100401243D01*
X100993188Y-100401242D01*
X100995044Y-100396762D01*
X101015682Y-100240000D01*
X100995044Y-100083238D01*
X100934536Y-99937159D01*
X100931586Y-99933315D01*
X100931584Y-99933311D01*
X100841237Y-99815569D01*
X100838282Y-99811718D01*
X100834431Y-99808763D01*
X100716689Y-99718416D01*
X100716685Y-99718414D01*
X100712841Y-99715464D01*
X100566762Y-99654956D01*
X100561960Y-99654324D01*
X100561957Y-99654323D01*
X100414808Y-99634951D01*
X100410000Y-99634318D01*
X100405192Y-99634951D01*
X100258043Y-99654323D01*
X100258040Y-99654324D01*
X100253238Y-99654956D01*
X100107159Y-99715464D01*
X100103315Y-99718414D01*
X100103311Y-99718416D01*
X99985569Y-99808763D01*
X99981718Y-99811718D01*
X99978763Y-99815569D01*
X99888416Y-99933311D01*
X99888414Y-99933315D01*
X99885464Y-99937159D01*
X99824956Y-100083238D01*
X99804318Y-100240000D01*
X99824956Y-100396762D01*
X99826812Y-100401242D01*
X99826812Y-100401243D01*
X99845840Y-100447182D01*
X99848048Y-100497753D01*
X99817233Y-100537911D01*
X99777473Y-100549500D01*
X97474779Y-100549500D01*
X97427213Y-100532187D01*
X97401903Y-100488350D01*
X97410693Y-100438500D01*
X97440038Y-100410162D01*
X97598727Y-100325786D01*
X97604726Y-100321800D01*
X97756791Y-100197779D01*
X97761902Y-100192703D01*
X97886976Y-100041515D01*
X97891013Y-100035530D01*
X97984340Y-99862926D01*
X97987131Y-99856288D01*
X98045156Y-99668837D01*
X98046605Y-99661777D01*
X98051130Y-99618727D01*
X98048557Y-99608407D01*
X98044900Y-99605750D01*
X94434867Y-99605750D01*
X94424871Y-99609388D01*
X94422521Y-99613460D01*
X94425618Y-99647494D01*
X94426968Y-99654571D01*
X94482370Y-99842814D01*
X94485068Y-99849490D01*
X94575979Y-100023389D01*
X94579923Y-100029415D01*
X94702881Y-100182343D01*
X94707922Y-100187490D01*
X94858237Y-100313619D01*
X94864181Y-100317690D01*
X95033280Y-100410653D01*
X95066622Y-100448740D01*
X95067682Y-100499348D01*
X95035964Y-100538797D01*
X94997630Y-100549500D01*
X93754500Y-100549500D01*
X93706934Y-100532187D01*
X93681624Y-100488350D01*
X93680500Y-100475500D01*
X93680500Y-99292773D01*
X94423870Y-99292773D01*
X94426443Y-99303093D01*
X94430100Y-99305750D01*
X96074452Y-99305750D01*
X96084448Y-99302112D01*
X96087500Y-99296825D01*
X96087500Y-99292702D01*
X96387500Y-99292702D01*
X96391138Y-99302698D01*
X96396425Y-99305750D01*
X98040133Y-99305750D01*
X98050129Y-99302112D01*
X98052479Y-99298040D01*
X98049382Y-99264006D01*
X98048032Y-99256929D01*
X97992630Y-99068686D01*
X97989932Y-99062010D01*
X97899021Y-98888111D01*
X97895077Y-98882085D01*
X97772119Y-98729157D01*
X97767078Y-98724010D01*
X97616763Y-98597881D01*
X97610819Y-98593810D01*
X97438860Y-98499275D01*
X97432243Y-98496439D01*
X97245199Y-98437105D01*
X97238160Y-98435609D01*
X97085458Y-98418481D01*
X97081330Y-98418250D01*
X96400548Y-98418250D01*
X96390552Y-98421888D01*
X96387500Y-98427175D01*
X96387500Y-99292702D01*
X96087500Y-99292702D01*
X96087500Y-98431298D01*
X96083862Y-98421302D01*
X96078575Y-98418250D01*
X95400616Y-98418250D01*
X95397001Y-98418427D01*
X95251110Y-98432732D01*
X95244042Y-98434131D01*
X95056190Y-98490847D01*
X95049532Y-98493591D01*
X94876273Y-98585714D01*
X94870274Y-98589700D01*
X94718209Y-98713721D01*
X94713098Y-98718797D01*
X94588024Y-98869985D01*
X94583987Y-98875970D01*
X94490660Y-99048574D01*
X94487869Y-99055212D01*
X94429844Y-99242663D01*
X94428395Y-99249723D01*
X94423870Y-99292773D01*
X93680500Y-99292773D01*
X93680500Y-98065955D01*
X97744571Y-98065955D01*
X97745826Y-98070636D01*
X97758975Y-98081827D01*
X97764888Y-98085937D01*
X97930446Y-98178465D01*
X97937047Y-98181349D01*
X98117417Y-98239954D01*
X98124462Y-98241503D01*
X98312772Y-98263958D01*
X98319984Y-98264109D01*
X98509075Y-98249559D01*
X98516174Y-98248307D01*
X98698847Y-98197304D01*
X98705555Y-98194702D01*
X98874839Y-98109191D01*
X98880927Y-98105328D01*
X98923425Y-98072124D01*
X98929062Y-98063102D01*
X98928464Y-98058846D01*
X98346726Y-97477108D01*
X98337087Y-97472613D01*
X98331188Y-97474194D01*
X97749066Y-98056316D01*
X97744571Y-98065955D01*
X93680500Y-98065955D01*
X93680500Y-97245275D01*
X97329043Y-97245275D01*
X97344913Y-97434260D01*
X97346214Y-97441347D01*
X97398490Y-97623656D01*
X97401141Y-97630352D01*
X97487833Y-97799037D01*
X97491738Y-97805095D01*
X97520900Y-97841889D01*
X97529959Y-97847462D01*
X97534297Y-97846821D01*
X98116142Y-97264976D01*
X98120252Y-97256163D01*
X98554363Y-97256163D01*
X98555944Y-97262062D01*
X99138428Y-97844546D01*
X99148067Y-97849041D01*
X99152843Y-97847761D01*
X99159515Y-97840032D01*
X99163674Y-97834134D01*
X99257350Y-97669237D01*
X99260280Y-97662658D01*
X99320144Y-97482698D01*
X99321741Y-97475664D01*
X99345706Y-97285968D01*
X99345994Y-97281859D01*
X99346329Y-97257812D01*
X99346157Y-97253697D01*
X99327497Y-97063398D01*
X99326098Y-97056330D01*
X99271281Y-96874767D01*
X99268537Y-96868109D01*
X99179498Y-96700652D01*
X99175512Y-96694653D01*
X99154658Y-96669083D01*
X99145521Y-96663636D01*
X99141016Y-96664366D01*
X98558858Y-97246524D01*
X98554363Y-97256163D01*
X98120252Y-97256163D01*
X98120637Y-97255337D01*
X98119056Y-97249438D01*
X97537262Y-96667644D01*
X97527623Y-96663149D01*
X97523034Y-96664379D01*
X97507403Y-96683008D01*
X97503335Y-96688949D01*
X97411965Y-96855151D01*
X97409129Y-96861768D01*
X97351781Y-97042550D01*
X97350285Y-97049589D01*
X97329144Y-97238066D01*
X97329043Y-97245275D01*
X93680500Y-97245275D01*
X93680500Y-96274000D01*
X93697813Y-96226434D01*
X93741650Y-96201124D01*
X93754500Y-96200000D01*
X95326516Y-96200000D01*
X95374082Y-96217313D01*
X95397859Y-96254349D01*
X95418681Y-96329943D01*
X95420550Y-96333488D01*
X95502611Y-96489130D01*
X95507398Y-96498210D01*
X95509986Y-96501272D01*
X95509987Y-96501274D01*
X95575907Y-96579280D01*
X95630178Y-96643501D01*
X95781293Y-96759037D01*
X95784921Y-96760729D01*
X95784923Y-96760730D01*
X95867493Y-96799232D01*
X95953693Y-96839428D01*
X95957600Y-96840301D01*
X95957602Y-96840302D01*
X96066260Y-96864590D01*
X96139334Y-96880924D01*
X96142362Y-96881093D01*
X96142367Y-96881094D01*
X96144156Y-96881194D01*
X96144171Y-96881194D01*
X96145165Y-96881250D01*
X96285017Y-96881250D01*
X96287013Y-96881033D01*
X96287016Y-96881033D01*
X96422624Y-96866301D01*
X96422625Y-96866301D01*
X96426609Y-96865868D01*
X96606896Y-96805195D01*
X96769947Y-96707224D01*
X96772854Y-96704475D01*
X96772858Y-96704472D01*
X96877880Y-96605157D01*
X96908158Y-96576525D01*
X97015078Y-96419196D01*
X97084145Y-96246518D01*
X97117883Y-96208784D01*
X97152852Y-96200000D01*
X97402245Y-96200000D01*
X97449811Y-96217313D01*
X97454571Y-96221674D01*
X97581173Y-96348276D01*
X97586960Y-96354789D01*
X97609878Y-96383860D01*
X97658829Y-96417692D01*
X97660672Y-96419009D01*
X97708567Y-96454385D01*
X97713633Y-96456164D01*
X97713933Y-96456346D01*
X97714167Y-96456461D01*
X97716259Y-96457527D01*
X97716554Y-96457683D01*
X97716905Y-96457830D01*
X97721319Y-96460881D01*
X97726593Y-96462549D01*
X97726597Y-96462551D01*
X97753000Y-96470901D01*
X97783012Y-96489130D01*
X98328274Y-97034392D01*
X98337913Y-97038887D01*
X98343812Y-97037306D01*
X98892989Y-96488129D01*
X98911203Y-96474786D01*
X98943529Y-96457994D01*
X98948592Y-96455364D01*
X98950663Y-96454329D01*
X98957384Y-96451102D01*
X98968667Y-96445684D01*
X98999342Y-96430954D01*
X98999343Y-96430953D01*
X99004329Y-96428559D01*
X99008273Y-96424913D01*
X99009181Y-96424371D01*
X99012292Y-96422275D01*
X99016038Y-96420329D01*
X99021078Y-96416025D01*
X99059048Y-96378055D01*
X99061143Y-96376041D01*
X99099746Y-96340357D01*
X99103806Y-96336604D01*
X99106584Y-96331822D01*
X99109281Y-96328455D01*
X99114707Y-96322396D01*
X99215429Y-96221674D01*
X99218328Y-96220322D01*
X100300000Y-96220322D01*
X100300217Y-96224331D01*
X100306141Y-96278858D01*
X100308271Y-96287818D01*
X100355066Y-96412644D01*
X100360080Y-96421802D01*
X100439646Y-96527966D01*
X100447034Y-96535354D01*
X100553198Y-96614920D01*
X100562356Y-96619934D01*
X100687182Y-96666729D01*
X100696142Y-96668859D01*
X100750669Y-96674783D01*
X100754678Y-96675000D01*
X100886952Y-96675000D01*
X100896948Y-96671362D01*
X100900000Y-96666075D01*
X100900000Y-95863048D01*
X100896362Y-95853052D01*
X100891075Y-95850000D01*
X100313048Y-95850000D01*
X100303052Y-95853638D01*
X100300000Y-95858925D01*
X100300000Y-96220322D01*
X99218328Y-96220322D01*
X99261305Y-96200282D01*
X99267755Y-96200000D01*
X99900000Y-96200000D01*
X99900000Y-95567755D01*
X99917313Y-95520189D01*
X99921674Y-95515429D01*
X100173674Y-95263429D01*
X100219550Y-95242037D01*
X100268445Y-95255138D01*
G37*
%TD.AperFunction*%
%TD*%
%TA.AperFunction,Conductor*%
%TO.N,GND*%
G36*
X108173566Y-98393813D02*
G01*
X108198876Y-98437650D01*
X108200000Y-98450500D01*
X108200000Y-100475500D01*
X108182687Y-100523066D01*
X108138850Y-100548376D01*
X108126000Y-100549500D01*
X103476112Y-100549500D01*
X103428546Y-100532187D01*
X103403236Y-100488350D01*
X103412026Y-100438500D01*
X103437769Y-100413334D01*
X103437581Y-100413083D01*
X103439488Y-100411654D01*
X103440573Y-100410593D01*
X103441799Y-100409922D01*
X103547966Y-100330354D01*
X103555354Y-100322966D01*
X103634920Y-100216802D01*
X103639934Y-100207644D01*
X103686729Y-100082818D01*
X103688859Y-100073858D01*
X103694783Y-100019331D01*
X103695000Y-100015322D01*
X103695000Y-99930984D01*
X103890000Y-99930984D01*
X103890710Y-99938194D01*
X103903083Y-100000398D01*
X103908553Y-100013603D01*
X103955711Y-100084180D01*
X103965820Y-100094289D01*
X104036397Y-100141447D01*
X104049602Y-100146917D01*
X104111806Y-100159290D01*
X104119016Y-100160000D01*
X104976952Y-100160000D01*
X104986948Y-100156362D01*
X104990000Y-100151075D01*
X104990000Y-100146952D01*
X105290000Y-100146952D01*
X105293638Y-100156948D01*
X105298925Y-100160000D01*
X106160984Y-100160000D01*
X106168194Y-100159290D01*
X106230398Y-100146917D01*
X106243603Y-100141447D01*
X106314180Y-100094289D01*
X106324289Y-100084180D01*
X106371447Y-100013603D01*
X106376917Y-100000398D01*
X106389290Y-99938194D01*
X106390000Y-99930984D01*
X106390000Y-99323048D01*
X106386362Y-99313052D01*
X106381075Y-99310000D01*
X105303048Y-99310000D01*
X105293052Y-99313638D01*
X105290000Y-99318925D01*
X105290000Y-100146952D01*
X104990000Y-100146952D01*
X104990000Y-99323048D01*
X104986362Y-99313052D01*
X104981075Y-99310000D01*
X103903048Y-99310000D01*
X103893052Y-99313638D01*
X103890000Y-99318925D01*
X103890000Y-99930984D01*
X103695000Y-99930984D01*
X103695000Y-99883048D01*
X103691362Y-99873052D01*
X103686075Y-99870000D01*
X101758048Y-99870000D01*
X101748052Y-99873638D01*
X101745000Y-99878925D01*
X101745000Y-100015322D01*
X101745217Y-100019331D01*
X101751141Y-100073858D01*
X101753271Y-100082818D01*
X101800066Y-100207644D01*
X101805080Y-100216802D01*
X101884646Y-100322966D01*
X101892034Y-100330354D01*
X101998201Y-100409922D01*
X101999427Y-100410593D01*
X102000064Y-100411318D01*
X102002419Y-100413083D01*
X102002049Y-100413577D01*
X102032834Y-100448622D01*
X102033981Y-100499228D01*
X102002330Y-100538732D01*
X101963888Y-100549500D01*
X101600000Y-100549500D01*
X101600000Y-99006562D01*
X101628000Y-99011500D01*
X101815804Y-99011500D01*
X101863370Y-99028813D01*
X101888680Y-99072650D01*
X101879890Y-99122500D01*
X101875019Y-99129879D01*
X101805080Y-99223198D01*
X101800066Y-99232356D01*
X101753271Y-99357182D01*
X101751141Y-99366142D01*
X101745217Y-99420669D01*
X101745000Y-99424678D01*
X101745000Y-99556952D01*
X101748638Y-99566948D01*
X101753925Y-99570000D01*
X103681952Y-99570000D01*
X103691948Y-99566362D01*
X103695000Y-99561075D01*
X103695000Y-99424678D01*
X103694783Y-99420669D01*
X103688859Y-99366142D01*
X103686729Y-99357182D01*
X103639934Y-99232356D01*
X103634920Y-99223198D01*
X103563159Y-99127448D01*
X103548486Y-99079003D01*
X103568386Y-99032460D01*
X103616240Y-99009324D01*
X103624085Y-99008671D01*
X103638596Y-99006238D01*
X103647602Y-99004728D01*
X103647614Y-99004726D01*
X103648221Y-99004624D01*
X103648835Y-99004500D01*
X103656909Y-99002869D01*
X103656912Y-99002868D01*
X103661589Y-99001923D01*
X103743664Y-98961575D01*
X103746897Y-98958954D01*
X103769394Y-98940713D01*
X103817244Y-98924202D01*
X103864513Y-98942312D01*
X103889082Y-98986569D01*
X103889875Y-98996608D01*
X103893638Y-99006948D01*
X103898925Y-99010000D01*
X106376952Y-99010000D01*
X106386948Y-99006362D01*
X106390000Y-99001075D01*
X106390000Y-98450500D01*
X106407313Y-98402934D01*
X106451150Y-98377624D01*
X106464000Y-98376500D01*
X108126000Y-98376500D01*
X108173566Y-98393813D01*
G37*
%TD.AperFunction*%
%TD*%
%TA.AperFunction,Conductor*%
%TO.N,+3V3*%
G36*
X113130566Y-94378313D02*
G01*
X113155876Y-94422150D01*
X113157000Y-94435000D01*
X113157000Y-97729094D01*
X113139687Y-97776660D01*
X113128050Y-97787800D01*
X113031718Y-97861718D01*
X113028763Y-97865569D01*
X112938416Y-97983311D01*
X112938414Y-97983315D01*
X112935464Y-97987159D01*
X112874956Y-98133238D01*
X112874324Y-98138040D01*
X112874323Y-98138043D01*
X112863384Y-98221133D01*
X112854318Y-98290000D01*
X112854951Y-98294808D01*
X112872796Y-98430354D01*
X112874956Y-98446762D01*
X112935464Y-98592841D01*
X112938414Y-98596685D01*
X112938416Y-98596689D01*
X113028763Y-98714431D01*
X113031718Y-98718282D01*
X113128049Y-98792199D01*
X113155246Y-98834889D01*
X113157000Y-98850906D01*
X113157000Y-99367000D01*
X113139687Y-99414566D01*
X113095850Y-99439876D01*
X113083000Y-99441000D01*
X110135792Y-99441000D01*
X110088418Y-99423848D01*
X109316981Y-98780984D01*
X110190000Y-98780984D01*
X110190710Y-98788194D01*
X110203083Y-98850398D01*
X110208553Y-98863603D01*
X110255711Y-98934180D01*
X110265820Y-98944289D01*
X110336397Y-98991447D01*
X110349602Y-98996917D01*
X110411806Y-99009290D01*
X110419016Y-99010000D01*
X111276952Y-99010000D01*
X111286948Y-99006362D01*
X111290000Y-99001075D01*
X111290000Y-98996952D01*
X111590000Y-98996952D01*
X111593638Y-99006948D01*
X111598925Y-99010000D01*
X112460984Y-99010000D01*
X112468194Y-99009290D01*
X112530398Y-98996917D01*
X112543603Y-98991447D01*
X112614180Y-98944289D01*
X112624289Y-98934180D01*
X112671447Y-98863603D01*
X112676917Y-98850398D01*
X112689290Y-98788194D01*
X112690000Y-98780984D01*
X112690000Y-97023048D01*
X112686362Y-97013052D01*
X112681075Y-97010000D01*
X111603048Y-97010000D01*
X111593052Y-97013638D01*
X111590000Y-97018925D01*
X111590000Y-98996952D01*
X111290000Y-98996952D01*
X111290000Y-97023048D01*
X111286362Y-97013052D01*
X111281075Y-97010000D01*
X110203048Y-97010000D01*
X110193052Y-97013638D01*
X110190000Y-97018925D01*
X110190000Y-98780984D01*
X109316981Y-98780984D01*
X108594975Y-98179312D01*
X108594974Y-98179312D01*
X108585000Y-98171000D01*
X104013000Y-98171000D01*
X104009355Y-98177076D01*
X104009354Y-98177076D01*
X103653556Y-98770073D01*
X103614238Y-98801953D01*
X103590102Y-98806000D01*
X101628000Y-98806000D01*
X101580434Y-98788687D01*
X101555124Y-98744850D01*
X101554000Y-98732000D01*
X101554000Y-98115322D01*
X101745000Y-98115322D01*
X101745217Y-98119331D01*
X101751141Y-98173858D01*
X101753271Y-98182818D01*
X101800066Y-98307644D01*
X101805080Y-98316802D01*
X101884646Y-98422966D01*
X101892034Y-98430354D01*
X101998198Y-98509920D01*
X102007356Y-98514934D01*
X102132182Y-98561729D01*
X102141142Y-98563859D01*
X102195669Y-98569783D01*
X102199678Y-98570000D01*
X102556952Y-98570000D01*
X102566948Y-98566362D01*
X102570000Y-98561075D01*
X102570000Y-98556952D01*
X102870000Y-98556952D01*
X102873638Y-98566948D01*
X102878925Y-98570000D01*
X103240322Y-98570000D01*
X103244331Y-98569783D01*
X103298858Y-98563859D01*
X103307818Y-98561729D01*
X103432644Y-98514934D01*
X103441802Y-98509920D01*
X103547966Y-98430354D01*
X103555354Y-98422966D01*
X103634920Y-98316802D01*
X103639934Y-98307644D01*
X103686729Y-98182818D01*
X103688859Y-98173858D01*
X103694783Y-98119331D01*
X103695000Y-98115322D01*
X103695000Y-97983048D01*
X103691362Y-97973052D01*
X103686075Y-97970000D01*
X102883048Y-97970000D01*
X102873052Y-97973638D01*
X102870000Y-97978925D01*
X102870000Y-98556952D01*
X102570000Y-98556952D01*
X102570000Y-97983048D01*
X102566362Y-97973052D01*
X102561075Y-97970000D01*
X101758048Y-97970000D01*
X101748052Y-97973638D01*
X101745000Y-97978925D01*
X101745000Y-98115322D01*
X101554000Y-98115322D01*
X101554000Y-97656952D01*
X101745000Y-97656952D01*
X101748638Y-97666948D01*
X101753925Y-97670000D01*
X102556952Y-97670000D01*
X102566948Y-97666362D01*
X102570000Y-97661075D01*
X102570000Y-97656952D01*
X102870000Y-97656952D01*
X102873638Y-97666948D01*
X102878925Y-97670000D01*
X103681952Y-97670000D01*
X103691948Y-97666362D01*
X103695000Y-97661075D01*
X103695000Y-97630984D01*
X103890000Y-97630984D01*
X103890710Y-97638194D01*
X103903083Y-97700398D01*
X103908553Y-97713603D01*
X103955711Y-97784180D01*
X103965820Y-97794289D01*
X104036397Y-97841447D01*
X104049602Y-97846917D01*
X104111806Y-97859290D01*
X104119016Y-97860000D01*
X104976952Y-97860000D01*
X104986948Y-97856362D01*
X104990000Y-97851075D01*
X104990000Y-97846952D01*
X105290000Y-97846952D01*
X105293638Y-97856948D01*
X105298925Y-97860000D01*
X106160984Y-97860000D01*
X106168194Y-97859290D01*
X106230398Y-97846917D01*
X106243603Y-97841447D01*
X106314180Y-97794289D01*
X106324289Y-97784180D01*
X106371447Y-97713603D01*
X106376917Y-97700398D01*
X106389290Y-97638194D01*
X106390000Y-97630984D01*
X106390000Y-97023048D01*
X106386362Y-97013052D01*
X106381075Y-97010000D01*
X105303048Y-97010000D01*
X105293052Y-97013638D01*
X105290000Y-97018925D01*
X105290000Y-97846952D01*
X104990000Y-97846952D01*
X104990000Y-97023048D01*
X104986362Y-97013052D01*
X104981075Y-97010000D01*
X103903048Y-97010000D01*
X103893052Y-97013638D01*
X103890000Y-97018925D01*
X103890000Y-97630984D01*
X103695000Y-97630984D01*
X103695000Y-97524678D01*
X103694783Y-97520669D01*
X103688859Y-97466142D01*
X103686729Y-97457182D01*
X103639934Y-97332356D01*
X103634920Y-97323198D01*
X103555354Y-97217034D01*
X103547966Y-97209646D01*
X103441802Y-97130080D01*
X103432644Y-97125066D01*
X103307818Y-97078271D01*
X103298858Y-97076141D01*
X103244331Y-97070217D01*
X103240322Y-97070000D01*
X102883048Y-97070000D01*
X102873052Y-97073638D01*
X102870000Y-97078925D01*
X102870000Y-97656952D01*
X102570000Y-97656952D01*
X102570000Y-97083048D01*
X102566362Y-97073052D01*
X102561075Y-97070000D01*
X102199678Y-97070000D01*
X102195669Y-97070217D01*
X102141142Y-97076141D01*
X102132182Y-97078271D01*
X102007356Y-97125066D01*
X101998198Y-97130080D01*
X101892034Y-97209646D01*
X101884646Y-97217034D01*
X101805080Y-97323198D01*
X101800066Y-97332356D01*
X101753271Y-97457182D01*
X101751141Y-97466142D01*
X101745217Y-97520669D01*
X101745000Y-97524678D01*
X101745000Y-97656952D01*
X101554000Y-97656952D01*
X101554000Y-96856000D01*
X101571313Y-96808434D01*
X101615150Y-96783124D01*
X101628000Y-96782000D01*
X103251000Y-96782000D01*
X103772633Y-96404711D01*
X103821320Y-96390862D01*
X103867518Y-96411550D01*
X103889611Y-96457093D01*
X103890000Y-96464671D01*
X103890000Y-96696952D01*
X103893638Y-96706948D01*
X103898925Y-96710000D01*
X106376952Y-96710000D01*
X106386948Y-96706362D01*
X106390000Y-96701075D01*
X106390000Y-96696952D01*
X110190000Y-96696952D01*
X110193638Y-96706948D01*
X110198925Y-96710000D01*
X111276952Y-96710000D01*
X111286948Y-96706362D01*
X111290000Y-96701075D01*
X111290000Y-96696952D01*
X111590000Y-96696952D01*
X111593638Y-96706948D01*
X111598925Y-96710000D01*
X112676952Y-96710000D01*
X112686948Y-96706362D01*
X112690000Y-96701075D01*
X112690000Y-94939016D01*
X112689290Y-94931806D01*
X112676917Y-94869602D01*
X112671447Y-94856397D01*
X112624289Y-94785820D01*
X112614180Y-94775711D01*
X112543603Y-94728553D01*
X112530398Y-94723083D01*
X112468194Y-94710710D01*
X112460984Y-94710000D01*
X111603048Y-94710000D01*
X111593052Y-94713638D01*
X111590000Y-94718925D01*
X111590000Y-96696952D01*
X111290000Y-96696952D01*
X111290000Y-94723048D01*
X111286362Y-94713052D01*
X111281075Y-94710000D01*
X110419016Y-94710000D01*
X110411806Y-94710710D01*
X110349602Y-94723083D01*
X110336397Y-94728553D01*
X110265820Y-94775711D01*
X110255711Y-94785820D01*
X110208553Y-94856397D01*
X110203083Y-94869602D01*
X110190710Y-94931806D01*
X110190000Y-94939016D01*
X110190000Y-96696952D01*
X106390000Y-96696952D01*
X106390000Y-96213000D01*
X106407313Y-96165434D01*
X106451150Y-96140124D01*
X106464000Y-96139000D01*
X107577290Y-96139000D01*
X107622337Y-96154291D01*
X107647159Y-96173338D01*
X107793238Y-96233846D01*
X107798040Y-96234478D01*
X107798043Y-96234479D01*
X107945192Y-96253851D01*
X107950000Y-96254484D01*
X107954808Y-96253851D01*
X108101957Y-96234479D01*
X108101960Y-96234478D01*
X108106762Y-96233846D01*
X108252841Y-96173338D01*
X108277663Y-96154291D01*
X108322710Y-96139000D01*
X108585000Y-96139000D01*
X109959779Y-94389281D01*
X110002780Y-94362575D01*
X110017967Y-94361000D01*
X113083000Y-94361000D01*
X113130566Y-94378313D01*
G37*
%TD.AperFunction*%
%TD*%
M02*
