%TF.GenerationSoftware,KiCad,Pcbnew,(6.0.7)*%
%TF.CreationDate,2022-08-28T18:35:31-07:00*%
%TF.ProjectId,RP2040_Injector,52503230-3430-45f4-996e-6a6563746f72,rev?*%
%TF.SameCoordinates,Original*%
%TF.FileFunction,Copper,L2,Inr*%
%TF.FilePolarity,Positive*%
%FSLAX46Y46*%
G04 Gerber Fmt 4.6, Leading zero omitted, Abs format (unit mm)*
G04 Created by KiCad (PCBNEW (6.0.7)) date 2022-08-28 18:35:31*
%MOMM*%
%LPD*%
G01*
G04 APERTURE LIST*
%TA.AperFunction,ComponentPad*%
%ADD10C,0.600000*%
%TD*%
%TA.AperFunction,ComponentPad*%
%ADD11R,1.350000X1.350000*%
%TD*%
%TA.AperFunction,ComponentPad*%
%ADD12O,1.350000X1.350000*%
%TD*%
%TA.AperFunction,ComponentPad*%
%ADD13R,1.508000X1.508000*%
%TD*%
%TA.AperFunction,ComponentPad*%
%ADD14C,1.508000*%
%TD*%
%TA.AperFunction,ComponentPad*%
%ADD15O,3.150000X1.575000*%
%TD*%
%TA.AperFunction,ViaPad*%
%ADD16C,0.800000*%
%TD*%
G04 APERTURE END LIST*
D10*
%TO.N,GND*%
%TO.C,*%
X116400000Y-91550000D03*
%TD*%
D11*
%TO.N,GND*%
%TO.C,J2*%
X118650000Y-99070000D03*
D12*
%TO.N,/~{USB_BOOT}*%
X116650000Y-99070000D03*
%TD*%
D10*
%TO.N,GND*%
%TO.C,*%
X115125000Y-91550000D03*
%TD*%
%TO.N,GND*%
%TO.C,*%
X115125000Y-92825000D03*
%TD*%
%TO.N,GND*%
%TO.C,*%
X113850000Y-94100000D03*
%TD*%
%TO.N,GND*%
%TO.C,*%
X116400000Y-92825000D03*
%TD*%
%TO.N,GND*%
%TO.C,*%
X116400000Y-94100000D03*
%TD*%
%TO.N,GND*%
%TO.C,*%
X113850000Y-92825000D03*
%TD*%
%TO.N,GND*%
%TO.C,*%
X113850000Y-91550000D03*
%TD*%
%TO.N,GND*%
%TO.C,*%
X115125000Y-94100000D03*
%TD*%
D13*
%TO.N,VCC*%
%TO.C,J1*%
X98337500Y-90255750D03*
D14*
%TO.N,USB_D-*%
X98337500Y-92755750D03*
%TO.N,USB_D+*%
X98337500Y-94755750D03*
%TO.N,GND*%
X98337500Y-97255750D03*
D15*
X96237500Y-88055750D03*
X96237500Y-99455750D03*
%TD*%
D16*
%TO.N,+3V3*%
X116150000Y-87350000D03*
X110680000Y-89410000D03*
X107150000Y-97650000D03*
X121170000Y-92726302D03*
X109980000Y-87390000D03*
X112560000Y-87310000D03*
X107150000Y-96650000D03*
X100410000Y-100240000D03*
X112190000Y-98310000D03*
X109400000Y-92475000D03*
X101930000Y-87870000D03*
X115300000Y-97450000D03*
%TO.N,GND*%
X96260000Y-89530000D03*
X107700000Y-98800000D03*
X99300000Y-98500000D03*
X113460000Y-98290000D03*
X108330000Y-90379802D03*
X94200000Y-88000000D03*
X99300000Y-99400000D03*
X107950000Y-95648802D03*
X103150000Y-88990000D03*
X106800000Y-98800000D03*
X114280000Y-88060000D03*
X108320000Y-88140000D03*
X114550000Y-99110000D03*
X121880000Y-90710000D03*
X107201844Y-92906113D03*
X108330000Y-89320000D03*
X106800000Y-99800000D03*
X121800000Y-100200000D03*
X122008186Y-91820000D03*
X107700000Y-99800000D03*
X122370000Y-93370000D03*
X96300000Y-97900000D03*
X94200000Y-99400000D03*
X117830000Y-88050000D03*
%TD*%
%TA.AperFunction,Conductor*%
%TO.N,GND*%
G36*
X94630367Y-87070462D02*
G01*
X94684905Y-87125000D01*
X94704867Y-87199500D01*
X94684905Y-87274000D01*
X94668404Y-87297155D01*
X94565266Y-87416011D01*
X94557074Y-87427496D01*
X94460257Y-87594850D01*
X94454382Y-87607683D01*
X94390961Y-87790317D01*
X94387616Y-87804037D01*
X94375683Y-87886338D01*
X94377565Y-87902242D01*
X94385731Y-87905750D01*
X98087114Y-87905750D01*
X98101483Y-87901900D01*
X98104037Y-87891403D01*
X98059590Y-87706977D01*
X98054994Y-87693629D01*
X97974973Y-87517632D01*
X97967937Y-87505396D01*
X97856082Y-87347710D01*
X97846854Y-87337018D01*
X97815634Y-87307132D01*
X97775622Y-87241194D01*
X97773940Y-87164084D01*
X97811038Y-87096464D01*
X97876976Y-87056452D01*
X97918670Y-87050500D01*
X101406296Y-87050500D01*
X101480796Y-87070462D01*
X101535334Y-87125000D01*
X101555296Y-87199500D01*
X101535334Y-87274000D01*
X101504245Y-87311781D01*
X101437961Y-87369604D01*
X101405604Y-87397831D01*
X101308113Y-87536547D01*
X101246524Y-87694513D01*
X101224394Y-87862611D01*
X101242999Y-88031135D01*
X101246087Y-88039572D01*
X101246087Y-88039574D01*
X101264217Y-88089116D01*
X101301266Y-88190356D01*
X101306275Y-88197811D01*
X101306276Y-88197812D01*
X101389178Y-88321183D01*
X101395830Y-88331083D01*
X101402472Y-88337126D01*
X101402473Y-88337128D01*
X101491209Y-88417871D01*
X101521233Y-88445191D01*
X101529128Y-88449478D01*
X101529130Y-88449479D01*
X101662344Y-88521808D01*
X101662347Y-88521809D01*
X101670235Y-88526092D01*
X101707743Y-88535932D01*
X101825549Y-88566838D01*
X101825551Y-88566838D01*
X101834233Y-88569116D01*
X101843209Y-88569257D01*
X101994781Y-88571638D01*
X102003760Y-88571779D01*
X102169029Y-88533928D01*
X102203383Y-88516650D01*
X102312471Y-88461784D01*
X102320498Y-88457747D01*
X102382815Y-88404523D01*
X102442594Y-88353467D01*
X102442596Y-88353465D01*
X102449423Y-88347634D01*
X102478289Y-88307463D01*
X102543124Y-88217236D01*
X102543126Y-88217232D01*
X102548361Y-88209947D01*
X102595865Y-88091779D01*
X102608251Y-88060969D01*
X102608252Y-88060964D01*
X102611601Y-88052634D01*
X102635490Y-87884778D01*
X102635645Y-87870000D01*
X102615276Y-87701680D01*
X102555345Y-87543077D01*
X102459312Y-87403349D01*
X102394000Y-87345158D01*
X102355381Y-87310749D01*
X102313036Y-87246284D01*
X102308597Y-87169284D01*
X102343252Y-87100380D01*
X102407717Y-87058035D01*
X102454501Y-87050500D01*
X109148215Y-87050500D01*
X109222715Y-87070462D01*
X109277253Y-87125000D01*
X109297215Y-87199500D01*
X109295940Y-87218948D01*
X109287063Y-87286375D01*
X109274394Y-87382611D01*
X109292999Y-87551135D01*
X109296087Y-87559572D01*
X109296087Y-87559574D01*
X109313693Y-87607683D01*
X109351266Y-87710356D01*
X109356275Y-87717811D01*
X109356276Y-87717812D01*
X109433993Y-87833467D01*
X109445830Y-87851083D01*
X109452472Y-87857126D01*
X109452473Y-87857128D01*
X109534659Y-87931911D01*
X109571233Y-87965191D01*
X109579128Y-87969478D01*
X109579130Y-87969479D01*
X109712344Y-88041808D01*
X109712347Y-88041809D01*
X109720235Y-88046092D01*
X109757743Y-88055932D01*
X109875549Y-88086838D01*
X109875551Y-88086838D01*
X109884233Y-88089116D01*
X109893209Y-88089257D01*
X110044781Y-88091638D01*
X110053760Y-88091779D01*
X110219029Y-88053928D01*
X110227289Y-88049774D01*
X110362471Y-87981784D01*
X110370498Y-87977747D01*
X110439113Y-87919144D01*
X110492594Y-87873467D01*
X110492596Y-87873465D01*
X110499423Y-87867634D01*
X110516866Y-87843360D01*
X110593124Y-87737236D01*
X110593126Y-87737232D01*
X110598361Y-87729947D01*
X110630521Y-87649947D01*
X110658251Y-87580969D01*
X110658252Y-87580964D01*
X110661601Y-87572634D01*
X110685490Y-87404778D01*
X110685645Y-87390000D01*
X110665276Y-87221680D01*
X110667732Y-87221383D01*
X110669065Y-87157922D01*
X110709023Y-87091952D01*
X110776613Y-87054799D01*
X110812146Y-87050500D01*
X111717683Y-87050500D01*
X111792183Y-87070462D01*
X111846721Y-87125000D01*
X111866683Y-87199500D01*
X111865408Y-87218948D01*
X111861809Y-87246284D01*
X111854394Y-87302611D01*
X111855380Y-87311542D01*
X111855380Y-87311543D01*
X111858810Y-87342611D01*
X111872999Y-87471135D01*
X111876087Y-87479572D01*
X111876087Y-87479574D01*
X111898555Y-87540969D01*
X111931266Y-87630356D01*
X111936275Y-87637811D01*
X111936276Y-87637812D01*
X112003086Y-87737236D01*
X112025830Y-87771083D01*
X112032472Y-87777126D01*
X112032473Y-87777128D01*
X112126418Y-87862611D01*
X112151233Y-87885191D01*
X112159128Y-87889478D01*
X112159130Y-87889479D01*
X112292344Y-87961808D01*
X112292347Y-87961809D01*
X112300235Y-87966092D01*
X112382234Y-87987604D01*
X112455549Y-88006838D01*
X112455551Y-88006838D01*
X112464233Y-88009116D01*
X112473209Y-88009257D01*
X112624781Y-88011638D01*
X112633760Y-88011779D01*
X112799029Y-87973928D01*
X112950498Y-87897747D01*
X112994292Y-87860343D01*
X113072594Y-87793467D01*
X113072596Y-87793465D01*
X113079423Y-87787634D01*
X113137381Y-87706977D01*
X113173124Y-87657236D01*
X113173126Y-87657232D01*
X113178361Y-87649947D01*
X113218084Y-87551135D01*
X113238251Y-87500969D01*
X113238252Y-87500964D01*
X113241601Y-87492634D01*
X113265490Y-87324778D01*
X113265645Y-87310000D01*
X113254439Y-87217400D01*
X113265306Y-87141042D01*
X113312897Y-87080347D01*
X113384459Y-87051579D01*
X113402360Y-87050500D01*
X115312949Y-87050500D01*
X115387449Y-87070462D01*
X115441987Y-87125000D01*
X115461949Y-87199500D01*
X115460674Y-87218948D01*
X115460314Y-87221680D01*
X115444394Y-87342611D01*
X115462999Y-87511135D01*
X115466087Y-87519572D01*
X115466087Y-87519574D01*
X115488555Y-87580969D01*
X115521266Y-87670356D01*
X115526275Y-87677811D01*
X115526276Y-87677812D01*
X115603993Y-87793467D01*
X115615830Y-87811083D01*
X115622472Y-87817126D01*
X115622473Y-87817128D01*
X115719868Y-87905750D01*
X115741233Y-87925191D01*
X115749128Y-87929478D01*
X115749130Y-87929479D01*
X115882344Y-88001808D01*
X115882347Y-88001809D01*
X115890235Y-88006092D01*
X115927743Y-88015932D01*
X116045549Y-88046838D01*
X116045551Y-88046838D01*
X116054233Y-88049116D01*
X116063209Y-88049257D01*
X116214781Y-88051638D01*
X116223760Y-88051779D01*
X116389029Y-88013928D01*
X116397289Y-88009774D01*
X116532471Y-87941784D01*
X116540498Y-87937747D01*
X116562279Y-87919144D01*
X116662594Y-87833467D01*
X116662596Y-87833465D01*
X116669423Y-87827634D01*
X116686866Y-87803360D01*
X116763124Y-87697236D01*
X116763126Y-87697232D01*
X116768361Y-87689947D01*
X116795708Y-87621920D01*
X116828251Y-87540969D01*
X116828252Y-87540964D01*
X116831601Y-87532634D01*
X116855490Y-87364778D01*
X116855645Y-87350000D01*
X116850895Y-87310749D01*
X116839599Y-87217400D01*
X116850467Y-87141041D01*
X116898058Y-87080347D01*
X116969620Y-87051579D01*
X116987520Y-87050500D01*
X123350500Y-87050500D01*
X123425000Y-87070462D01*
X123479538Y-87125000D01*
X123499500Y-87199500D01*
X123499500Y-93451000D01*
X123479538Y-93525500D01*
X123425000Y-93580038D01*
X123350500Y-93600000D01*
X121619814Y-93600000D01*
X121545314Y-93580038D01*
X121490776Y-93525500D01*
X121470814Y-93451000D01*
X121490776Y-93376500D01*
X121545314Y-93321962D01*
X121552356Y-93318163D01*
X121552474Y-93318085D01*
X121560498Y-93314049D01*
X121575199Y-93301493D01*
X121682594Y-93209769D01*
X121682596Y-93209767D01*
X121689423Y-93203936D01*
X121710378Y-93174774D01*
X121783124Y-93073538D01*
X121783126Y-93073534D01*
X121788361Y-93066249D01*
X121816031Y-92997419D01*
X121848251Y-92917271D01*
X121848252Y-92917266D01*
X121851601Y-92908936D01*
X121875490Y-92741080D01*
X121875645Y-92726302D01*
X121855276Y-92557982D01*
X121795345Y-92399379D01*
X121699312Y-92259651D01*
X121692604Y-92253674D01*
X121579428Y-92152837D01*
X121579424Y-92152834D01*
X121572721Y-92146862D01*
X121564783Y-92142659D01*
X121564780Y-92142657D01*
X121430823Y-92071731D01*
X121422881Y-92067526D01*
X121414168Y-92065337D01*
X121414167Y-92065337D01*
X121341691Y-92047132D01*
X121258441Y-92026221D01*
X121154002Y-92025674D01*
X121097873Y-92025380D01*
X121088895Y-92025333D01*
X121080164Y-92027429D01*
X121080165Y-92027429D01*
X120932765Y-92062817D01*
X120932762Y-92062818D01*
X120924032Y-92064914D01*
X120916053Y-92069032D01*
X120916051Y-92069033D01*
X120781353Y-92138556D01*
X120773369Y-92142677D01*
X120766602Y-92148581D01*
X120766598Y-92148583D01*
X120688495Y-92216717D01*
X120645604Y-92254133D01*
X120640439Y-92261482D01*
X120628582Y-92278353D01*
X120548113Y-92392849D01*
X120486524Y-92550815D01*
X120480181Y-92598997D01*
X120470774Y-92670448D01*
X120441259Y-92741705D01*
X120380069Y-92788658D01*
X120323049Y-92800000D01*
X118000000Y-92800000D01*
X118000000Y-93600000D01*
X118938282Y-93600000D01*
X119012782Y-93619962D01*
X119043641Y-93643641D01*
X119356359Y-93956359D01*
X119394923Y-94023154D01*
X119400000Y-94061718D01*
X119400000Y-96200000D01*
X120156359Y-96956359D01*
X120194923Y-97023154D01*
X120200000Y-97061718D01*
X120200000Y-100000000D01*
X123350500Y-100000000D01*
X123425000Y-100019962D01*
X123479538Y-100074500D01*
X123499500Y-100149000D01*
X123499500Y-100300500D01*
X123479538Y-100375000D01*
X123425000Y-100429538D01*
X123350500Y-100449500D01*
X101259485Y-100449500D01*
X101184985Y-100429538D01*
X101130447Y-100375000D01*
X101110485Y-100300500D01*
X101111971Y-100279508D01*
X101114803Y-100259609D01*
X101114804Y-100259601D01*
X101115490Y-100254778D01*
X101115645Y-100240000D01*
X101095276Y-100071680D01*
X101035345Y-99913077D01*
X100960806Y-99804623D01*
X100944401Y-99780753D01*
X100944399Y-99780751D01*
X100939312Y-99773349D01*
X100932604Y-99767372D01*
X100819428Y-99666535D01*
X100819424Y-99666532D01*
X100812721Y-99660560D01*
X100804783Y-99656357D01*
X100804780Y-99656355D01*
X100670823Y-99585429D01*
X100662881Y-99581224D01*
X100654168Y-99579035D01*
X100654167Y-99579035D01*
X100581691Y-99560830D01*
X100498441Y-99539919D01*
X100394002Y-99539372D01*
X100337873Y-99539078D01*
X100328895Y-99539031D01*
X100320164Y-99541127D01*
X100320165Y-99541127D01*
X100172765Y-99576515D01*
X100172762Y-99576516D01*
X100164032Y-99578612D01*
X100156053Y-99582730D01*
X100156051Y-99582731D01*
X100021353Y-99652254D01*
X100013369Y-99656375D01*
X100006602Y-99662279D01*
X100006598Y-99662281D01*
X99911536Y-99745209D01*
X99885604Y-99767831D01*
X99788113Y-99906547D01*
X99726524Y-100064513D01*
X99704394Y-100232611D01*
X99709572Y-100279508D01*
X99710084Y-100284149D01*
X99698418Y-100360390D01*
X99650194Y-100420583D01*
X99578335Y-100448600D01*
X99561984Y-100449500D01*
X97929112Y-100449500D01*
X97854612Y-100429538D01*
X97800074Y-100375000D01*
X97780112Y-100300500D01*
X97800074Y-100226000D01*
X97816575Y-100202845D01*
X97909734Y-100095489D01*
X97917926Y-100084004D01*
X98014743Y-99916650D01*
X98020618Y-99903817D01*
X98084039Y-99721183D01*
X98087384Y-99707463D01*
X98099317Y-99625162D01*
X98097435Y-99609258D01*
X98089269Y-99605750D01*
X94387886Y-99605750D01*
X94373517Y-99609600D01*
X94370963Y-99620097D01*
X94415410Y-99804523D01*
X94420006Y-99817871D01*
X94500027Y-99993868D01*
X94507063Y-100006104D01*
X94618918Y-100163790D01*
X94628146Y-100174482D01*
X94647353Y-100192868D01*
X94687365Y-100258806D01*
X94689047Y-100335915D01*
X94651949Y-100403536D01*
X94586011Y-100443548D01*
X94544317Y-100449500D01*
X93929500Y-100449500D01*
X93855000Y-100429538D01*
X93800462Y-100375000D01*
X93780500Y-100300500D01*
X93780500Y-99286338D01*
X94375683Y-99286338D01*
X94377565Y-99302242D01*
X94385731Y-99305750D01*
X96067884Y-99305750D01*
X96083355Y-99301605D01*
X96087500Y-99286134D01*
X96387500Y-99286134D01*
X96391645Y-99301605D01*
X96407116Y-99305750D01*
X98087114Y-99305750D01*
X98101483Y-99301900D01*
X98104037Y-99291403D01*
X98059590Y-99106977D01*
X98054994Y-99093629D01*
X98038028Y-99056314D01*
X115669876Y-99056314D01*
X115674130Y-99106977D01*
X115682281Y-99204037D01*
X115685884Y-99246948D01*
X115687891Y-99253949D01*
X115687892Y-99253952D01*
X115697416Y-99287166D01*
X115738614Y-99430843D01*
X115741945Y-99437324D01*
X115741946Y-99437327D01*
X115822728Y-99594511D01*
X115822731Y-99594516D01*
X115826060Y-99600993D01*
X115830584Y-99606701D01*
X115830588Y-99606707D01*
X115910447Y-99707463D01*
X115944889Y-99750918D01*
X115950435Y-99755638D01*
X115950436Y-99755639D01*
X115978881Y-99779848D01*
X116090575Y-99874907D01*
X116096938Y-99878463D01*
X116251206Y-99964681D01*
X116251212Y-99964684D01*
X116257570Y-99968237D01*
X116439512Y-100027354D01*
X116546498Y-100040111D01*
X116622241Y-100049143D01*
X116622243Y-100049143D01*
X116629472Y-100050005D01*
X116820213Y-100035328D01*
X116924882Y-100006104D01*
X116997454Y-99985842D01*
X116997459Y-99985840D01*
X117004472Y-99983882D01*
X117010973Y-99980598D01*
X117010976Y-99980597D01*
X117168723Y-99900913D01*
X117168724Y-99900913D01*
X117175228Y-99897627D01*
X117266972Y-99825949D01*
X117320235Y-99784336D01*
X117320237Y-99784334D01*
X117325979Y-99779848D01*
X117413210Y-99678790D01*
X117476999Y-99635439D01*
X117553920Y-99629790D01*
X117623360Y-99663359D01*
X117666712Y-99727150D01*
X117675000Y-99776151D01*
X117675000Y-99785154D01*
X117675523Y-99793966D01*
X117676791Y-99804623D01*
X117682652Y-99825949D01*
X117717895Y-99905293D01*
X117733214Y-99927583D01*
X117792839Y-99987104D01*
X117815155Y-100002384D01*
X117894545Y-100037482D01*
X117915918Y-100043309D01*
X117926124Y-100044498D01*
X117934754Y-100045000D01*
X118480384Y-100045000D01*
X118495855Y-100040855D01*
X118500000Y-100025384D01*
X118800000Y-100025384D01*
X118804145Y-100040855D01*
X118819616Y-100045000D01*
X119365154Y-100045000D01*
X119373966Y-100044477D01*
X119384623Y-100043209D01*
X119405949Y-100037348D01*
X119485293Y-100002105D01*
X119507583Y-99986786D01*
X119567104Y-99927161D01*
X119582384Y-99904845D01*
X119617482Y-99825455D01*
X119623309Y-99804082D01*
X119624498Y-99793876D01*
X119625000Y-99785246D01*
X119625000Y-99239616D01*
X119620855Y-99224145D01*
X119605384Y-99220000D01*
X118819616Y-99220000D01*
X118804145Y-99224145D01*
X118800000Y-99239616D01*
X118800000Y-100025384D01*
X118500000Y-100025384D01*
X118500000Y-98900384D01*
X118800000Y-98900384D01*
X118804145Y-98915855D01*
X118819616Y-98920000D01*
X119605384Y-98920000D01*
X119620855Y-98915855D01*
X119625000Y-98900384D01*
X119625000Y-98354846D01*
X119624477Y-98346034D01*
X119623209Y-98335377D01*
X119617348Y-98314051D01*
X119582105Y-98234707D01*
X119566786Y-98212417D01*
X119507161Y-98152896D01*
X119484845Y-98137616D01*
X119405455Y-98102518D01*
X119384082Y-98096691D01*
X119373876Y-98095502D01*
X119365246Y-98095000D01*
X118819616Y-98095000D01*
X118804145Y-98099145D01*
X118800000Y-98114616D01*
X118800000Y-98900384D01*
X118500000Y-98900384D01*
X118500000Y-98114616D01*
X118495855Y-98099145D01*
X118480384Y-98095000D01*
X117934846Y-98095000D01*
X117926034Y-98095523D01*
X117915377Y-98096791D01*
X117894051Y-98102652D01*
X117814707Y-98137895D01*
X117792417Y-98153214D01*
X117732896Y-98212839D01*
X117717616Y-98235155D01*
X117682518Y-98314545D01*
X117676691Y-98335918D01*
X117675502Y-98346124D01*
X117675000Y-98354754D01*
X117675000Y-98364827D01*
X117655038Y-98439327D01*
X117600500Y-98493865D01*
X117526000Y-98513827D01*
X117451500Y-98493865D01*
X117410533Y-98458999D01*
X117394576Y-98439433D01*
X117345535Y-98379303D01*
X117198132Y-98257361D01*
X117169323Y-98241784D01*
X117036266Y-98169839D01*
X117036261Y-98169837D01*
X117029851Y-98166371D01*
X116955701Y-98143418D01*
X116854060Y-98111955D01*
X116854059Y-98111955D01*
X116847101Y-98109801D01*
X116839859Y-98109040D01*
X116839855Y-98109039D01*
X116664084Y-98090565D01*
X116664083Y-98090565D01*
X116656843Y-98089804D01*
X116466325Y-98107142D01*
X116282803Y-98161156D01*
X116113268Y-98249787D01*
X116107587Y-98254355D01*
X116107585Y-98254356D01*
X116033493Y-98313928D01*
X115964176Y-98369660D01*
X115841207Y-98516208D01*
X115749045Y-98683850D01*
X115746842Y-98690794D01*
X115746841Y-98690797D01*
X115714273Y-98793467D01*
X115691200Y-98866201D01*
X115690388Y-98873444D01*
X115690387Y-98873447D01*
X115675331Y-99007683D01*
X115669876Y-99056314D01*
X98038028Y-99056314D01*
X97974973Y-98917632D01*
X97967937Y-98905396D01*
X97856082Y-98747710D01*
X97846853Y-98737018D01*
X97707203Y-98603331D01*
X97696111Y-98594572D01*
X97533705Y-98489708D01*
X97521164Y-98483207D01*
X97341852Y-98410942D01*
X97328311Y-98406931D01*
X97136862Y-98369544D01*
X97126678Y-98368307D01*
X97124342Y-98368250D01*
X96407116Y-98368250D01*
X96391645Y-98372395D01*
X96387500Y-98387866D01*
X96387500Y-99286134D01*
X96087500Y-99286134D01*
X96087500Y-98387866D01*
X96083355Y-98372395D01*
X96067884Y-98368250D01*
X95401690Y-98368250D01*
X95394619Y-98368587D01*
X95250487Y-98382338D01*
X95236619Y-98385008D01*
X95051100Y-98439433D01*
X95037995Y-98444675D01*
X94866125Y-98533194D01*
X94854238Y-98540825D01*
X94702203Y-98660251D01*
X94691980Y-98669986D01*
X94565266Y-98816011D01*
X94557074Y-98827496D01*
X94460257Y-98994850D01*
X94454382Y-99007683D01*
X94390961Y-99190317D01*
X94387616Y-99204037D01*
X94375683Y-99286338D01*
X93780500Y-99286338D01*
X93780500Y-98101013D01*
X97710232Y-98101013D01*
X97715895Y-98110823D01*
X97727508Y-98120707D01*
X97739418Y-98128984D01*
X97907123Y-98222711D01*
X97920427Y-98228524D01*
X98103138Y-98287890D01*
X98117314Y-98291007D01*
X98308089Y-98313756D01*
X98322581Y-98314059D01*
X98514146Y-98299319D01*
X98528430Y-98296800D01*
X98713478Y-98245134D01*
X98727001Y-98239889D01*
X98898489Y-98153264D01*
X98910737Y-98145491D01*
X98953874Y-98111789D01*
X98963512Y-98098999D01*
X98959747Y-98090129D01*
X98351371Y-97481753D01*
X98337500Y-97473745D01*
X98323629Y-97481753D01*
X97718240Y-98087142D01*
X97710232Y-98101013D01*
X93780500Y-98101013D01*
X93780500Y-97248224D01*
X97279113Y-97248224D01*
X97295189Y-97439669D01*
X97297809Y-97453948D01*
X97350765Y-97638625D01*
X97356105Y-97652112D01*
X97443926Y-97822994D01*
X97451782Y-97835183D01*
X97481226Y-97872333D01*
X97494085Y-97881883D01*
X97503163Y-97877955D01*
X98111497Y-97269621D01*
X98119505Y-97255750D01*
X98555495Y-97255750D01*
X98563503Y-97269621D01*
X99169235Y-97875353D01*
X99183106Y-97883361D01*
X99193194Y-97877537D01*
X99198177Y-97871765D01*
X99206535Y-97859916D01*
X99301438Y-97692859D01*
X99307337Y-97679608D01*
X99319644Y-97642611D01*
X106444394Y-97642611D01*
X106462999Y-97811135D01*
X106466087Y-97819572D01*
X106466087Y-97819574D01*
X106485394Y-97872333D01*
X106521266Y-97970356D01*
X106526275Y-97977811D01*
X106526276Y-97977812D01*
X106610165Y-98102652D01*
X106615830Y-98111083D01*
X106622472Y-98117126D01*
X106622473Y-98117128D01*
X106727195Y-98212417D01*
X106741233Y-98225191D01*
X106749128Y-98229478D01*
X106749130Y-98229479D01*
X106882344Y-98301808D01*
X106882347Y-98301809D01*
X106890235Y-98306092D01*
X106961462Y-98324778D01*
X107045549Y-98346838D01*
X107045551Y-98346838D01*
X107054233Y-98349116D01*
X107063209Y-98349257D01*
X107214781Y-98351638D01*
X107223760Y-98351779D01*
X107389029Y-98313928D01*
X107411531Y-98302611D01*
X111484394Y-98302611D01*
X111485380Y-98311542D01*
X111485380Y-98311543D01*
X111485748Y-98314877D01*
X111502999Y-98471135D01*
X111506087Y-98479572D01*
X111506087Y-98479574D01*
X111528502Y-98540825D01*
X111561266Y-98630356D01*
X111566275Y-98637811D01*
X111566276Y-98637812D01*
X111574431Y-98649947D01*
X111655830Y-98771083D01*
X111662472Y-98777126D01*
X111662473Y-98777128D01*
X111768327Y-98873447D01*
X111781233Y-98885191D01*
X111789128Y-98889478D01*
X111789130Y-98889479D01*
X111922344Y-98961808D01*
X111922347Y-98961809D01*
X111930235Y-98966092D01*
X111967743Y-98975932D01*
X112085549Y-99006838D01*
X112085551Y-99006838D01*
X112094233Y-99009116D01*
X112103209Y-99009257D01*
X112254781Y-99011638D01*
X112263760Y-99011779D01*
X112429029Y-98973928D01*
X112580498Y-98897747D01*
X112602279Y-98879144D01*
X112702594Y-98793467D01*
X112702596Y-98793465D01*
X112709423Y-98787634D01*
X112774933Y-98696467D01*
X112803124Y-98657236D01*
X112803126Y-98657232D01*
X112808361Y-98649947D01*
X112830622Y-98594572D01*
X112868251Y-98500969D01*
X112868252Y-98500964D01*
X112871601Y-98492634D01*
X112895490Y-98324778D01*
X112895645Y-98310000D01*
X112875276Y-98141680D01*
X112815345Y-97983077D01*
X112719312Y-97843349D01*
X112707286Y-97832634D01*
X112599428Y-97736535D01*
X112599424Y-97736532D01*
X112592721Y-97730560D01*
X112584783Y-97726357D01*
X112584780Y-97726355D01*
X112450823Y-97655429D01*
X112442881Y-97651224D01*
X112434168Y-97649035D01*
X112434167Y-97649035D01*
X112333480Y-97623744D01*
X112278441Y-97609919D01*
X112174002Y-97609372D01*
X112117873Y-97609078D01*
X112108895Y-97609031D01*
X112096083Y-97612107D01*
X111952765Y-97646515D01*
X111952762Y-97646516D01*
X111944032Y-97648612D01*
X111936053Y-97652730D01*
X111936051Y-97652731D01*
X111883978Y-97679608D01*
X111793369Y-97726375D01*
X111786602Y-97732279D01*
X111786598Y-97732281D01*
X111712139Y-97797236D01*
X111665604Y-97837831D01*
X111568113Y-97976547D01*
X111506524Y-98134513D01*
X111484394Y-98302611D01*
X107411531Y-98302611D01*
X107501500Y-98257361D01*
X107540498Y-98237747D01*
X107569661Y-98212839D01*
X107662594Y-98133467D01*
X107662596Y-98133465D01*
X107669423Y-98127634D01*
X107696607Y-98089804D01*
X107763124Y-97997236D01*
X107763126Y-97997232D01*
X107768361Y-97989947D01*
X107796342Y-97920343D01*
X107828251Y-97840969D01*
X107828252Y-97840964D01*
X107831601Y-97832634D01*
X107855490Y-97664778D01*
X107855645Y-97650000D01*
X107835276Y-97481680D01*
X107820513Y-97442611D01*
X114594394Y-97442611D01*
X114612999Y-97611135D01*
X114616087Y-97619572D01*
X114616087Y-97619574D01*
X114628221Y-97652731D01*
X114671266Y-97770356D01*
X114676275Y-97777811D01*
X114676276Y-97777812D01*
X114747202Y-97883361D01*
X114765830Y-97911083D01*
X114772472Y-97917126D01*
X114772473Y-97917128D01*
X114860511Y-97997236D01*
X114891233Y-98025191D01*
X114899128Y-98029478D01*
X114899130Y-98029479D01*
X115032344Y-98101808D01*
X115032347Y-98101809D01*
X115040235Y-98106092D01*
X115072727Y-98114616D01*
X115195549Y-98146838D01*
X115195551Y-98146838D01*
X115204233Y-98149116D01*
X115213209Y-98149257D01*
X115364781Y-98151638D01*
X115373760Y-98151779D01*
X115539029Y-98113928D01*
X115552522Y-98107142D01*
X115682471Y-98041784D01*
X115690498Y-98037747D01*
X115737930Y-97997236D01*
X115812594Y-97933467D01*
X115812596Y-97933465D01*
X115819423Y-97927634D01*
X115851236Y-97883361D01*
X115913124Y-97797236D01*
X115913126Y-97797232D01*
X115918361Y-97789947D01*
X115945574Y-97722254D01*
X115978251Y-97640969D01*
X115978252Y-97640964D01*
X115981601Y-97632634D01*
X116005490Y-97464778D01*
X116005645Y-97450000D01*
X115985276Y-97281680D01*
X115925345Y-97123077D01*
X115829312Y-96983349D01*
X115822604Y-96977372D01*
X115709428Y-96876535D01*
X115709424Y-96876532D01*
X115702721Y-96870560D01*
X115694783Y-96866357D01*
X115694780Y-96866355D01*
X115560823Y-96795429D01*
X115552881Y-96791224D01*
X115544168Y-96789035D01*
X115544167Y-96789035D01*
X115438627Y-96762525D01*
X115388441Y-96749919D01*
X115284002Y-96749372D01*
X115227873Y-96749078D01*
X115218895Y-96749031D01*
X115210164Y-96751127D01*
X115210165Y-96751127D01*
X115062765Y-96786515D01*
X115062762Y-96786516D01*
X115054032Y-96788612D01*
X115046053Y-96792730D01*
X115046051Y-96792731D01*
X114919002Y-96858306D01*
X114903369Y-96866375D01*
X114896602Y-96872279D01*
X114896598Y-96872281D01*
X114829001Y-96931250D01*
X114775604Y-96977831D01*
X114678113Y-97116547D01*
X114616524Y-97274513D01*
X114594394Y-97442611D01*
X107820513Y-97442611D01*
X107775345Y-97323077D01*
X107770257Y-97315674D01*
X107770255Y-97315670D01*
X107714220Y-97234139D01*
X107688473Y-97161435D01*
X107702528Y-97085598D01*
X107716014Y-97062796D01*
X107763121Y-96997241D01*
X107763125Y-96997234D01*
X107768361Y-96989947D01*
X107816355Y-96870560D01*
X107828251Y-96840969D01*
X107828252Y-96840964D01*
X107831601Y-96832634D01*
X107855490Y-96664778D01*
X107855645Y-96650000D01*
X107835276Y-96481680D01*
X107775345Y-96323077D01*
X107679312Y-96183349D01*
X107672604Y-96177372D01*
X107559428Y-96076535D01*
X107559424Y-96076532D01*
X107552721Y-96070560D01*
X107544783Y-96066357D01*
X107544780Y-96066355D01*
X107410823Y-95995429D01*
X107402881Y-95991224D01*
X107394168Y-95989035D01*
X107394167Y-95989035D01*
X107321691Y-95970830D01*
X107238441Y-95949919D01*
X107134002Y-95949372D01*
X107077873Y-95949078D01*
X107068895Y-95949031D01*
X107060164Y-95951127D01*
X107060165Y-95951127D01*
X106912765Y-95986515D01*
X106912762Y-95986516D01*
X106904032Y-95988612D01*
X106896053Y-95992730D01*
X106896051Y-95992731D01*
X106890824Y-95995429D01*
X106753369Y-96066375D01*
X106746602Y-96072279D01*
X106746598Y-96072281D01*
X106741722Y-96076535D01*
X106625604Y-96177831D01*
X106528113Y-96316547D01*
X106466524Y-96474513D01*
X106444394Y-96642611D01*
X106462999Y-96811135D01*
X106466087Y-96819572D01*
X106466087Y-96819574D01*
X106485375Y-96872281D01*
X106521266Y-96970356D01*
X106526277Y-96977814D01*
X106526279Y-96977817D01*
X106586421Y-97067319D01*
X106611404Y-97140289D01*
X106596555Y-97215974D01*
X106584654Y-97236097D01*
X106528113Y-97316547D01*
X106466524Y-97474513D01*
X106444394Y-97642611D01*
X99319644Y-97642611D01*
X99367979Y-97497311D01*
X99371195Y-97483159D01*
X99395665Y-97289451D01*
X99396245Y-97281158D01*
X99396542Y-97259926D01*
X99396193Y-97251599D01*
X99377141Y-97057289D01*
X99374324Y-97043060D01*
X99318793Y-96859132D01*
X99313265Y-96845722D01*
X99223069Y-96676088D01*
X99215042Y-96664006D01*
X99194348Y-96638633D01*
X99181358Y-96629264D01*
X99171840Y-96633542D01*
X98563503Y-97241879D01*
X98555495Y-97255750D01*
X98119505Y-97255750D01*
X98111497Y-97241879D01*
X97506415Y-96636797D01*
X97492544Y-96628789D01*
X97483002Y-96634298D01*
X97468304Y-96651813D01*
X97460114Y-96663775D01*
X97367554Y-96832141D01*
X97361840Y-96845473D01*
X97303749Y-97028600D01*
X97300731Y-97042797D01*
X97279315Y-97233722D01*
X97279113Y-97248224D01*
X93780500Y-97248224D01*
X93780500Y-96103024D01*
X95312000Y-96103024D01*
X95352449Y-96293321D01*
X95431578Y-96471049D01*
X95545931Y-96628442D01*
X95551735Y-96633668D01*
X95684703Y-96753394D01*
X95684708Y-96753398D01*
X95690508Y-96758620D01*
X95697268Y-96762523D01*
X95697271Y-96762525D01*
X95743188Y-96789035D01*
X95858992Y-96855894D01*
X95866410Y-96858304D01*
X95866414Y-96858306D01*
X96036597Y-96913601D01*
X96036599Y-96913601D01*
X96044018Y-96916012D01*
X96051776Y-96916827D01*
X96051779Y-96916828D01*
X96106113Y-96922539D01*
X96188996Y-96931250D01*
X96286004Y-96931250D01*
X96368887Y-96922539D01*
X96423221Y-96916828D01*
X96423224Y-96916827D01*
X96430982Y-96916012D01*
X96438401Y-96913601D01*
X96438403Y-96913601D01*
X96608586Y-96858306D01*
X96608590Y-96858304D01*
X96616008Y-96855894D01*
X96731812Y-96789035D01*
X96777729Y-96762525D01*
X96777732Y-96762523D01*
X96784492Y-96758620D01*
X96790292Y-96753398D01*
X96790297Y-96753394D01*
X96923265Y-96633668D01*
X96929069Y-96628442D01*
X97043422Y-96471049D01*
X97069653Y-96412132D01*
X97711210Y-96412132D01*
X97715309Y-96421427D01*
X98323629Y-97029747D01*
X98337500Y-97037755D01*
X98351371Y-97029747D01*
X98956182Y-96424936D01*
X98964190Y-96411065D01*
X98958830Y-96401781D01*
X98935356Y-96382361D01*
X98923335Y-96374252D01*
X98754328Y-96282871D01*
X98740954Y-96277249D01*
X98557425Y-96220437D01*
X98543216Y-96217520D01*
X98352135Y-96197437D01*
X98337643Y-96197336D01*
X98146300Y-96214750D01*
X98132055Y-96217467D01*
X97947741Y-96271714D01*
X97934297Y-96277146D01*
X97764038Y-96366155D01*
X97751893Y-96374102D01*
X97720669Y-96399207D01*
X97711210Y-96412132D01*
X97069653Y-96412132D01*
X97122551Y-96293321D01*
X97163000Y-96103024D01*
X97163000Y-95908476D01*
X97122551Y-95718179D01*
X97043422Y-95540451D01*
X96929069Y-95383058D01*
X96869859Y-95329745D01*
X96790297Y-95258106D01*
X96790292Y-95258102D01*
X96784492Y-95252880D01*
X96777732Y-95248977D01*
X96777729Y-95248975D01*
X96622768Y-95159509D01*
X96622769Y-95159509D01*
X96616008Y-95155606D01*
X96608590Y-95153196D01*
X96608586Y-95153194D01*
X96438403Y-95097899D01*
X96438401Y-95097899D01*
X96430982Y-95095488D01*
X96423224Y-95094673D01*
X96423221Y-95094672D01*
X96368887Y-95088961D01*
X96286004Y-95080250D01*
X96188996Y-95080250D01*
X96106113Y-95088961D01*
X96051779Y-95094672D01*
X96051776Y-95094673D01*
X96044018Y-95095488D01*
X96036599Y-95097899D01*
X96036597Y-95097899D01*
X95866414Y-95153194D01*
X95866410Y-95153196D01*
X95858992Y-95155606D01*
X95852231Y-95159509D01*
X95852232Y-95159509D01*
X95697271Y-95248975D01*
X95697268Y-95248977D01*
X95690508Y-95252880D01*
X95684708Y-95258102D01*
X95684703Y-95258106D01*
X95605141Y-95329745D01*
X95545931Y-95383058D01*
X95431578Y-95540451D01*
X95352449Y-95718179D01*
X95312000Y-95908476D01*
X95312000Y-96103024D01*
X93780500Y-96103024D01*
X93780500Y-94740956D01*
X97278001Y-94740956D01*
X97295306Y-94947028D01*
X97352307Y-95145816D01*
X97446834Y-95329745D01*
X97451362Y-95335458D01*
X97494099Y-95389378D01*
X97575286Y-95491811D01*
X97732771Y-95625841D01*
X97913289Y-95726730D01*
X98109966Y-95790634D01*
X98242954Y-95806492D01*
X98308078Y-95814258D01*
X98308081Y-95814258D01*
X98315309Y-95815120D01*
X98521498Y-95799254D01*
X98528516Y-95797295D01*
X98528519Y-95797294D01*
X98713651Y-95745604D01*
X98720678Y-95743642D01*
X98761194Y-95723176D01*
X98898751Y-95653692D01*
X98898755Y-95653689D01*
X98905263Y-95650402D01*
X99036860Y-95547587D01*
X99062478Y-95527572D01*
X99062480Y-95527570D01*
X99068222Y-95523084D01*
X99203348Y-95366539D01*
X99305495Y-95186729D01*
X99370770Y-94990503D01*
X99375377Y-94954038D01*
X99396168Y-94789463D01*
X99396168Y-94789456D01*
X99396689Y-94785336D01*
X99397102Y-94755750D01*
X99383794Y-94620027D01*
X113547968Y-94620027D01*
X113550497Y-94624407D01*
X113556440Y-94627839D01*
X113684342Y-94680817D01*
X113703055Y-94685831D01*
X113840315Y-94703902D01*
X113859685Y-94703902D01*
X113996945Y-94685831D01*
X114015658Y-94680817D01*
X114143560Y-94627839D01*
X114147048Y-94625825D01*
X114151496Y-94620027D01*
X114822968Y-94620027D01*
X114825497Y-94624407D01*
X114831440Y-94627839D01*
X114959342Y-94680817D01*
X114978055Y-94685831D01*
X115115315Y-94703902D01*
X115134685Y-94703902D01*
X115271945Y-94685831D01*
X115290658Y-94680817D01*
X115418560Y-94627839D01*
X115422048Y-94625825D01*
X115426496Y-94620027D01*
X116097968Y-94620027D01*
X116100497Y-94624407D01*
X116106440Y-94627839D01*
X116234342Y-94680817D01*
X116253055Y-94685831D01*
X116390315Y-94703902D01*
X116409685Y-94703902D01*
X116546945Y-94685831D01*
X116565658Y-94680817D01*
X116693560Y-94627839D01*
X116697048Y-94625825D01*
X116702083Y-94619262D01*
X116698514Y-94610646D01*
X116413871Y-94326003D01*
X116400000Y-94317995D01*
X116386129Y-94326003D01*
X116105976Y-94606156D01*
X116097968Y-94620027D01*
X115426496Y-94620027D01*
X115427083Y-94619262D01*
X115423514Y-94610646D01*
X115138871Y-94326003D01*
X115125000Y-94317995D01*
X115111129Y-94326003D01*
X114830976Y-94606156D01*
X114822968Y-94620027D01*
X114151496Y-94620027D01*
X114152083Y-94619262D01*
X114148514Y-94610646D01*
X113863871Y-94326003D01*
X113850000Y-94317995D01*
X113836129Y-94326003D01*
X113555976Y-94606156D01*
X113547968Y-94620027D01*
X99383794Y-94620027D01*
X99376922Y-94549939D01*
X99374733Y-94542689D01*
X99319257Y-94358941D01*
X99319255Y-94358937D01*
X99317151Y-94351967D01*
X99271258Y-94265654D01*
X99223487Y-94175810D01*
X99223485Y-94175807D01*
X99220065Y-94169375D01*
X99215462Y-94163732D01*
X99215460Y-94163728D01*
X99171383Y-94109685D01*
X113246098Y-94109685D01*
X113264169Y-94246948D01*
X113269182Y-94265654D01*
X113322166Y-94393570D01*
X113324171Y-94397043D01*
X113330739Y-94402083D01*
X113339352Y-94398516D01*
X113623997Y-94113871D01*
X113632005Y-94100000D01*
X114067995Y-94100000D01*
X114076003Y-94113871D01*
X114356156Y-94394024D01*
X114370027Y-94402032D01*
X114400170Y-94384630D01*
X114439747Y-94358184D01*
X114516710Y-94353139D01*
X114578351Y-94381068D01*
X114605738Y-94402084D01*
X114614352Y-94398516D01*
X114898997Y-94113871D01*
X114907005Y-94100000D01*
X115342995Y-94100000D01*
X115351003Y-94113871D01*
X115631156Y-94394024D01*
X115645027Y-94402032D01*
X115675170Y-94384630D01*
X115714747Y-94358184D01*
X115791710Y-94353139D01*
X115853351Y-94381068D01*
X115880738Y-94402084D01*
X115889352Y-94398516D01*
X116173997Y-94113871D01*
X116182005Y-94100000D01*
X116617995Y-94100000D01*
X116626003Y-94113871D01*
X116906156Y-94394024D01*
X116920027Y-94402032D01*
X116924410Y-94399502D01*
X116927834Y-94393570D01*
X116980818Y-94265654D01*
X116985831Y-94246948D01*
X117003902Y-94109685D01*
X117003902Y-94090315D01*
X116985831Y-93953052D01*
X116980818Y-93934346D01*
X116927834Y-93806430D01*
X116925829Y-93802957D01*
X116919261Y-93797917D01*
X116910648Y-93801484D01*
X116626003Y-94086129D01*
X116617995Y-94100000D01*
X116182005Y-94100000D01*
X116173997Y-94086129D01*
X115893844Y-93805976D01*
X115879973Y-93797968D01*
X115849830Y-93815370D01*
X115810253Y-93841816D01*
X115733290Y-93846861D01*
X115671649Y-93818932D01*
X115644262Y-93797916D01*
X115635648Y-93801484D01*
X115351003Y-94086129D01*
X115342995Y-94100000D01*
X114907005Y-94100000D01*
X114898997Y-94086129D01*
X114618844Y-93805976D01*
X114604973Y-93797968D01*
X114574830Y-93815370D01*
X114535253Y-93841816D01*
X114458290Y-93846861D01*
X114396649Y-93818932D01*
X114369262Y-93797916D01*
X114360648Y-93801484D01*
X114076003Y-94086129D01*
X114067995Y-94100000D01*
X113632005Y-94100000D01*
X113623997Y-94086129D01*
X113343844Y-93805976D01*
X113329973Y-93797968D01*
X113325590Y-93800498D01*
X113322166Y-93806430D01*
X113269182Y-93934346D01*
X113264169Y-93953052D01*
X113246098Y-94090315D01*
X113246098Y-94109685D01*
X99171383Y-94109685D01*
X99093966Y-94014762D01*
X99089363Y-94009118D01*
X98930022Y-93877300D01*
X98928840Y-93876661D01*
X98879708Y-93820144D01*
X98864989Y-93744434D01*
X98890097Y-93671507D01*
X98921892Y-93637410D01*
X98994429Y-93580738D01*
X113547916Y-93580738D01*
X113551484Y-93589352D01*
X113836129Y-93873997D01*
X113850000Y-93882005D01*
X113863871Y-93873997D01*
X114144024Y-93593844D01*
X114151590Y-93580738D01*
X114822916Y-93580738D01*
X114826484Y-93589352D01*
X115111129Y-93873997D01*
X115125000Y-93882005D01*
X115138871Y-93873997D01*
X115419024Y-93593844D01*
X115426590Y-93580738D01*
X116097916Y-93580738D01*
X116101484Y-93589352D01*
X116386129Y-93873997D01*
X116400000Y-93882005D01*
X116413871Y-93873997D01*
X116694024Y-93593844D01*
X116702032Y-93579973D01*
X116684615Y-93549805D01*
X116658184Y-93510244D01*
X116653143Y-93433281D01*
X116681063Y-93371659D01*
X116702083Y-93344261D01*
X116698514Y-93335646D01*
X116413871Y-93051003D01*
X116400000Y-93042995D01*
X116386129Y-93051003D01*
X116105976Y-93331156D01*
X116097968Y-93345027D01*
X116115374Y-93375176D01*
X116141818Y-93414754D01*
X116146860Y-93491717D01*
X116118931Y-93553353D01*
X116097916Y-93580738D01*
X115426590Y-93580738D01*
X115427032Y-93579973D01*
X115409615Y-93549805D01*
X115383184Y-93510244D01*
X115378143Y-93433281D01*
X115406063Y-93371659D01*
X115427083Y-93344261D01*
X115423514Y-93335646D01*
X115138871Y-93051003D01*
X115125000Y-93042995D01*
X115111129Y-93051003D01*
X114830976Y-93331156D01*
X114822968Y-93345027D01*
X114840374Y-93375176D01*
X114866818Y-93414754D01*
X114871860Y-93491717D01*
X114843931Y-93553353D01*
X114822916Y-93580738D01*
X114151590Y-93580738D01*
X114152032Y-93579973D01*
X114134615Y-93549805D01*
X114108184Y-93510244D01*
X114103143Y-93433281D01*
X114131063Y-93371659D01*
X114152083Y-93344261D01*
X114148514Y-93335646D01*
X113863871Y-93051003D01*
X113850000Y-93042995D01*
X113836129Y-93051003D01*
X113555976Y-93331156D01*
X113547968Y-93345027D01*
X113565374Y-93375176D01*
X113591818Y-93414754D01*
X113596860Y-93491717D01*
X113568931Y-93553353D01*
X113547916Y-93580738D01*
X98994429Y-93580738D01*
X99062478Y-93527572D01*
X99062480Y-93527570D01*
X99068222Y-93523084D01*
X99161730Y-93414754D01*
X99198586Y-93372056D01*
X99198587Y-93372055D01*
X99203348Y-93366539D01*
X99305495Y-93186729D01*
X99370770Y-92990503D01*
X99375554Y-92952634D01*
X99396168Y-92789463D01*
X99396168Y-92789456D01*
X99396689Y-92785336D01*
X99397102Y-92755750D01*
X99376922Y-92549939D01*
X99374033Y-92540370D01*
X99352066Y-92467611D01*
X108694394Y-92467611D01*
X108712999Y-92636135D01*
X108716087Y-92644572D01*
X108716087Y-92644574D01*
X108743292Y-92718913D01*
X108771266Y-92795356D01*
X108776275Y-92802811D01*
X108776276Y-92802812D01*
X108853189Y-92917271D01*
X108865830Y-92936083D01*
X108872472Y-92942126D01*
X108872473Y-92942128D01*
X108983325Y-93042995D01*
X108991233Y-93050191D01*
X108999128Y-93054478D01*
X108999130Y-93054479D01*
X109132344Y-93126808D01*
X109132347Y-93126809D01*
X109140235Y-93131092D01*
X109177743Y-93140932D01*
X109295549Y-93171838D01*
X109295551Y-93171838D01*
X109304233Y-93174116D01*
X109313209Y-93174257D01*
X109464781Y-93176638D01*
X109473760Y-93176779D01*
X109639029Y-93138928D01*
X109669673Y-93123516D01*
X109710850Y-93102806D01*
X109790498Y-93062747D01*
X109812279Y-93044144D01*
X109912594Y-92958467D01*
X109912596Y-92958465D01*
X109919423Y-92952634D01*
X110004178Y-92834685D01*
X113246098Y-92834685D01*
X113264169Y-92971948D01*
X113269182Y-92990654D01*
X113322166Y-93118570D01*
X113324171Y-93122043D01*
X113330739Y-93127083D01*
X113339352Y-93123516D01*
X113623997Y-92838871D01*
X113632005Y-92825000D01*
X114067995Y-92825000D01*
X114076003Y-92838871D01*
X114356156Y-93119024D01*
X114370027Y-93127032D01*
X114400170Y-93109630D01*
X114439747Y-93083184D01*
X114516710Y-93078139D01*
X114578351Y-93106068D01*
X114605738Y-93127084D01*
X114614352Y-93123516D01*
X114898997Y-92838871D01*
X114907005Y-92825000D01*
X115342995Y-92825000D01*
X115351003Y-92838871D01*
X115631156Y-93119024D01*
X115645027Y-93127032D01*
X115675170Y-93109630D01*
X115714747Y-93083184D01*
X115791710Y-93078139D01*
X115853351Y-93106068D01*
X115880738Y-93127084D01*
X115889352Y-93123516D01*
X116173997Y-92838871D01*
X116182005Y-92825000D01*
X116617995Y-92825000D01*
X116626003Y-92838871D01*
X116906156Y-93119024D01*
X116920027Y-93127032D01*
X116924410Y-93124502D01*
X116927834Y-93118570D01*
X116980818Y-92990654D01*
X116985831Y-92971948D01*
X117003902Y-92834685D01*
X117003902Y-92815315D01*
X116985831Y-92678052D01*
X116980818Y-92659346D01*
X116927834Y-92531430D01*
X116925829Y-92527957D01*
X116919261Y-92522917D01*
X116910648Y-92526484D01*
X116626003Y-92811129D01*
X116617995Y-92825000D01*
X116182005Y-92825000D01*
X116173997Y-92811129D01*
X115893844Y-92530976D01*
X115879973Y-92522968D01*
X115849830Y-92540370D01*
X115810253Y-92566816D01*
X115733290Y-92571861D01*
X115671649Y-92543932D01*
X115644262Y-92522916D01*
X115635648Y-92526484D01*
X115351003Y-92811129D01*
X115342995Y-92825000D01*
X114907005Y-92825000D01*
X114898997Y-92811129D01*
X114618844Y-92530976D01*
X114604973Y-92522968D01*
X114574830Y-92540370D01*
X114535253Y-92566816D01*
X114458290Y-92571861D01*
X114396649Y-92543932D01*
X114369262Y-92522916D01*
X114360648Y-92526484D01*
X114076003Y-92811129D01*
X114067995Y-92825000D01*
X113632005Y-92825000D01*
X113623997Y-92811129D01*
X113343844Y-92530976D01*
X113329973Y-92522968D01*
X113325590Y-92525498D01*
X113322166Y-92531430D01*
X113269182Y-92659346D01*
X113264169Y-92678052D01*
X113246098Y-92815315D01*
X113246098Y-92834685D01*
X110004178Y-92834685D01*
X110013124Y-92822236D01*
X110013126Y-92822232D01*
X110018361Y-92814947D01*
X110046116Y-92745906D01*
X110078251Y-92665969D01*
X110078252Y-92665964D01*
X110081601Y-92657634D01*
X110105490Y-92489778D01*
X110105645Y-92475000D01*
X110085276Y-92306680D01*
X110084920Y-92305738D01*
X113547916Y-92305738D01*
X113551484Y-92314352D01*
X113836129Y-92598997D01*
X113850000Y-92607005D01*
X113863871Y-92598997D01*
X114144024Y-92318844D01*
X114151590Y-92305738D01*
X114822916Y-92305738D01*
X114826484Y-92314352D01*
X115111129Y-92598997D01*
X115125000Y-92607005D01*
X115138871Y-92598997D01*
X115419024Y-92318844D01*
X115426590Y-92305738D01*
X116097916Y-92305738D01*
X116101484Y-92314352D01*
X116386129Y-92598997D01*
X116400000Y-92607005D01*
X116413871Y-92598997D01*
X116694024Y-92318844D01*
X116702032Y-92304973D01*
X116684615Y-92274805D01*
X116658184Y-92235244D01*
X116653143Y-92158281D01*
X116681063Y-92096659D01*
X116702083Y-92069261D01*
X116698514Y-92060646D01*
X116413871Y-91776003D01*
X116400000Y-91767995D01*
X116386129Y-91776003D01*
X116105976Y-92056156D01*
X116097968Y-92070027D01*
X116115374Y-92100176D01*
X116141818Y-92139754D01*
X116146860Y-92216717D01*
X116118931Y-92278353D01*
X116097916Y-92305738D01*
X115426590Y-92305738D01*
X115427032Y-92304973D01*
X115409615Y-92274805D01*
X115383184Y-92235244D01*
X115378143Y-92158281D01*
X115406063Y-92096659D01*
X115427083Y-92069261D01*
X115423514Y-92060646D01*
X115138871Y-91776003D01*
X115125000Y-91767995D01*
X115111129Y-91776003D01*
X114830976Y-92056156D01*
X114822968Y-92070027D01*
X114840374Y-92100176D01*
X114866818Y-92139754D01*
X114871860Y-92216717D01*
X114843931Y-92278353D01*
X114822916Y-92305738D01*
X114151590Y-92305738D01*
X114152032Y-92304973D01*
X114134615Y-92274805D01*
X114108184Y-92235244D01*
X114103143Y-92158281D01*
X114131063Y-92096659D01*
X114152083Y-92069261D01*
X114148514Y-92060646D01*
X113863871Y-91776003D01*
X113850000Y-91767995D01*
X113836129Y-91776003D01*
X113555976Y-92056156D01*
X113547968Y-92070027D01*
X113565374Y-92100176D01*
X113591818Y-92139754D01*
X113596860Y-92216717D01*
X113568931Y-92278353D01*
X113547916Y-92305738D01*
X110084920Y-92305738D01*
X110025345Y-92148077D01*
X109929312Y-92008349D01*
X109922604Y-92002372D01*
X109809428Y-91901535D01*
X109809424Y-91901532D01*
X109802721Y-91895560D01*
X109794783Y-91891357D01*
X109794780Y-91891355D01*
X109660823Y-91820429D01*
X109652881Y-91816224D01*
X109644168Y-91814035D01*
X109644167Y-91814035D01*
X109561701Y-91793321D01*
X109488441Y-91774919D01*
X109384002Y-91774372D01*
X109327873Y-91774078D01*
X109318895Y-91774031D01*
X109307420Y-91776786D01*
X109162765Y-91811515D01*
X109162762Y-91811516D01*
X109154032Y-91813612D01*
X109146053Y-91817730D01*
X109146051Y-91817731D01*
X109021637Y-91881946D01*
X109003369Y-91891375D01*
X108996602Y-91897279D01*
X108996598Y-91897281D01*
X108904793Y-91977368D01*
X108875604Y-92002831D01*
X108870439Y-92010180D01*
X108838127Y-92056156D01*
X108778113Y-92141547D01*
X108716524Y-92299513D01*
X108694394Y-92467611D01*
X99352066Y-92467611D01*
X99319257Y-92358941D01*
X99319255Y-92358937D01*
X99317151Y-92351967D01*
X99293996Y-92308418D01*
X99223487Y-92175810D01*
X99223485Y-92175807D01*
X99220065Y-92169375D01*
X99215462Y-92163732D01*
X99215460Y-92163728D01*
X99093966Y-92014762D01*
X99089363Y-92009118D01*
X98930022Y-91877300D01*
X98908639Y-91865738D01*
X98802194Y-91808184D01*
X98748112Y-91778942D01*
X98741150Y-91776787D01*
X98741148Y-91776786D01*
X98557525Y-91719945D01*
X98557524Y-91719945D01*
X98550563Y-91717790D01*
X98543323Y-91717029D01*
X98543318Y-91717028D01*
X98352138Y-91696935D01*
X98344897Y-91696174D01*
X98138950Y-91714916D01*
X97940566Y-91773304D01*
X97757301Y-91869113D01*
X97596135Y-91998693D01*
X97547918Y-92056156D01*
X97467887Y-92151533D01*
X97467884Y-92151537D01*
X97463208Y-92157110D01*
X97459703Y-92163486D01*
X97459702Y-92163487D01*
X97438219Y-92202565D01*
X97363582Y-92338328D01*
X97361382Y-92345265D01*
X97361381Y-92345266D01*
X97303429Y-92527957D01*
X97301053Y-92535446D01*
X97293925Y-92598997D01*
X97279098Y-92731179D01*
X97278001Y-92740956D01*
X97295306Y-92947028D01*
X97297316Y-92954037D01*
X97297316Y-92954038D01*
X97346936Y-93127084D01*
X97352307Y-93145816D01*
X97446834Y-93329745D01*
X97451362Y-93335458D01*
X97542940Y-93451000D01*
X97575286Y-93491811D01*
X97732771Y-93625841D01*
X97739132Y-93629396D01*
X97745117Y-93633556D01*
X97743394Y-93636035D01*
X97788384Y-93679997D01*
X97809206Y-93754261D01*
X97790106Y-93828987D01*
X97753581Y-93872104D01*
X97596135Y-93998693D01*
X97582652Y-94014762D01*
X97467887Y-94151533D01*
X97467884Y-94151537D01*
X97463208Y-94157110D01*
X97459703Y-94163486D01*
X97459702Y-94163487D01*
X97438219Y-94202565D01*
X97363582Y-94338328D01*
X97361382Y-94345265D01*
X97361381Y-94345266D01*
X97343358Y-94402084D01*
X97301053Y-94535446D01*
X97278001Y-94740956D01*
X93780500Y-94740956D01*
X93780500Y-91603024D01*
X95312000Y-91603024D01*
X95352449Y-91793321D01*
X95431578Y-91971049D01*
X95436169Y-91977368D01*
X95498252Y-92062817D01*
X95545931Y-92128442D01*
X95551735Y-92133668D01*
X95684703Y-92253394D01*
X95684708Y-92253398D01*
X95690508Y-92258620D01*
X95697268Y-92262523D01*
X95697271Y-92262525D01*
X95776761Y-92308418D01*
X95858992Y-92355894D01*
X95866410Y-92358304D01*
X95866414Y-92358306D01*
X96036597Y-92413601D01*
X96036599Y-92413601D01*
X96044018Y-92416012D01*
X96051776Y-92416827D01*
X96051779Y-92416828D01*
X96106113Y-92422539D01*
X96188996Y-92431250D01*
X96286004Y-92431250D01*
X96368887Y-92422539D01*
X96423221Y-92416828D01*
X96423224Y-92416827D01*
X96430982Y-92416012D01*
X96438401Y-92413601D01*
X96438403Y-92413601D01*
X96608586Y-92358306D01*
X96608590Y-92358304D01*
X96616008Y-92355894D01*
X96698239Y-92308418D01*
X96777729Y-92262525D01*
X96777732Y-92262523D01*
X96784492Y-92258620D01*
X96790292Y-92253398D01*
X96790297Y-92253394D01*
X96923265Y-92133668D01*
X96929069Y-92128442D01*
X96976749Y-92062817D01*
X97038831Y-91977368D01*
X97043422Y-91971049D01*
X97122551Y-91793321D01*
X97163000Y-91603024D01*
X97163000Y-91559685D01*
X113246098Y-91559685D01*
X113264169Y-91696948D01*
X113269182Y-91715654D01*
X113322166Y-91843570D01*
X113324171Y-91847043D01*
X113330739Y-91852083D01*
X113339352Y-91848516D01*
X113623997Y-91563871D01*
X113632005Y-91550000D01*
X114067995Y-91550000D01*
X114076003Y-91563871D01*
X114356156Y-91844024D01*
X114370027Y-91852032D01*
X114400170Y-91834630D01*
X114439747Y-91808184D01*
X114516710Y-91803139D01*
X114578351Y-91831068D01*
X114605738Y-91852084D01*
X114614352Y-91848516D01*
X114898997Y-91563871D01*
X114907005Y-91550000D01*
X115342995Y-91550000D01*
X115351003Y-91563871D01*
X115631156Y-91844024D01*
X115645027Y-91852032D01*
X115675170Y-91834630D01*
X115714747Y-91808184D01*
X115791710Y-91803139D01*
X115853351Y-91831068D01*
X115880738Y-91852084D01*
X115889352Y-91848516D01*
X116173997Y-91563871D01*
X116182005Y-91550000D01*
X116617995Y-91550000D01*
X116626003Y-91563871D01*
X116906156Y-91844024D01*
X116920027Y-91852032D01*
X116924410Y-91849502D01*
X116927834Y-91843570D01*
X116980818Y-91715654D01*
X116985831Y-91696948D01*
X117003902Y-91559685D01*
X117003902Y-91540315D01*
X116985831Y-91403052D01*
X116980818Y-91384346D01*
X116927834Y-91256430D01*
X116925829Y-91252957D01*
X116919261Y-91247917D01*
X116910648Y-91251484D01*
X116626003Y-91536129D01*
X116617995Y-91550000D01*
X116182005Y-91550000D01*
X116173997Y-91536129D01*
X115893844Y-91255976D01*
X115879973Y-91247968D01*
X115849830Y-91265370D01*
X115810253Y-91291816D01*
X115733290Y-91296861D01*
X115671649Y-91268932D01*
X115644262Y-91247916D01*
X115635648Y-91251484D01*
X115351003Y-91536129D01*
X115342995Y-91550000D01*
X114907005Y-91550000D01*
X114898997Y-91536129D01*
X114618844Y-91255976D01*
X114604973Y-91247968D01*
X114574830Y-91265370D01*
X114535253Y-91291816D01*
X114458290Y-91296861D01*
X114396649Y-91268932D01*
X114369262Y-91247916D01*
X114360648Y-91251484D01*
X114076003Y-91536129D01*
X114067995Y-91550000D01*
X113632005Y-91550000D01*
X113623997Y-91536129D01*
X113343844Y-91255976D01*
X113329973Y-91247968D01*
X113325590Y-91250498D01*
X113322166Y-91256430D01*
X113269182Y-91384346D01*
X113264169Y-91403052D01*
X113246098Y-91540315D01*
X113246098Y-91559685D01*
X97163000Y-91559685D01*
X97163000Y-91408476D01*
X97161375Y-91400831D01*
X97161048Y-91399290D01*
X97161103Y-91398239D01*
X97160560Y-91393072D01*
X97161378Y-91392986D01*
X97165085Y-91322268D01*
X97207093Y-91257583D01*
X97275815Y-91222569D01*
X97352837Y-91226606D01*
X97390972Y-91245371D01*
X97401051Y-91252272D01*
X97410787Y-91261991D01*
X97478249Y-91291816D01*
X97502626Y-91302593D01*
X97513173Y-91307256D01*
X97527818Y-91308963D01*
X97534570Y-91309751D01*
X97534578Y-91309751D01*
X97538854Y-91310250D01*
X99136146Y-91310250D01*
X99162346Y-91307132D01*
X99264653Y-91261689D01*
X99343741Y-91182463D01*
X99389006Y-91080077D01*
X99390713Y-91065432D01*
X99391501Y-91058680D01*
X99391501Y-91058672D01*
X99392000Y-91054396D01*
X99392000Y-91030739D01*
X113547917Y-91030739D01*
X113551484Y-91039352D01*
X113836129Y-91323997D01*
X113850000Y-91332005D01*
X113863871Y-91323997D01*
X114144024Y-91043844D01*
X114151590Y-91030739D01*
X114822917Y-91030739D01*
X114826484Y-91039352D01*
X115111129Y-91323997D01*
X115125000Y-91332005D01*
X115138871Y-91323997D01*
X115419024Y-91043844D01*
X115426590Y-91030739D01*
X116097917Y-91030739D01*
X116101484Y-91039352D01*
X116386129Y-91323997D01*
X116400000Y-91332005D01*
X116413871Y-91323997D01*
X116694024Y-91043844D01*
X116702032Y-91029973D01*
X116699503Y-91025593D01*
X116693560Y-91022161D01*
X116565658Y-90969183D01*
X116546945Y-90964169D01*
X116409685Y-90946098D01*
X116390315Y-90946098D01*
X116253052Y-90964169D01*
X116234346Y-90969182D01*
X116106430Y-91022166D01*
X116102957Y-91024171D01*
X116097917Y-91030739D01*
X115426590Y-91030739D01*
X115427032Y-91029973D01*
X115424503Y-91025593D01*
X115418560Y-91022161D01*
X115290658Y-90969183D01*
X115271945Y-90964169D01*
X115134685Y-90946098D01*
X115115315Y-90946098D01*
X114978052Y-90964169D01*
X114959346Y-90969182D01*
X114831430Y-91022166D01*
X114827957Y-91024171D01*
X114822917Y-91030739D01*
X114151590Y-91030739D01*
X114152032Y-91029973D01*
X114149503Y-91025593D01*
X114143560Y-91022161D01*
X114015658Y-90969183D01*
X113996945Y-90964169D01*
X113859685Y-90946098D01*
X113840315Y-90946098D01*
X113703052Y-90964169D01*
X113684346Y-90969182D01*
X113556430Y-91022166D01*
X113552957Y-91024171D01*
X113547917Y-91030739D01*
X99392000Y-91030739D01*
X99392000Y-89457104D01*
X99388882Y-89430904D01*
X99376315Y-89402611D01*
X109974394Y-89402611D01*
X109975380Y-89411542D01*
X109975380Y-89411543D01*
X109977575Y-89431423D01*
X109992999Y-89571135D01*
X109996087Y-89579572D01*
X109996087Y-89579574D01*
X110003917Y-89600969D01*
X110051266Y-89730356D01*
X110056275Y-89737811D01*
X110056276Y-89737812D01*
X110064431Y-89749947D01*
X110145830Y-89871083D01*
X110152472Y-89877126D01*
X110152473Y-89877128D01*
X110170430Y-89893467D01*
X110271233Y-89985191D01*
X110279128Y-89989478D01*
X110279130Y-89989479D01*
X110412344Y-90061808D01*
X110412347Y-90061809D01*
X110420235Y-90066092D01*
X110457743Y-90075932D01*
X110575549Y-90106838D01*
X110575551Y-90106838D01*
X110584233Y-90109116D01*
X110593209Y-90109257D01*
X110744781Y-90111638D01*
X110753760Y-90111779D01*
X110919029Y-90073928D01*
X111070498Y-89997747D01*
X111092279Y-89979144D01*
X111192594Y-89893467D01*
X111192596Y-89893465D01*
X111199423Y-89887634D01*
X111216866Y-89863360D01*
X111293124Y-89757236D01*
X111293126Y-89757232D01*
X111298361Y-89749947D01*
X111309628Y-89721920D01*
X111358251Y-89600969D01*
X111358252Y-89600964D01*
X111361601Y-89592634D01*
X111385490Y-89424778D01*
X111385645Y-89410000D01*
X111365276Y-89241680D01*
X111305345Y-89083077D01*
X111209312Y-88943349D01*
X111200028Y-88935077D01*
X111089428Y-88836535D01*
X111089424Y-88836532D01*
X111082721Y-88830560D01*
X111074783Y-88826357D01*
X111074780Y-88826355D01*
X110940823Y-88755429D01*
X110932881Y-88751224D01*
X110924168Y-88749035D01*
X110924167Y-88749035D01*
X110851691Y-88730830D01*
X110768441Y-88709919D01*
X110664002Y-88709372D01*
X110607873Y-88709078D01*
X110598895Y-88709031D01*
X110590164Y-88711127D01*
X110590165Y-88711127D01*
X110442765Y-88746515D01*
X110442762Y-88746516D01*
X110434032Y-88748612D01*
X110426053Y-88752730D01*
X110426051Y-88752731D01*
X110291353Y-88822254D01*
X110283369Y-88826375D01*
X110276602Y-88832279D01*
X110276598Y-88832281D01*
X110162373Y-88931926D01*
X110155604Y-88937831D01*
X110058113Y-89076547D01*
X109996524Y-89234513D01*
X109974394Y-89402611D01*
X99376315Y-89402611D01*
X99343439Y-89328597D01*
X99264213Y-89249509D01*
X99251633Y-89243947D01*
X99251631Y-89243946D01*
X99172074Y-89208774D01*
X99172073Y-89208774D01*
X99161827Y-89204244D01*
X99147182Y-89202537D01*
X99140430Y-89201749D01*
X99140422Y-89201749D01*
X99136146Y-89201250D01*
X97758120Y-89201250D01*
X97683620Y-89181288D01*
X97629082Y-89126750D01*
X97609120Y-89052250D01*
X97629082Y-88977750D01*
X97666079Y-88935077D01*
X97772797Y-88851249D01*
X97783020Y-88841514D01*
X97909734Y-88695489D01*
X97917926Y-88684004D01*
X98014743Y-88516650D01*
X98020618Y-88503817D01*
X98084039Y-88321183D01*
X98087384Y-88307463D01*
X98099317Y-88225162D01*
X98097435Y-88209258D01*
X98089269Y-88205750D01*
X96407116Y-88205750D01*
X96391645Y-88209895D01*
X96387500Y-88225366D01*
X96387500Y-89123634D01*
X96391645Y-89139105D01*
X96407116Y-89143250D01*
X97073310Y-89143250D01*
X97080379Y-89142913D01*
X97174892Y-89133896D01*
X97250952Y-89146692D01*
X97310423Y-89195803D01*
X97337370Y-89268070D01*
X97325320Y-89342470D01*
X97290524Y-89421175D01*
X97290523Y-89421179D01*
X97285994Y-89431423D01*
X97283000Y-89457104D01*
X97283000Y-90911628D01*
X97263038Y-90986128D01*
X97208500Y-91040666D01*
X97134000Y-91060628D01*
X97059500Y-91040666D01*
X97013457Y-90999208D01*
X96933661Y-90889378D01*
X96933660Y-90889377D01*
X96929069Y-90883058D01*
X96923265Y-90877832D01*
X96790297Y-90758106D01*
X96790292Y-90758102D01*
X96784492Y-90752880D01*
X96777732Y-90748977D01*
X96777729Y-90748975D01*
X96622768Y-90659509D01*
X96622769Y-90659509D01*
X96616008Y-90655606D01*
X96608590Y-90653196D01*
X96608586Y-90653194D01*
X96438403Y-90597899D01*
X96438401Y-90597899D01*
X96430982Y-90595488D01*
X96423224Y-90594673D01*
X96423221Y-90594672D01*
X96368887Y-90588961D01*
X96286004Y-90580250D01*
X96188996Y-90580250D01*
X96106113Y-90588961D01*
X96051779Y-90594672D01*
X96051776Y-90594673D01*
X96044018Y-90595488D01*
X96036599Y-90597899D01*
X96036597Y-90597899D01*
X95866414Y-90653194D01*
X95866410Y-90653196D01*
X95858992Y-90655606D01*
X95852231Y-90659509D01*
X95852232Y-90659509D01*
X95697271Y-90748975D01*
X95697268Y-90748977D01*
X95690508Y-90752880D01*
X95684708Y-90758102D01*
X95684703Y-90758106D01*
X95551735Y-90877832D01*
X95545931Y-90883058D01*
X95541340Y-90889377D01*
X95541339Y-90889378D01*
X95487000Y-90964169D01*
X95431578Y-91040451D01*
X95352449Y-91218179D01*
X95312000Y-91408476D01*
X95312000Y-91603024D01*
X93780500Y-91603024D01*
X93780500Y-88220097D01*
X94370963Y-88220097D01*
X94415410Y-88404523D01*
X94420006Y-88417871D01*
X94500027Y-88593868D01*
X94507063Y-88606104D01*
X94618918Y-88763790D01*
X94628147Y-88774482D01*
X94767797Y-88908169D01*
X94778889Y-88916928D01*
X94941295Y-89021792D01*
X94953836Y-89028293D01*
X95133148Y-89100558D01*
X95146689Y-89104569D01*
X95338138Y-89141956D01*
X95348322Y-89143193D01*
X95350658Y-89143250D01*
X96067884Y-89143250D01*
X96083355Y-89139105D01*
X96087500Y-89123634D01*
X96087500Y-88225366D01*
X96083355Y-88209895D01*
X96067884Y-88205750D01*
X94387886Y-88205750D01*
X94373517Y-88209600D01*
X94370963Y-88220097D01*
X93780500Y-88220097D01*
X93780500Y-87199500D01*
X93800462Y-87125000D01*
X93855000Y-87070462D01*
X93929500Y-87050500D01*
X94555867Y-87050500D01*
X94630367Y-87070462D01*
G37*
%TD.AperFunction*%
%TD*%
M02*
