%TF.GenerationSoftware,KiCad,Pcbnew,(6.0.7)*%
%TF.CreationDate,2022-08-26T02:46:55-07:00*%
%TF.ProjectId,RP2040_Injector,52503230-3430-45f4-996e-6a6563746f72,rev?*%
%TF.SameCoordinates,Original*%
%TF.FileFunction,Copper,L1,Top*%
%TF.FilePolarity,Positive*%
%FSLAX46Y46*%
G04 Gerber Fmt 4.6, Leading zero omitted, Abs format (unit mm)*
G04 Created by KiCad (PCBNEW (6.0.7)) date 2022-08-26 02:46:55*
%MOMM*%
%LPD*%
G01*
G04 APERTURE LIST*
G04 Aperture macros list*
%AMRoundRect*
0 Rectangle with rounded corners*
0 $1 Rounding radius*
0 $2 $3 $4 $5 $6 $7 $8 $9 X,Y pos of 4 corners*
0 Add a 4 corners polygon primitive as box body*
4,1,4,$2,$3,$4,$5,$6,$7,$8,$9,$2,$3,0*
0 Add four circle primitives for the rounded corners*
1,1,$1+$1,$2,$3*
1,1,$1+$1,$4,$5*
1,1,$1+$1,$6,$7*
1,1,$1+$1,$8,$9*
0 Add four rect primitives between the rounded corners*
20,1,$1+$1,$2,$3,$4,$5,0*
20,1,$1+$1,$4,$5,$6,$7,0*
20,1,$1+$1,$6,$7,$8,$9,0*
20,1,$1+$1,$8,$9,$2,$3,0*%
G04 Aperture macros list end*
%TA.AperFunction,SMDPad,CuDef*%
%ADD10RoundRect,0.135000X0.135000X0.185000X-0.135000X0.185000X-0.135000X-0.185000X0.135000X-0.185000X0*%
%TD*%
%TA.AperFunction,SMDPad,CuDef*%
%ADD11RoundRect,0.218750X-0.218750X-0.256250X0.218750X-0.256250X0.218750X0.256250X-0.218750X0.256250X0*%
%TD*%
%TA.AperFunction,ComponentPad*%
%ADD12C,0.600000*%
%TD*%
%TA.AperFunction,SMDPad,CuDef*%
%ADD13RoundRect,0.135000X-0.135000X-0.185000X0.135000X-0.185000X0.135000X0.185000X-0.135000X0.185000X0*%
%TD*%
%TA.AperFunction,SMDPad,CuDef*%
%ADD14RoundRect,0.140000X-0.140000X-0.170000X0.140000X-0.170000X0.140000X0.170000X-0.140000X0.170000X0*%
%TD*%
%TA.AperFunction,SMDPad,CuDef*%
%ADD15R,2.000000X1.500000*%
%TD*%
%TA.AperFunction,SMDPad,CuDef*%
%ADD16R,2.000000X3.800000*%
%TD*%
%TA.AperFunction,SMDPad,CuDef*%
%ADD17RoundRect,0.140000X0.170000X-0.140000X0.170000X0.140000X-0.170000X0.140000X-0.170000X-0.140000X0*%
%TD*%
%TA.AperFunction,SMDPad,CuDef*%
%ADD18RoundRect,0.140000X0.140000X0.170000X-0.140000X0.170000X-0.140000X-0.170000X0.140000X-0.170000X0*%
%TD*%
%TA.AperFunction,SMDPad,CuDef*%
%ADD19RoundRect,0.150000X0.650000X0.150000X-0.650000X0.150000X-0.650000X-0.150000X0.650000X-0.150000X0*%
%TD*%
%TA.AperFunction,ComponentPad*%
%ADD20O,3.150000X1.575000*%
%TD*%
%TA.AperFunction,ComponentPad*%
%ADD21C,1.508000*%
%TD*%
%TA.AperFunction,ComponentPad*%
%ADD22R,1.508000X1.508000*%
%TD*%
%TA.AperFunction,ComponentPad*%
%ADD23R,1.700000X1.700000*%
%TD*%
%TA.AperFunction,ComponentPad*%
%ADD24O,1.700000X1.700000*%
%TD*%
%TA.AperFunction,SMDPad,CuDef*%
%ADD25RoundRect,0.250000X0.475000X-0.250000X0.475000X0.250000X-0.475000X0.250000X-0.475000X-0.250000X0*%
%TD*%
%TA.AperFunction,SMDPad,CuDef*%
%ADD26RoundRect,0.135000X-0.185000X0.135000X-0.185000X-0.135000X0.185000X-0.135000X0.185000X0.135000X0*%
%TD*%
%TA.AperFunction,SMDPad,CuDef*%
%ADD27RoundRect,0.006000X0.094000X-0.414000X0.094000X0.414000X-0.094000X0.414000X-0.094000X-0.414000X0*%
%TD*%
%TA.AperFunction,SMDPad,CuDef*%
%ADD28RoundRect,0.020000X0.400000X-0.080000X0.400000X0.080000X-0.400000X0.080000X-0.400000X-0.080000X0*%
%TD*%
%TA.AperFunction,SMDPad,CuDef*%
%ADD29R,3.100000X3.100000*%
%TD*%
%TA.AperFunction,SMDPad,CuDef*%
%ADD30R,1.200000X1.400000*%
%TD*%
%TA.AperFunction,ViaPad*%
%ADD31C,0.800000*%
%TD*%
%TA.AperFunction,Conductor*%
%ADD32C,0.300000*%
%TD*%
%TA.AperFunction,Conductor*%
%ADD33C,0.200000*%
%TD*%
%TA.AperFunction,Conductor*%
%ADD34C,0.500000*%
%TD*%
%TA.AperFunction,Conductor*%
%ADD35C,0.800000*%
%TD*%
G04 APERTURE END LIST*
D10*
%TO.P,R1,2*%
%TO.N,GND*%
X131290000Y-96900000D03*
%TO.P,R1,1*%
%TO.N,Net-(D1-Pad1)*%
X132310000Y-96900000D03*
%TD*%
D11*
%TO.P,D1,2,A*%
%TO.N,+3V3*%
X132975000Y-95250000D03*
%TO.P,D1,1,K*%
%TO.N,Net-(D1-Pad1)*%
X131400000Y-95250000D03*
%TD*%
D12*
%TO.P,,57*%
%TO.N,GND*%
X163800000Y-99875000D03*
%TD*%
D13*
%TO.P,R3,1*%
%TO.N,USB_DM*%
X155490000Y-96000000D03*
%TO.P,R3,2*%
%TO.N,Net-(R3-Pad2)*%
X156510000Y-96000000D03*
%TD*%
D14*
%TO.P,C15,1*%
%TO.N,XIN*%
X171350000Y-99650000D03*
%TO.P,C15,2*%
%TO.N,GND*%
X172310000Y-99650000D03*
%TD*%
D15*
%TO.P,U1,1,GND*%
%TO.N,GND*%
X135400000Y-101200000D03*
%TO.P,U1,2,VO*%
%TO.N,+3V3*%
X135400000Y-103500000D03*
D16*
X141700000Y-103500000D03*
D15*
%TO.P,U1,3,VI*%
%TO.N,VCC*%
X135400000Y-105800000D03*
%TD*%
D17*
%TO.P,C13,1*%
%TO.N,+1V1*%
X157990000Y-96360000D03*
%TO.P,C13,2*%
%TO.N,GND*%
X157990000Y-95400000D03*
%TD*%
D12*
%TO.P,,57*%
%TO.N,GND*%
X161250000Y-99875000D03*
%TD*%
D17*
%TO.P,C14,1*%
%TO.N,+3V3*%
X146300000Y-106580000D03*
%TO.P,C14,2*%
%TO.N,GND*%
X146300000Y-105620000D03*
%TD*%
D14*
%TO.P,C4,1*%
%TO.N,+3V3*%
X163545000Y-105950000D03*
%TO.P,C4,2*%
%TO.N,GND*%
X164505000Y-105950000D03*
%TD*%
D18*
%TO.P,C9,1*%
%TO.N,+3V3*%
X155080000Y-98700000D03*
%TO.P,C9,2*%
%TO.N,GND*%
X154120000Y-98700000D03*
%TD*%
D12*
%TO.P,,57*%
%TO.N,GND*%
X162525000Y-101150000D03*
%TD*%
%TO.P,,57*%
%TO.N,GND*%
X163800000Y-101150000D03*
%TD*%
D19*
%TO.P,U2,1,~{CS}*%
%TO.N,/QSPI_CSN*%
X155700000Y-106405000D03*
%TO.P,U2,2,DO(IO1)*%
%TO.N,/QSPI_SD1*%
X155700000Y-105135000D03*
%TO.P,U2,3,IO2*%
%TO.N,/QSPI_SD2*%
X155700000Y-103865000D03*
%TO.P,U2,4,GND*%
%TO.N,GND*%
X155700000Y-102595000D03*
%TO.P,U2,5,DI(IO0)*%
%TO.N,/QSPI_SD0*%
X148500000Y-102595000D03*
%TO.P,U2,6,CLK*%
%TO.N,/QSPI_SCLK*%
X148500000Y-103865000D03*
%TO.P,U2,7,IO3*%
%TO.N,/QSPI_SD3*%
X148500000Y-105135000D03*
%TO.P,U2,8,VCC*%
%TO.N,+3V3*%
X148500000Y-106405000D03*
%TD*%
D18*
%TO.P,C12,1*%
%TO.N,+1V1*%
X155080000Y-99800000D03*
%TO.P,C12,2*%
%TO.N,GND*%
X154120000Y-99800000D03*
%TD*%
D20*
%TO.P,J1,S2,SHIELD*%
%TO.N,GND*%
X127300000Y-95400000D03*
%TO.P,J1,S1,SHIELD*%
X127300000Y-106800000D03*
D21*
%TO.P,J1,4,GND*%
X129400000Y-97600000D03*
%TO.P,J1,3,D+*%
%TO.N,USB_DP*%
X129400000Y-100100000D03*
%TO.P,J1,2,D-*%
%TO.N,USB_DM*%
X129400000Y-102100000D03*
D22*
%TO.P,J1,1,VCC*%
%TO.N,VCC*%
X129400000Y-104600000D03*
%TD*%
D14*
%TO.P,C11,1*%
%TO.N,+1V1*%
X167570000Y-99750000D03*
%TO.P,C11,2*%
%TO.N,GND*%
X168530000Y-99750000D03*
%TD*%
D12*
%TO.P,,57*%
%TO.N,GND*%
X162525000Y-102425000D03*
%TD*%
D17*
%TO.P,C10,1*%
%TO.N,+3V3*%
X160090000Y-96360000D03*
%TO.P,C10,2*%
%TO.N,GND*%
X160090000Y-95400000D03*
%TD*%
D14*
%TO.P,C3,1*%
%TO.N,+3V3*%
X159920000Y-105950000D03*
%TO.P,C3,2*%
%TO.N,GND*%
X160880000Y-105950000D03*
%TD*%
D12*
%TO.P,,57*%
%TO.N,GND*%
X161250000Y-102425000D03*
%TD*%
D23*
%TO.P,J2,1,Pin_1*%
%TO.N,GND*%
X170970000Y-102875000D03*
D24*
%TO.P,J2,2,Pin_2*%
%TO.N,/~{USB_BOOT}*%
X170970000Y-105415000D03*
%TD*%
D12*
%TO.P,,57*%
%TO.N,GND*%
X162525000Y-99875000D03*
%TD*%
D17*
%TO.P,C7,1*%
%TO.N,+3V3*%
X161140000Y-96360000D03*
%TO.P,C7,2*%
%TO.N,GND*%
X161140000Y-95400000D03*
%TD*%
D25*
%TO.P,C2,1*%
%TO.N,+3V3*%
X144400000Y-106200000D03*
%TO.P,C2,2*%
%TO.N,GND*%
X144400000Y-104300000D03*
%TD*%
D14*
%TO.P,C5,1*%
%TO.N,+3V3*%
X167570000Y-100850000D03*
%TO.P,C5,2*%
%TO.N,GND*%
X168530000Y-100850000D03*
%TD*%
D17*
%TO.P,C16,1*%
%TO.N,XOUT*%
X168550000Y-96300000D03*
%TO.P,C16,2*%
%TO.N,GND*%
X168550000Y-95340000D03*
%TD*%
D12*
%TO.P,,57*%
%TO.N,GND*%
X163800000Y-102425000D03*
%TD*%
D13*
%TO.P,R4,1*%
%TO.N,USB_DP*%
X155490000Y-97100000D03*
%TO.P,R4,2*%
%TO.N,Net-(R4-Pad2)*%
X156510000Y-97100000D03*
%TD*%
D17*
%TO.P,C8,1*%
%TO.N,+3V3*%
X159040000Y-96360000D03*
%TO.P,C8,2*%
%TO.N,GND*%
X159040000Y-95400000D03*
%TD*%
D26*
%TO.P,R2,1*%
%TO.N,/~{USB_BOOT}*%
X167170000Y-105650000D03*
%TO.P,R2,2*%
%TO.N,/QSPI_CSN*%
X167170000Y-106670000D03*
%TD*%
D12*
%TO.P,,57*%
%TO.N,GND*%
X161250000Y-101150000D03*
%TD*%
D25*
%TO.P,C1,1*%
%TO.N,VCC*%
X132300000Y-105300000D03*
%TO.P,C1,2*%
%TO.N,GND*%
X132300000Y-103400000D03*
%TD*%
D27*
%TO.P,U3,1,IOVDD*%
%TO.N,+3V3*%
X159935000Y-104585000D03*
%TO.P,U3,2,GPIO0*%
%TO.N,unconnected-(U3-Pad2)*%
X160335000Y-104585000D03*
%TO.P,U3,3,GPIO1*%
%TO.N,unconnected-(U3-Pad3)*%
X160735000Y-104585000D03*
%TO.P,U3,4,GPIO2*%
%TO.N,unconnected-(U3-Pad4)*%
X161135000Y-104585000D03*
%TO.P,U3,5,GPIO3*%
%TO.N,unconnected-(U3-Pad5)*%
X161535000Y-104585000D03*
%TO.P,U3,6,GPIO4*%
%TO.N,unconnected-(U3-Pad6)*%
X161935000Y-104585000D03*
%TO.P,U3,7,GPIO5*%
%TO.N,unconnected-(U3-Pad7)*%
X162335000Y-104585000D03*
%TO.P,U3,8,GPIO6*%
%TO.N,unconnected-(U3-Pad8)*%
X162735000Y-104585000D03*
%TO.P,U3,9,GPIO7*%
%TO.N,unconnected-(U3-Pad9)*%
X163135000Y-104585000D03*
%TO.P,U3,10,IOVDD*%
%TO.N,+3V3*%
X163535000Y-104585000D03*
%TO.P,U3,11,GPIO8*%
%TO.N,unconnected-(U3-Pad11)*%
X163935000Y-104585000D03*
%TO.P,U3,12,GPIO9*%
%TO.N,unconnected-(U3-Pad12)*%
X164335000Y-104585000D03*
%TO.P,U3,13,GPIO10*%
%TO.N,unconnected-(U3-Pad13)*%
X164735000Y-104585000D03*
%TO.P,U3,14,GPIO11*%
%TO.N,unconnected-(U3-Pad14)*%
X165135000Y-104585000D03*
D28*
%TO.P,U3,15,GPIO12*%
%TO.N,unconnected-(U3-Pad15)*%
X165970000Y-103750000D03*
%TO.P,U3,16,GPIO13*%
%TO.N,unconnected-(U3-Pad16)*%
X165970000Y-103350000D03*
%TO.P,U3,17,GPIO14*%
%TO.N,unconnected-(U3-Pad17)*%
X165970000Y-102950000D03*
%TO.P,U3,18,GPIO15*%
%TO.N,unconnected-(U3-Pad18)*%
X165970000Y-102550000D03*
%TO.P,U3,19,TESTEN*%
%TO.N,GND*%
X165970000Y-102150000D03*
%TO.P,U3,20,XIN*%
%TO.N,XIN*%
X165970000Y-101750000D03*
%TO.P,U3,21,XOUT*%
%TO.N,XOUT*%
X165970000Y-101350000D03*
%TO.P,U3,22,IOVDD*%
%TO.N,+3V3*%
X165970000Y-100950000D03*
%TO.P,U3,23,DVDD*%
%TO.N,+1V1*%
X165970000Y-100550000D03*
%TO.P,U3,24,SWCLK*%
%TO.N,unconnected-(U3-Pad24)*%
X165970000Y-100150000D03*
%TO.P,U3,25,SWD*%
%TO.N,unconnected-(U3-Pad25)*%
X165970000Y-99750000D03*
%TO.P,U3,26,RUN*%
%TO.N,unconnected-(U3-Pad26)*%
X165970000Y-99350000D03*
%TO.P,U3,27,GPIO16*%
%TO.N,unconnected-(U3-Pad27)*%
X165970000Y-98950000D03*
%TO.P,U3,28,GPIO17*%
%TO.N,unconnected-(U3-Pad28)*%
X165970000Y-98550000D03*
D27*
%TO.P,U3,29,GPIO18*%
%TO.N,unconnected-(U3-Pad29)*%
X165135000Y-97715000D03*
%TO.P,U3,30,GPIO19*%
%TO.N,unconnected-(U3-Pad30)*%
X164735000Y-97715000D03*
%TO.P,U3,31,GPIO20*%
%TO.N,unconnected-(U3-Pad31)*%
X164335000Y-97715000D03*
%TO.P,U3,32,GPIO21*%
%TO.N,unconnected-(U3-Pad32)*%
X163935000Y-97715000D03*
%TO.P,U3,33,IOVDD*%
%TO.N,+3V3*%
X163535000Y-97715000D03*
%TO.P,U3,34,GPIO22*%
%TO.N,unconnected-(U3-Pad34)*%
X163135000Y-97715000D03*
%TO.P,U3,35,GPIO23*%
%TO.N,unconnected-(U3-Pad35)*%
X162735000Y-97715000D03*
%TO.P,U3,36,GPIO24*%
%TO.N,unconnected-(U3-Pad36)*%
X162335000Y-97715000D03*
%TO.P,U3,37,GPIO25*%
%TO.N,unconnected-(U3-Pad37)*%
X161935000Y-97715000D03*
%TO.P,U3,38,GPIO26/ADC0*%
%TO.N,unconnected-(U3-Pad38)*%
X161535000Y-97715000D03*
%TO.P,U3,39,GPIO27/ADC1*%
%TO.N,unconnected-(U3-Pad39)*%
X161135000Y-97715000D03*
%TO.P,U3,40,GPIO28/ADC2*%
%TO.N,unconnected-(U3-Pad40)*%
X160735000Y-97715000D03*
%TO.P,U3,41,GPIO29/ADC3*%
%TO.N,unconnected-(U3-Pad41)*%
X160335000Y-97715000D03*
%TO.P,U3,42,IOVDD*%
%TO.N,+3V3*%
X159935000Y-97715000D03*
D28*
%TO.P,U3,43,ADC_AVDD*%
X159100000Y-98550000D03*
%TO.P,U3,44,VREG_VIN*%
X159100000Y-98950000D03*
%TO.P,U3,45,VREG_VOUT*%
%TO.N,+1V1*%
X159100000Y-99350000D03*
%TO.P,U3,46,USB_DM*%
%TO.N,Net-(R3-Pad2)*%
X159100000Y-99750000D03*
%TO.P,U3,47,USB_DP*%
%TO.N,Net-(R4-Pad2)*%
X159100000Y-100150000D03*
%TO.P,U3,48,USB_VDD*%
%TO.N,+3V3*%
X159100000Y-100550000D03*
%TO.P,U3,49,IOVDD*%
X159100000Y-100950000D03*
%TO.P,U3,50,DVDD*%
%TO.N,+1V1*%
X159100000Y-101350000D03*
%TO.P,U3,51,QSPI_SD3*%
%TO.N,/QSPI_SD3*%
X159100000Y-101750000D03*
%TO.P,U3,52,QSPI_SCLK*%
%TO.N,/QSPI_SCLK*%
X159100000Y-102150000D03*
%TO.P,U3,53,QSPI_SD0*%
%TO.N,/QSPI_SD0*%
X159100000Y-102550000D03*
%TO.P,U3,54,QSPI_SD2*%
%TO.N,/QSPI_SD2*%
X159100000Y-102950000D03*
%TO.P,U3,55,QSPI_SD1*%
%TO.N,/QSPI_SD1*%
X159100000Y-103350000D03*
%TO.P,U3,56,QSPI_CSN*%
%TO.N,/QSPI_CSN*%
X159100000Y-103750000D03*
D29*
%TO.P,U3,57,GND*%
%TO.N,GND*%
X162535000Y-101150000D03*
%TD*%
D30*
%TO.P,HSE1,1,1*%
%TO.N,XIN*%
X171750000Y-97950000D03*
%TO.P,HSE1,2,2*%
%TO.N,GND*%
X171750000Y-95750000D03*
%TO.P,HSE1,3,3*%
%TO.N,XOUT*%
X170150000Y-95750000D03*
%TO.P,HSE1,4,4*%
%TO.N,GND*%
X170150000Y-97950000D03*
%TD*%
D17*
%TO.P,C6,1*%
%TO.N,+3V3*%
X163550000Y-96355000D03*
%TO.P,C6,2*%
%TO.N,GND*%
X163550000Y-95395000D03*
%TD*%
D31*
%TO.N,GND*%
X130100000Y-95850000D03*
X133300000Y-102000000D03*
X173150000Y-97750000D03*
X153000000Y-99800000D03*
X164550000Y-95400000D03*
X167380000Y-95340000D03*
X167250000Y-103310000D03*
X153000000Y-98700000D03*
X169350500Y-100290000D03*
X161800000Y-105950000D03*
X162330000Y-95400000D03*
X153890000Y-102600000D03*
X144400000Y-102950000D03*
X170300000Y-99200000D03*
X165530000Y-105950000D03*
%TO.N,USB_DP*%
X132900000Y-100100000D03*
%TO.N,/QSPI_CSN*%
X157060000Y-106890000D03*
X165530000Y-106949503D03*
%TO.N,+1V1*%
X156276750Y-99803250D03*
X164800000Y-99180000D03*
X167580000Y-98880000D03*
X160385498Y-100510000D03*
%TD*%
D32*
%TO.N,GND*%
X131150000Y-96900000D02*
X130100000Y-95850000D01*
X131290000Y-96900000D02*
X131150000Y-96900000D01*
%TO.N,Net-(D1-Pad1)*%
X132310000Y-96160000D02*
X131400000Y-95250000D01*
X132310000Y-96900000D02*
X132310000Y-96160000D01*
%TO.N,GND*%
X173150000Y-97150000D02*
X173150000Y-97750000D01*
D33*
X166650000Y-102150000D02*
X167060000Y-102560000D01*
X165530000Y-105950000D02*
X164505000Y-105950000D01*
X145650000Y-104100000D02*
X144500000Y-102950000D01*
X170150000Y-97950000D02*
X170150000Y-99050000D01*
X167250000Y-103130000D02*
X167250000Y-103310000D01*
D32*
X172500000Y-99650000D02*
X173150000Y-99000000D01*
D33*
X154120000Y-98700000D02*
X153000000Y-98700000D01*
X146300000Y-105620000D02*
X145650000Y-104970000D01*
X160880000Y-105950000D02*
X161800000Y-105950000D01*
D32*
X168790500Y-100850000D02*
X169350500Y-100290000D01*
D34*
X133300000Y-102000000D02*
X134600000Y-102000000D01*
X132300000Y-103000000D02*
X133300000Y-102000000D01*
D33*
X145650000Y-104970000D02*
X145650000Y-104100000D01*
X167250000Y-102750000D02*
X167250000Y-103130000D01*
D32*
X171750000Y-95750000D02*
X173150000Y-97150000D01*
D33*
X144400000Y-104300000D02*
X144400000Y-102950000D01*
D32*
X168550000Y-95340000D02*
X167380000Y-95340000D01*
X172310000Y-99650000D02*
X172500000Y-99650000D01*
X168530000Y-99750000D02*
X168810500Y-99750000D01*
D33*
X157990000Y-95400000D02*
X162330000Y-95400000D01*
D32*
X168810500Y-99750000D02*
X169350500Y-100290000D01*
D34*
X134600000Y-102000000D02*
X135400000Y-101200000D01*
D32*
X163550000Y-95395000D02*
X164545000Y-95395000D01*
X173150000Y-99000000D02*
X173150000Y-97750000D01*
D33*
X153895000Y-102595000D02*
X153890000Y-102600000D01*
X167060000Y-102560000D02*
X167250000Y-102750000D01*
X165970000Y-102150000D02*
X166650000Y-102150000D01*
X154120000Y-99800000D02*
X153000000Y-99800000D01*
D34*
X132300000Y-103400000D02*
X132300000Y-103000000D01*
D33*
X144500000Y-102950000D02*
X144400000Y-102950000D01*
X155700000Y-102595000D02*
X153895000Y-102595000D01*
X170150000Y-99050000D02*
X170300000Y-99200000D01*
D32*
X164545000Y-95395000D02*
X164550000Y-95400000D01*
X168530000Y-100850000D02*
X168790500Y-100850000D01*
D33*
%TO.N,+3V3*%
X159100000Y-100550000D02*
X158012744Y-100550000D01*
X159040000Y-96360000D02*
X158386569Y-97013431D01*
X158386569Y-98600000D02*
X158736569Y-98950000D01*
X156162744Y-98700000D02*
X155080000Y-98700000D01*
X158412744Y-100950000D02*
X157381372Y-99918628D01*
X165970000Y-100950000D02*
X167470000Y-100950000D01*
X167470000Y-100950000D02*
X167570000Y-100850000D01*
X159100000Y-100950000D02*
X158412744Y-100950000D01*
X158012744Y-100550000D02*
X157381372Y-99918628D01*
X157381372Y-99918628D02*
X156162744Y-98700000D01*
X158386569Y-97013431D02*
X158386569Y-98600000D01*
X158736569Y-98950000D02*
X159100000Y-98950000D01*
%TO.N,XIN*%
X165970000Y-101750000D02*
X166840000Y-101750000D01*
X167100001Y-102010000D02*
X169355686Y-102010000D01*
X169355686Y-102010000D02*
X170450000Y-100915686D01*
X170450000Y-100915686D02*
X170450000Y-100270000D01*
X171750000Y-99100000D02*
X171750000Y-97950000D01*
X166840000Y-101750000D02*
X167100001Y-102010000D01*
X171350000Y-99500000D02*
X171750000Y-99100000D01*
X171350000Y-99650000D02*
X171350000Y-99500000D01*
X171070000Y-99650000D02*
X171350000Y-99650000D01*
X170450000Y-100270000D02*
X171070000Y-99650000D01*
%TO.N,XOUT*%
X168550000Y-98450000D02*
X168550000Y-96300000D01*
X167265686Y-101610000D02*
X169190000Y-101610000D01*
X169190000Y-101610000D02*
X170050000Y-100750000D01*
X170050000Y-99950000D02*
X168550000Y-98450000D01*
X167005686Y-101350000D02*
X167265686Y-101610000D01*
X170050000Y-100750000D02*
X170050000Y-99950000D01*
X169100000Y-95750000D02*
X168550000Y-96300000D01*
X167005686Y-101350000D02*
X165970000Y-101350000D01*
X169100000Y-95750000D02*
X170150000Y-95750000D01*
D35*
%TO.N,USB_DM*%
X135500000Y-96000000D02*
X129400000Y-102100000D01*
X155490000Y-96000000D02*
X135500000Y-96000000D01*
%TO.N,USB_DP*%
X135900000Y-97100000D02*
X132900000Y-100100000D01*
X155490000Y-97100000D02*
X135900000Y-97100000D01*
D32*
%TO.N,/~{USB_BOOT}*%
X170970000Y-105415000D02*
X167405000Y-105415000D01*
X167405000Y-105415000D02*
X167170000Y-105650000D01*
D33*
%TO.N,/QSPI_CSN*%
X155700000Y-106630000D02*
X155990000Y-106920000D01*
X156445000Y-106405000D02*
X155700000Y-106405000D01*
X165530000Y-106949503D02*
X166890497Y-106949503D01*
X155700000Y-106405000D02*
X155700000Y-106630000D01*
X155990000Y-106920000D02*
X157030000Y-106920000D01*
X157030000Y-106920000D02*
X157060000Y-106890000D01*
X159100000Y-103750000D02*
X156445000Y-106405000D01*
X166890497Y-106949503D02*
X167170000Y-106670000D01*
%TO.N,Net-(R3-Pad2)*%
X157580000Y-97180000D02*
X156510000Y-96110000D01*
X158401766Y-99749999D02*
X157580000Y-98928232D01*
X156510000Y-96110000D02*
X156510000Y-96000000D01*
X159100000Y-99750000D02*
X158401766Y-99749999D01*
X157580000Y-98928232D02*
X157580000Y-97180000D01*
%TO.N,Net-(R4-Pad2)*%
X158178430Y-100150000D02*
X157180000Y-99151570D01*
X159100000Y-100150000D02*
X158178430Y-100150000D01*
X157180000Y-97770000D02*
X156510000Y-97100000D01*
X157180000Y-99151570D02*
X157180000Y-97770000D01*
%TO.N,/QSPI_SD1*%
X156565000Y-105135000D02*
X155700000Y-105135000D01*
X159100000Y-103350000D02*
X158350000Y-103350000D01*
X158350000Y-103350000D02*
X156565000Y-105135000D01*
%TO.N,/QSPI_SD2*%
X157035000Y-103865000D02*
X155700000Y-103865000D01*
X159100000Y-102950000D02*
X157950000Y-102950000D01*
X157950000Y-102950000D02*
X157035000Y-103865000D01*
%TO.N,/QSPI_SD0*%
X148500000Y-102500000D02*
X148500000Y-102595000D01*
X157750000Y-102550000D02*
X156800000Y-101600000D01*
X159100000Y-102550000D02*
X157750000Y-102550000D01*
X149400000Y-101600000D02*
X148500000Y-102500000D01*
X156800000Y-101600000D02*
X149400000Y-101600000D01*
%TO.N,/QSPI_SCLK*%
X147865000Y-103865000D02*
X148500000Y-103865000D01*
X146800000Y-102100000D02*
X146800000Y-102800000D01*
X147700000Y-101200000D02*
X146800000Y-102100000D01*
X146800000Y-102800000D02*
X147865000Y-103865000D01*
X159100000Y-102150000D02*
X157915686Y-102150000D01*
X157915686Y-102150000D02*
X156965686Y-101200000D01*
X156965686Y-101200000D02*
X147700000Y-101200000D01*
%TO.N,/QSPI_SD3*%
X157131372Y-100800000D02*
X147534315Y-100800000D01*
X159100000Y-101750000D02*
X158081372Y-101750000D01*
X147534315Y-100800000D02*
X146300000Y-102034314D01*
X146300000Y-102034314D02*
X146300000Y-103150000D01*
X148285000Y-105135000D02*
X148500000Y-105135000D01*
X146300000Y-103150000D02*
X148285000Y-105135000D01*
X158081372Y-101750000D02*
X157131372Y-100800000D01*
%TO.N,+1V1*%
X166770000Y-100550000D02*
X167570000Y-99750000D01*
X159100000Y-99350000D02*
X160300000Y-99350000D01*
X157986569Y-98769116D02*
X157986569Y-96363431D01*
X158247058Y-101350000D02*
X156697058Y-99800000D01*
D32*
X167580000Y-99740000D02*
X167570000Y-99750000D01*
D33*
X159100000Y-101350000D02*
X158247058Y-101350000D01*
X157986569Y-96363431D02*
X157990000Y-96360000D01*
X159100000Y-99350000D02*
X158567452Y-99350000D01*
D32*
X167580000Y-98880000D02*
X167580000Y-99740000D01*
D33*
X156697058Y-99800000D02*
X156470000Y-99800000D01*
X165970000Y-100550000D02*
X166770000Y-100550000D01*
X156280000Y-99800000D02*
X156276750Y-99803250D01*
X156470000Y-99800000D02*
X156280000Y-99800000D01*
X156470000Y-99800000D02*
X155080000Y-99800000D01*
X158567452Y-99350000D02*
X157986569Y-98769116D01*
%TD*%
%TA.AperFunction,Conductor*%
%TO.N,+3V3*%
G36*
X165317945Y-99604203D02*
G01*
X165346979Y-99645667D01*
X165349500Y-99664820D01*
X165349501Y-99762379D01*
X165349501Y-99851718D01*
X165362293Y-99916035D01*
X165366179Y-99921851D01*
X165368378Y-99972254D01*
X165366296Y-99977974D01*
X165362293Y-99983965D01*
X165360871Y-99991112D01*
X165360871Y-99991113D01*
X165350211Y-100044709D01*
X165349500Y-100048281D01*
X165349501Y-100251718D01*
X165350212Y-100255291D01*
X165362293Y-100316035D01*
X165359667Y-100316557D01*
X165361354Y-100355309D01*
X165330533Y-100395464D01*
X165318024Y-100401850D01*
X165313055Y-100403817D01*
X165304350Y-100408722D01*
X165197155Y-100490089D01*
X165190089Y-100497155D01*
X165108725Y-100604347D01*
X165103816Y-100613060D01*
X165054172Y-100738446D01*
X165051849Y-100747592D01*
X165042268Y-100826763D01*
X165042000Y-100831211D01*
X165042000Y-100836952D01*
X165045638Y-100846948D01*
X165050925Y-100850000D01*
X165543205Y-100850000D01*
X165546607Y-100850167D01*
X165548281Y-100850500D01*
X165996000Y-100850500D01*
X166043566Y-100867813D01*
X166068876Y-100911650D01*
X166070000Y-100924500D01*
X166070000Y-100975500D01*
X166052687Y-101023066D01*
X166008850Y-101048376D01*
X165996000Y-101049500D01*
X165942052Y-101049500D01*
X165942050Y-101049501D01*
X165548282Y-101049501D01*
X165546612Y-101049833D01*
X165543213Y-101050000D01*
X165055049Y-101050000D01*
X165045053Y-101053638D01*
X165042001Y-101058925D01*
X165042001Y-101068788D01*
X165042269Y-101073237D01*
X165051849Y-101152409D01*
X165054171Y-101161553D01*
X165103816Y-101286940D01*
X165108725Y-101295653D01*
X165190089Y-101402845D01*
X165197155Y-101409911D01*
X165304350Y-101491278D01*
X165313055Y-101496183D01*
X165318024Y-101498150D01*
X165355876Y-101531758D01*
X165363270Y-101581834D01*
X165362891Y-101583070D01*
X165362293Y-101583965D01*
X165361696Y-101586965D01*
X165361696Y-101586966D01*
X165350211Y-101644709D01*
X165349500Y-101648281D01*
X165349501Y-101851718D01*
X165362293Y-101916035D01*
X165366179Y-101921851D01*
X165368378Y-101972254D01*
X165366296Y-101977974D01*
X165362293Y-101983965D01*
X165360871Y-101991112D01*
X165360871Y-101991113D01*
X165350211Y-102044709D01*
X165349500Y-102048281D01*
X165349501Y-102251718D01*
X165362293Y-102316035D01*
X165366179Y-102321851D01*
X165368378Y-102372254D01*
X165366296Y-102377974D01*
X165362293Y-102383965D01*
X165360871Y-102391112D01*
X165360871Y-102391113D01*
X165350211Y-102444709D01*
X165349500Y-102448281D01*
X165349501Y-102651718D01*
X165362293Y-102716035D01*
X165366179Y-102721851D01*
X165368378Y-102772254D01*
X165366296Y-102777974D01*
X165362293Y-102783965D01*
X165360871Y-102791112D01*
X165360871Y-102791113D01*
X165350211Y-102844709D01*
X165349500Y-102848281D01*
X165349501Y-103051718D01*
X165362293Y-103116035D01*
X165366179Y-103121851D01*
X165368378Y-103172254D01*
X165366296Y-103177974D01*
X165362293Y-103183965D01*
X165360871Y-103191112D01*
X165360871Y-103191113D01*
X165350211Y-103244709D01*
X165349500Y-103248281D01*
X165349501Y-103451718D01*
X165362293Y-103516035D01*
X165366179Y-103521851D01*
X165368378Y-103572254D01*
X165366296Y-103577974D01*
X165362293Y-103583965D01*
X165360871Y-103591112D01*
X165360871Y-103591113D01*
X165357828Y-103606414D01*
X165349500Y-103648281D01*
X165349501Y-103851718D01*
X165350211Y-103855287D01*
X165350211Y-103855289D01*
X165355379Y-103881270D01*
X165347678Y-103931300D01*
X165309620Y-103964675D01*
X165268365Y-103968284D01*
X165252912Y-103965210D01*
X165252907Y-103965209D01*
X165249340Y-103964500D01*
X165020660Y-103964500D01*
X165017091Y-103965210D01*
X165017090Y-103965210D01*
X164979121Y-103972763D01*
X164960428Y-103976481D01*
X164959679Y-103976981D01*
X164913351Y-103979006D01*
X164909572Y-103976481D01*
X164890879Y-103972763D01*
X164852910Y-103965210D01*
X164852909Y-103965210D01*
X164849340Y-103964500D01*
X164620660Y-103964500D01*
X164617091Y-103965210D01*
X164617090Y-103965210D01*
X164579121Y-103972763D01*
X164560428Y-103976481D01*
X164559679Y-103976981D01*
X164513351Y-103979006D01*
X164509572Y-103976481D01*
X164490879Y-103972763D01*
X164452910Y-103965210D01*
X164452909Y-103965210D01*
X164449340Y-103964500D01*
X164220660Y-103964500D01*
X164217091Y-103965210D01*
X164217090Y-103965210D01*
X164169422Y-103974692D01*
X164119392Y-103966992D01*
X164086181Y-103929355D01*
X164082869Y-103920989D01*
X164077963Y-103912284D01*
X163998922Y-103808151D01*
X163991849Y-103801078D01*
X163887716Y-103722037D01*
X163879005Y-103717128D01*
X163757183Y-103668896D01*
X163748037Y-103666573D01*
X163671147Y-103657268D01*
X163666699Y-103657000D01*
X163648048Y-103657000D01*
X163638052Y-103660638D01*
X163635000Y-103665925D01*
X163635000Y-104145584D01*
X163634833Y-104148986D01*
X163634500Y-104150660D01*
X163634500Y-105019340D01*
X163634833Y-105021014D01*
X163635000Y-105024416D01*
X163635000Y-105078952D01*
X163638638Y-105088947D01*
X163646663Y-105093580D01*
X163671189Y-105116551D01*
X163692121Y-105147879D01*
X163741111Y-105180612D01*
X163760428Y-105193519D01*
X163759587Y-105194778D01*
X163790639Y-105223233D01*
X163799000Y-105257402D01*
X163799000Y-105300000D01*
X163291000Y-105300000D01*
X163291000Y-105245482D01*
X163308313Y-105197916D01*
X163323889Y-105183953D01*
X163371816Y-105151930D01*
X163377879Y-105147879D01*
X163399594Y-105115379D01*
X163430231Y-105091335D01*
X163435000Y-105083075D01*
X163435000Y-105024416D01*
X163435167Y-105021014D01*
X163435500Y-105019340D01*
X163435500Y-104150660D01*
X163435167Y-104148986D01*
X163435000Y-104145584D01*
X163435000Y-103670049D01*
X163431362Y-103660053D01*
X163426075Y-103657001D01*
X163403302Y-103657001D01*
X163398853Y-103657269D01*
X163321962Y-103666573D01*
X163312818Y-103668895D01*
X163190995Y-103717128D01*
X163182284Y-103722037D01*
X163078151Y-103801078D01*
X163071078Y-103808151D01*
X162992037Y-103912284D01*
X162987131Y-103920989D01*
X162983819Y-103929355D01*
X162950211Y-103967208D01*
X162900578Y-103974692D01*
X162852910Y-103965210D01*
X162852909Y-103965210D01*
X162849340Y-103964500D01*
X162620660Y-103964500D01*
X162617091Y-103965210D01*
X162617090Y-103965210D01*
X162579121Y-103972763D01*
X162560428Y-103976481D01*
X162559679Y-103976981D01*
X162513351Y-103979006D01*
X162509572Y-103976481D01*
X162490879Y-103972763D01*
X162452910Y-103965210D01*
X162452909Y-103965210D01*
X162449340Y-103964500D01*
X162220660Y-103964500D01*
X162217091Y-103965210D01*
X162217090Y-103965210D01*
X162179121Y-103972763D01*
X162160428Y-103976481D01*
X162159679Y-103976981D01*
X162113351Y-103979006D01*
X162109572Y-103976481D01*
X162090879Y-103972763D01*
X162052910Y-103965210D01*
X162052909Y-103965210D01*
X162049340Y-103964500D01*
X161820660Y-103964500D01*
X161817091Y-103965210D01*
X161817090Y-103965210D01*
X161779121Y-103972763D01*
X161760428Y-103976481D01*
X161759679Y-103976981D01*
X161713351Y-103979006D01*
X161709572Y-103976481D01*
X161690879Y-103972763D01*
X161652910Y-103965210D01*
X161652909Y-103965210D01*
X161649340Y-103964500D01*
X161420660Y-103964500D01*
X161417091Y-103965210D01*
X161417090Y-103965210D01*
X161379121Y-103972763D01*
X161360428Y-103976481D01*
X161359679Y-103976981D01*
X161313351Y-103979006D01*
X161309572Y-103976481D01*
X161290879Y-103972763D01*
X161252910Y-103965210D01*
X161252909Y-103965210D01*
X161249340Y-103964500D01*
X161020660Y-103964500D01*
X161017091Y-103965210D01*
X161017090Y-103965210D01*
X160979121Y-103972763D01*
X160960428Y-103976481D01*
X160959679Y-103976981D01*
X160913351Y-103979006D01*
X160909572Y-103976481D01*
X160890879Y-103972763D01*
X160852910Y-103965210D01*
X160852909Y-103965210D01*
X160849340Y-103964500D01*
X160620660Y-103964500D01*
X160617091Y-103965210D01*
X160617090Y-103965210D01*
X160569422Y-103974692D01*
X160519392Y-103966992D01*
X160486181Y-103929355D01*
X160482869Y-103920989D01*
X160477963Y-103912284D01*
X160398922Y-103808151D01*
X160391849Y-103801078D01*
X160287716Y-103722037D01*
X160279005Y-103717128D01*
X160157183Y-103668896D01*
X160148037Y-103666573D01*
X160071147Y-103657268D01*
X160066699Y-103657000D01*
X160048048Y-103657000D01*
X160038052Y-103660638D01*
X160035000Y-103665925D01*
X160035000Y-104145584D01*
X160034833Y-104148986D01*
X160034500Y-104150660D01*
X160034500Y-105019340D01*
X160034833Y-105021014D01*
X160035000Y-105024416D01*
X160035000Y-105078952D01*
X160038638Y-105088947D01*
X160046663Y-105093580D01*
X160071189Y-105116551D01*
X160092121Y-105147879D01*
X160139447Y-105179500D01*
X160141111Y-105180612D01*
X160171043Y-105221433D01*
X160174000Y-105242141D01*
X160174000Y-105300000D01*
X159666000Y-105300000D01*
X159666000Y-105166000D01*
X159683313Y-105118434D01*
X159727150Y-105093124D01*
X159740000Y-105092000D01*
X159821952Y-105092000D01*
X159831948Y-105088362D01*
X159835000Y-105083075D01*
X159835000Y-104698048D01*
X159831362Y-104688052D01*
X159826075Y-104685000D01*
X159340049Y-104685000D01*
X159330053Y-104688638D01*
X159327001Y-104693925D01*
X159327001Y-105036698D01*
X159327269Y-105041147D01*
X159336573Y-105118038D01*
X159338895Y-105127182D01*
X159371349Y-105209151D01*
X159372763Y-105259750D01*
X159354872Y-105288718D01*
X159343590Y-105300000D01*
X158400000Y-105300000D01*
X158400000Y-104874971D01*
X159200959Y-104074012D01*
X159246835Y-104052620D01*
X159295730Y-104065721D01*
X159324764Y-104107185D01*
X159327151Y-104130788D01*
X159327000Y-104133295D01*
X159327000Y-104471952D01*
X159330638Y-104481948D01*
X159335925Y-104485000D01*
X159821952Y-104485000D01*
X159831948Y-104481362D01*
X159835000Y-104476075D01*
X159835000Y-103670049D01*
X159831362Y-103660053D01*
X159826075Y-103657001D01*
X159803302Y-103657001D01*
X159798862Y-103657269D01*
X159792171Y-103658078D01*
X159742870Y-103646602D01*
X159712480Y-103606121D01*
X159710707Y-103599049D01*
X159709129Y-103591116D01*
X159707707Y-103583965D01*
X159703821Y-103578149D01*
X159701622Y-103527746D01*
X159703704Y-103522026D01*
X159707707Y-103516035D01*
X159717508Y-103466762D01*
X159719790Y-103455290D01*
X159719790Y-103455287D01*
X159720500Y-103451719D01*
X159720499Y-103248282D01*
X159707707Y-103183965D01*
X159703821Y-103178149D01*
X159701622Y-103127746D01*
X159703704Y-103122026D01*
X159707707Y-103116035D01*
X159709130Y-103108883D01*
X159719790Y-103055290D01*
X159719790Y-103055287D01*
X159720500Y-103051719D01*
X159720499Y-102848282D01*
X159707707Y-102783965D01*
X159703821Y-102778149D01*
X159701622Y-102727746D01*
X159703704Y-102722026D01*
X159707707Y-102716035D01*
X159716096Y-102673860D01*
X159719790Y-102655290D01*
X159719790Y-102655287D01*
X159720500Y-102651719D01*
X159720499Y-102448282D01*
X159707707Y-102383965D01*
X159703821Y-102378149D01*
X159701622Y-102327746D01*
X159703704Y-102322026D01*
X159707707Y-102316035D01*
X159712913Y-102289863D01*
X159719790Y-102255290D01*
X159719790Y-102255287D01*
X159720500Y-102251719D01*
X159720499Y-102048282D01*
X159707707Y-101983965D01*
X159703821Y-101978149D01*
X159701622Y-101927746D01*
X159703704Y-101922026D01*
X159707707Y-101916035D01*
X159712467Y-101892105D01*
X159719790Y-101855290D01*
X159719790Y-101855287D01*
X159720500Y-101851719D01*
X159720499Y-101648282D01*
X159707707Y-101583965D01*
X159710333Y-101583443D01*
X159708646Y-101544691D01*
X159739467Y-101504536D01*
X159751976Y-101498150D01*
X159756945Y-101496183D01*
X159765650Y-101491278D01*
X159872845Y-101409911D01*
X159879911Y-101402845D01*
X159961275Y-101295653D01*
X159966181Y-101286946D01*
X160014029Y-101166095D01*
X160047637Y-101128242D01*
X160097713Y-101120847D01*
X160108142Y-101123799D01*
X160133713Y-101133106D01*
X160136887Y-101133666D01*
X160136892Y-101133667D01*
X160171144Y-101139706D01*
X160204000Y-101145500D01*
X160626000Y-101145500D01*
X160626795Y-101145465D01*
X160626808Y-101145465D01*
X160638869Y-101144938D01*
X160643907Y-101144718D01*
X160644699Y-101144649D01*
X160644710Y-101144648D01*
X160652736Y-101143946D01*
X160652739Y-101143946D01*
X160656757Y-101143594D01*
X160660611Y-101142379D01*
X160664520Y-101141601D01*
X160714550Y-101149298D01*
X160747928Y-101187354D01*
X160752336Y-101204583D01*
X160758051Y-101248282D01*
X160762980Y-101285979D01*
X160765103Y-101290803D01*
X160778233Y-101320644D01*
X160784500Y-101350447D01*
X160784500Y-102222205D01*
X160777485Y-102253653D01*
X160766447Y-102277163D01*
X160744391Y-102418823D01*
X160745074Y-102424046D01*
X160745074Y-102424049D01*
X160745573Y-102427862D01*
X160762980Y-102560979D01*
X160765103Y-102565803D01*
X160778233Y-102595644D01*
X160784500Y-102625447D01*
X160784500Y-102719748D01*
X160796133Y-102778231D01*
X160800184Y-102784293D01*
X160800184Y-102784294D01*
X160804743Y-102791117D01*
X160840448Y-102844552D01*
X160906769Y-102888867D01*
X160951295Y-102897724D01*
X160961682Y-102899790D01*
X160961683Y-102899790D01*
X160965252Y-102900500D01*
X161082192Y-102900500D01*
X161104260Y-102903867D01*
X161169157Y-102924142D01*
X161174425Y-102924239D01*
X161174428Y-102924239D01*
X161234733Y-102925344D01*
X161312499Y-102926770D01*
X161317582Y-102925384D01*
X161317584Y-102925384D01*
X161399297Y-102903106D01*
X161418761Y-102900500D01*
X162357192Y-102900500D01*
X162379260Y-102903867D01*
X162444157Y-102924142D01*
X162449425Y-102924239D01*
X162449428Y-102924239D01*
X162509733Y-102925344D01*
X162587499Y-102926770D01*
X162592582Y-102925384D01*
X162592584Y-102925384D01*
X162674297Y-102903106D01*
X162693761Y-102900500D01*
X163632192Y-102900500D01*
X163654260Y-102903867D01*
X163719157Y-102924142D01*
X163724425Y-102924239D01*
X163724428Y-102924239D01*
X163784733Y-102925344D01*
X163862499Y-102926770D01*
X163867582Y-102925384D01*
X163867584Y-102925384D01*
X163949297Y-102903106D01*
X163968761Y-102900500D01*
X164104748Y-102900500D01*
X164108317Y-102899790D01*
X164108318Y-102899790D01*
X164118705Y-102897724D01*
X164163231Y-102888867D01*
X164229552Y-102844552D01*
X164265257Y-102791117D01*
X164269816Y-102784294D01*
X164269816Y-102784293D01*
X164273867Y-102778231D01*
X164285500Y-102719748D01*
X164285500Y-102562385D01*
X164286526Y-102550108D01*
X164305021Y-102440177D01*
X164305496Y-102437354D01*
X164305647Y-102425000D01*
X164286247Y-102289534D01*
X164285500Y-102279044D01*
X164285500Y-101287385D01*
X164286526Y-101275108D01*
X164305021Y-101165177D01*
X164305496Y-101162354D01*
X164305647Y-101150000D01*
X164286247Y-101014534D01*
X164285500Y-101004044D01*
X164285500Y-100012385D01*
X164286526Y-100000108D01*
X164300671Y-99916035D01*
X164305496Y-99887354D01*
X164305647Y-99875000D01*
X164286247Y-99739534D01*
X164285500Y-99729044D01*
X164285500Y-99716552D01*
X164302813Y-99668986D01*
X164346650Y-99643676D01*
X164396500Y-99652466D01*
X164418488Y-99671871D01*
X164429322Y-99686174D01*
X164434757Y-99689684D01*
X164502656Y-99733539D01*
X164502661Y-99733541D01*
X164506147Y-99735793D01*
X164510051Y-99737214D01*
X164510053Y-99737215D01*
X164516425Y-99739534D01*
X164553713Y-99753106D01*
X164556887Y-99753666D01*
X164556892Y-99753667D01*
X164591144Y-99759706D01*
X164624000Y-99765500D01*
X164641851Y-99765500D01*
X164651510Y-99766133D01*
X164800000Y-99785682D01*
X164804808Y-99785049D01*
X164948490Y-99766133D01*
X164958149Y-99765500D01*
X164976000Y-99765500D01*
X164976795Y-99765465D01*
X164976808Y-99765465D01*
X164988961Y-99764934D01*
X164993907Y-99764718D01*
X164994699Y-99764649D01*
X164994710Y-99764648D01*
X165002733Y-99763946D01*
X165006757Y-99763594D01*
X165010608Y-99762380D01*
X165010612Y-99762379D01*
X165087745Y-99738059D01*
X165087744Y-99738059D01*
X165091602Y-99736843D01*
X165135439Y-99711533D01*
X165176174Y-99680678D01*
X165210726Y-99627181D01*
X165221662Y-99615324D01*
X165221003Y-99614665D01*
X165223174Y-99612494D01*
X165225100Y-99611596D01*
X165227852Y-99608612D01*
X165228294Y-99608273D01*
X165229330Y-99609624D01*
X165269050Y-99591102D01*
X165317945Y-99604203D01*
G37*
%TD.AperFunction*%
%TA.AperFunction,Conductor*%
G36*
X166700000Y-103589630D02*
G01*
X166700000Y-105300000D01*
X164137361Y-105300000D01*
X164129905Y-105284011D01*
X164143006Y-105235116D01*
X164184470Y-105206082D01*
X164213408Y-105205134D01*
X164213477Y-105204434D01*
X164217090Y-105204790D01*
X164220660Y-105205500D01*
X164449340Y-105205500D01*
X164452909Y-105204790D01*
X164452910Y-105204790D01*
X164502423Y-105194941D01*
X164509572Y-105193519D01*
X164510321Y-105193019D01*
X164556649Y-105190994D01*
X164560428Y-105193519D01*
X164567577Y-105194941D01*
X164617090Y-105204790D01*
X164617091Y-105204790D01*
X164620660Y-105205500D01*
X164849340Y-105205500D01*
X164852909Y-105204790D01*
X164852910Y-105204790D01*
X164902423Y-105194941D01*
X164909572Y-105193519D01*
X164910321Y-105193019D01*
X164956649Y-105190994D01*
X164960428Y-105193519D01*
X164967577Y-105194941D01*
X165017090Y-105204790D01*
X165017091Y-105204790D01*
X165020660Y-105205500D01*
X165249340Y-105205500D01*
X165252909Y-105204790D01*
X165252910Y-105204790D01*
X165302423Y-105194941D01*
X165309572Y-105193519D01*
X165315632Y-105189470D01*
X165315634Y-105189469D01*
X165371816Y-105151930D01*
X165377879Y-105147879D01*
X165397818Y-105118038D01*
X165419469Y-105085634D01*
X165419470Y-105085632D01*
X165423519Y-105079572D01*
X165435500Y-105019340D01*
X165435500Y-104150660D01*
X165431716Y-104131637D01*
X165439416Y-104081607D01*
X165477473Y-104048232D01*
X165518730Y-104044622D01*
X165548281Y-104050500D01*
X165969942Y-104050500D01*
X166391718Y-104050499D01*
X166434357Y-104042018D01*
X166448886Y-104039129D01*
X166448887Y-104039129D01*
X166456035Y-104037707D01*
X166528972Y-103988972D01*
X166537091Y-103976822D01*
X166573657Y-103922096D01*
X166577707Y-103916035D01*
X166585167Y-103878532D01*
X166589790Y-103855290D01*
X166589790Y-103855287D01*
X166590500Y-103851719D01*
X166590499Y-103653980D01*
X166607811Y-103606414D01*
X166651649Y-103581104D01*
X166700000Y-103589630D01*
G37*
%TD.AperFunction*%
%TA.AperFunction,Conductor*%
G36*
X162560428Y-105193519D02*
G01*
X162567577Y-105194941D01*
X162617090Y-105204790D01*
X162617091Y-105204790D01*
X162620660Y-105205500D01*
X162849340Y-105205500D01*
X162852907Y-105204791D01*
X162852912Y-105204790D01*
X162876907Y-105200017D01*
X162926937Y-105207717D01*
X162960312Y-105245775D01*
X162961416Y-105296382D01*
X162959166Y-105300000D01*
X160509047Y-105300000D01*
X160498697Y-105277803D01*
X160511798Y-105228908D01*
X160553262Y-105199874D01*
X160586852Y-105198775D01*
X160601001Y-105201590D01*
X160617090Y-105204790D01*
X160617091Y-105204790D01*
X160620660Y-105205500D01*
X160849340Y-105205500D01*
X160852909Y-105204790D01*
X160852910Y-105204790D01*
X160902423Y-105194941D01*
X160909572Y-105193519D01*
X160910321Y-105193019D01*
X160956649Y-105190994D01*
X160960428Y-105193519D01*
X160967577Y-105194941D01*
X161017090Y-105204790D01*
X161017091Y-105204790D01*
X161020660Y-105205500D01*
X161249340Y-105205500D01*
X161252909Y-105204790D01*
X161252910Y-105204790D01*
X161302423Y-105194941D01*
X161309572Y-105193519D01*
X161310321Y-105193019D01*
X161356649Y-105190994D01*
X161360428Y-105193519D01*
X161367577Y-105194941D01*
X161417090Y-105204790D01*
X161417091Y-105204790D01*
X161420660Y-105205500D01*
X161649340Y-105205500D01*
X161652909Y-105204790D01*
X161652910Y-105204790D01*
X161702423Y-105194941D01*
X161709572Y-105193519D01*
X161710321Y-105193019D01*
X161756649Y-105190994D01*
X161760428Y-105193519D01*
X161792774Y-105199953D01*
X161832347Y-105223966D01*
X161858578Y-105207254D01*
X161874595Y-105205500D01*
X162049340Y-105205500D01*
X162052909Y-105204790D01*
X162052910Y-105204790D01*
X162102423Y-105194941D01*
X162109572Y-105193519D01*
X162110321Y-105193019D01*
X162156649Y-105190994D01*
X162160428Y-105193519D01*
X162167577Y-105194941D01*
X162217090Y-105204790D01*
X162217091Y-105204790D01*
X162220660Y-105205500D01*
X162449340Y-105205500D01*
X162452909Y-105204790D01*
X162452910Y-105204790D01*
X162502423Y-105194941D01*
X162509572Y-105193519D01*
X162510321Y-105193019D01*
X162556649Y-105190994D01*
X162560428Y-105193519D01*
G37*
%TD.AperFunction*%
%TA.AperFunction,Conductor*%
G36*
X159173566Y-100467813D02*
G01*
X159198876Y-100511650D01*
X159200000Y-100524500D01*
X159200000Y-100975500D01*
X159182687Y-101023066D01*
X159138850Y-101048376D01*
X159126000Y-101049500D01*
X159074000Y-101049500D01*
X159026434Y-101032187D01*
X159001124Y-100988350D01*
X159000000Y-100975500D01*
X159000000Y-100524500D01*
X159017313Y-100476934D01*
X159061150Y-100451624D01*
X159074000Y-100450500D01*
X159126000Y-100450500D01*
X159173566Y-100467813D01*
G37*
%TD.AperFunction*%
%TA.AperFunction,Conductor*%
G36*
X166700000Y-100186050D02*
G01*
X166670949Y-100199596D01*
X166622054Y-100186495D01*
X166593020Y-100145031D01*
X166590499Y-100125878D01*
X166590499Y-100048282D01*
X166577707Y-99983965D01*
X166573821Y-99978149D01*
X166571622Y-99927746D01*
X166573704Y-99922026D01*
X166577707Y-99916035D01*
X166579130Y-99908883D01*
X166589790Y-99855290D01*
X166589790Y-99855287D01*
X166590500Y-99851719D01*
X166590499Y-99648282D01*
X166577707Y-99583965D01*
X166573821Y-99578149D01*
X166571622Y-99527746D01*
X166573704Y-99522026D01*
X166577707Y-99516035D01*
X166580901Y-99499978D01*
X166589790Y-99455290D01*
X166589790Y-99455287D01*
X166590500Y-99451719D01*
X166590499Y-99248282D01*
X166577707Y-99183965D01*
X166573821Y-99178149D01*
X166571622Y-99127746D01*
X166573704Y-99122026D01*
X166577707Y-99116035D01*
X166590500Y-99051719D01*
X166590499Y-98848282D01*
X166577707Y-98783965D01*
X166573821Y-98778149D01*
X166571622Y-98727746D01*
X166573704Y-98722026D01*
X166577707Y-98716035D01*
X166586801Y-98670316D01*
X166589790Y-98655290D01*
X166589790Y-98655287D01*
X166590500Y-98651719D01*
X166590499Y-98448282D01*
X166577707Y-98383965D01*
X166538269Y-98324941D01*
X166533022Y-98317089D01*
X166528972Y-98311028D01*
X166456035Y-98262293D01*
X166418532Y-98254833D01*
X166395290Y-98250210D01*
X166395287Y-98250210D01*
X166391719Y-98249500D01*
X165970058Y-98249500D01*
X165548282Y-98249501D01*
X165544713Y-98250211D01*
X165544711Y-98250211D01*
X165535174Y-98252108D01*
X165518729Y-98255379D01*
X165468700Y-98247678D01*
X165435325Y-98209620D01*
X165431716Y-98168365D01*
X165434790Y-98152912D01*
X165434791Y-98152907D01*
X165435500Y-98149340D01*
X165435500Y-97280660D01*
X165423519Y-97220428D01*
X165407230Y-97196048D01*
X165381930Y-97158184D01*
X165377879Y-97152121D01*
X165357733Y-97138660D01*
X165315634Y-97110531D01*
X165315632Y-97110530D01*
X165309572Y-97106481D01*
X165262220Y-97097062D01*
X165252910Y-97095210D01*
X165252909Y-97095210D01*
X165249340Y-97094500D01*
X165020660Y-97094500D01*
X165017091Y-97095210D01*
X165017090Y-97095210D01*
X165007780Y-97097062D01*
X164960428Y-97106481D01*
X164959679Y-97106981D01*
X164913351Y-97109006D01*
X164909572Y-97106481D01*
X164862220Y-97097062D01*
X164852910Y-97095210D01*
X164852909Y-97095210D01*
X164849340Y-97094500D01*
X164620660Y-97094500D01*
X164617091Y-97095210D01*
X164617090Y-97095210D01*
X164607780Y-97097062D01*
X164560428Y-97106481D01*
X164559679Y-97106981D01*
X164513351Y-97109006D01*
X164509572Y-97106481D01*
X164462220Y-97097062D01*
X164452910Y-97095210D01*
X164452909Y-97095210D01*
X164449340Y-97094500D01*
X164220660Y-97094500D01*
X164220660Y-97094291D01*
X164173224Y-97082134D01*
X164143740Y-97040989D01*
X164146876Y-97000000D01*
X166700000Y-97000000D01*
X166700000Y-100186050D01*
G37*
%TD.AperFunction*%
%TA.AperFunction,Conductor*%
G36*
X158466387Y-97012797D02*
G01*
X158473689Y-97018461D01*
X158606596Y-97097062D01*
X158615071Y-97100729D01*
X158764201Y-97144056D01*
X158771590Y-97145405D01*
X158772993Y-97145516D01*
X158783242Y-97142673D01*
X158786000Y-97138660D01*
X158786000Y-97000000D01*
X159294000Y-97000000D01*
X159294000Y-97133491D01*
X159298267Y-97145214D01*
X159328582Y-97181343D01*
X159332509Y-97215542D01*
X159327268Y-97258853D01*
X159327000Y-97263300D01*
X159327001Y-97601952D01*
X159330639Y-97611948D01*
X159335926Y-97615000D01*
X159821952Y-97615000D01*
X159831948Y-97611362D01*
X159835000Y-97606075D01*
X159835000Y-97000000D01*
X160035000Y-97000000D01*
X160035000Y-97275584D01*
X160034833Y-97278986D01*
X160034500Y-97280660D01*
X160034500Y-97741000D01*
X160017187Y-97788566D01*
X159973350Y-97813876D01*
X159960500Y-97815000D01*
X159340049Y-97815000D01*
X159330053Y-97818638D01*
X159327001Y-97823925D01*
X159327001Y-97868000D01*
X159309688Y-97915566D01*
X159265851Y-97940876D01*
X159253001Y-97942000D01*
X159213048Y-97942000D01*
X159203052Y-97945638D01*
X159200000Y-97950925D01*
X159200000Y-98975500D01*
X159182687Y-99023066D01*
X159138850Y-99048376D01*
X159126000Y-99049500D01*
X159074000Y-99049500D01*
X159026434Y-99032187D01*
X159001124Y-98988350D01*
X159000000Y-98975500D01*
X159000000Y-97955048D01*
X158996362Y-97945052D01*
X158991075Y-97942000D01*
X158661212Y-97942001D01*
X158656763Y-97942269D01*
X158577591Y-97951849D01*
X158568447Y-97954171D01*
X158443060Y-98003816D01*
X158434347Y-98008725D01*
X158400000Y-98034796D01*
X158400000Y-97000000D01*
X158453590Y-97000000D01*
X158466387Y-97012797D01*
G37*
%TD.AperFunction*%
%TA.AperFunction,Conductor*%
G36*
X163804000Y-97040527D02*
G01*
X163786687Y-97088093D01*
X163762049Y-97106159D01*
X163760428Y-97106481D01*
X163692121Y-97152121D01*
X163688070Y-97158184D01*
X163683556Y-97162698D01*
X163656540Y-97179909D01*
X163638052Y-97186638D01*
X163635000Y-97191925D01*
X163635000Y-97275584D01*
X163634833Y-97278986D01*
X163634500Y-97280660D01*
X163634500Y-97741000D01*
X163617187Y-97788566D01*
X163573350Y-97813876D01*
X163560500Y-97815000D01*
X163509500Y-97815000D01*
X163461934Y-97797687D01*
X163436624Y-97753850D01*
X163435500Y-97741000D01*
X163435500Y-97280660D01*
X163435167Y-97278986D01*
X163435000Y-97275584D01*
X163435000Y-97196048D01*
X163431362Y-97186052D01*
X163410849Y-97174209D01*
X163411186Y-97173625D01*
X163385302Y-97161556D01*
X163381930Y-97158184D01*
X163377879Y-97152121D01*
X163328889Y-97119388D01*
X163298957Y-97078567D01*
X163296000Y-97057859D01*
X163296000Y-97000000D01*
X163804000Y-97000000D01*
X163804000Y-97040527D01*
G37*
%TD.AperFunction*%
%TA.AperFunction,Conductor*%
G36*
X162965061Y-97020955D02*
G01*
X162951960Y-97069850D01*
X162910496Y-97098884D01*
X162876907Y-97099983D01*
X162852912Y-97095210D01*
X162852907Y-97095209D01*
X162849340Y-97094500D01*
X162620660Y-97094500D01*
X162617091Y-97095210D01*
X162617090Y-97095210D01*
X162607780Y-97097062D01*
X162560428Y-97106481D01*
X162559679Y-97106981D01*
X162513351Y-97109006D01*
X162509572Y-97106481D01*
X162462220Y-97097062D01*
X162452910Y-97095210D01*
X162452909Y-97095210D01*
X162449340Y-97094500D01*
X162220660Y-97094500D01*
X162217091Y-97095210D01*
X162217090Y-97095210D01*
X162207780Y-97097062D01*
X162160428Y-97106481D01*
X162159679Y-97106981D01*
X162113351Y-97109006D01*
X162109572Y-97106481D01*
X162062220Y-97097062D01*
X162052910Y-97095210D01*
X162052909Y-97095210D01*
X162049340Y-97094500D01*
X161820660Y-97094500D01*
X161817094Y-97095209D01*
X161816711Y-97095247D01*
X161767677Y-97082679D01*
X161738193Y-97041533D01*
X161741372Y-97000000D01*
X162955290Y-97000000D01*
X162965061Y-97020955D01*
G37*
%TD.AperFunction*%
%TD*%
%TA.AperFunction,Conductor*%
%TO.N,+3V3*%
G36*
X125938484Y-94369407D02*
G01*
X125974448Y-94418907D01*
X125974448Y-94480093D01*
X125935841Y-94530958D01*
X125935300Y-94531245D01*
X125777551Y-94659902D01*
X125774467Y-94663630D01*
X125774466Y-94663631D01*
X125651616Y-94812132D01*
X125647796Y-94816749D01*
X125589003Y-94925483D01*
X125572266Y-94956439D01*
X125550976Y-94995813D01*
X125538565Y-95035906D01*
X125496597Y-95171484D01*
X125490781Y-95190271D01*
X125490276Y-95195079D01*
X125490275Y-95195082D01*
X125470612Y-95382168D01*
X125469503Y-95392718D01*
X125472851Y-95429500D01*
X125487280Y-95588044D01*
X125487953Y-95595443D01*
X125489319Y-95600085D01*
X125489320Y-95600089D01*
X125544059Y-95786076D01*
X125545427Y-95790723D01*
X125550052Y-95799570D01*
X125637489Y-95966823D01*
X125637492Y-95966827D01*
X125639736Y-95971120D01*
X125642772Y-95974896D01*
X125642774Y-95974899D01*
X125764204Y-96125927D01*
X125767289Y-96129764D01*
X125770994Y-96132873D01*
X125770997Y-96132876D01*
X125919514Y-96257497D01*
X125919518Y-96257500D01*
X125923227Y-96260612D01*
X125927470Y-96262944D01*
X125927472Y-96262946D01*
X126088395Y-96351413D01*
X126101610Y-96358678D01*
X126106223Y-96360141D01*
X126106227Y-96360143D01*
X126213952Y-96394315D01*
X126295644Y-96420229D01*
X126300456Y-96420769D01*
X126300457Y-96420769D01*
X126451319Y-96437691D01*
X126451321Y-96437691D01*
X126454075Y-96438000D01*
X128138719Y-96438000D01*
X128141114Y-96437765D01*
X128141118Y-96437765D01*
X128285281Y-96423630D01*
X128285285Y-96423629D01*
X128290091Y-96423158D01*
X128294716Y-96421762D01*
X128294719Y-96421761D01*
X128377330Y-96396819D01*
X128484965Y-96364322D01*
X128664700Y-96268755D01*
X128822449Y-96140098D01*
X128828424Y-96132876D01*
X128949121Y-95986978D01*
X128949122Y-95986976D01*
X128952204Y-95983251D01*
X129029584Y-95840141D01*
X129046724Y-95808441D01*
X129046724Y-95808440D01*
X129049024Y-95804187D01*
X129082579Y-95695788D01*
X129107789Y-95614350D01*
X129107790Y-95614346D01*
X129109219Y-95609729D01*
X129110233Y-95600089D01*
X129129991Y-95412098D01*
X129129991Y-95412096D01*
X129130497Y-95407282D01*
X129115367Y-95241037D01*
X129112486Y-95209377D01*
X129112485Y-95209374D01*
X129112047Y-95204557D01*
X129110674Y-95199889D01*
X129055941Y-95013924D01*
X129055940Y-95013921D01*
X129054573Y-95009277D01*
X128996625Y-94898432D01*
X128962511Y-94833177D01*
X128962508Y-94833173D01*
X128960264Y-94828880D01*
X128953933Y-94821005D01*
X128835744Y-94674008D01*
X128835743Y-94674007D01*
X128832711Y-94670236D01*
X128829006Y-94667127D01*
X128829003Y-94667124D01*
X128680486Y-94542503D01*
X128680482Y-94542500D01*
X128676773Y-94539388D01*
X128671074Y-94536255D01*
X128670557Y-94535705D01*
X128668532Y-94534318D01*
X128668837Y-94533873D01*
X128629189Y-94491653D01*
X128621520Y-94430950D01*
X128650996Y-94377333D01*
X128706358Y-94351281D01*
X128718767Y-94350500D01*
X131014111Y-94350500D01*
X131072302Y-94369407D01*
X131108266Y-94418907D01*
X131108266Y-94480093D01*
X131072302Y-94529593D01*
X131048862Y-94542200D01*
X130953588Y-94577917D01*
X130947944Y-94582147D01*
X130947942Y-94582148D01*
X130885597Y-94628873D01*
X130846028Y-94658528D01*
X130841795Y-94664176D01*
X130776468Y-94751343D01*
X130765417Y-94766088D01*
X130762940Y-94772694D01*
X130762940Y-94772695D01*
X130753442Y-94798032D01*
X130718234Y-94891949D01*
X130717564Y-94898121D01*
X130717563Y-94898123D01*
X130717193Y-94901533D01*
X130712000Y-94949335D01*
X130712001Y-95249616D01*
X130712001Y-95303191D01*
X130693094Y-95361382D01*
X130643594Y-95397346D01*
X130582409Y-95397346D01*
X130547143Y-95377108D01*
X130478430Y-95315887D01*
X130478428Y-95315886D01*
X130473976Y-95311919D01*
X130457492Y-95303191D01*
X130340105Y-95241037D01*
X130340102Y-95241036D01*
X130334831Y-95238245D01*
X130219902Y-95209377D01*
X130187918Y-95201343D01*
X130187915Y-95201343D01*
X130182128Y-95199889D01*
X130102564Y-95199473D01*
X130030650Y-95199096D01*
X130030648Y-95199096D01*
X130024684Y-95199065D01*
X129871588Y-95235820D01*
X129844859Y-95249616D01*
X129736985Y-95305293D01*
X129736983Y-95305295D01*
X129731679Y-95308032D01*
X129613034Y-95411533D01*
X129522501Y-95540348D01*
X129465309Y-95687039D01*
X129464531Y-95692950D01*
X129464530Y-95692953D01*
X129459138Y-95733912D01*
X129444758Y-95843138D01*
X129445413Y-95849071D01*
X129445413Y-95849075D01*
X129458887Y-95971120D01*
X129462035Y-95999633D01*
X129468709Y-96017871D01*
X129513438Y-96140098D01*
X129516143Y-96147490D01*
X129519472Y-96152444D01*
X129600629Y-96273219D01*
X129600632Y-96273223D01*
X129603958Y-96278172D01*
X129608369Y-96282186D01*
X129608371Y-96282188D01*
X129699176Y-96364814D01*
X129720410Y-96384135D01*
X129766607Y-96409218D01*
X129853530Y-96456414D01*
X129853532Y-96456415D01*
X129858776Y-96459262D01*
X129930061Y-96477963D01*
X130005300Y-96497702D01*
X130005304Y-96497702D01*
X130011069Y-96499215D01*
X130017030Y-96499309D01*
X130017033Y-96499309D01*
X130084092Y-96500362D01*
X130145470Y-96501326D01*
X130203355Y-96521145D01*
X130213918Y-96530310D01*
X130740929Y-97057321D01*
X130768706Y-97111838D01*
X130769501Y-97118717D01*
X130769501Y-97121534D01*
X130770027Y-97125104D01*
X130770027Y-97125111D01*
X130779534Y-97189700D01*
X130780654Y-97197309D01*
X130784043Y-97204211D01*
X130784043Y-97204212D01*
X130806521Y-97249994D01*
X130837216Y-97312511D01*
X130928044Y-97403181D01*
X131043344Y-97459541D01*
X131098134Y-97467534D01*
X131114920Y-97469983D01*
X131114922Y-97469983D01*
X131118465Y-97470500D01*
X131289118Y-97470500D01*
X131461534Y-97470499D01*
X131520207Y-97461863D01*
X131529700Y-97460466D01*
X131537309Y-97459346D01*
X131652511Y-97402784D01*
X131669740Y-97385525D01*
X131729880Y-97325281D01*
X131784372Y-97297456D01*
X131844813Y-97306975D01*
X131869883Y-97325156D01*
X131948044Y-97403181D01*
X132063344Y-97459541D01*
X132118134Y-97467534D01*
X132134920Y-97469983D01*
X132134922Y-97469983D01*
X132138465Y-97470500D01*
X132309118Y-97470500D01*
X132481534Y-97470499D01*
X132540207Y-97461863D01*
X132549700Y-97460466D01*
X132557309Y-97459346D01*
X132672511Y-97402784D01*
X132763181Y-97311956D01*
X132819541Y-97196656D01*
X132830500Y-97121535D01*
X132830499Y-96678466D01*
X132819346Y-96602691D01*
X132813442Y-96590665D01*
X132766389Y-96494831D01*
X132766388Y-96494830D01*
X132762784Y-96487489D01*
X132756996Y-96481711D01*
X132756993Y-96481707D01*
X132739557Y-96464301D01*
X132711732Y-96409808D01*
X132710500Y-96394237D01*
X132710500Y-96128481D01*
X132710499Y-96128475D01*
X132710499Y-96124000D01*
X132729406Y-96065809D01*
X132778906Y-96029845D01*
X132809149Y-96025055D01*
X132822005Y-96020878D01*
X132825000Y-96016757D01*
X132825000Y-96009319D01*
X133125000Y-96009319D01*
X133129122Y-96022004D01*
X133133243Y-96024999D01*
X133231061Y-96024999D01*
X133237019Y-96024640D01*
X133312343Y-96015526D01*
X133324561Y-96012423D01*
X133444527Y-95964925D01*
X133456177Y-95958360D01*
X133558627Y-95880596D01*
X133568096Y-95871127D01*
X133645860Y-95768677D01*
X133652425Y-95757027D01*
X133699922Y-95637064D01*
X133703026Y-95624841D01*
X133712141Y-95549517D01*
X133712500Y-95543563D01*
X133712500Y-95415680D01*
X133708378Y-95402995D01*
X133704257Y-95400000D01*
X133140680Y-95400000D01*
X133127995Y-95404122D01*
X133125000Y-95408243D01*
X133125000Y-96009319D01*
X132825000Y-96009319D01*
X132825000Y-95199000D01*
X132843907Y-95140809D01*
X132893407Y-95104845D01*
X132924000Y-95100000D01*
X133696819Y-95100000D01*
X133709504Y-95095878D01*
X133712499Y-95091757D01*
X133712499Y-94956439D01*
X133712140Y-94950481D01*
X133703026Y-94875157D01*
X133699923Y-94862939D01*
X133652425Y-94742973D01*
X133645860Y-94731323D01*
X133568096Y-94628873D01*
X133558627Y-94619404D01*
X133456177Y-94541640D01*
X133445721Y-94535748D01*
X133404308Y-94490708D01*
X133397278Y-94429928D01*
X133427317Y-94376623D01*
X133482950Y-94351156D01*
X133494324Y-94350500D01*
X173960500Y-94350500D01*
X174018691Y-94369407D01*
X174054655Y-94418907D01*
X174059500Y-94449500D01*
X174059500Y-107750500D01*
X174040593Y-107808691D01*
X173991093Y-107844655D01*
X173960500Y-107849500D01*
X137804378Y-107849500D01*
X137746187Y-107830593D01*
X137710223Y-107781093D01*
X137705378Y-107750552D01*
X137705331Y-107660612D01*
X137704720Y-106489743D01*
X143375000Y-106489743D01*
X143375359Y-106495699D01*
X143385090Y-106576113D01*
X143388195Y-106588340D01*
X143438842Y-106716260D01*
X143445408Y-106727913D01*
X143528352Y-106837186D01*
X143537814Y-106846648D01*
X143647087Y-106929592D01*
X143658740Y-106936158D01*
X143786660Y-106986805D01*
X143798887Y-106989910D01*
X143879301Y-106999641D01*
X143885257Y-107000000D01*
X144234320Y-107000000D01*
X144247005Y-106995878D01*
X144250000Y-106991757D01*
X144250000Y-106984320D01*
X144550000Y-106984320D01*
X144554122Y-106997005D01*
X144558243Y-107000000D01*
X144914743Y-107000000D01*
X144920699Y-106999641D01*
X145001113Y-106989910D01*
X145013340Y-106986805D01*
X145141260Y-106936158D01*
X145152913Y-106929592D01*
X145262186Y-106846648D01*
X145271648Y-106837186D01*
X145322458Y-106770247D01*
X145690001Y-106770247D01*
X145690220Y-106774890D01*
X145692345Y-106797374D01*
X145694910Y-106809070D01*
X145734300Y-106921234D01*
X145741147Y-106934167D01*
X145810959Y-107028684D01*
X145821316Y-107039041D01*
X145915833Y-107108853D01*
X145928766Y-107115700D01*
X146040927Y-107155088D01*
X146052629Y-107157656D01*
X146075114Y-107159782D01*
X146079750Y-107160000D01*
X146134320Y-107160000D01*
X146147005Y-107155878D01*
X146150000Y-107151757D01*
X146150000Y-107144319D01*
X146450000Y-107144319D01*
X146454122Y-107157004D01*
X146458243Y-107159999D01*
X146520247Y-107159999D01*
X146524890Y-107159780D01*
X146547374Y-107157655D01*
X146559070Y-107155090D01*
X146671234Y-107115700D01*
X146684167Y-107108853D01*
X146778684Y-107039041D01*
X146789041Y-107028684D01*
X146858853Y-106934167D01*
X146865700Y-106921234D01*
X146905088Y-106809073D01*
X146907656Y-106797371D01*
X146909782Y-106774886D01*
X146910000Y-106770250D01*
X146910000Y-106745680D01*
X146905878Y-106732995D01*
X146901757Y-106730000D01*
X146465680Y-106730000D01*
X146452995Y-106734122D01*
X146450000Y-106738243D01*
X146450000Y-107144319D01*
X146150000Y-107144319D01*
X146150000Y-106745680D01*
X146145878Y-106732995D01*
X146141757Y-106730000D01*
X145705681Y-106730000D01*
X145692996Y-106734122D01*
X145690001Y-106738243D01*
X145690001Y-106770247D01*
X145322458Y-106770247D01*
X145354592Y-106727913D01*
X145361158Y-106716260D01*
X145404638Y-106606443D01*
X147400001Y-106606443D01*
X147400220Y-106611086D01*
X147402411Y-106634269D01*
X147404976Y-106645965D01*
X147445362Y-106760966D01*
X147452209Y-106773899D01*
X147523808Y-106870835D01*
X147534165Y-106881192D01*
X147631101Y-106952791D01*
X147644034Y-106959638D01*
X147759031Y-107000022D01*
X147770734Y-107002590D01*
X147793918Y-107004782D01*
X147798554Y-107005000D01*
X148334320Y-107005000D01*
X148347005Y-107000878D01*
X148350000Y-106996757D01*
X148350000Y-106989319D01*
X148650000Y-106989319D01*
X148654122Y-107002004D01*
X148658243Y-107004999D01*
X149201443Y-107004999D01*
X149206086Y-107004780D01*
X149229269Y-107002589D01*
X149240965Y-107000024D01*
X149355966Y-106959638D01*
X149368899Y-106952791D01*
X149465835Y-106881192D01*
X149476192Y-106870835D01*
X149547791Y-106773899D01*
X149554638Y-106760966D01*
X149595022Y-106645969D01*
X149597590Y-106634266D01*
X149599782Y-106611082D01*
X149600000Y-106606446D01*
X149600000Y-106570680D01*
X149595878Y-106557995D01*
X149591757Y-106555000D01*
X148665680Y-106555000D01*
X148652995Y-106559122D01*
X148650000Y-106563243D01*
X148650000Y-106989319D01*
X148350000Y-106989319D01*
X148350000Y-106570680D01*
X148345878Y-106557995D01*
X148341757Y-106555000D01*
X147415681Y-106555000D01*
X147402996Y-106559122D01*
X147400001Y-106563243D01*
X147400001Y-106606443D01*
X145404638Y-106606443D01*
X145411805Y-106588340D01*
X145414910Y-106576113D01*
X145424641Y-106495699D01*
X145425000Y-106489743D01*
X145425000Y-106365680D01*
X145420878Y-106352995D01*
X145416757Y-106350000D01*
X144565680Y-106350000D01*
X144552995Y-106354122D01*
X144550000Y-106358243D01*
X144550000Y-106984320D01*
X144250000Y-106984320D01*
X144250000Y-106365680D01*
X144245878Y-106352995D01*
X144241757Y-106350000D01*
X143390680Y-106350000D01*
X143377995Y-106354122D01*
X143375000Y-106358243D01*
X143375000Y-106489743D01*
X137704720Y-106489743D01*
X137704482Y-106034320D01*
X143375000Y-106034320D01*
X143379122Y-106047005D01*
X143383243Y-106050000D01*
X144234320Y-106050000D01*
X144247005Y-106045878D01*
X144250000Y-106041757D01*
X144250000Y-106034320D01*
X144550000Y-106034320D01*
X144554122Y-106047005D01*
X144558243Y-106050000D01*
X145409320Y-106050000D01*
X145422005Y-106045878D01*
X145425000Y-106041757D01*
X145425000Y-105910257D01*
X145424641Y-105904301D01*
X145414910Y-105823887D01*
X145411805Y-105811660D01*
X145361158Y-105683740D01*
X145354592Y-105672087D01*
X145271648Y-105562814D01*
X145262186Y-105553352D01*
X145152913Y-105470408D01*
X145141260Y-105463842D01*
X145013340Y-105413195D01*
X145001113Y-105410090D01*
X144920699Y-105400359D01*
X144914743Y-105400000D01*
X144565680Y-105400000D01*
X144552995Y-105404122D01*
X144550000Y-105408243D01*
X144550000Y-106034320D01*
X144250000Y-106034320D01*
X144250000Y-105415680D01*
X144245878Y-105402995D01*
X144241757Y-105400000D01*
X143885257Y-105400000D01*
X143879301Y-105400359D01*
X143798887Y-105410090D01*
X143786660Y-105413195D01*
X143658740Y-105463842D01*
X143647087Y-105470408D01*
X143537814Y-105553352D01*
X143528352Y-105562814D01*
X143445408Y-105672087D01*
X143438842Y-105683740D01*
X143388195Y-105811660D01*
X143385090Y-105823887D01*
X143375359Y-105904301D01*
X143375000Y-105910257D01*
X143375000Y-106034320D01*
X137704482Y-106034320D01*
X137704173Y-105441639D01*
X140400000Y-105441639D01*
X140400346Y-105447485D01*
X140402234Y-105463353D01*
X140406128Y-105477519D01*
X140444770Y-105564514D01*
X140454946Y-105579321D01*
X140521108Y-105645367D01*
X140535931Y-105655517D01*
X140622980Y-105694000D01*
X140637185Y-105697873D01*
X140652580Y-105699668D01*
X140658292Y-105700000D01*
X141534320Y-105700000D01*
X141547005Y-105695878D01*
X141550000Y-105691757D01*
X141550000Y-105684320D01*
X141850000Y-105684320D01*
X141854122Y-105697005D01*
X141858243Y-105700000D01*
X142741639Y-105700000D01*
X142747485Y-105699654D01*
X142763353Y-105697766D01*
X142777519Y-105693872D01*
X142864514Y-105655230D01*
X142879321Y-105645054D01*
X142945367Y-105578892D01*
X142955517Y-105564069D01*
X142994000Y-105477020D01*
X142997873Y-105462815D01*
X142999668Y-105447420D01*
X143000000Y-105441708D01*
X143000000Y-104002623D01*
X143424500Y-104002623D01*
X143424501Y-104597376D01*
X143424790Y-104600035D01*
X143424790Y-104600038D01*
X143429470Y-104643120D01*
X143431149Y-104658580D01*
X143453303Y-104717678D01*
X143478369Y-104784540D01*
X143481474Y-104792824D01*
X143567454Y-104907546D01*
X143682176Y-104993526D01*
X143688782Y-104996003D01*
X143688785Y-104996004D01*
X143738125Y-105014500D01*
X143816420Y-105043851D01*
X143877623Y-105050500D01*
X144399804Y-105050500D01*
X144922376Y-105050499D01*
X144925035Y-105050210D01*
X144925038Y-105050210D01*
X144977405Y-105044522D01*
X144977407Y-105044522D01*
X144983580Y-105043851D01*
X145048791Y-105019405D01*
X145111215Y-104996004D01*
X145111218Y-104996003D01*
X145117824Y-104993526D01*
X145140741Y-104976351D01*
X145147496Y-104971288D01*
X145205400Y-104951520D01*
X145263864Y-104969562D01*
X145300559Y-105018523D01*
X145305182Y-105038871D01*
X145308764Y-105069138D01*
X145312118Y-105076122D01*
X145312539Y-105077454D01*
X145313812Y-105085103D01*
X145336505Y-105127160D01*
X145338605Y-105131283D01*
X145356580Y-105168717D01*
X145356582Y-105168721D01*
X145359274Y-105174326D01*
X145362592Y-105178274D01*
X145364100Y-105179782D01*
X145365282Y-105181071D01*
X145366148Y-105182097D01*
X145369222Y-105187794D01*
X145375229Y-105193347D01*
X145406020Y-105221810D01*
X145408822Y-105224504D01*
X145710504Y-105526186D01*
X145738281Y-105580703D01*
X145739500Y-105596189D01*
X145739501Y-105691757D01*
X145739501Y-105790734D01*
X145740110Y-105794577D01*
X145740110Y-105794582D01*
X145752469Y-105872615D01*
X145753983Y-105882175D01*
X145779603Y-105932456D01*
X145802454Y-105977304D01*
X145810141Y-105992391D01*
X145815647Y-105997897D01*
X145820120Y-106004054D01*
X145839025Y-106062245D01*
X145820116Y-106120435D01*
X145811828Y-106130139D01*
X145741147Y-106225833D01*
X145734300Y-106238766D01*
X145694912Y-106350927D01*
X145692344Y-106362629D01*
X145690218Y-106385114D01*
X145690000Y-106389750D01*
X145690000Y-106414320D01*
X145694122Y-106427005D01*
X145698243Y-106430000D01*
X146894319Y-106430000D01*
X146907004Y-106425878D01*
X146909999Y-106421757D01*
X146909999Y-106389753D01*
X146909780Y-106385110D01*
X146907655Y-106362626D01*
X146905090Y-106350930D01*
X146865700Y-106238766D01*
X146858853Y-106225833D01*
X146784641Y-106125359D01*
X146785964Y-106124382D01*
X146762194Y-106077729D01*
X146771765Y-106017297D01*
X146779880Y-106004054D01*
X146784353Y-105997897D01*
X146789859Y-105992391D01*
X146797547Y-105977304D01*
X146842481Y-105889115D01*
X146842481Y-105889114D01*
X146846017Y-105882175D01*
X146849972Y-105857209D01*
X146859891Y-105794581D01*
X146859891Y-105794579D01*
X146860500Y-105790735D01*
X146860499Y-105449266D01*
X146859890Y-105445418D01*
X146847236Y-105365519D01*
X146847235Y-105365516D01*
X146846017Y-105357825D01*
X146803951Y-105275266D01*
X146793395Y-105254548D01*
X146793394Y-105254546D01*
X146789859Y-105247609D01*
X146702391Y-105160141D01*
X146695454Y-105156606D01*
X146695452Y-105156605D01*
X146599115Y-105107519D01*
X146599114Y-105107519D01*
X146592175Y-105103983D01*
X146584481Y-105102764D01*
X146584480Y-105102764D01*
X146504581Y-105090109D01*
X146504579Y-105090109D01*
X146500735Y-105089500D01*
X146480313Y-105089500D01*
X146306191Y-105089501D01*
X146248001Y-105070594D01*
X146236187Y-105060505D01*
X146029496Y-104853814D01*
X146001719Y-104799297D01*
X146000500Y-104783810D01*
X146000500Y-104147953D01*
X146002718Y-104127115D01*
X146003230Y-104124739D01*
X146003230Y-104124738D01*
X146004952Y-104116740D01*
X146001186Y-104084921D01*
X146000839Y-104079043D01*
X146000837Y-104079043D01*
X146000500Y-104074965D01*
X146000500Y-104070885D01*
X145997507Y-104052904D01*
X145996851Y-104048297D01*
X145996641Y-104046519D01*
X145991237Y-104000862D01*
X145987882Y-103993877D01*
X145987460Y-103992543D01*
X145986188Y-103984897D01*
X145963505Y-103942859D01*
X145961400Y-103938726D01*
X145955634Y-103926718D01*
X145940727Y-103895674D01*
X145937408Y-103891726D01*
X145935903Y-103890221D01*
X145934719Y-103888930D01*
X145933852Y-103887902D01*
X145930778Y-103882206D01*
X145924773Y-103876655D01*
X145924769Y-103876650D01*
X145893982Y-103848191D01*
X145891179Y-103845497D01*
X145083865Y-103038183D01*
X145056088Y-102983666D01*
X145055278Y-102963725D01*
X145055134Y-102963723D01*
X145055164Y-102960904D01*
X145055164Y-102960896D01*
X145055278Y-102950000D01*
X145041797Y-102838597D01*
X145037080Y-102799616D01*
X145037079Y-102799613D01*
X145036363Y-102793694D01*
X145031327Y-102780365D01*
X144982820Y-102651996D01*
X144980710Y-102646412D01*
X144891531Y-102516657D01*
X144887078Y-102512690D01*
X144887075Y-102512686D01*
X144808808Y-102442953D01*
X144773976Y-102411919D01*
X144716701Y-102381593D01*
X144640105Y-102341037D01*
X144640102Y-102341036D01*
X144634831Y-102338245D01*
X144547933Y-102316418D01*
X144487918Y-102301343D01*
X144487915Y-102301343D01*
X144482128Y-102299889D01*
X144402564Y-102299473D01*
X144330650Y-102299096D01*
X144330648Y-102299096D01*
X144324684Y-102299065D01*
X144171588Y-102335820D01*
X144110358Y-102367423D01*
X144036985Y-102405293D01*
X144036983Y-102405295D01*
X144031679Y-102408032D01*
X143913034Y-102511533D01*
X143822501Y-102640348D01*
X143765309Y-102787039D01*
X143764531Y-102792950D01*
X143764530Y-102792953D01*
X143756566Y-102853446D01*
X143744758Y-102943138D01*
X143745413Y-102949071D01*
X143745413Y-102949075D01*
X143757814Y-103061403D01*
X143762035Y-103099633D01*
X143770545Y-103122888D01*
X143812889Y-103238597D01*
X143816143Y-103247490D01*
X143819472Y-103252444D01*
X143900629Y-103373219D01*
X143900632Y-103373223D01*
X143903958Y-103378172D01*
X143908370Y-103382187D01*
X143912273Y-103386708D01*
X143910880Y-103387911D01*
X143937118Y-103433899D01*
X143930410Y-103494716D01*
X143889237Y-103539975D01*
X143850868Y-103552407D01*
X143822595Y-103555478D01*
X143822593Y-103555478D01*
X143816420Y-103556149D01*
X143794261Y-103564456D01*
X143688785Y-103603996D01*
X143688782Y-103603997D01*
X143682176Y-103606474D01*
X143676528Y-103610707D01*
X143574230Y-103687376D01*
X143567454Y-103692454D01*
X143481474Y-103807176D01*
X143478997Y-103813782D01*
X143478996Y-103813785D01*
X143461145Y-103861405D01*
X143431149Y-103941420D01*
X143424500Y-104002623D01*
X143000000Y-104002623D01*
X143000000Y-103665680D01*
X142995878Y-103652995D01*
X142991757Y-103650000D01*
X141865680Y-103650000D01*
X141852995Y-103654122D01*
X141850000Y-103658243D01*
X141850000Y-105684320D01*
X141550000Y-105684320D01*
X141550000Y-103665680D01*
X141545878Y-103652995D01*
X141541757Y-103650000D01*
X140415680Y-103650000D01*
X140402995Y-103654122D01*
X140400000Y-103658243D01*
X140400000Y-105441639D01*
X137704173Y-105441639D01*
X137703909Y-104935322D01*
X137701372Y-104911779D01*
X137698353Y-104883775D01*
X137698069Y-104881139D01*
X137689467Y-104841599D01*
X137687172Y-104831050D01*
X137687169Y-104831036D01*
X137686889Y-104829751D01*
X137682060Y-104812132D01*
X137681330Y-104809467D01*
X137681329Y-104809464D01*
X137679695Y-104803503D01*
X137630408Y-104716848D01*
X137584680Y-104664021D01*
X137551918Y-104632377D01*
X137463606Y-104586125D01*
X137396576Y-104566407D01*
X137393075Y-104565902D01*
X137393071Y-104565901D01*
X137328101Y-104556527D01*
X137328097Y-104556527D01*
X137324599Y-104556022D01*
X137321067Y-104556020D01*
X137321064Y-104556020D01*
X137203592Y-104555961D01*
X137025691Y-104555872D01*
X136957896Y-104564995D01*
X136894444Y-104582422D01*
X136855718Y-104596505D01*
X136774921Y-104654902D01*
X136727367Y-104706091D01*
X136699467Y-104742088D01*
X136696881Y-104748682D01*
X136680127Y-104791399D01*
X136641278Y-104838669D01*
X136582064Y-104854076D01*
X136532960Y-104837567D01*
X136505848Y-104819451D01*
X136505846Y-104819450D01*
X136497740Y-104814034D01*
X136424674Y-104799500D01*
X134375326Y-104799500D01*
X134302260Y-104814034D01*
X134294153Y-104819451D01*
X134294150Y-104819452D01*
X134282855Y-104826999D01*
X134223967Y-104843607D01*
X134166564Y-104822429D01*
X134136647Y-104783182D01*
X134112542Y-104726074D01*
X134110651Y-104721594D01*
X134071445Y-104663761D01*
X134042630Y-104628490D01*
X133960362Y-104572184D01*
X133896113Y-104544728D01*
X133825854Y-104525958D01*
X133822349Y-104525542D01*
X133822346Y-104525541D01*
X133734072Y-104515054D01*
X133690723Y-104509904D01*
X133690291Y-104509861D01*
X133690261Y-104509858D01*
X133681169Y-104508959D01*
X133681142Y-104508957D01*
X133680711Y-104508914D01*
X133679146Y-104508790D01*
X133674985Y-104508461D01*
X133674979Y-104508461D01*
X133670968Y-104508144D01*
X133666962Y-104508480D01*
X133666956Y-104508480D01*
X133592575Y-104514718D01*
X133592573Y-104514718D01*
X133588570Y-104515054D01*
X133584670Y-104516034D01*
X133522947Y-104531544D01*
X133522942Y-104531546D01*
X133520807Y-104532082D01*
X133477800Y-104547074D01*
X133396724Y-104605082D01*
X133348924Y-104656042D01*
X133347575Y-104657766D01*
X133347571Y-104657770D01*
X133336130Y-104672386D01*
X133320849Y-104691907D01*
X133318232Y-104698486D01*
X133314705Y-104704627D01*
X133311839Y-104702981D01*
X133281541Y-104739414D01*
X133222238Y-104754477D01*
X133165408Y-104731806D01*
X133149490Y-104715062D01*
X133136779Y-104698102D01*
X133132546Y-104692454D01*
X133017824Y-104606474D01*
X133011218Y-104603997D01*
X133011215Y-104603996D01*
X132953664Y-104582422D01*
X132883580Y-104556149D01*
X132822377Y-104549500D01*
X132300196Y-104549500D01*
X131777624Y-104549501D01*
X131774965Y-104549790D01*
X131774962Y-104549790D01*
X131722595Y-104555478D01*
X131722593Y-104555478D01*
X131716420Y-104556149D01*
X131646336Y-104582422D01*
X131582754Y-104606257D01*
X131521629Y-104608979D01*
X131470578Y-104575253D01*
X131449644Y-104524800D01*
X131446728Y-104499288D01*
X131446726Y-104499280D01*
X131445922Y-104492247D01*
X131407156Y-104400402D01*
X131367950Y-104342568D01*
X131366558Y-104340864D01*
X131366552Y-104340856D01*
X131343614Y-104312778D01*
X131343611Y-104312775D01*
X131339134Y-104307295D01*
X131316259Y-104291639D01*
X134100000Y-104291639D01*
X134100346Y-104297485D01*
X134102234Y-104313353D01*
X134106128Y-104327519D01*
X134144770Y-104414514D01*
X134154946Y-104429321D01*
X134221108Y-104495367D01*
X134235931Y-104505517D01*
X134322980Y-104544000D01*
X134337185Y-104547873D01*
X134352580Y-104549668D01*
X134358292Y-104550000D01*
X135234320Y-104550000D01*
X135247005Y-104545878D01*
X135250000Y-104541757D01*
X135250000Y-104534320D01*
X135550000Y-104534320D01*
X135554122Y-104547005D01*
X135558243Y-104550000D01*
X136441639Y-104550000D01*
X136447485Y-104549654D01*
X136463353Y-104547766D01*
X136477519Y-104543872D01*
X136564514Y-104505230D01*
X136579321Y-104495054D01*
X136645367Y-104428892D01*
X136655517Y-104414069D01*
X136694000Y-104327020D01*
X136697873Y-104312815D01*
X136699668Y-104297420D01*
X136700000Y-104291708D01*
X136700000Y-103665680D01*
X136695878Y-103652995D01*
X136691757Y-103650000D01*
X135565680Y-103650000D01*
X135552995Y-103654122D01*
X135550000Y-103658243D01*
X135550000Y-104534320D01*
X135250000Y-104534320D01*
X135250000Y-103665680D01*
X135245878Y-103652995D01*
X135241757Y-103650000D01*
X134115680Y-103650000D01*
X134102995Y-103654122D01*
X134100000Y-103658243D01*
X134100000Y-104291639D01*
X131316259Y-104291639D01*
X131256866Y-104250989D01*
X131192617Y-104223533D01*
X131189205Y-104222622D01*
X131189198Y-104222619D01*
X131125773Y-104205675D01*
X131125772Y-104205675D01*
X131122359Y-104204763D01*
X131118851Y-104204346D01*
X131118850Y-104204346D01*
X131051590Y-104196355D01*
X130804279Y-104166972D01*
X130760327Y-104148479D01*
X130760307Y-104148517D01*
X130759854Y-104148280D01*
X130759853Y-104148280D01*
X130723940Y-104129496D01*
X130676275Y-104104566D01*
X130676274Y-104104566D01*
X130671969Y-104102314D01*
X130666965Y-104100845D01*
X130663462Y-104100342D01*
X130663460Y-104100341D01*
X130640427Y-104097030D01*
X130594996Y-104090500D01*
X130503500Y-104090500D01*
X130445309Y-104071593D01*
X130409345Y-104022093D01*
X130404500Y-103991500D01*
X130404500Y-103821326D01*
X130389966Y-103748260D01*
X130349284Y-103687374D01*
X130340020Y-103673509D01*
X130334601Y-103665399D01*
X130317724Y-103654122D01*
X130259847Y-103615451D01*
X130259848Y-103615451D01*
X130251740Y-103610034D01*
X130178674Y-103595500D01*
X128621326Y-103595500D01*
X128548260Y-103610034D01*
X128540152Y-103615451D01*
X128540153Y-103615451D01*
X128482277Y-103654122D01*
X128465399Y-103665399D01*
X128459980Y-103673509D01*
X128450716Y-103687374D01*
X128410034Y-103748260D01*
X128395500Y-103821326D01*
X128395500Y-105378674D01*
X128410034Y-105451740D01*
X128465399Y-105534601D01*
X128473509Y-105540020D01*
X128547909Y-105589732D01*
X128585789Y-105637782D01*
X128588191Y-105698920D01*
X128570475Y-105733565D01*
X128533113Y-105780673D01*
X128532806Y-105781140D01*
X128483581Y-105817075D01*
X128422839Y-105817356D01*
X128421954Y-105817075D01*
X128304356Y-105779771D01*
X128299544Y-105779231D01*
X128299543Y-105779231D01*
X128148681Y-105762309D01*
X128148679Y-105762309D01*
X128145925Y-105762000D01*
X126461281Y-105762000D01*
X126458886Y-105762235D01*
X126458882Y-105762235D01*
X126314719Y-105776370D01*
X126314715Y-105776371D01*
X126309909Y-105776842D01*
X126305284Y-105778238D01*
X126305281Y-105778239D01*
X126251151Y-105794582D01*
X126115035Y-105835678D01*
X125935300Y-105931245D01*
X125777551Y-106059902D01*
X125774467Y-106063630D01*
X125774466Y-106063631D01*
X125654149Y-106209070D01*
X125647796Y-106216749D01*
X125594764Y-106314830D01*
X125554824Y-106388697D01*
X125550976Y-106395813D01*
X125537287Y-106440034D01*
X125492646Y-106584247D01*
X125490781Y-106590271D01*
X125490276Y-106595079D01*
X125490275Y-106595082D01*
X125475084Y-106739616D01*
X125469503Y-106792718D01*
X125473550Y-106837186D01*
X125487396Y-106989319D01*
X125487953Y-106995443D01*
X125489319Y-107000085D01*
X125489320Y-107000089D01*
X125543124Y-107182898D01*
X125545427Y-107190723D01*
X125547672Y-107195017D01*
X125637489Y-107366823D01*
X125637492Y-107366827D01*
X125639736Y-107371120D01*
X125642772Y-107374896D01*
X125642774Y-107374899D01*
X125764256Y-107525992D01*
X125767289Y-107529764D01*
X125770994Y-107532873D01*
X125770997Y-107532876D01*
X125919514Y-107657497D01*
X125919518Y-107657500D01*
X125923227Y-107660612D01*
X125928926Y-107663745D01*
X125929443Y-107664295D01*
X125931468Y-107665682D01*
X125931163Y-107666127D01*
X125970811Y-107708347D01*
X125978480Y-107769050D01*
X125949004Y-107822667D01*
X125893642Y-107848719D01*
X125881233Y-107849500D01*
X124899500Y-107849500D01*
X124841309Y-107830593D01*
X124805345Y-107781093D01*
X124800500Y-107750500D01*
X124800500Y-103300840D01*
X126420711Y-103300840D01*
X126423131Y-103347005D01*
X126430370Y-103485131D01*
X126430667Y-103490801D01*
X126432090Y-103495967D01*
X126479757Y-103669025D01*
X126479759Y-103669029D01*
X126481181Y-103674193D01*
X126569898Y-103842460D01*
X126629937Y-103913507D01*
X126670574Y-103961594D01*
X126692678Y-103987751D01*
X126711182Y-104001898D01*
X126839531Y-104100029D01*
X126839534Y-104100031D01*
X126843793Y-104103287D01*
X127016193Y-104183678D01*
X127021424Y-104184847D01*
X127021426Y-104184848D01*
X127086976Y-104199500D01*
X127201834Y-104225174D01*
X127206054Y-104225410D01*
X127206279Y-104225423D01*
X127206296Y-104225423D01*
X127207665Y-104225500D01*
X127347517Y-104225500D01*
X127378287Y-104222157D01*
X127483784Y-104210697D01*
X127483789Y-104210696D01*
X127489109Y-104210118D01*
X127669396Y-104149445D01*
X127832447Y-104051474D01*
X127904162Y-103983657D01*
X127966762Y-103924460D01*
X127966765Y-103924456D01*
X127970658Y-103920775D01*
X128043368Y-103813785D01*
X128074565Y-103767880D01*
X128074566Y-103767878D01*
X128077578Y-103763446D01*
X128113277Y-103674193D01*
X128146230Y-103591806D01*
X128146231Y-103591802D01*
X128148221Y-103586827D01*
X128151121Y-103569314D01*
X128169773Y-103456640D01*
X128179289Y-103399160D01*
X128175046Y-103318209D01*
X128169614Y-103214553D01*
X128169613Y-103214549D01*
X128169333Y-103209199D01*
X128150766Y-103141791D01*
X128120243Y-103030975D01*
X128120241Y-103030971D01*
X128118819Y-103025807D01*
X128030102Y-102857540D01*
X127927008Y-102735544D01*
X127910782Y-102716343D01*
X127910780Y-102716341D01*
X127907322Y-102712249D01*
X127836799Y-102658330D01*
X127760469Y-102599971D01*
X127760466Y-102599969D01*
X127756207Y-102596713D01*
X127583807Y-102516322D01*
X127578576Y-102515153D01*
X127578574Y-102515152D01*
X127486106Y-102494483D01*
X127398166Y-102474826D01*
X127393946Y-102474590D01*
X127393721Y-102474577D01*
X127393704Y-102474577D01*
X127392335Y-102474500D01*
X127252483Y-102474500D01*
X127221713Y-102477843D01*
X127116216Y-102489303D01*
X127116211Y-102489304D01*
X127110891Y-102489882D01*
X126930604Y-102550555D01*
X126767553Y-102648526D01*
X126712483Y-102700603D01*
X126633238Y-102775540D01*
X126633235Y-102775544D01*
X126629342Y-102779225D01*
X126590287Y-102836693D01*
X126527668Y-102928835D01*
X126522422Y-102936554D01*
X126502521Y-102986309D01*
X126454928Y-103105301D01*
X126451779Y-103113173D01*
X126450904Y-103118458D01*
X126450903Y-103118462D01*
X126443289Y-103164456D01*
X126420711Y-103300840D01*
X124800500Y-103300840D01*
X124800500Y-102085907D01*
X128390738Y-102085907D01*
X128394055Y-102125408D01*
X128406642Y-102275297D01*
X128407222Y-102282209D01*
X128408555Y-102286857D01*
X128408555Y-102286858D01*
X128459343Y-102463973D01*
X128461521Y-102471570D01*
X128463736Y-102475880D01*
X128470932Y-102489882D01*
X128551566Y-102646779D01*
X128673927Y-102801160D01*
X128677607Y-102804292D01*
X128677609Y-102804294D01*
X128755171Y-102870304D01*
X128823945Y-102928835D01*
X128828168Y-102931195D01*
X128828172Y-102931198D01*
X128940038Y-102993718D01*
X128995904Y-103024940D01*
X129000502Y-103026434D01*
X129178650Y-103084318D01*
X129178652Y-103084319D01*
X129183255Y-103085814D01*
X129378862Y-103109139D01*
X129383684Y-103108768D01*
X129383687Y-103108768D01*
X129463545Y-103102623D01*
X131324500Y-103102623D01*
X131324501Y-103697376D01*
X131324790Y-103700035D01*
X131324790Y-103700038D01*
X131330182Y-103749674D01*
X131331149Y-103758580D01*
X131353303Y-103817678D01*
X131377678Y-103882697D01*
X131381474Y-103892824D01*
X131385707Y-103898472D01*
X131451362Y-103986074D01*
X131467454Y-104007546D01*
X131582176Y-104093526D01*
X131588782Y-104096003D01*
X131588785Y-104096004D01*
X131640683Y-104115459D01*
X131716420Y-104143851D01*
X131777623Y-104150500D01*
X132299804Y-104150500D01*
X132822376Y-104150499D01*
X132825035Y-104150210D01*
X132825038Y-104150210D01*
X132877405Y-104144522D01*
X132877407Y-104144522D01*
X132883580Y-104143851D01*
X132955900Y-104116740D01*
X133011215Y-104096004D01*
X133011218Y-104096003D01*
X133017824Y-104093526D01*
X133132546Y-104007546D01*
X133148639Y-103986074D01*
X133214293Y-103898472D01*
X133218526Y-103892824D01*
X133222323Y-103882697D01*
X133245329Y-103821326D01*
X133268851Y-103758580D01*
X133275500Y-103697377D01*
X133275499Y-103102624D01*
X133275174Y-103099633D01*
X133269522Y-103047595D01*
X133269522Y-103047593D01*
X133268851Y-103041420D01*
X133237271Y-102957179D01*
X133221002Y-102913780D01*
X133221001Y-102913778D01*
X133218526Y-102907176D01*
X133214297Y-102901533D01*
X133211713Y-102896814D01*
X133200352Y-102836693D01*
X133228546Y-102779268D01*
X133332313Y-102675501D01*
X133380215Y-102649004D01*
X133516149Y-102617871D01*
X133516151Y-102617870D01*
X133521968Y-102616538D01*
X133541734Y-102606597D01*
X133657299Y-102548474D01*
X133657301Y-102548473D01*
X133662625Y-102545795D01*
X133667542Y-102541596D01*
X133687886Y-102524220D01*
X133744413Y-102500805D01*
X133752181Y-102500500D01*
X134030242Y-102500500D01*
X134088433Y-102519407D01*
X134124397Y-102568907D01*
X134124397Y-102630093D01*
X134120788Y-102639530D01*
X134106000Y-102672980D01*
X134102127Y-102687185D01*
X134100332Y-102702580D01*
X134100000Y-102708292D01*
X134100000Y-103334320D01*
X134104122Y-103347005D01*
X134108243Y-103350000D01*
X135234320Y-103350000D01*
X135247005Y-103345878D01*
X135250000Y-103341757D01*
X135250000Y-103334320D01*
X135550000Y-103334320D01*
X135554122Y-103347005D01*
X135558243Y-103350000D01*
X136684320Y-103350000D01*
X136697005Y-103345878D01*
X136700000Y-103341757D01*
X136700000Y-103334320D01*
X140400000Y-103334320D01*
X140404122Y-103347005D01*
X140408243Y-103350000D01*
X141534320Y-103350000D01*
X141547005Y-103345878D01*
X141550000Y-103341757D01*
X141550000Y-103334320D01*
X141850000Y-103334320D01*
X141854122Y-103347005D01*
X141858243Y-103350000D01*
X142984320Y-103350000D01*
X142997005Y-103345878D01*
X143000000Y-103341757D01*
X143000000Y-101558361D01*
X142999654Y-101552515D01*
X142997766Y-101536647D01*
X142993872Y-101522481D01*
X142955230Y-101435486D01*
X142945054Y-101420679D01*
X142878892Y-101354633D01*
X142864069Y-101344483D01*
X142777020Y-101306000D01*
X142762815Y-101302127D01*
X142747420Y-101300332D01*
X142741708Y-101300000D01*
X141865680Y-101300000D01*
X141852995Y-101304122D01*
X141850000Y-101308243D01*
X141850000Y-103334320D01*
X141550000Y-103334320D01*
X141550000Y-101315680D01*
X141545878Y-101302995D01*
X141541757Y-101300000D01*
X140658361Y-101300000D01*
X140652515Y-101300346D01*
X140636647Y-101302234D01*
X140622481Y-101306128D01*
X140535486Y-101344770D01*
X140520679Y-101354946D01*
X140454633Y-101421108D01*
X140444483Y-101435931D01*
X140406000Y-101522980D01*
X140402127Y-101537185D01*
X140400332Y-101552580D01*
X140400000Y-101558292D01*
X140400000Y-103334320D01*
X136700000Y-103334320D01*
X136700000Y-102708361D01*
X136699654Y-102702515D01*
X136697766Y-102686647D01*
X136693872Y-102672481D01*
X136655230Y-102585486D01*
X136645054Y-102570679D01*
X136578892Y-102504633D01*
X136564069Y-102494483D01*
X136477020Y-102456000D01*
X136462815Y-102452127D01*
X136447420Y-102450332D01*
X136441708Y-102450000D01*
X135565680Y-102450000D01*
X135552995Y-102454122D01*
X135550000Y-102458243D01*
X135550000Y-103334320D01*
X135250000Y-103334320D01*
X135250000Y-102465680D01*
X135245878Y-102452995D01*
X135241757Y-102450000D01*
X135096822Y-102450000D01*
X135038631Y-102431093D01*
X135002667Y-102381593D01*
X135002667Y-102320407D01*
X135026818Y-102280996D01*
X135078318Y-102229496D01*
X135132835Y-102201719D01*
X135148322Y-102200500D01*
X136424674Y-102200500D01*
X136497740Y-102185966D01*
X136580601Y-102130601D01*
X136607244Y-102090727D01*
X136630549Y-102055847D01*
X136635966Y-102047740D01*
X136650500Y-101974674D01*
X136650500Y-100425326D01*
X136635966Y-100352260D01*
X136598386Y-100296017D01*
X136586020Y-100277509D01*
X136580601Y-100269399D01*
X136561506Y-100256640D01*
X136539619Y-100242016D01*
X136497740Y-100214034D01*
X136424674Y-100199500D01*
X134375326Y-100199500D01*
X134302260Y-100214034D01*
X134260381Y-100242016D01*
X134238495Y-100256640D01*
X134219399Y-100269399D01*
X134213980Y-100277509D01*
X134201614Y-100296017D01*
X134164034Y-100352260D01*
X134149500Y-100425326D01*
X134149500Y-101400500D01*
X134130593Y-101458691D01*
X134081093Y-101494655D01*
X134050500Y-101499500D01*
X133753861Y-101499500D01*
X133695670Y-101480593D01*
X133688002Y-101474416D01*
X133673976Y-101461919D01*
X133668705Y-101459128D01*
X133540105Y-101391037D01*
X133540102Y-101391036D01*
X133534831Y-101388245D01*
X133437069Y-101363689D01*
X133387918Y-101351343D01*
X133387915Y-101351343D01*
X133382128Y-101349889D01*
X133302564Y-101349473D01*
X133230650Y-101349096D01*
X133230648Y-101349096D01*
X133224684Y-101349065D01*
X133071588Y-101385820D01*
X133043146Y-101400500D01*
X132936985Y-101455293D01*
X132936983Y-101455295D01*
X132931679Y-101458032D01*
X132813034Y-101561533D01*
X132722501Y-101690348D01*
X132665309Y-101837039D01*
X132664531Y-101842950D01*
X132664530Y-101842953D01*
X132656075Y-101907178D01*
X132627926Y-101964260D01*
X131993581Y-102598605D01*
X131983600Y-102606580D01*
X131983614Y-102606597D01*
X131978243Y-102611167D01*
X131972280Y-102614930D01*
X131967614Y-102620213D01*
X131962237Y-102624789D01*
X131960311Y-102622526D01*
X131918600Y-102647138D01*
X131897099Y-102649501D01*
X131777624Y-102649501D01*
X131774965Y-102649790D01*
X131774962Y-102649790D01*
X131722595Y-102655478D01*
X131722593Y-102655478D01*
X131716420Y-102656149D01*
X131672854Y-102672481D01*
X131588785Y-102703996D01*
X131588782Y-102703997D01*
X131582176Y-102706474D01*
X131467454Y-102792454D01*
X131381474Y-102907176D01*
X131378997Y-102913782D01*
X131378996Y-102913785D01*
X131362729Y-102957179D01*
X131331149Y-103041420D01*
X131324500Y-103102623D01*
X129463545Y-103102623D01*
X129575274Y-103094026D01*
X129670120Y-103067544D01*
X129760344Y-103042353D01*
X129760348Y-103042351D01*
X129765009Y-103041050D01*
X129769333Y-103038866D01*
X129936521Y-102954414D01*
X129936523Y-102954412D01*
X129940842Y-102952231D01*
X130096074Y-102830950D01*
X130099236Y-102827287D01*
X130099241Y-102827282D01*
X130183967Y-102729125D01*
X130224793Y-102681828D01*
X130228388Y-102675501D01*
X130319707Y-102514750D01*
X130319708Y-102514747D01*
X130322096Y-102510544D01*
X130324063Y-102504633D01*
X130382750Y-102328213D01*
X130382750Y-102328211D01*
X130384277Y-102323622D01*
X130387092Y-102301343D01*
X130404753Y-102161533D01*
X130408966Y-102128183D01*
X130409360Y-102100000D01*
X130409092Y-102097263D01*
X130409091Y-102097247D01*
X130405943Y-102065146D01*
X130419081Y-102005387D01*
X130434466Y-101985480D01*
X132127787Y-100292159D01*
X132182304Y-100264382D01*
X132242736Y-100273953D01*
X132286001Y-100317218D01*
X132290938Y-100328628D01*
X132311660Y-100386186D01*
X132315794Y-100397668D01*
X132319294Y-100402818D01*
X132319297Y-100402824D01*
X132357455Y-100458971D01*
X132357745Y-100459400D01*
X132401750Y-100524887D01*
X132401755Y-100524893D01*
X132403958Y-100528172D01*
X132405338Y-100529428D01*
X132408175Y-100533602D01*
X132412845Y-100537719D01*
X132463861Y-100582696D01*
X132465019Y-100583734D01*
X132515993Y-100630117D01*
X132515999Y-100630121D01*
X132520410Y-100634135D01*
X132523901Y-100636031D01*
X132525505Y-100637302D01*
X132526786Y-100638172D01*
X132531459Y-100642292D01*
X132594887Y-100674610D01*
X132597151Y-100675802D01*
X132644930Y-100701744D01*
X132658776Y-100709262D01*
X132664543Y-100710775D01*
X132666116Y-100711398D01*
X132670909Y-100713562D01*
X132672353Y-100714082D01*
X132677900Y-100716908D01*
X132683980Y-100718267D01*
X132743842Y-100731648D01*
X132747367Y-100732504D01*
X132805299Y-100747702D01*
X132805305Y-100747703D01*
X132811069Y-100749215D01*
X132817031Y-100749309D01*
X132822949Y-100750119D01*
X132822910Y-100750402D01*
X132827926Y-100750996D01*
X132832219Y-100751402D01*
X132838296Y-100752760D01*
X132902110Y-100750755D01*
X132906731Y-100750718D01*
X132968495Y-100751688D01*
X132974313Y-100750356D01*
X132974320Y-100750355D01*
X132974411Y-100750334D01*
X132993388Y-100747886D01*
X132996342Y-100747793D01*
X132996343Y-100747793D01*
X133002569Y-100747597D01*
X133008549Y-100745860D01*
X133008553Y-100745859D01*
X133060216Y-100730850D01*
X133065732Y-100729418D01*
X133116148Y-100717871D01*
X133121968Y-100716538D01*
X133130925Y-100712033D01*
X133147782Y-100705409D01*
X133160398Y-100701744D01*
X133165760Y-100698573D01*
X133208762Y-100673143D01*
X133214672Y-100669914D01*
X133257296Y-100648476D01*
X133257301Y-100648473D01*
X133262625Y-100645795D01*
X133273265Y-100636708D01*
X133287159Y-100626779D01*
X133296504Y-100621252D01*
X133296507Y-100621250D01*
X133301865Y-100618081D01*
X133338871Y-100581075D01*
X133344580Y-100575799D01*
X133377810Y-100547418D01*
X133377811Y-100547417D01*
X133382348Y-100543542D01*
X133385827Y-100538701D01*
X133385833Y-100538694D01*
X133392824Y-100528964D01*
X133403216Y-100516730D01*
X136140450Y-97779496D01*
X136194967Y-97751719D01*
X136210454Y-97750500D01*
X155530925Y-97750500D01*
X155620887Y-97739135D01*
X155646877Y-97735852D01*
X155646878Y-97735852D01*
X155653058Y-97735071D01*
X155805871Y-97674568D01*
X155909034Y-97599616D01*
X155933801Y-97581622D01*
X155933802Y-97581621D01*
X155938837Y-97577963D01*
X155942803Y-97573168D01*
X155942806Y-97573166D01*
X155952745Y-97561151D01*
X156004405Y-97528366D01*
X156065470Y-97532208D01*
X156098968Y-97554191D01*
X156126447Y-97581622D01*
X156148044Y-97603181D01*
X156263344Y-97659541D01*
X156318134Y-97667534D01*
X156334920Y-97669983D01*
X156334922Y-97669983D01*
X156338465Y-97670500D01*
X156358255Y-97670500D01*
X156543810Y-97670499D01*
X156601999Y-97689406D01*
X156613813Y-97699495D01*
X156800504Y-97886186D01*
X156828281Y-97940703D01*
X156829500Y-97956190D01*
X156829500Y-99103622D01*
X156827282Y-99124458D01*
X156825049Y-99134831D01*
X156828356Y-99162770D01*
X156828814Y-99166641D01*
X156829161Y-99172533D01*
X156829164Y-99172533D01*
X156829500Y-99176600D01*
X156829500Y-99180685D01*
X156830170Y-99184710D01*
X156830171Y-99184723D01*
X156831045Y-99189974D01*
X156821946Y-99250479D01*
X156779020Y-99294080D01*
X156718665Y-99304123D01*
X156667530Y-99280141D01*
X156657724Y-99271404D01*
X156650726Y-99265169D01*
X156643385Y-99261282D01*
X156516855Y-99194287D01*
X156516852Y-99194286D01*
X156511581Y-99191495D01*
X156433203Y-99171808D01*
X156364668Y-99154593D01*
X156364665Y-99154593D01*
X156358878Y-99153139D01*
X156279314Y-99152723D01*
X156207400Y-99152346D01*
X156207398Y-99152346D01*
X156201434Y-99152315D01*
X156100396Y-99176572D01*
X156057477Y-99186876D01*
X156048338Y-99189070D01*
X155994517Y-99216849D01*
X155913735Y-99258543D01*
X155913733Y-99258545D01*
X155908429Y-99261282D01*
X155789784Y-99364783D01*
X155786353Y-99369665D01*
X155786352Y-99369666D01*
X155759815Y-99407425D01*
X155710886Y-99444162D01*
X155678818Y-99449500D01*
X155626496Y-99449500D01*
X155568305Y-99430593D01*
X155546401Y-99408688D01*
X155543398Y-99404554D01*
X155539859Y-99397609D01*
X155496464Y-99354214D01*
X155468687Y-99299697D01*
X155478258Y-99239265D01*
X155507650Y-99204577D01*
X155528684Y-99189041D01*
X155539041Y-99178684D01*
X155608853Y-99084167D01*
X155615700Y-99071234D01*
X155655088Y-98959073D01*
X155657656Y-98947371D01*
X155659782Y-98924886D01*
X155660000Y-98920250D01*
X155660000Y-98865680D01*
X155655878Y-98852995D01*
X155651757Y-98850000D01*
X155029000Y-98850000D01*
X154970809Y-98831093D01*
X154934845Y-98781593D01*
X154930000Y-98751000D01*
X154930000Y-98534320D01*
X155230000Y-98534320D01*
X155234122Y-98547005D01*
X155238243Y-98550000D01*
X155644319Y-98550000D01*
X155657004Y-98545878D01*
X155659999Y-98541757D01*
X155659999Y-98479753D01*
X155659780Y-98475110D01*
X155657655Y-98452626D01*
X155655090Y-98440930D01*
X155615700Y-98328766D01*
X155608853Y-98315833D01*
X155539041Y-98221316D01*
X155528684Y-98210959D01*
X155434167Y-98141147D01*
X155421234Y-98134300D01*
X155309073Y-98094912D01*
X155297371Y-98092344D01*
X155274886Y-98090218D01*
X155270250Y-98090000D01*
X155245680Y-98090000D01*
X155232995Y-98094122D01*
X155230000Y-98098243D01*
X155230000Y-98534320D01*
X154930000Y-98534320D01*
X154930000Y-98105681D01*
X154925878Y-98092996D01*
X154921757Y-98090001D01*
X154889753Y-98090001D01*
X154885110Y-98090220D01*
X154862626Y-98092345D01*
X154850930Y-98094910D01*
X154738766Y-98134300D01*
X154725833Y-98141147D01*
X154625359Y-98215359D01*
X154624382Y-98214036D01*
X154577729Y-98237806D01*
X154517297Y-98228235D01*
X154504054Y-98220120D01*
X154497897Y-98215647D01*
X154492391Y-98210141D01*
X154485452Y-98206605D01*
X154485450Y-98206604D01*
X154389115Y-98157519D01*
X154389114Y-98157519D01*
X154382175Y-98153983D01*
X154374481Y-98152764D01*
X154374480Y-98152764D01*
X154294581Y-98140109D01*
X154294579Y-98140109D01*
X154290735Y-98139500D01*
X154120022Y-98139500D01*
X153949266Y-98139501D01*
X153945423Y-98140110D01*
X153945418Y-98140110D01*
X153865519Y-98152764D01*
X153865516Y-98152765D01*
X153857825Y-98153983D01*
X153811439Y-98177618D01*
X153754548Y-98206605D01*
X153754546Y-98206606D01*
X153747609Y-98210141D01*
X153660141Y-98297609D01*
X153658572Y-98296040D01*
X153618001Y-98325520D01*
X153556815Y-98325523D01*
X153505816Y-98287442D01*
X153491531Y-98266657D01*
X153487078Y-98262690D01*
X153487075Y-98262686D01*
X153391596Y-98177618D01*
X153373976Y-98161919D01*
X153368705Y-98159128D01*
X153240105Y-98091037D01*
X153240102Y-98091036D01*
X153234831Y-98088245D01*
X153145007Y-98065683D01*
X153087918Y-98051343D01*
X153087915Y-98051343D01*
X153082128Y-98049889D01*
X153002564Y-98049473D01*
X152930650Y-98049096D01*
X152930648Y-98049096D01*
X152924684Y-98049065D01*
X152771588Y-98085820D01*
X152699035Y-98123267D01*
X152636985Y-98155293D01*
X152636983Y-98155295D01*
X152631679Y-98158032D01*
X152513034Y-98261533D01*
X152422501Y-98390348D01*
X152365309Y-98537039D01*
X152364531Y-98542950D01*
X152364530Y-98542953D01*
X152358812Y-98586387D01*
X152344758Y-98693138D01*
X152345413Y-98699071D01*
X152345413Y-98699075D01*
X152359934Y-98830601D01*
X152362035Y-98849633D01*
X152364087Y-98855240D01*
X152411736Y-98985447D01*
X152416143Y-98997490D01*
X152419472Y-99002444D01*
X152500629Y-99123219D01*
X152500632Y-99123223D01*
X152503958Y-99128172D01*
X152508369Y-99132186D01*
X152508371Y-99132188D01*
X152557149Y-99176572D01*
X152587464Y-99229720D01*
X152580750Y-99290536D01*
X152555602Y-99324398D01*
X152513034Y-99361533D01*
X152422501Y-99490348D01*
X152365309Y-99637039D01*
X152364531Y-99642950D01*
X152364530Y-99642953D01*
X152356954Y-99700500D01*
X152344758Y-99793138D01*
X152345413Y-99799071D01*
X152345413Y-99799075D01*
X152357924Y-99912400D01*
X152362035Y-99949633D01*
X152369237Y-99969314D01*
X152411224Y-100084048D01*
X152416143Y-100097490D01*
X152419472Y-100102444D01*
X152500629Y-100223219D01*
X152500632Y-100223223D01*
X152503958Y-100228172D01*
X152508369Y-100232186D01*
X152508371Y-100232188D01*
X152557923Y-100277276D01*
X152588238Y-100330424D01*
X152581524Y-100391240D01*
X152540346Y-100436494D01*
X152491295Y-100449500D01*
X147582263Y-100449500D01*
X147561427Y-100447282D01*
X147560145Y-100447006D01*
X147551054Y-100445049D01*
X147519244Y-100448814D01*
X147513352Y-100449161D01*
X147513352Y-100449164D01*
X147509285Y-100449500D01*
X147505200Y-100449500D01*
X147501174Y-100450170D01*
X147501163Y-100450171D01*
X147487196Y-100452496D01*
X147482584Y-100453153D01*
X147435176Y-100458764D01*
X147428193Y-100462117D01*
X147426859Y-100462539D01*
X147419212Y-100463812D01*
X147412011Y-100467698D01*
X147412010Y-100467698D01*
X147377176Y-100486494D01*
X147373018Y-100488612D01*
X147335603Y-100506578D01*
X147335602Y-100506579D01*
X147329989Y-100509274D01*
X147326041Y-100512592D01*
X147324531Y-100514102D01*
X147323244Y-100515282D01*
X147322218Y-100516148D01*
X147316521Y-100519222D01*
X147310970Y-100525227D01*
X147310965Y-100525231D01*
X147282506Y-100556018D01*
X147279812Y-100558821D01*
X146086063Y-101752569D01*
X146069760Y-101765734D01*
X146067726Y-101767047D01*
X146067722Y-101767050D01*
X146060848Y-101771489D01*
X146041015Y-101796646D01*
X146037101Y-101801051D01*
X146037102Y-101801052D01*
X146034449Y-101804183D01*
X146031572Y-101807060D01*
X146020956Y-101821915D01*
X146018170Y-101825626D01*
X145988608Y-101863125D01*
X145986042Y-101870432D01*
X145985395Y-101871677D01*
X145980889Y-101877983D01*
X145978545Y-101885821D01*
X145967207Y-101923731D01*
X145965766Y-101928165D01*
X145952008Y-101967344D01*
X145949945Y-101973220D01*
X145949500Y-101978358D01*
X145949500Y-101980496D01*
X145949426Y-101982214D01*
X145949311Y-101983575D01*
X145947456Y-101989777D01*
X145947777Y-101997948D01*
X145949424Y-102039868D01*
X145949500Y-102043755D01*
X145949500Y-103102052D01*
X145947282Y-103122888D01*
X145945049Y-103133261D01*
X145948168Y-103159616D01*
X145948814Y-103165071D01*
X145949161Y-103170963D01*
X145949164Y-103170963D01*
X145949500Y-103175030D01*
X145949500Y-103179115D01*
X145950170Y-103183141D01*
X145950171Y-103183152D01*
X145952496Y-103197119D01*
X145953152Y-103201726D01*
X145958764Y-103249138D01*
X145962118Y-103256122D01*
X145962539Y-103257454D01*
X145963812Y-103265103D01*
X145986505Y-103307160D01*
X145988605Y-103311283D01*
X146006580Y-103348717D01*
X146006582Y-103348721D01*
X146009274Y-103354326D01*
X146012592Y-103358274D01*
X146014100Y-103359782D01*
X146015282Y-103361071D01*
X146016148Y-103362097D01*
X146019222Y-103367794D01*
X146025229Y-103373347D01*
X146056020Y-103401810D01*
X146058822Y-103404504D01*
X146762934Y-104108615D01*
X147435476Y-104781157D01*
X147463253Y-104835674D01*
X147463253Y-104866647D01*
X147449500Y-104953481D01*
X147449501Y-105316518D01*
X147450110Y-105320361D01*
X147450110Y-105320366D01*
X147452942Y-105338245D01*
X147464354Y-105410304D01*
X147483266Y-105447420D01*
X147509736Y-105499370D01*
X147521950Y-105523342D01*
X147611658Y-105613050D01*
X147618595Y-105616585D01*
X147618597Y-105616586D01*
X147622299Y-105618472D01*
X147688094Y-105651996D01*
X147694529Y-105655275D01*
X147737794Y-105698540D01*
X147747365Y-105758972D01*
X147719587Y-105813489D01*
X147682387Y-105836893D01*
X147644032Y-105850362D01*
X147631101Y-105857209D01*
X147534165Y-105928808D01*
X147523808Y-105939165D01*
X147452209Y-106036101D01*
X147445362Y-106049034D01*
X147404978Y-106164031D01*
X147402410Y-106175734D01*
X147400218Y-106198918D01*
X147400000Y-106203554D01*
X147400000Y-106239320D01*
X147404122Y-106252005D01*
X147408243Y-106255000D01*
X149584319Y-106255000D01*
X149597004Y-106250878D01*
X149599999Y-106246757D01*
X149599999Y-106203557D01*
X149599780Y-106198914D01*
X149597589Y-106175731D01*
X149595024Y-106164035D01*
X149554638Y-106049034D01*
X149547791Y-106036101D01*
X149476192Y-105939165D01*
X149465835Y-105928808D01*
X149368899Y-105857209D01*
X149355968Y-105850362D01*
X149317613Y-105836893D01*
X149268974Y-105799772D01*
X149251443Y-105741152D01*
X149271717Y-105683423D01*
X149305471Y-105655275D01*
X149311907Y-105651996D01*
X149377701Y-105618472D01*
X149381403Y-105616586D01*
X149381405Y-105616585D01*
X149388342Y-105613050D01*
X149478050Y-105523342D01*
X149490265Y-105499370D01*
X149532110Y-105417244D01*
X149532110Y-105417243D01*
X149535646Y-105410304D01*
X149539140Y-105388247D01*
X149549891Y-105320365D01*
X149549891Y-105320363D01*
X149550500Y-105316519D01*
X149550499Y-104953482D01*
X149535646Y-104859696D01*
X149506848Y-104803177D01*
X149481586Y-104753597D01*
X149481585Y-104753595D01*
X149478050Y-104746658D01*
X149388342Y-104656950D01*
X149381405Y-104653415D01*
X149381403Y-104653414D01*
X149282244Y-104602890D01*
X149282243Y-104602890D01*
X149275304Y-104599354D01*
X149267610Y-104598135D01*
X149267609Y-104598135D01*
X149265373Y-104597781D01*
X149263356Y-104596754D01*
X149260200Y-104595728D01*
X149260362Y-104595228D01*
X149210856Y-104570004D01*
X149183078Y-104515488D01*
X149192649Y-104455056D01*
X149235913Y-104411791D01*
X149265370Y-104402219D01*
X149275304Y-104400646D01*
X149361005Y-104356979D01*
X149381403Y-104346586D01*
X149381405Y-104346585D01*
X149388342Y-104343050D01*
X149478050Y-104253342D01*
X149492237Y-104225500D01*
X149532110Y-104147244D01*
X149532110Y-104147243D01*
X149535646Y-104140304D01*
X149541307Y-104104566D01*
X149549891Y-104050365D01*
X149549891Y-104050363D01*
X149550500Y-104046519D01*
X149550499Y-103683482D01*
X149548210Y-103669025D01*
X149544053Y-103642783D01*
X149535646Y-103589696D01*
X149497332Y-103514500D01*
X149481586Y-103483597D01*
X149481585Y-103483595D01*
X149478050Y-103476658D01*
X149388342Y-103386950D01*
X149381405Y-103383415D01*
X149381403Y-103383414D01*
X149282244Y-103332890D01*
X149282243Y-103332890D01*
X149275304Y-103329354D01*
X149267610Y-103328135D01*
X149267609Y-103328135D01*
X149265373Y-103327781D01*
X149263356Y-103326754D01*
X149260200Y-103325728D01*
X149260362Y-103325228D01*
X149210856Y-103300004D01*
X149183078Y-103245488D01*
X149192649Y-103185056D01*
X149235913Y-103141791D01*
X149265370Y-103132219D01*
X149275304Y-103130646D01*
X149335521Y-103099964D01*
X149381403Y-103076586D01*
X149381405Y-103076585D01*
X149388342Y-103073050D01*
X149478050Y-102983342D01*
X149488046Y-102963725D01*
X149532110Y-102877244D01*
X149532110Y-102877243D01*
X149535646Y-102870304D01*
X149539914Y-102843360D01*
X149549891Y-102780365D01*
X149549891Y-102780363D01*
X149550500Y-102776519D01*
X149550499Y-102413482D01*
X149549810Y-102409128D01*
X149540445Y-102350000D01*
X149535646Y-102319696D01*
X149489687Y-102229496D01*
X149481586Y-102213597D01*
X149481585Y-102213595D01*
X149478050Y-102206658D01*
X149453541Y-102182149D01*
X149425764Y-102127632D01*
X149435335Y-102067200D01*
X149453541Y-102042141D01*
X149516186Y-101979496D01*
X149570703Y-101951719D01*
X149586190Y-101950500D01*
X153380861Y-101950500D01*
X153439052Y-101969407D01*
X153475016Y-102018907D01*
X153475016Y-102080093D01*
X153445941Y-102124102D01*
X153403034Y-102161533D01*
X153312501Y-102290348D01*
X153255309Y-102437039D01*
X153254531Y-102442950D01*
X153254530Y-102442953D01*
X153248952Y-102485323D01*
X153234758Y-102593138D01*
X153235413Y-102599071D01*
X153235413Y-102599075D01*
X153249489Y-102726569D01*
X153252035Y-102749633D01*
X153261516Y-102775540D01*
X153301946Y-102886020D01*
X153306143Y-102897490D01*
X153309472Y-102902444D01*
X153390629Y-103023219D01*
X153390632Y-103023223D01*
X153393958Y-103028172D01*
X153398369Y-103032186D01*
X153398371Y-103032188D01*
X153505995Y-103130118D01*
X153510410Y-103134135D01*
X153531340Y-103145499D01*
X153643530Y-103206414D01*
X153643532Y-103206415D01*
X153648776Y-103209262D01*
X153728534Y-103230186D01*
X153795300Y-103247702D01*
X153795304Y-103247702D01*
X153801069Y-103249215D01*
X153807030Y-103249309D01*
X153807033Y-103249309D01*
X153879782Y-103250451D01*
X153958495Y-103251688D01*
X153975899Y-103247702D01*
X154106149Y-103217871D01*
X154106151Y-103217870D01*
X154111968Y-103216538D01*
X154117299Y-103213857D01*
X154247299Y-103148474D01*
X154247301Y-103148473D01*
X154252625Y-103145795D01*
X154268521Y-103132219D01*
X154295978Y-103108768D01*
X154372348Y-103043542D01*
X154413173Y-102986728D01*
X154462481Y-102950507D01*
X154493567Y-102945500D01*
X154645519Y-102945500D01*
X154703710Y-102964407D01*
X154721228Y-102981925D01*
X154721950Y-102983342D01*
X154811658Y-103073050D01*
X154818595Y-103076585D01*
X154818597Y-103076586D01*
X154909470Y-103122888D01*
X154924696Y-103130646D01*
X154932390Y-103131865D01*
X154932391Y-103131865D01*
X154934627Y-103132219D01*
X154936644Y-103133246D01*
X154939800Y-103134272D01*
X154939638Y-103134772D01*
X154989144Y-103159996D01*
X155016922Y-103214512D01*
X155007351Y-103274944D01*
X154964087Y-103318209D01*
X154934630Y-103327781D01*
X154924696Y-103329354D01*
X154914950Y-103334320D01*
X154818597Y-103383414D01*
X154818595Y-103383415D01*
X154811658Y-103386950D01*
X154721950Y-103476658D01*
X154718415Y-103483595D01*
X154718414Y-103483597D01*
X154702668Y-103514500D01*
X154664354Y-103589696D01*
X154663135Y-103597390D01*
X154663135Y-103597391D01*
X154651079Y-103673509D01*
X154649500Y-103683481D01*
X154649501Y-104046518D01*
X154650109Y-104050354D01*
X154650110Y-104050366D01*
X154652722Y-104066858D01*
X154664354Y-104140304D01*
X154676024Y-104163207D01*
X154707598Y-104225174D01*
X154721950Y-104253342D01*
X154811658Y-104343050D01*
X154818595Y-104346585D01*
X154818597Y-104346586D01*
X154916304Y-104396370D01*
X154924696Y-104400646D01*
X154932390Y-104401865D01*
X154932391Y-104401865D01*
X154934627Y-104402219D01*
X154936644Y-104403246D01*
X154939800Y-104404272D01*
X154939638Y-104404772D01*
X154989144Y-104429996D01*
X155016922Y-104484512D01*
X155007351Y-104544944D01*
X154964087Y-104588209D01*
X154934630Y-104597781D01*
X154924696Y-104599354D01*
X154875364Y-104624490D01*
X154818597Y-104653414D01*
X154818595Y-104653415D01*
X154811658Y-104656950D01*
X154721950Y-104746658D01*
X154718415Y-104753595D01*
X154718414Y-104753597D01*
X154682125Y-104824818D01*
X154664354Y-104859696D01*
X154663135Y-104867390D01*
X154663135Y-104867391D01*
X154652809Y-104932587D01*
X154649500Y-104953481D01*
X154649501Y-105316518D01*
X154650110Y-105320361D01*
X154650110Y-105320366D01*
X154652942Y-105338245D01*
X154664354Y-105410304D01*
X154683266Y-105447420D01*
X154709736Y-105499370D01*
X154721950Y-105523342D01*
X154811658Y-105613050D01*
X154818595Y-105616585D01*
X154818597Y-105616586D01*
X154899533Y-105657825D01*
X154924696Y-105670646D01*
X154932390Y-105671865D01*
X154932391Y-105671865D01*
X154934627Y-105672219D01*
X154936644Y-105673246D01*
X154939800Y-105674272D01*
X154939638Y-105674772D01*
X154989144Y-105699996D01*
X155016922Y-105754512D01*
X155007351Y-105814944D01*
X154964087Y-105858209D01*
X154934630Y-105867781D01*
X154924696Y-105869354D01*
X154885915Y-105889114D01*
X154818597Y-105923414D01*
X154818595Y-105923415D01*
X154811658Y-105926950D01*
X154721950Y-106016658D01*
X154718415Y-106023595D01*
X154718414Y-106023597D01*
X154669499Y-106119598D01*
X154664354Y-106129696D01*
X154663135Y-106137390D01*
X154663135Y-106137391D01*
X154650566Y-106216749D01*
X154649500Y-106223481D01*
X154649501Y-106586518D01*
X154650110Y-106590361D01*
X154650110Y-106590366D01*
X154652657Y-106606446D01*
X154664354Y-106680304D01*
X154691202Y-106732995D01*
X154715655Y-106780987D01*
X154721950Y-106793342D01*
X154811658Y-106883050D01*
X154818595Y-106886585D01*
X154818597Y-106886586D01*
X154877613Y-106916656D01*
X154924696Y-106940646D01*
X154932390Y-106941865D01*
X154932391Y-106941865D01*
X155014635Y-106954891D01*
X155014637Y-106954891D01*
X155018481Y-106955500D01*
X155488811Y-106955500D01*
X155547002Y-106974407D01*
X155558814Y-106984496D01*
X155708250Y-107133931D01*
X155721417Y-107150235D01*
X155722400Y-107151757D01*
X155727175Y-107159152D01*
X155733600Y-107164217D01*
X155752328Y-107178981D01*
X155756737Y-107182898D01*
X155756738Y-107182897D01*
X155759867Y-107185548D01*
X155762747Y-107188428D01*
X155766065Y-107190799D01*
X155766066Y-107190800D01*
X155777584Y-107199031D01*
X155781313Y-107201831D01*
X155818811Y-107231392D01*
X155826116Y-107233957D01*
X155827366Y-107234607D01*
X155833669Y-107239111D01*
X155846416Y-107242923D01*
X155879415Y-107252792D01*
X155883851Y-107254233D01*
X155923033Y-107267993D01*
X155923036Y-107267994D01*
X155928906Y-107270055D01*
X155934044Y-107270500D01*
X155936182Y-107270500D01*
X155937901Y-107270574D01*
X155939262Y-107270689D01*
X155945464Y-107272544D01*
X155953635Y-107272223D01*
X155995554Y-107270576D01*
X155999441Y-107270500D01*
X156479174Y-107270500D01*
X156537365Y-107289407D01*
X156556314Y-107309063D01*
X156556732Y-107308702D01*
X156560626Y-107313214D01*
X156563958Y-107318172D01*
X156585109Y-107337418D01*
X156633765Y-107381691D01*
X156680410Y-107424135D01*
X156701885Y-107435795D01*
X156813530Y-107496414D01*
X156813532Y-107496415D01*
X156818776Y-107499262D01*
X156898534Y-107520186D01*
X156965300Y-107537702D01*
X156965304Y-107537702D01*
X156971069Y-107539215D01*
X156977030Y-107539309D01*
X156977033Y-107539309D01*
X157049782Y-107540452D01*
X157128495Y-107541688D01*
X157145899Y-107537702D01*
X157276149Y-107507871D01*
X157276151Y-107507870D01*
X157281968Y-107506538D01*
X157287299Y-107503857D01*
X157417299Y-107438474D01*
X157417301Y-107438473D01*
X157422625Y-107435795D01*
X157436277Y-107424135D01*
X157537810Y-107337418D01*
X157537811Y-107337417D01*
X157542348Y-107333542D01*
X157610204Y-107239111D01*
X157630740Y-107210532D01*
X157630741Y-107210530D01*
X157634224Y-107205683D01*
X157639564Y-107192401D01*
X157690726Y-107065131D01*
X157690727Y-107065129D01*
X157692950Y-107059598D01*
X157700721Y-107005000D01*
X157714678Y-106906929D01*
X157714678Y-106906925D01*
X157715134Y-106903723D01*
X157715278Y-106890000D01*
X157704447Y-106800500D01*
X157697080Y-106739616D01*
X157697079Y-106739613D01*
X157696363Y-106733694D01*
X157673246Y-106672515D01*
X157642820Y-106591996D01*
X157640710Y-106586412D01*
X157551531Y-106456657D01*
X157547078Y-106452690D01*
X157547075Y-106452686D01*
X157469711Y-106383758D01*
X157433976Y-106351919D01*
X157384716Y-106325837D01*
X157300105Y-106281037D01*
X157300102Y-106281036D01*
X157294831Y-106278245D01*
X157282452Y-106275136D01*
X157230622Y-106242623D01*
X157207800Y-106185854D01*
X157211720Y-106170247D01*
X159340001Y-106170247D01*
X159340220Y-106174890D01*
X159342345Y-106197374D01*
X159344910Y-106209070D01*
X159384300Y-106321234D01*
X159391147Y-106334167D01*
X159460959Y-106428684D01*
X159471316Y-106439041D01*
X159565833Y-106508853D01*
X159578766Y-106515700D01*
X159690927Y-106555088D01*
X159702629Y-106557656D01*
X159725114Y-106559782D01*
X159729750Y-106560000D01*
X159754320Y-106560000D01*
X159767005Y-106555878D01*
X159770000Y-106551757D01*
X159770000Y-106115680D01*
X159765878Y-106102995D01*
X159761757Y-106100000D01*
X159355681Y-106100000D01*
X159342996Y-106104122D01*
X159340001Y-106108243D01*
X159340001Y-106170247D01*
X157211720Y-106170247D01*
X157222705Y-106126511D01*
X157236567Y-106109115D01*
X159216186Y-104129496D01*
X159270703Y-104101719D01*
X159286190Y-104100500D01*
X159436000Y-104100500D01*
X159494191Y-104119407D01*
X159530155Y-104168907D01*
X159535000Y-104199500D01*
X159535000Y-104469320D01*
X159539122Y-104482005D01*
X159543243Y-104485000D01*
X159819320Y-104485000D01*
X159854908Y-104473437D01*
X159916093Y-104473438D01*
X159965593Y-104509402D01*
X159984500Y-104567589D01*
X159984501Y-104605306D01*
X159965595Y-104663498D01*
X159916096Y-104699463D01*
X159854911Y-104699464D01*
X159827310Y-104685402D01*
X159826757Y-104685000D01*
X159550681Y-104685000D01*
X159537996Y-104689122D01*
X159535001Y-104693243D01*
X159535001Y-105041522D01*
X159535348Y-105047377D01*
X159537298Y-105063770D01*
X159541189Y-105077929D01*
X159580739Y-105166967D01*
X159590918Y-105181777D01*
X159626358Y-105217156D01*
X159654183Y-105271649D01*
X159644664Y-105332089D01*
X159601437Y-105375391D01*
X159589219Y-105380628D01*
X159578768Y-105384298D01*
X159565833Y-105391147D01*
X159471316Y-105460959D01*
X159460959Y-105471316D01*
X159391147Y-105565833D01*
X159384300Y-105578766D01*
X159344912Y-105690927D01*
X159342344Y-105702629D01*
X159340218Y-105725114D01*
X159340000Y-105729750D01*
X159340000Y-105784320D01*
X159344122Y-105797005D01*
X159348243Y-105800000D01*
X159754320Y-105800000D01*
X159767005Y-105795878D01*
X159770000Y-105791757D01*
X159770000Y-105387953D01*
X159788907Y-105329762D01*
X159828048Y-105301325D01*
X159835000Y-105291757D01*
X159835000Y-105179425D01*
X159853907Y-105121234D01*
X159903407Y-105085270D01*
X159964593Y-105085270D01*
X160016314Y-105124421D01*
X160017306Y-105125905D01*
X160018314Y-105127414D01*
X160035000Y-105182418D01*
X160035000Y-105284320D01*
X160042915Y-105308681D01*
X160065154Y-105339289D01*
X160070000Y-105369883D01*
X160070000Y-106544319D01*
X160074122Y-106557004D01*
X160078243Y-106559999D01*
X160110247Y-106559999D01*
X160114890Y-106559780D01*
X160137374Y-106557655D01*
X160149070Y-106555090D01*
X160261234Y-106515700D01*
X160274167Y-106508853D01*
X160374641Y-106434641D01*
X160375618Y-106435964D01*
X160422271Y-106412194D01*
X160482703Y-106421765D01*
X160495946Y-106429880D01*
X160502103Y-106434353D01*
X160507609Y-106439859D01*
X160514548Y-106443395D01*
X160514550Y-106443396D01*
X160609786Y-106491921D01*
X160617825Y-106496017D01*
X160625519Y-106497236D01*
X160625520Y-106497236D01*
X160705419Y-106509891D01*
X160705421Y-106509891D01*
X160709265Y-106510500D01*
X160879978Y-106510500D01*
X161050734Y-106510499D01*
X161054577Y-106509890D01*
X161054582Y-106509890D01*
X161134481Y-106497236D01*
X161134484Y-106497235D01*
X161142175Y-106496017D01*
X161232396Y-106450047D01*
X161245448Y-106443397D01*
X161245450Y-106443396D01*
X161252391Y-106439859D01*
X161254767Y-106437483D01*
X161310822Y-106419269D01*
X161369013Y-106438175D01*
X161377452Y-106445046D01*
X161392770Y-106458984D01*
X161420410Y-106484135D01*
X161468966Y-106510499D01*
X161553530Y-106556414D01*
X161553532Y-106556415D01*
X161558776Y-106559262D01*
X161617524Y-106574674D01*
X161705300Y-106597702D01*
X161705304Y-106597702D01*
X161711069Y-106599215D01*
X161717030Y-106599309D01*
X161717033Y-106599309D01*
X161789782Y-106600452D01*
X161868495Y-106601688D01*
X161879293Y-106599215D01*
X162016149Y-106567871D01*
X162016151Y-106567870D01*
X162021968Y-106566538D01*
X162027299Y-106563857D01*
X162157299Y-106498474D01*
X162157301Y-106498473D01*
X162162625Y-106495795D01*
X162223975Y-106443397D01*
X162277810Y-106397418D01*
X162277811Y-106397417D01*
X162282348Y-106393542D01*
X162363191Y-106281037D01*
X162370740Y-106270532D01*
X162370741Y-106270530D01*
X162374224Y-106265683D01*
X162381833Y-106246757D01*
X162412590Y-106170247D01*
X162965001Y-106170247D01*
X162965220Y-106174890D01*
X162967345Y-106197374D01*
X162969910Y-106209070D01*
X163009300Y-106321234D01*
X163016147Y-106334167D01*
X163085959Y-106428684D01*
X163096316Y-106439041D01*
X163190833Y-106508853D01*
X163203766Y-106515700D01*
X163315927Y-106555088D01*
X163327629Y-106557656D01*
X163350114Y-106559782D01*
X163354750Y-106560000D01*
X163379320Y-106560000D01*
X163392005Y-106555878D01*
X163395000Y-106551757D01*
X163395000Y-106115680D01*
X163390878Y-106102995D01*
X163386757Y-106100000D01*
X162980681Y-106100000D01*
X162967996Y-106104122D01*
X162965001Y-106108243D01*
X162965001Y-106170247D01*
X162412590Y-106170247D01*
X162430726Y-106125131D01*
X162430727Y-106125129D01*
X162432950Y-106119598D01*
X162435287Y-106103181D01*
X162454678Y-105966929D01*
X162454678Y-105966925D01*
X162455134Y-105963723D01*
X162455278Y-105950000D01*
X162445371Y-105868136D01*
X162437080Y-105799616D01*
X162437079Y-105799613D01*
X162436363Y-105793694D01*
X162421558Y-105754512D01*
X162382820Y-105651996D01*
X162380710Y-105646412D01*
X162307588Y-105540020D01*
X162294912Y-105521576D01*
X162294911Y-105521575D01*
X162291531Y-105516657D01*
X162287078Y-105512690D01*
X162287075Y-105512686D01*
X162192493Y-105428417D01*
X162161623Y-105375590D01*
X162167700Y-105314707D01*
X162208403Y-105269024D01*
X162258350Y-105255500D01*
X162429843Y-105255499D01*
X162454262Y-105255499D01*
X162459028Y-105254551D01*
X162459029Y-105254551D01*
X162482491Y-105249884D01*
X162515687Y-105243282D01*
X162554312Y-105243282D01*
X162615737Y-105255500D01*
X162734975Y-105255500D01*
X162854262Y-105255499D01*
X162859028Y-105254551D01*
X162859029Y-105254551D01*
X162882491Y-105249884D01*
X162915687Y-105243282D01*
X162954312Y-105243282D01*
X163015737Y-105255500D01*
X163073818Y-105255500D01*
X163132009Y-105274407D01*
X163167973Y-105323907D01*
X163167973Y-105385093D01*
X163132636Y-105434133D01*
X163096316Y-105460959D01*
X163085959Y-105471316D01*
X163016147Y-105565833D01*
X163009300Y-105578766D01*
X162969912Y-105690927D01*
X162967344Y-105702629D01*
X162965218Y-105725114D01*
X162965000Y-105729750D01*
X162965000Y-105784320D01*
X162969122Y-105797005D01*
X162973243Y-105800000D01*
X163379320Y-105800000D01*
X163392005Y-105795878D01*
X163395000Y-105791757D01*
X163395000Y-105378980D01*
X163413907Y-105320789D01*
X163435000Y-105291757D01*
X163435000Y-105182418D01*
X163451695Y-105127401D01*
X163452695Y-105125905D01*
X163500752Y-105088035D01*
X163561890Y-105085644D01*
X163612758Y-105119646D01*
X163617305Y-105125905D01*
X163618305Y-105127401D01*
X163635000Y-105182418D01*
X163635000Y-105284320D01*
X163639122Y-105297006D01*
X163654191Y-105307954D01*
X163690155Y-105357455D01*
X163695000Y-105388047D01*
X163695000Y-106544319D01*
X163699122Y-106557004D01*
X163703243Y-106559999D01*
X163735247Y-106559999D01*
X163739890Y-106559780D01*
X163762374Y-106557655D01*
X163774070Y-106555090D01*
X163886234Y-106515700D01*
X163899167Y-106508853D01*
X163999641Y-106434641D01*
X164000618Y-106435964D01*
X164047271Y-106412194D01*
X164107703Y-106421765D01*
X164120946Y-106429880D01*
X164127103Y-106434353D01*
X164132609Y-106439859D01*
X164139548Y-106443395D01*
X164139550Y-106443396D01*
X164234786Y-106491921D01*
X164242825Y-106496017D01*
X164250519Y-106497236D01*
X164250520Y-106497236D01*
X164330419Y-106509891D01*
X164330421Y-106509891D01*
X164334265Y-106510500D01*
X164504978Y-106510500D01*
X164675734Y-106510499D01*
X164679577Y-106509890D01*
X164679582Y-106509890D01*
X164759481Y-106497236D01*
X164759484Y-106497235D01*
X164767175Y-106496017D01*
X164858264Y-106449605D01*
X164918695Y-106440034D01*
X164973211Y-106467811D01*
X165000989Y-106522328D01*
X164991418Y-106582760D01*
X164984205Y-106594740D01*
X164952501Y-106639851D01*
X164895309Y-106786542D01*
X164894531Y-106792453D01*
X164894530Y-106792456D01*
X164888069Y-106841535D01*
X164874758Y-106942641D01*
X164875413Y-106948574D01*
X164875413Y-106948578D01*
X164887018Y-107053691D01*
X164892035Y-107099136D01*
X164900689Y-107122784D01*
X164943668Y-107240229D01*
X164946143Y-107246993D01*
X164949472Y-107251947D01*
X165030629Y-107372722D01*
X165030632Y-107372726D01*
X165033958Y-107377675D01*
X165038369Y-107381689D01*
X165038371Y-107381691D01*
X165097831Y-107435795D01*
X165150410Y-107483638D01*
X165219593Y-107521201D01*
X165283530Y-107555917D01*
X165283532Y-107555918D01*
X165288776Y-107558765D01*
X165368534Y-107579689D01*
X165435300Y-107597205D01*
X165435304Y-107597205D01*
X165441069Y-107598718D01*
X165447030Y-107598812D01*
X165447033Y-107598812D01*
X165519782Y-107599954D01*
X165598495Y-107601191D01*
X165615899Y-107597205D01*
X165746149Y-107567374D01*
X165746151Y-107567373D01*
X165751968Y-107566041D01*
X165757299Y-107563360D01*
X165887299Y-107497977D01*
X165887301Y-107497976D01*
X165892625Y-107495298D01*
X166012348Y-107393045D01*
X166049580Y-107341231D01*
X166098888Y-107305010D01*
X166129974Y-107300003D01*
X166842549Y-107300003D01*
X166863385Y-107302221D01*
X166864667Y-107302497D01*
X166873758Y-107304454D01*
X166905568Y-107300689D01*
X166911460Y-107300342D01*
X166911460Y-107300339D01*
X166915527Y-107300003D01*
X166919612Y-107300003D01*
X166923638Y-107299333D01*
X166923649Y-107299332D01*
X166937616Y-107297007D01*
X166942223Y-107296351D01*
X166965186Y-107293633D01*
X166981509Y-107291701D01*
X166981510Y-107291701D01*
X166989635Y-107290739D01*
X166996619Y-107287385D01*
X166997951Y-107286964D01*
X167005600Y-107285691D01*
X167047657Y-107262998D01*
X167051780Y-107260898D01*
X167089214Y-107242923D01*
X167089218Y-107242921D01*
X167094823Y-107240229D01*
X167098771Y-107236911D01*
X167100279Y-107235403D01*
X167101568Y-107234221D01*
X167102594Y-107233355D01*
X167108291Y-107230281D01*
X167113844Y-107224274D01*
X167113849Y-107224270D01*
X167115674Y-107222296D01*
X167118264Y-107220846D01*
X167120312Y-107219257D01*
X167120551Y-107219565D01*
X167169059Y-107192401D01*
X167188369Y-107190500D01*
X167372486Y-107190499D01*
X167391534Y-107190499D01*
X167467309Y-107179346D01*
X167582511Y-107122784D01*
X167673181Y-107031956D01*
X167729541Y-106916656D01*
X167740500Y-106841535D01*
X167740499Y-106498466D01*
X167731105Y-106434641D01*
X167730466Y-106430300D01*
X167729346Y-106422691D01*
X167716938Y-106397418D01*
X167697703Y-106358243D01*
X167672784Y-106307489D01*
X167640376Y-106275137D01*
X167595281Y-106230120D01*
X167567456Y-106175628D01*
X167576975Y-106115187D01*
X167595156Y-106090117D01*
X167673181Y-106011956D01*
X167729541Y-105896656D01*
X167730650Y-105889051D01*
X167731820Y-105885267D01*
X167767068Y-105835254D01*
X167826406Y-105815500D01*
X169879359Y-105815500D01*
X169937550Y-105834407D01*
X169969265Y-105873052D01*
X170012856Y-105967607D01*
X170129588Y-106132780D01*
X170274466Y-106273913D01*
X170442637Y-106386282D01*
X170628470Y-106466122D01*
X170825740Y-106510760D01*
X171027842Y-106518700D01*
X171081377Y-106510938D01*
X171223519Y-106490329D01*
X171223522Y-106490328D01*
X171228007Y-106489678D01*
X171374253Y-106440034D01*
X171415234Y-106426123D01*
X171415237Y-106426121D01*
X171419531Y-106424664D01*
X171596001Y-106325837D01*
X171751505Y-106196505D01*
X171880837Y-106041001D01*
X171893862Y-106017744D01*
X171916514Y-105977295D01*
X171979664Y-105864531D01*
X171982150Y-105857209D01*
X172025416Y-105729750D01*
X172044678Y-105673007D01*
X172046880Y-105657825D01*
X172069854Y-105499370D01*
X172073700Y-105472842D01*
X172074503Y-105442178D01*
X172075139Y-105417913D01*
X172075139Y-105417908D01*
X172075215Y-105415000D01*
X172074784Y-105410304D01*
X172062043Y-105271649D01*
X172056708Y-105213591D01*
X172001807Y-105018926D01*
X171967637Y-104949635D01*
X171948968Y-104911779D01*
X171912351Y-104837527D01*
X171791335Y-104675467D01*
X171642812Y-104538174D01*
X171632305Y-104531544D01*
X171475594Y-104432667D01*
X171471757Y-104430246D01*
X171283898Y-104355298D01*
X171085526Y-104315839D01*
X170985930Y-104314535D01*
X170887826Y-104313251D01*
X170887821Y-104313251D01*
X170883286Y-104313192D01*
X170878813Y-104313961D01*
X170878808Y-104313961D01*
X170780245Y-104330898D01*
X170683949Y-104347444D01*
X170494193Y-104417449D01*
X170320371Y-104520862D01*
X170316956Y-104523857D01*
X170316953Y-104523859D01*
X170233123Y-104597376D01*
X170168305Y-104654220D01*
X170165497Y-104657782D01*
X170050621Y-104803503D01*
X170043089Y-104813057D01*
X170040975Y-104817075D01*
X169964938Y-104961596D01*
X169921110Y-105004291D01*
X169877324Y-105014500D01*
X167373481Y-105014500D01*
X167373477Y-105014501D01*
X167341567Y-105014501D01*
X167334160Y-105016907D01*
X167334157Y-105016908D01*
X167318627Y-105021954D01*
X167303525Y-105025580D01*
X167279696Y-105029354D01*
X167258206Y-105040304D01*
X167243855Y-105046249D01*
X167231661Y-105050211D01*
X167220910Y-105053704D01*
X167201386Y-105067889D01*
X167188156Y-105075996D01*
X167166658Y-105086950D01*
X167153103Y-105100505D01*
X167098586Y-105128282D01*
X167083099Y-105129501D01*
X166948466Y-105129501D01*
X166872691Y-105140654D01*
X166757489Y-105197216D01*
X166751710Y-105203005D01*
X166713111Y-105241672D01*
X166666819Y-105288044D01*
X166610459Y-105403344D01*
X166599500Y-105478465D01*
X166599501Y-105821534D01*
X166610654Y-105897309D01*
X166614043Y-105904211D01*
X166614043Y-105904212D01*
X166634802Y-105946492D01*
X166667216Y-106012511D01*
X166673005Y-106018290D01*
X166744719Y-106089880D01*
X166772544Y-106144372D01*
X166763025Y-106204813D01*
X166744844Y-106229883D01*
X166666819Y-106308044D01*
X166610459Y-106423344D01*
X166605599Y-106456657D01*
X166601591Y-106484135D01*
X166599500Y-106498465D01*
X166599500Y-106502046D01*
X166599240Y-106505630D01*
X166597708Y-106505519D01*
X166580593Y-106558194D01*
X166531093Y-106594158D01*
X166500500Y-106599003D01*
X166130554Y-106599003D01*
X166072363Y-106580096D01*
X166048966Y-106556077D01*
X166024914Y-106521082D01*
X166024913Y-106521081D01*
X166021531Y-106516160D01*
X166019227Y-106514107D01*
X165995370Y-106458984D01*
X166008714Y-106399271D01*
X166013534Y-106391893D01*
X166100737Y-106270536D01*
X166100738Y-106270535D01*
X166104224Y-106265683D01*
X166111833Y-106246757D01*
X166160726Y-106125131D01*
X166160727Y-106125129D01*
X166162950Y-106119598D01*
X166165287Y-106103181D01*
X166184678Y-105966929D01*
X166184678Y-105966925D01*
X166185134Y-105963723D01*
X166185278Y-105950000D01*
X166175371Y-105868136D01*
X166167080Y-105799616D01*
X166167079Y-105799613D01*
X166166363Y-105793694D01*
X166151558Y-105754512D01*
X166112820Y-105651996D01*
X166110710Y-105646412D01*
X166037588Y-105540020D01*
X166024912Y-105521576D01*
X166024911Y-105521575D01*
X166021531Y-105516657D01*
X166017078Y-105512690D01*
X166017075Y-105512686D01*
X165928907Y-105434132D01*
X165903976Y-105411919D01*
X165898705Y-105409128D01*
X165770105Y-105341037D01*
X165770102Y-105341036D01*
X165764831Y-105338245D01*
X165688480Y-105319067D01*
X165617918Y-105301343D01*
X165617915Y-105301343D01*
X165612128Y-105299889D01*
X165577731Y-105299709D01*
X165521455Y-105299414D01*
X165463364Y-105280202D01*
X165427660Y-105230514D01*
X165427981Y-105169329D01*
X165439655Y-105145420D01*
X165470618Y-105099081D01*
X165472816Y-105088035D01*
X165482037Y-105041672D01*
X165485500Y-105024263D01*
X165485499Y-104199500D01*
X165504406Y-104141309D01*
X165553906Y-104105345D01*
X165584499Y-104100500D01*
X166396640Y-104100500D01*
X166444385Y-104091003D01*
X166465979Y-104086708D01*
X166465981Y-104086707D01*
X166475544Y-104084805D01*
X166565019Y-104025019D01*
X166624805Y-103935544D01*
X166628611Y-103916414D01*
X166639552Y-103861405D01*
X166640500Y-103856640D01*
X166640500Y-103851782D01*
X166640776Y-103848980D01*
X166665296Y-103792923D01*
X166718083Y-103761984D01*
X166778973Y-103767982D01*
X166805927Y-103785461D01*
X166865990Y-103840114D01*
X166865994Y-103840117D01*
X166870410Y-103844135D01*
X166916430Y-103869122D01*
X167003530Y-103916414D01*
X167003532Y-103916415D01*
X167008776Y-103919262D01*
X167070840Y-103935544D01*
X167155300Y-103957702D01*
X167155304Y-103957702D01*
X167161069Y-103959215D01*
X167167030Y-103959309D01*
X167167033Y-103959309D01*
X167239782Y-103960451D01*
X167318495Y-103961688D01*
X167335899Y-103957702D01*
X167466149Y-103927871D01*
X167466151Y-103927870D01*
X167471968Y-103926538D01*
X167477299Y-103923857D01*
X167607299Y-103858474D01*
X167607301Y-103858473D01*
X167612625Y-103855795D01*
X167623445Y-103846554D01*
X167727810Y-103757418D01*
X167727811Y-103757417D01*
X167732348Y-103753542D01*
X167803789Y-103654122D01*
X167820740Y-103630532D01*
X167820741Y-103630530D01*
X167824224Y-103625683D01*
X167828338Y-103615451D01*
X167880726Y-103485131D01*
X167880727Y-103485129D01*
X167882950Y-103479598D01*
X167884153Y-103471149D01*
X167904678Y-103326929D01*
X167904678Y-103326925D01*
X167905134Y-103323723D01*
X167905278Y-103310000D01*
X167893723Y-103214512D01*
X167887080Y-103159616D01*
X167887079Y-103159613D01*
X167886363Y-103153694D01*
X167880049Y-103136983D01*
X167832820Y-103011996D01*
X167830710Y-103006412D01*
X167741531Y-102876657D01*
X167737078Y-102872690D01*
X167737075Y-102872686D01*
X167632368Y-102779396D01*
X167601498Y-102726569D01*
X167600645Y-102720862D01*
X167600500Y-102720886D01*
X167599489Y-102714811D01*
X167597507Y-102702904D01*
X167596851Y-102698297D01*
X167593796Y-102672481D01*
X167591237Y-102650862D01*
X167587882Y-102643877D01*
X167587460Y-102642543D01*
X167586188Y-102634897D01*
X167563505Y-102592859D01*
X167561400Y-102588726D01*
X167540727Y-102545674D01*
X167537408Y-102541726D01*
X167535903Y-102540221D01*
X167534719Y-102538930D01*
X167533852Y-102537902D01*
X167530778Y-102532206D01*
X167524771Y-102526653D01*
X167519754Y-102520185D01*
X167522949Y-102517707D01*
X167501268Y-102480702D01*
X167507274Y-102419812D01*
X167547924Y-102374082D01*
X167597971Y-102360500D01*
X169307738Y-102360500D01*
X169328574Y-102362718D01*
X169329856Y-102362994D01*
X169338947Y-102364951D01*
X169370757Y-102361186D01*
X169376649Y-102360839D01*
X169376649Y-102360836D01*
X169380716Y-102360500D01*
X169384801Y-102360500D01*
X169388827Y-102359830D01*
X169388838Y-102359829D01*
X169402805Y-102357504D01*
X169407412Y-102356848D01*
X169430375Y-102354130D01*
X169446698Y-102352198D01*
X169446699Y-102352198D01*
X169454824Y-102351236D01*
X169461808Y-102347882D01*
X169463140Y-102347461D01*
X169470789Y-102346188D01*
X169512846Y-102323495D01*
X169516969Y-102321395D01*
X169554403Y-102303420D01*
X169554407Y-102303418D01*
X169560012Y-102300726D01*
X169563960Y-102297408D01*
X169565468Y-102295900D01*
X169566757Y-102294718D01*
X169567783Y-102293852D01*
X169573480Y-102290778D01*
X169579031Y-102284773D01*
X169579036Y-102284769D01*
X169607495Y-102253982D01*
X169610189Y-102251179D01*
X169700496Y-102160872D01*
X169755013Y-102133095D01*
X169815445Y-102142666D01*
X169858710Y-102185931D01*
X169869500Y-102230876D01*
X169869500Y-103749674D01*
X169884034Y-103822740D01*
X169939399Y-103905601D01*
X169947509Y-103911020D01*
X169967624Y-103924460D01*
X170022260Y-103960966D01*
X170095326Y-103975500D01*
X171844674Y-103975500D01*
X171917740Y-103960966D01*
X171972376Y-103924460D01*
X171992491Y-103911020D01*
X172000601Y-103905601D01*
X172055966Y-103822740D01*
X172070500Y-103749674D01*
X172070500Y-102000326D01*
X172055966Y-101927260D01*
X172000601Y-101844399D01*
X171917740Y-101789034D01*
X171844674Y-101774500D01*
X170325876Y-101774500D01*
X170267685Y-101755593D01*
X170231721Y-101706093D01*
X170231721Y-101644907D01*
X170255872Y-101605496D01*
X170663937Y-101197431D01*
X170680240Y-101184266D01*
X170682274Y-101182953D01*
X170682278Y-101182950D01*
X170689152Y-101178511D01*
X170708984Y-101153354D01*
X170712900Y-101148948D01*
X170712899Y-101148947D01*
X170715550Y-101145818D01*
X170718429Y-101142939D01*
X170728665Y-101128615D01*
X170729037Y-101128095D01*
X170731836Y-101124367D01*
X170749152Y-101102401D01*
X170761392Y-101086875D01*
X170763957Y-101079572D01*
X170764609Y-101078317D01*
X170769111Y-101072016D01*
X170782791Y-101026274D01*
X170784232Y-101021840D01*
X170797992Y-100982656D01*
X170797993Y-100982652D01*
X170800055Y-100976780D01*
X170800500Y-100971642D01*
X170800500Y-100969504D01*
X170800574Y-100967785D01*
X170800689Y-100966424D01*
X170802544Y-100960222D01*
X170800576Y-100910132D01*
X170800500Y-100906245D01*
X170800500Y-100456190D01*
X170819407Y-100397999D01*
X170829496Y-100386186D01*
X170994450Y-100221232D01*
X171048967Y-100193455D01*
X171087747Y-100196508D01*
X171087825Y-100196017D01*
X171094066Y-100197006D01*
X171094072Y-100197006D01*
X171095519Y-100197236D01*
X171095520Y-100197236D01*
X171175419Y-100209891D01*
X171175421Y-100209891D01*
X171179265Y-100210500D01*
X171349978Y-100210500D01*
X171520734Y-100210499D01*
X171524577Y-100209890D01*
X171524582Y-100209890D01*
X171604481Y-100197236D01*
X171604484Y-100197235D01*
X171612175Y-100196017D01*
X171677245Y-100162862D01*
X171715452Y-100143395D01*
X171715454Y-100143394D01*
X171722391Y-100139859D01*
X171759996Y-100102254D01*
X171814513Y-100074477D01*
X171874945Y-100084048D01*
X171900004Y-100102254D01*
X171937609Y-100139859D01*
X171944546Y-100143394D01*
X171944548Y-100143395D01*
X172011075Y-100177292D01*
X172047825Y-100196017D01*
X172055519Y-100197236D01*
X172055520Y-100197236D01*
X172135419Y-100209891D01*
X172135421Y-100209891D01*
X172139265Y-100210500D01*
X172309978Y-100210500D01*
X172480734Y-100210499D01*
X172484577Y-100209890D01*
X172484582Y-100209890D01*
X172564481Y-100197236D01*
X172564484Y-100197235D01*
X172572175Y-100196017D01*
X172637245Y-100162862D01*
X172675452Y-100143395D01*
X172675454Y-100143394D01*
X172682391Y-100139859D01*
X172769859Y-100052391D01*
X172776888Y-100038597D01*
X172822481Y-99949115D01*
X172822481Y-99949114D01*
X172826017Y-99942175D01*
X172830733Y-99912400D01*
X172858510Y-99857883D01*
X173455484Y-99260909D01*
X173455487Y-99260905D01*
X173478050Y-99238342D01*
X173489001Y-99216849D01*
X173497113Y-99203610D01*
X173511296Y-99184089D01*
X173513702Y-99176684D01*
X173513704Y-99176680D01*
X173518751Y-99161145D01*
X173524694Y-99146799D01*
X173535646Y-99125304D01*
X173537412Y-99114157D01*
X173539419Y-99101481D01*
X173543045Y-99086375D01*
X173543732Y-99084262D01*
X173550500Y-99063433D01*
X173550500Y-98309086D01*
X173569407Y-98250895D01*
X173585205Y-98233806D01*
X173627810Y-98197418D01*
X173627811Y-98197417D01*
X173632348Y-98193542D01*
X173695483Y-98105681D01*
X173720740Y-98070532D01*
X173720741Y-98070530D01*
X173724224Y-98065683D01*
X173729197Y-98053314D01*
X173780726Y-97925131D01*
X173780727Y-97925129D01*
X173782950Y-97919598D01*
X173796610Y-97823622D01*
X173804678Y-97766929D01*
X173804678Y-97766925D01*
X173805134Y-97763723D01*
X173805278Y-97750000D01*
X173795707Y-97670909D01*
X173787080Y-97599616D01*
X173787079Y-97599613D01*
X173786363Y-97593694D01*
X173781802Y-97581622D01*
X173732820Y-97451996D01*
X173730710Y-97446412D01*
X173647458Y-97325281D01*
X173644912Y-97321576D01*
X173644911Y-97321575D01*
X173641531Y-97316657D01*
X173583641Y-97265079D01*
X173552773Y-97212253D01*
X173550500Y-97191163D01*
X173550500Y-97086567D01*
X173543044Y-97063620D01*
X173539419Y-97048519D01*
X173536865Y-97032391D01*
X173536864Y-97032389D01*
X173535646Y-97024696D01*
X173524695Y-97003203D01*
X173518752Y-96988857D01*
X173513704Y-96973321D01*
X173511296Y-96965910D01*
X173497116Y-96946393D01*
X173489002Y-96933154D01*
X173478050Y-96911658D01*
X173455487Y-96889095D01*
X173455484Y-96889091D01*
X172629496Y-96063103D01*
X172601719Y-96008586D01*
X172600500Y-95993099D01*
X172600500Y-95025326D01*
X172585966Y-94952260D01*
X172541783Y-94886134D01*
X172536020Y-94877509D01*
X172530601Y-94869399D01*
X172508833Y-94854854D01*
X172462630Y-94823983D01*
X172447740Y-94814034D01*
X172374674Y-94799500D01*
X171125326Y-94799500D01*
X171052260Y-94814034D01*
X171037370Y-94823983D01*
X171005001Y-94845611D01*
X170946113Y-94862219D01*
X170894999Y-94845611D01*
X170862630Y-94823983D01*
X170847740Y-94814034D01*
X170774674Y-94799500D01*
X169525326Y-94799500D01*
X169452260Y-94814034D01*
X169437370Y-94823983D01*
X169391168Y-94854854D01*
X169369399Y-94869399D01*
X169363980Y-94877509D01*
X169358217Y-94886134D01*
X169314034Y-94952260D01*
X169299500Y-95025326D01*
X169299500Y-95104656D01*
X169280593Y-95162847D01*
X169231093Y-95198811D01*
X169169907Y-95198811D01*
X169120407Y-95162847D01*
X169102719Y-95120142D01*
X169097236Y-95085519D01*
X169097235Y-95085516D01*
X169096017Y-95077825D01*
X169063458Y-95013924D01*
X169043395Y-94974548D01*
X169043394Y-94974546D01*
X169039859Y-94967609D01*
X168952391Y-94880141D01*
X168945454Y-94876606D01*
X168945452Y-94876605D01*
X168849115Y-94827519D01*
X168849114Y-94827519D01*
X168842175Y-94823983D01*
X168834481Y-94822764D01*
X168834480Y-94822764D01*
X168754581Y-94810109D01*
X168754579Y-94810109D01*
X168750735Y-94809500D01*
X168550026Y-94809500D01*
X168349266Y-94809501D01*
X168345423Y-94810110D01*
X168345418Y-94810110D01*
X168265519Y-94822764D01*
X168265516Y-94822765D01*
X168257825Y-94823983D01*
X168239781Y-94833177D01*
X168154548Y-94876605D01*
X168154546Y-94876606D01*
X168147609Y-94880141D01*
X168117246Y-94910504D01*
X168062729Y-94938281D01*
X168047242Y-94939500D01*
X167944230Y-94939500D01*
X167886039Y-94920593D01*
X167872878Y-94908617D01*
X167871531Y-94906657D01*
X167862300Y-94898432D01*
X167830512Y-94870110D01*
X167753976Y-94801919D01*
X167728742Y-94788558D01*
X167620105Y-94731037D01*
X167620102Y-94731036D01*
X167614831Y-94728245D01*
X167538479Y-94709067D01*
X167467918Y-94691343D01*
X167467915Y-94691343D01*
X167462128Y-94689889D01*
X167382564Y-94689473D01*
X167310650Y-94689096D01*
X167310648Y-94689096D01*
X167304684Y-94689065D01*
X167151588Y-94725820D01*
X167102138Y-94751343D01*
X167016985Y-94795293D01*
X167016983Y-94795295D01*
X167011679Y-94798032D01*
X166893034Y-94901533D01*
X166802501Y-95030348D01*
X166745309Y-95177039D01*
X166744531Y-95182950D01*
X166744530Y-95182953D01*
X166738433Y-95229265D01*
X166724758Y-95333138D01*
X166725413Y-95339071D01*
X166725413Y-95339075D01*
X166736484Y-95439350D01*
X166742035Y-95489633D01*
X166747229Y-95503827D01*
X166785370Y-95608051D01*
X166796143Y-95637490D01*
X166799472Y-95642444D01*
X166880629Y-95763219D01*
X166880632Y-95763223D01*
X166883958Y-95768172D01*
X166888369Y-95772186D01*
X166888371Y-95772188D01*
X166995968Y-95870093D01*
X167000410Y-95874135D01*
X167021885Y-95885795D01*
X167133530Y-95946414D01*
X167133532Y-95946415D01*
X167138776Y-95949262D01*
X167205715Y-95966823D01*
X167285300Y-95987702D01*
X167285304Y-95987702D01*
X167291069Y-95989215D01*
X167297030Y-95989309D01*
X167297033Y-95989309D01*
X167369782Y-95990451D01*
X167448495Y-95991688D01*
X167485333Y-95983251D01*
X167596149Y-95957871D01*
X167596151Y-95957870D01*
X167601968Y-95956538D01*
X167607299Y-95953857D01*
X167737299Y-95888474D01*
X167737301Y-95888473D01*
X167742625Y-95885795D01*
X167759799Y-95871127D01*
X167857810Y-95787418D01*
X167857811Y-95787417D01*
X167862348Y-95783542D01*
X167865829Y-95778697D01*
X167869872Y-95774301D01*
X167871599Y-95775889D01*
X167912970Y-95745504D01*
X167944047Y-95740500D01*
X168008242Y-95740500D01*
X168066433Y-95759407D01*
X168102397Y-95808907D01*
X168102397Y-95870093D01*
X168078246Y-95909504D01*
X168060141Y-95927609D01*
X168056606Y-95934546D01*
X168056605Y-95934548D01*
X168018388Y-96009554D01*
X168003983Y-96037825D01*
X168002764Y-96045519D01*
X168002764Y-96045520D01*
X167994679Y-96096567D01*
X167989500Y-96129265D01*
X167989501Y-96470734D01*
X167990110Y-96474577D01*
X167990110Y-96474582D01*
X168002048Y-96549955D01*
X168003983Y-96562175D01*
X168018723Y-96591104D01*
X168055936Y-96664138D01*
X168060141Y-96672391D01*
X168147609Y-96759859D01*
X168154554Y-96763398D01*
X168158688Y-96766401D01*
X168194654Y-96815900D01*
X168199500Y-96846496D01*
X168199500Y-98339873D01*
X168180593Y-98398064D01*
X168131093Y-98434028D01*
X168069907Y-98434028D01*
X168034642Y-98413790D01*
X168027947Y-98407825D01*
X167953976Y-98341919D01*
X167941462Y-98335293D01*
X167820105Y-98271037D01*
X167820102Y-98271036D01*
X167814831Y-98268245D01*
X167738479Y-98249067D01*
X167667918Y-98231343D01*
X167667915Y-98231343D01*
X167662128Y-98229889D01*
X167582564Y-98229473D01*
X167510650Y-98229096D01*
X167510648Y-98229096D01*
X167504684Y-98229065D01*
X167351588Y-98265820D01*
X167290455Y-98297373D01*
X167216985Y-98335293D01*
X167216983Y-98335295D01*
X167211679Y-98338032D01*
X167093034Y-98441533D01*
X167002501Y-98570348D01*
X166945309Y-98717039D01*
X166944531Y-98722950D01*
X166944530Y-98722953D01*
X166940838Y-98751000D01*
X166924758Y-98873138D01*
X166925413Y-98879071D01*
X166925413Y-98879075D01*
X166937900Y-98992175D01*
X166942035Y-99029633D01*
X166947181Y-99043694D01*
X166994064Y-99171808D01*
X166996143Y-99177490D01*
X166999472Y-99182444D01*
X167077817Y-99299034D01*
X167094580Y-99357879D01*
X167083856Y-99399196D01*
X167064524Y-99437138D01*
X167053983Y-99457825D01*
X167052764Y-99465519D01*
X167052764Y-99465520D01*
X167049605Y-99485467D01*
X167039500Y-99549265D01*
X167039501Y-99651154D01*
X167039501Y-99743808D01*
X167020594Y-99801999D01*
X167010505Y-99813813D01*
X166794771Y-100029547D01*
X166740254Y-100057324D01*
X166679822Y-100047753D01*
X166636557Y-100004488D01*
X166627669Y-99978855D01*
X166625771Y-99969312D01*
X166625771Y-99930686D01*
X166640500Y-99856640D01*
X166640500Y-99643360D01*
X166625771Y-99569312D01*
X166625771Y-99530686D01*
X166626697Y-99526032D01*
X166640500Y-99456640D01*
X166640500Y-99243360D01*
X166625771Y-99169312D01*
X166625771Y-99130686D01*
X166626271Y-99128172D01*
X166640500Y-99056640D01*
X166640500Y-98843360D01*
X166625771Y-98769312D01*
X166625771Y-98730686D01*
X166627162Y-98723694D01*
X166640500Y-98656640D01*
X166640500Y-98443360D01*
X166628991Y-98385499D01*
X166626708Y-98374021D01*
X166626707Y-98374019D01*
X166624805Y-98364456D01*
X166565019Y-98274981D01*
X166475544Y-98215195D01*
X166465981Y-98213293D01*
X166465979Y-98213292D01*
X166432354Y-98206604D01*
X166396640Y-98199500D01*
X165584500Y-98199500D01*
X165526309Y-98180593D01*
X165490345Y-98131093D01*
X165485500Y-98100500D01*
X165485499Y-97280598D01*
X165485499Y-97275738D01*
X165470618Y-97200919D01*
X165413926Y-97116074D01*
X165329081Y-97059382D01*
X165319518Y-97057480D01*
X165319516Y-97057479D01*
X165286539Y-97050920D01*
X165254263Y-97044500D01*
X165135025Y-97044500D01*
X165015738Y-97044501D01*
X165010972Y-97045449D01*
X165010971Y-97045449D01*
X164995536Y-97048519D01*
X164954313Y-97056718D01*
X164915688Y-97056718D01*
X164854263Y-97044500D01*
X164735025Y-97044500D01*
X164615738Y-97044501D01*
X164610972Y-97045449D01*
X164610971Y-97045449D01*
X164595536Y-97048519D01*
X164554313Y-97056718D01*
X164515688Y-97056718D01*
X164454263Y-97044500D01*
X164335025Y-97044500D01*
X164215738Y-97044501D01*
X164210972Y-97045449D01*
X164210971Y-97045449D01*
X164195536Y-97048519D01*
X164154313Y-97056718D01*
X164115688Y-97056718D01*
X164054263Y-97044500D01*
X164017335Y-97044500D01*
X163959144Y-97025593D01*
X163923180Y-96976093D01*
X163923180Y-96914907D01*
X163958517Y-96865867D01*
X164028684Y-96814041D01*
X164039041Y-96803684D01*
X164108853Y-96709167D01*
X164115700Y-96696234D01*
X164155088Y-96584073D01*
X164157656Y-96572371D01*
X164159782Y-96549886D01*
X164160000Y-96545250D01*
X164160000Y-96520680D01*
X164155878Y-96507995D01*
X164151757Y-96505000D01*
X163715680Y-96505000D01*
X163702995Y-96509122D01*
X163700000Y-96513243D01*
X163700000Y-96907047D01*
X163681093Y-96965238D01*
X163641952Y-96993675D01*
X163635000Y-97003243D01*
X163635000Y-97117582D01*
X163618305Y-97172599D01*
X163617305Y-97174095D01*
X163569248Y-97211965D01*
X163508110Y-97214356D01*
X163457242Y-97180354D01*
X163452695Y-97174095D01*
X163451695Y-97172599D01*
X163435000Y-97117582D01*
X163435000Y-97010681D01*
X163427085Y-96986320D01*
X163404846Y-96955712D01*
X163400000Y-96925118D01*
X163400000Y-96520680D01*
X163395878Y-96507995D01*
X163391757Y-96505000D01*
X162955681Y-96505000D01*
X162942996Y-96509122D01*
X162940001Y-96513243D01*
X162940001Y-96545247D01*
X162940220Y-96549890D01*
X162942345Y-96572374D01*
X162944910Y-96584070D01*
X162984300Y-96696234D01*
X162991147Y-96709167D01*
X163060959Y-96803684D01*
X163071313Y-96814038D01*
X163141484Y-96865868D01*
X163177057Y-96915649D01*
X163176576Y-96976833D01*
X163140224Y-97026049D01*
X163082666Y-97044501D01*
X163015738Y-97044501D01*
X163010972Y-97045449D01*
X163010971Y-97045449D01*
X162995536Y-97048519D01*
X162954313Y-97056718D01*
X162915688Y-97056718D01*
X162854263Y-97044500D01*
X162735025Y-97044500D01*
X162615738Y-97044501D01*
X162610972Y-97045449D01*
X162610971Y-97045449D01*
X162595536Y-97048519D01*
X162554313Y-97056718D01*
X162515688Y-97056718D01*
X162454263Y-97044500D01*
X162335025Y-97044500D01*
X162215738Y-97044501D01*
X162210972Y-97045449D01*
X162210971Y-97045449D01*
X162195536Y-97048519D01*
X162154313Y-97056718D01*
X162115688Y-97056718D01*
X162054263Y-97044500D01*
X161935025Y-97044500D01*
X161815738Y-97044501D01*
X161810972Y-97045449D01*
X161810971Y-97045449D01*
X161795536Y-97048519D01*
X161754313Y-97056718D01*
X161715688Y-97056718D01*
X161654263Y-97044500D01*
X161614105Y-97044500D01*
X161555914Y-97025593D01*
X161519950Y-96976093D01*
X161519950Y-96914907D01*
X161555287Y-96865867D01*
X161618684Y-96819041D01*
X161629041Y-96808684D01*
X161698853Y-96714167D01*
X161705700Y-96701234D01*
X161745088Y-96589073D01*
X161747656Y-96577371D01*
X161749782Y-96554886D01*
X161750000Y-96550250D01*
X161750000Y-96525680D01*
X161745878Y-96512995D01*
X161741757Y-96510000D01*
X159205680Y-96510000D01*
X159192995Y-96514122D01*
X159190000Y-96518243D01*
X159190000Y-96924319D01*
X159194122Y-96937004D01*
X159198243Y-96939999D01*
X159260247Y-96939999D01*
X159264890Y-96939780D01*
X159287374Y-96937655D01*
X159299070Y-96935090D01*
X159411234Y-96895700D01*
X159424167Y-96888853D01*
X159506182Y-96828275D01*
X159564222Y-96808911D01*
X159623819Y-96828275D01*
X159685106Y-96873543D01*
X159720679Y-96923324D01*
X159720198Y-96984508D01*
X159683846Y-97033724D01*
X159680247Y-97035781D01*
X159658219Y-97050920D01*
X159590600Y-97118657D01*
X159580446Y-97133486D01*
X159541059Y-97222577D01*
X159537187Y-97236780D01*
X159535332Y-97252691D01*
X159535000Y-97258406D01*
X159535000Y-97599320D01*
X159539122Y-97612005D01*
X159543243Y-97615000D01*
X159885500Y-97615000D01*
X159943691Y-97633907D01*
X159979655Y-97683407D01*
X159984500Y-97714000D01*
X159984500Y-97735309D01*
X159965593Y-97793500D01*
X159916093Y-97829464D01*
X159854907Y-97829464D01*
X159827307Y-97815400D01*
X159826756Y-97815000D01*
X159550681Y-97815000D01*
X159537996Y-97819122D01*
X159535001Y-97823243D01*
X159535001Y-98051000D01*
X159516094Y-98109191D01*
X159466594Y-98145155D01*
X159436001Y-98150000D01*
X159215680Y-98150000D01*
X159202995Y-98154122D01*
X159200000Y-98158243D01*
X159200000Y-98434320D01*
X159204122Y-98447005D01*
X159208243Y-98450000D01*
X159804320Y-98450000D01*
X159822375Y-98444134D01*
X159835000Y-98426757D01*
X159835000Y-98309425D01*
X159853907Y-98251234D01*
X159903407Y-98215270D01*
X159964593Y-98215270D01*
X160016314Y-98254421D01*
X160018314Y-98257414D01*
X160035000Y-98312418D01*
X160035000Y-98419319D01*
X160039122Y-98432006D01*
X160039932Y-98432594D01*
X160075895Y-98482095D01*
X160075894Y-98543280D01*
X160039929Y-98592780D01*
X160031249Y-98598417D01*
X160019560Y-98605166D01*
X159958940Y-98653819D01*
X159958538Y-98653319D01*
X159911897Y-98681069D01*
X159850968Y-98675471D01*
X159831854Y-98664602D01*
X159811757Y-98650000D01*
X159215680Y-98650000D01*
X159202995Y-98654122D01*
X159200000Y-98658243D01*
X159200000Y-98900500D01*
X159181093Y-98958691D01*
X159131593Y-98994655D01*
X159101000Y-98999500D01*
X159099000Y-98999500D01*
X159040809Y-98980593D01*
X159004845Y-98931093D01*
X159000000Y-98900500D01*
X159000000Y-98165680D01*
X158995878Y-98152995D01*
X158991757Y-98150000D01*
X158665741Y-98150000D01*
X158659287Y-98150423D01*
X158623413Y-98155146D01*
X158609031Y-98159338D01*
X158521474Y-98200166D01*
X158507501Y-98209950D01*
X158506073Y-98211378D01*
X158503826Y-98212523D01*
X158500401Y-98214921D01*
X158500064Y-98214440D01*
X158451556Y-98239155D01*
X158391124Y-98229584D01*
X158347859Y-98186319D01*
X158337069Y-98141374D01*
X158337069Y-96908715D01*
X158355976Y-96850524D01*
X158380381Y-96829675D01*
X158379146Y-96827976D01*
X158385451Y-96823395D01*
X158392391Y-96819859D01*
X158397898Y-96814352D01*
X158397902Y-96814349D01*
X158407262Y-96804990D01*
X158461779Y-96777214D01*
X158522211Y-96786788D01*
X158547267Y-96804992D01*
X158561316Y-96819041D01*
X158655833Y-96888853D01*
X158668766Y-96895700D01*
X158780927Y-96935088D01*
X158792629Y-96937656D01*
X158815114Y-96939782D01*
X158819750Y-96940000D01*
X158874320Y-96940000D01*
X158887005Y-96935878D01*
X158890000Y-96931757D01*
X158890000Y-96309000D01*
X158908907Y-96250809D01*
X158958407Y-96214845D01*
X158989000Y-96210000D01*
X161734319Y-96210000D01*
X161747004Y-96205878D01*
X161749999Y-96201757D01*
X161749999Y-96169753D01*
X161749780Y-96165110D01*
X161747655Y-96142626D01*
X161745090Y-96130930D01*
X161705700Y-96018766D01*
X161698853Y-96005833D01*
X161626827Y-95908318D01*
X161607463Y-95850278D01*
X161625913Y-95791940D01*
X161675129Y-95755589D01*
X161706460Y-95750500D01*
X161729014Y-95750500D01*
X161787205Y-95769407D01*
X161811184Y-95794281D01*
X161833958Y-95828172D01*
X161838369Y-95832186D01*
X161838371Y-95832188D01*
X161945995Y-95930118D01*
X161950410Y-95934135D01*
X162011098Y-95967086D01*
X162083530Y-96006414D01*
X162083532Y-96006415D01*
X162088776Y-96009262D01*
X162148976Y-96025055D01*
X162235300Y-96047702D01*
X162235304Y-96047702D01*
X162241069Y-96049215D01*
X162247030Y-96049309D01*
X162247033Y-96049309D01*
X162319782Y-96050451D01*
X162398495Y-96051688D01*
X162425426Y-96045520D01*
X162546149Y-96017871D01*
X162546151Y-96017870D01*
X162551968Y-96016538D01*
X162560150Y-96012423D01*
X162687299Y-95948474D01*
X162687301Y-95948473D01*
X162692625Y-95945795D01*
X162710534Y-95930499D01*
X162807810Y-95847418D01*
X162807811Y-95847417D01*
X162812348Y-95843542D01*
X162872805Y-95759407D01*
X162885208Y-95742147D01*
X162934519Y-95705925D01*
X162995703Y-95705605D01*
X163045391Y-95741309D01*
X163053814Y-95754975D01*
X163054860Y-95757027D01*
X163060141Y-95767391D01*
X163065648Y-95772898D01*
X163070120Y-95779054D01*
X163089025Y-95837245D01*
X163070116Y-95895435D01*
X163061828Y-95905139D01*
X162991147Y-96000833D01*
X162984300Y-96013766D01*
X162944912Y-96125927D01*
X162942344Y-96137629D01*
X162940218Y-96160114D01*
X162940000Y-96164750D01*
X162940000Y-96189320D01*
X162944122Y-96202005D01*
X162948243Y-96205000D01*
X164144319Y-96205000D01*
X164157004Y-96200878D01*
X164159999Y-96196757D01*
X164159999Y-96164753D01*
X164159780Y-96160110D01*
X164157655Y-96137626D01*
X164155089Y-96125928D01*
X164153378Y-96121055D01*
X164151939Y-96059886D01*
X164186729Y-96009554D01*
X164244458Y-95989283D01*
X164294027Y-96001254D01*
X164308776Y-96009262D01*
X164368976Y-96025055D01*
X164455300Y-96047702D01*
X164455304Y-96047702D01*
X164461069Y-96049215D01*
X164467030Y-96049309D01*
X164467033Y-96049309D01*
X164539782Y-96050451D01*
X164618495Y-96051688D01*
X164645426Y-96045520D01*
X164766149Y-96017871D01*
X164766151Y-96017870D01*
X164771968Y-96016538D01*
X164780150Y-96012423D01*
X164907299Y-95948474D01*
X164907301Y-95948473D01*
X164912625Y-95945795D01*
X164930534Y-95930499D01*
X165027810Y-95847418D01*
X165027811Y-95847417D01*
X165032348Y-95843542D01*
X165095990Y-95754975D01*
X165120740Y-95720532D01*
X165120741Y-95720530D01*
X165124224Y-95715683D01*
X165128276Y-95705605D01*
X165180726Y-95575131D01*
X165180727Y-95575129D01*
X165182950Y-95569598D01*
X165186186Y-95546865D01*
X165204678Y-95416929D01*
X165204678Y-95416925D01*
X165205134Y-95413723D01*
X165205278Y-95400000D01*
X165186363Y-95243694D01*
X165179458Y-95225419D01*
X165132820Y-95101996D01*
X165130710Y-95096412D01*
X165058646Y-94991559D01*
X165044912Y-94971576D01*
X165044911Y-94971575D01*
X165041531Y-94966657D01*
X165037078Y-94962690D01*
X165037075Y-94962686D01*
X164957681Y-94891949D01*
X164923976Y-94861919D01*
X164916635Y-94858032D01*
X164790105Y-94791037D01*
X164790102Y-94791036D01*
X164784831Y-94788245D01*
X164708479Y-94769067D01*
X164637918Y-94751343D01*
X164637915Y-94751343D01*
X164632128Y-94749889D01*
X164552564Y-94749473D01*
X164480650Y-94749096D01*
X164480648Y-94749096D01*
X164474684Y-94749065D01*
X164321588Y-94785820D01*
X164293247Y-94800448D01*
X164186985Y-94855293D01*
X164186983Y-94855295D01*
X164181679Y-94858032D01*
X164091610Y-94936605D01*
X164087727Y-94939992D01*
X164031448Y-94963997D01*
X163971807Y-94950338D01*
X163964585Y-94944706D01*
X163964205Y-94945230D01*
X163957897Y-94940647D01*
X163952391Y-94935141D01*
X163945454Y-94931606D01*
X163945452Y-94931605D01*
X163849115Y-94882519D01*
X163849114Y-94882519D01*
X163842175Y-94878983D01*
X163834481Y-94877764D01*
X163834480Y-94877764D01*
X163754581Y-94865109D01*
X163754579Y-94865109D01*
X163750735Y-94864500D01*
X163550026Y-94864500D01*
X163349266Y-94864501D01*
X163345423Y-94865110D01*
X163345418Y-94865110D01*
X163265519Y-94877764D01*
X163265516Y-94877765D01*
X163257825Y-94878983D01*
X163213568Y-94901533D01*
X163154548Y-94931605D01*
X163154546Y-94931606D01*
X163147609Y-94935141D01*
X163060141Y-95022609D01*
X163056605Y-95029548D01*
X163056604Y-95029550D01*
X163050474Y-95041581D01*
X163007210Y-95084846D01*
X162946778Y-95094418D01*
X162892261Y-95066641D01*
X162880676Y-95052712D01*
X162824912Y-94971576D01*
X162824911Y-94971575D01*
X162821531Y-94966657D01*
X162817078Y-94962690D01*
X162817075Y-94962686D01*
X162737681Y-94891949D01*
X162703976Y-94861919D01*
X162696635Y-94858032D01*
X162570105Y-94791037D01*
X162570102Y-94791036D01*
X162564831Y-94788245D01*
X162488479Y-94769067D01*
X162417918Y-94751343D01*
X162417915Y-94751343D01*
X162412128Y-94749889D01*
X162332564Y-94749473D01*
X162260650Y-94749096D01*
X162260648Y-94749096D01*
X162254684Y-94749065D01*
X162101588Y-94785820D01*
X162073247Y-94800448D01*
X161966985Y-94855293D01*
X161966983Y-94855295D01*
X161961679Y-94858032D01*
X161843034Y-94961533D01*
X161819865Y-94994500D01*
X161810781Y-95007425D01*
X161761852Y-95044162D01*
X161729784Y-95049500D01*
X161692758Y-95049500D01*
X161634567Y-95030593D01*
X161622754Y-95020504D01*
X161542391Y-94940141D01*
X161535454Y-94936606D01*
X161535452Y-94936605D01*
X161439115Y-94887519D01*
X161439114Y-94887519D01*
X161432175Y-94883983D01*
X161424481Y-94882764D01*
X161424480Y-94882764D01*
X161344581Y-94870109D01*
X161344579Y-94870109D01*
X161340735Y-94869500D01*
X161140026Y-94869500D01*
X160939266Y-94869501D01*
X160935423Y-94870110D01*
X160935418Y-94870110D01*
X160855519Y-94882764D01*
X160855516Y-94882765D01*
X160847825Y-94883983D01*
X160809146Y-94903691D01*
X160744548Y-94936605D01*
X160744546Y-94936606D01*
X160737609Y-94940141D01*
X160685004Y-94992746D01*
X160630487Y-95020523D01*
X160570055Y-95010952D01*
X160544996Y-94992746D01*
X160492391Y-94940141D01*
X160485454Y-94936606D01*
X160485452Y-94936605D01*
X160389115Y-94887519D01*
X160389114Y-94887519D01*
X160382175Y-94883983D01*
X160374481Y-94882764D01*
X160374480Y-94882764D01*
X160294581Y-94870109D01*
X160294579Y-94870109D01*
X160290735Y-94869500D01*
X160090026Y-94869500D01*
X159889266Y-94869501D01*
X159885423Y-94870110D01*
X159885418Y-94870110D01*
X159805519Y-94882764D01*
X159805516Y-94882765D01*
X159797825Y-94883983D01*
X159759146Y-94903691D01*
X159694548Y-94936605D01*
X159694546Y-94936606D01*
X159687609Y-94940141D01*
X159635004Y-94992746D01*
X159580487Y-95020523D01*
X159520055Y-95010952D01*
X159494996Y-94992746D01*
X159442391Y-94940141D01*
X159435454Y-94936606D01*
X159435452Y-94936605D01*
X159339115Y-94887519D01*
X159339114Y-94887519D01*
X159332175Y-94883983D01*
X159324481Y-94882764D01*
X159324480Y-94882764D01*
X159244581Y-94870109D01*
X159244579Y-94870109D01*
X159240735Y-94869500D01*
X159040026Y-94869500D01*
X158839266Y-94869501D01*
X158835423Y-94870110D01*
X158835418Y-94870110D01*
X158755519Y-94882764D01*
X158755516Y-94882765D01*
X158747825Y-94883983D01*
X158709146Y-94903691D01*
X158644548Y-94936605D01*
X158644546Y-94936606D01*
X158637609Y-94940141D01*
X158585004Y-94992746D01*
X158530487Y-95020523D01*
X158470055Y-95010952D01*
X158444996Y-94992746D01*
X158392391Y-94940141D01*
X158385454Y-94936606D01*
X158385452Y-94936605D01*
X158289115Y-94887519D01*
X158289114Y-94887519D01*
X158282175Y-94883983D01*
X158274481Y-94882764D01*
X158274480Y-94882764D01*
X158194581Y-94870109D01*
X158194579Y-94870109D01*
X158190735Y-94869500D01*
X157990026Y-94869500D01*
X157789266Y-94869501D01*
X157785423Y-94870110D01*
X157785418Y-94870110D01*
X157705519Y-94882764D01*
X157705516Y-94882765D01*
X157697825Y-94883983D01*
X157659146Y-94903691D01*
X157594548Y-94936605D01*
X157594546Y-94936606D01*
X157587609Y-94940141D01*
X157500141Y-95027609D01*
X157496606Y-95034546D01*
X157496605Y-95034548D01*
X157470977Y-95084846D01*
X157443983Y-95137825D01*
X157442764Y-95145519D01*
X157442764Y-95145520D01*
X157433413Y-95204557D01*
X157429500Y-95229265D01*
X157429501Y-95570734D01*
X157430110Y-95574577D01*
X157430110Y-95574582D01*
X157440394Y-95639511D01*
X157443983Y-95662175D01*
X157468504Y-95710300D01*
X157495468Y-95763219D01*
X157500141Y-95772391D01*
X157537746Y-95809996D01*
X157565523Y-95864513D01*
X157555952Y-95924945D01*
X157537746Y-95950004D01*
X157500141Y-95987609D01*
X157496606Y-95994546D01*
X157496605Y-95994548D01*
X157447519Y-96090885D01*
X157443983Y-96097825D01*
X157442764Y-96105519D01*
X157442764Y-96105520D01*
X157435332Y-96152444D01*
X157429500Y-96189265D01*
X157429500Y-96294810D01*
X157410593Y-96353001D01*
X157361093Y-96388965D01*
X157299907Y-96388965D01*
X157260496Y-96364814D01*
X157059496Y-96163814D01*
X157031719Y-96109297D01*
X157030500Y-96093810D01*
X157030499Y-95782085D01*
X157030499Y-95778466D01*
X157019346Y-95702691D01*
X156962784Y-95587489D01*
X156950405Y-95575131D01*
X156877747Y-95502600D01*
X156871956Y-95496819D01*
X156756656Y-95440459D01*
X156701866Y-95432466D01*
X156685080Y-95430017D01*
X156685078Y-95430017D01*
X156681535Y-95429500D01*
X156510882Y-95429500D01*
X156338466Y-95429501D01*
X156279793Y-95438137D01*
X156271551Y-95439350D01*
X156262691Y-95440654D01*
X156147489Y-95497216D01*
X156141710Y-95503005D01*
X156097926Y-95546865D01*
X156043434Y-95574690D01*
X155982993Y-95565171D01*
X155960092Y-95549090D01*
X155957241Y-95546412D01*
X155875393Y-95469552D01*
X155731368Y-95390373D01*
X155572177Y-95349500D01*
X135581987Y-95349500D01*
X135572671Y-95349061D01*
X135567785Y-95348599D01*
X135561704Y-95347240D01*
X135493639Y-95349379D01*
X135491342Y-95349451D01*
X135488233Y-95349500D01*
X135459075Y-95349500D01*
X135453539Y-95350199D01*
X135444248Y-95350930D01*
X135422799Y-95351605D01*
X135403658Y-95352206D01*
X135403656Y-95352206D01*
X135397431Y-95352402D01*
X135375154Y-95358874D01*
X135359950Y-95362022D01*
X135343121Y-95364148D01*
X135343118Y-95364149D01*
X135336942Y-95364929D01*
X135331153Y-95367221D01*
X135293402Y-95382168D01*
X135284576Y-95385189D01*
X135245586Y-95396516D01*
X135245582Y-95396518D01*
X135239602Y-95398255D01*
X135219638Y-95410062D01*
X135205691Y-95416895D01*
X135184129Y-95425432D01*
X135179090Y-95429093D01*
X135146246Y-95452955D01*
X135138452Y-95458075D01*
X135098135Y-95481919D01*
X135081736Y-95498318D01*
X135069923Y-95508407D01*
X135051163Y-95522037D01*
X135047197Y-95526831D01*
X135047194Y-95526834D01*
X135021316Y-95558116D01*
X135015039Y-95565015D01*
X130563767Y-100016287D01*
X130509250Y-100044064D01*
X130448818Y-100034493D01*
X130405553Y-99991228D01*
X130395235Y-99955943D01*
X130390609Y-99908759D01*
X130390608Y-99908756D01*
X130390137Y-99903948D01*
X130383340Y-99881433D01*
X130364411Y-99818740D01*
X130333200Y-99715363D01*
X130330720Y-99710697D01*
X130242990Y-99545703D01*
X130242988Y-99545700D01*
X130240717Y-99541429D01*
X130235918Y-99535544D01*
X130119273Y-99392523D01*
X130119272Y-99392522D01*
X130116212Y-99388770D01*
X130008541Y-99299697D01*
X129968154Y-99266286D01*
X129968152Y-99266285D01*
X129964427Y-99263203D01*
X129839552Y-99195683D01*
X129795397Y-99171808D01*
X129795396Y-99171807D01*
X129791143Y-99169508D01*
X129691605Y-99138696D01*
X129607581Y-99112686D01*
X129607577Y-99112685D01*
X129602960Y-99111256D01*
X129598153Y-99110751D01*
X129598149Y-99110750D01*
X129411863Y-99091171D01*
X129411861Y-99091171D01*
X129407047Y-99090665D01*
X129352590Y-99095621D01*
X129215685Y-99108080D01*
X129215682Y-99108081D01*
X129210865Y-99108519D01*
X129206223Y-99109885D01*
X129206219Y-99109886D01*
X129026534Y-99162770D01*
X129026531Y-99162771D01*
X129021887Y-99164138D01*
X128847312Y-99255404D01*
X128843543Y-99258434D01*
X128843542Y-99258435D01*
X128697561Y-99375806D01*
X128697558Y-99375808D01*
X128693788Y-99378840D01*
X128690674Y-99382551D01*
X128690673Y-99382552D01*
X128570278Y-99526032D01*
X128570275Y-99526036D01*
X128567163Y-99529745D01*
X128472262Y-99702371D01*
X128470798Y-99706985D01*
X128470797Y-99706988D01*
X128414161Y-99885525D01*
X128414160Y-99885531D01*
X128412697Y-99890142D01*
X128412157Y-99894956D01*
X128394966Y-100048218D01*
X128390738Y-100085907D01*
X128396162Y-100150500D01*
X128406808Y-100277276D01*
X128407222Y-100282209D01*
X128408555Y-100286857D01*
X128408555Y-100286858D01*
X128459406Y-100464193D01*
X128461521Y-100471570D01*
X128463736Y-100475880D01*
X128500501Y-100547418D01*
X128551566Y-100646779D01*
X128673927Y-100801160D01*
X128677607Y-100804292D01*
X128677609Y-100804294D01*
X128772210Y-100884805D01*
X128823945Y-100928835D01*
X128828168Y-100931195D01*
X128828172Y-100931198D01*
X128977322Y-101014555D01*
X129018894Y-101059448D01*
X129026139Y-101120203D01*
X128996289Y-101173613D01*
X128974892Y-101188706D01*
X128847312Y-101255404D01*
X128843543Y-101258434D01*
X128843542Y-101258435D01*
X128697561Y-101375806D01*
X128697558Y-101375808D01*
X128693788Y-101378840D01*
X128690674Y-101382551D01*
X128690673Y-101382552D01*
X128570278Y-101526032D01*
X128570275Y-101526036D01*
X128567163Y-101529745D01*
X128472262Y-101702371D01*
X128470798Y-101706985D01*
X128470797Y-101706988D01*
X128414161Y-101885525D01*
X128414160Y-101885531D01*
X128412697Y-101890142D01*
X128412157Y-101894956D01*
X128393067Y-102065146D01*
X128390738Y-102085907D01*
X124800500Y-102085907D01*
X124800500Y-98800840D01*
X126420711Y-98800840D01*
X126423562Y-98855240D01*
X126429977Y-98977633D01*
X126430667Y-98990801D01*
X126432090Y-98995967D01*
X126479757Y-99169025D01*
X126479759Y-99169029D01*
X126481181Y-99174193D01*
X126569898Y-99342460D01*
X126625865Y-99408688D01*
X126667389Y-99457825D01*
X126692678Y-99487751D01*
X126734347Y-99519609D01*
X126839531Y-99600029D01*
X126839534Y-99600031D01*
X126843793Y-99603287D01*
X127016193Y-99683678D01*
X127021424Y-99684847D01*
X127021426Y-99684848D01*
X127099820Y-99702371D01*
X127201834Y-99725174D01*
X127206054Y-99725410D01*
X127206279Y-99725423D01*
X127206296Y-99725423D01*
X127207665Y-99725500D01*
X127347517Y-99725500D01*
X127378287Y-99722157D01*
X127483784Y-99710697D01*
X127483789Y-99710696D01*
X127489109Y-99710118D01*
X127669396Y-99649445D01*
X127832447Y-99551474D01*
X127910604Y-99477565D01*
X127966762Y-99424460D01*
X127966765Y-99424456D01*
X127970658Y-99420775D01*
X128036737Y-99323542D01*
X128074565Y-99267880D01*
X128074566Y-99267878D01*
X128077578Y-99263446D01*
X128106799Y-99190388D01*
X128146230Y-99091806D01*
X128146231Y-99091802D01*
X128148221Y-99086827D01*
X128150374Y-99073825D01*
X128171308Y-98947371D01*
X128179289Y-98899160D01*
X128171524Y-98751000D01*
X128169614Y-98714553D01*
X128169613Y-98714549D01*
X128169333Y-98709199D01*
X128154219Y-98654326D01*
X128120243Y-98530975D01*
X128120241Y-98530971D01*
X128118819Y-98525807D01*
X128030102Y-98357540D01*
X127960807Y-98275540D01*
X127910782Y-98216343D01*
X127910780Y-98216341D01*
X127907322Y-98212249D01*
X127846412Y-98165680D01*
X127760469Y-98099971D01*
X127760466Y-98099969D01*
X127756207Y-98096713D01*
X127583807Y-98016322D01*
X127578576Y-98015153D01*
X127578574Y-98015152D01*
X127490104Y-97995377D01*
X127398166Y-97974826D01*
X127393946Y-97974590D01*
X127393721Y-97974577D01*
X127393704Y-97974577D01*
X127392335Y-97974500D01*
X127252483Y-97974500D01*
X127221713Y-97977843D01*
X127116216Y-97989303D01*
X127116211Y-97989304D01*
X127110891Y-97989882D01*
X126930604Y-98050555D01*
X126767553Y-98148526D01*
X126727588Y-98186319D01*
X126633238Y-98275540D01*
X126633235Y-98275544D01*
X126629342Y-98279225D01*
X126586710Y-98341956D01*
X126525513Y-98432006D01*
X126522422Y-98436554D01*
X126508698Y-98470867D01*
X126454033Y-98607538D01*
X126451779Y-98613173D01*
X126450904Y-98618458D01*
X126450903Y-98618462D01*
X126440539Y-98681069D01*
X126420711Y-98800840D01*
X124800500Y-98800840D01*
X124800500Y-97585907D01*
X128390738Y-97585907D01*
X128392155Y-97602776D01*
X128405670Y-97763723D01*
X128407222Y-97782209D01*
X128408555Y-97786857D01*
X128408555Y-97786858D01*
X128457111Y-97956190D01*
X128461521Y-97971570D01*
X128463736Y-97975880D01*
X128470932Y-97989882D01*
X128551566Y-98146779D01*
X128673927Y-98301160D01*
X128677607Y-98304292D01*
X128677609Y-98304294D01*
X128772988Y-98385467D01*
X128823945Y-98428835D01*
X128828168Y-98431195D01*
X128828172Y-98431198D01*
X128919242Y-98482095D01*
X128995904Y-98524940D01*
X129000502Y-98526434D01*
X129178650Y-98584318D01*
X129178652Y-98584319D01*
X129183255Y-98585814D01*
X129378862Y-98609139D01*
X129383684Y-98608768D01*
X129383687Y-98608768D01*
X129455072Y-98603275D01*
X129575274Y-98594026D01*
X129651920Y-98572626D01*
X129760344Y-98542353D01*
X129760348Y-98542351D01*
X129765009Y-98541050D01*
X129769333Y-98538866D01*
X129936521Y-98454414D01*
X129936523Y-98454412D01*
X129940842Y-98452231D01*
X130096074Y-98330950D01*
X130099236Y-98327287D01*
X130099241Y-98327282D01*
X130183308Y-98229889D01*
X130224793Y-98181828D01*
X130233967Y-98165680D01*
X130319707Y-98014750D01*
X130319708Y-98014747D01*
X130322096Y-98010544D01*
X130328970Y-97989882D01*
X130382750Y-97828213D01*
X130382750Y-97828211D01*
X130384277Y-97823622D01*
X130393564Y-97750110D01*
X130408618Y-97630937D01*
X130408966Y-97628183D01*
X130409360Y-97600000D01*
X130407507Y-97581099D01*
X130390609Y-97408758D01*
X130390608Y-97408754D01*
X130390137Y-97403948D01*
X130333200Y-97215363D01*
X130326925Y-97203560D01*
X130242990Y-97045703D01*
X130242988Y-97045700D01*
X130240717Y-97041429D01*
X130228174Y-97026049D01*
X130119273Y-96892523D01*
X130119272Y-96892522D01*
X130116212Y-96888770D01*
X130019404Y-96808684D01*
X129968154Y-96766286D01*
X129968152Y-96766285D01*
X129964427Y-96763203D01*
X129840571Y-96696234D01*
X129795397Y-96671808D01*
X129795396Y-96671807D01*
X129791143Y-96669508D01*
X129688649Y-96637781D01*
X129607581Y-96612686D01*
X129607577Y-96612685D01*
X129602960Y-96611256D01*
X129598153Y-96610751D01*
X129598149Y-96610750D01*
X129411863Y-96591171D01*
X129411861Y-96591171D01*
X129407047Y-96590665D01*
X129350755Y-96595788D01*
X129215685Y-96608080D01*
X129215682Y-96608081D01*
X129210865Y-96608519D01*
X129206223Y-96609885D01*
X129206219Y-96609886D01*
X129026534Y-96662770D01*
X129026531Y-96662771D01*
X129021887Y-96664138D01*
X128847312Y-96755404D01*
X128843543Y-96758434D01*
X128843542Y-96758435D01*
X128697561Y-96875806D01*
X128697558Y-96875808D01*
X128693788Y-96878840D01*
X128690674Y-96882551D01*
X128690673Y-96882552D01*
X128570278Y-97026032D01*
X128570275Y-97026036D01*
X128567163Y-97029745D01*
X128499742Y-97152384D01*
X128478424Y-97191163D01*
X128472262Y-97202371D01*
X128470798Y-97206985D01*
X128470797Y-97206988D01*
X128414161Y-97385525D01*
X128414160Y-97385531D01*
X128412697Y-97390142D01*
X128412157Y-97394956D01*
X128394296Y-97554191D01*
X128390738Y-97585907D01*
X124800500Y-97585907D01*
X124800500Y-94449500D01*
X124819407Y-94391309D01*
X124868907Y-94355345D01*
X124899500Y-94350500D01*
X125880293Y-94350500D01*
X125938484Y-94369407D01*
G37*
%TD.AperFunction*%
%TA.AperFunction,Conductor*%
G36*
X165266743Y-99772449D02*
G01*
X165297336Y-99825437D01*
X165299500Y-99846021D01*
X165299500Y-99856640D01*
X165314229Y-99930686D01*
X165314229Y-99969312D01*
X165299500Y-100043360D01*
X165299500Y-100256640D01*
X165314177Y-100330424D01*
X165314229Y-100330686D01*
X165314229Y-100369312D01*
X165299500Y-100443360D01*
X165299500Y-100656640D01*
X165300065Y-100659480D01*
X165291388Y-100710300D01*
X165259338Y-100779031D01*
X165255146Y-100793413D01*
X165250423Y-100829287D01*
X165250078Y-100834558D01*
X165254122Y-100847005D01*
X165258243Y-100850000D01*
X165382336Y-100850000D01*
X165437353Y-100866695D01*
X165438849Y-100867695D01*
X165476719Y-100915752D01*
X165479110Y-100976890D01*
X165445108Y-101027758D01*
X165438849Y-101032305D01*
X165437353Y-101033305D01*
X165382336Y-101050000D01*
X165265680Y-101050000D01*
X165252995Y-101054122D01*
X165250000Y-101058243D01*
X165250000Y-101064259D01*
X165250423Y-101070713D01*
X165255146Y-101106587D01*
X165259338Y-101120969D01*
X165291388Y-101189700D01*
X165300065Y-101240520D01*
X165299500Y-101243360D01*
X165299500Y-101456640D01*
X165312597Y-101522481D01*
X165314229Y-101530686D01*
X165314229Y-101569312D01*
X165299500Y-101643360D01*
X165299500Y-101856640D01*
X165314229Y-101930686D01*
X165314229Y-101969312D01*
X165299500Y-102043360D01*
X165299500Y-102256640D01*
X165313737Y-102328213D01*
X165314229Y-102330686D01*
X165314229Y-102369312D01*
X165299500Y-102443360D01*
X165299500Y-102656640D01*
X165314229Y-102730686D01*
X165314229Y-102769312D01*
X165299500Y-102843360D01*
X165299500Y-103056640D01*
X165314116Y-103130118D01*
X165314229Y-103130686D01*
X165314229Y-103169312D01*
X165299500Y-103243360D01*
X165299500Y-103456640D01*
X165310767Y-103513281D01*
X165314229Y-103530686D01*
X165314229Y-103569312D01*
X165299500Y-103643360D01*
X165299500Y-103815500D01*
X165280593Y-103873691D01*
X165231093Y-103909655D01*
X165200501Y-103914500D01*
X165035513Y-103914501D01*
X165015738Y-103914501D01*
X165010972Y-103915449D01*
X165010971Y-103915449D01*
X164987509Y-103920116D01*
X164954313Y-103926718D01*
X164915688Y-103926718D01*
X164854263Y-103914500D01*
X164735025Y-103914500D01*
X164615738Y-103914501D01*
X164610972Y-103915449D01*
X164610971Y-103915449D01*
X164587509Y-103920116D01*
X164554313Y-103926718D01*
X164515688Y-103926718D01*
X164454263Y-103914500D01*
X164335025Y-103914500D01*
X164215738Y-103914501D01*
X164210972Y-103915449D01*
X164210971Y-103915449D01*
X164187509Y-103920116D01*
X164154313Y-103926718D01*
X164115688Y-103926718D01*
X164054263Y-103914500D01*
X163980518Y-103914500D01*
X163826593Y-103914501D01*
X163786563Y-103906047D01*
X163707423Y-103871059D01*
X163693220Y-103867187D01*
X163677309Y-103865332D01*
X163671594Y-103865000D01*
X163650680Y-103865000D01*
X163637995Y-103869122D01*
X163635000Y-103873243D01*
X163635000Y-103987582D01*
X163618305Y-104042599D01*
X163617305Y-104044095D01*
X163569248Y-104081965D01*
X163508110Y-104084356D01*
X163457242Y-104050354D01*
X163452695Y-104044095D01*
X163451695Y-104042599D01*
X163435000Y-103987582D01*
X163435000Y-103880681D01*
X163430878Y-103867996D01*
X163426757Y-103865001D01*
X163398478Y-103865001D01*
X163392623Y-103865348D01*
X163376230Y-103867298D01*
X163362071Y-103871189D01*
X163283755Y-103905976D01*
X163243567Y-103914500D01*
X163090258Y-103914501D01*
X163015738Y-103914501D01*
X163010972Y-103915449D01*
X163010971Y-103915449D01*
X162987509Y-103920116D01*
X162954313Y-103926718D01*
X162915688Y-103926718D01*
X162854263Y-103914500D01*
X162735025Y-103914500D01*
X162615738Y-103914501D01*
X162610972Y-103915449D01*
X162610971Y-103915449D01*
X162587509Y-103920116D01*
X162554313Y-103926718D01*
X162515688Y-103926718D01*
X162454263Y-103914500D01*
X162335025Y-103914500D01*
X162215738Y-103914501D01*
X162210972Y-103915449D01*
X162210971Y-103915449D01*
X162187509Y-103920116D01*
X162154313Y-103926718D01*
X162115688Y-103926718D01*
X162054263Y-103914500D01*
X161935025Y-103914500D01*
X161815738Y-103914501D01*
X161810972Y-103915449D01*
X161810971Y-103915449D01*
X161787509Y-103920116D01*
X161754313Y-103926718D01*
X161715688Y-103926718D01*
X161654263Y-103914500D01*
X161535025Y-103914500D01*
X161415738Y-103914501D01*
X161410972Y-103915449D01*
X161410971Y-103915449D01*
X161387509Y-103920116D01*
X161354313Y-103926718D01*
X161315688Y-103926718D01*
X161254263Y-103914500D01*
X161135025Y-103914500D01*
X161015738Y-103914501D01*
X161010972Y-103915449D01*
X161010971Y-103915449D01*
X160987509Y-103920116D01*
X160954313Y-103926718D01*
X160915688Y-103926718D01*
X160854263Y-103914500D01*
X160735025Y-103914500D01*
X160615738Y-103914501D01*
X160610972Y-103915449D01*
X160610971Y-103915449D01*
X160587509Y-103920116D01*
X160554313Y-103926718D01*
X160515688Y-103926718D01*
X160454263Y-103914500D01*
X160380518Y-103914500D01*
X160226593Y-103914501D01*
X160186563Y-103906047D01*
X160107423Y-103871059D01*
X160093220Y-103867187D01*
X160077309Y-103865332D01*
X160071594Y-103865000D01*
X160050680Y-103865000D01*
X160037995Y-103869122D01*
X160035000Y-103873243D01*
X160035000Y-103987582D01*
X160018314Y-104042585D01*
X160016314Y-104045579D01*
X159968263Y-104083457D01*
X159907124Y-104085857D01*
X159856252Y-104051863D01*
X159835000Y-103990575D01*
X159835000Y-103880681D01*
X159830878Y-103867995D01*
X159811310Y-103853778D01*
X159775346Y-103804278D01*
X159770500Y-103773685D01*
X159770500Y-103643360D01*
X159755771Y-103569312D01*
X159755771Y-103530686D01*
X159759233Y-103513281D01*
X159770500Y-103456640D01*
X159770500Y-103243360D01*
X159755771Y-103169312D01*
X159755771Y-103130686D01*
X159755884Y-103130118D01*
X159770500Y-103056640D01*
X159770500Y-102843360D01*
X159755771Y-102769312D01*
X159755771Y-102730686D01*
X159770500Y-102656640D01*
X159770500Y-102443360D01*
X159755771Y-102369312D01*
X159755771Y-102330686D01*
X159756263Y-102328213D01*
X159770500Y-102256640D01*
X159770500Y-102043360D01*
X159755771Y-101969312D01*
X159755771Y-101930686D01*
X159770500Y-101856640D01*
X159770500Y-101643360D01*
X159755771Y-101569312D01*
X159755771Y-101530686D01*
X159757403Y-101522481D01*
X159770500Y-101456640D01*
X159770500Y-101243360D01*
X159769935Y-101240520D01*
X159778612Y-101189699D01*
X159809936Y-101122526D01*
X159851665Y-101077778D01*
X159911726Y-101066104D01*
X159967178Y-101091963D01*
X159976869Y-101102401D01*
X159978397Y-101104305D01*
X159978399Y-101104306D01*
X159983819Y-101111060D01*
X159991220Y-101115551D01*
X159991222Y-101115553D01*
X160057026Y-101155484D01*
X160069046Y-101162778D01*
X160116612Y-101180091D01*
X160204000Y-101195500D01*
X160613920Y-101195500D01*
X160672111Y-101214407D01*
X160708075Y-101263907D01*
X160712073Y-101281580D01*
X160713670Y-101293709D01*
X160716153Y-101299703D01*
X160716153Y-101299704D01*
X160726964Y-101325804D01*
X160734500Y-101363689D01*
X160734500Y-102211311D01*
X160726964Y-102249196D01*
X160713670Y-102281291D01*
X160712824Y-102287720D01*
X160712823Y-102287722D01*
X160702782Y-102363989D01*
X160694750Y-102425000D01*
X160695597Y-102431433D01*
X160710118Y-102541726D01*
X160713670Y-102568709D01*
X160726053Y-102598605D01*
X160726964Y-102600804D01*
X160734500Y-102638689D01*
X160734500Y-102724674D01*
X160749034Y-102797740D01*
X160804399Y-102880601D01*
X160812509Y-102886020D01*
X160834983Y-102901036D01*
X160887260Y-102935966D01*
X160960326Y-102950500D01*
X161060453Y-102950500D01*
X161094025Y-102957179D01*
X161094028Y-102957167D01*
X161094205Y-102957214D01*
X161098340Y-102958037D01*
X161100291Y-102958845D01*
X161100293Y-102958846D01*
X161106291Y-102961330D01*
X161250000Y-102980250D01*
X161393709Y-102961330D01*
X161399707Y-102958846D01*
X161399709Y-102958845D01*
X161401660Y-102958037D01*
X161405795Y-102957214D01*
X161405972Y-102957167D01*
X161405975Y-102957179D01*
X161439547Y-102950500D01*
X162335453Y-102950500D01*
X162369025Y-102957179D01*
X162369028Y-102957167D01*
X162369205Y-102957214D01*
X162373340Y-102958037D01*
X162375291Y-102958845D01*
X162375293Y-102958846D01*
X162381291Y-102961330D01*
X162525000Y-102980250D01*
X162668709Y-102961330D01*
X162674707Y-102958846D01*
X162674709Y-102958845D01*
X162676660Y-102958037D01*
X162680795Y-102957214D01*
X162680972Y-102957167D01*
X162680975Y-102957179D01*
X162714547Y-102950500D01*
X163610453Y-102950500D01*
X163644025Y-102957179D01*
X163644028Y-102957167D01*
X163644205Y-102957214D01*
X163648340Y-102958037D01*
X163650291Y-102958845D01*
X163650293Y-102958846D01*
X163656291Y-102961330D01*
X163800000Y-102980250D01*
X163943709Y-102961330D01*
X163949707Y-102958846D01*
X163949709Y-102958845D01*
X163951660Y-102958037D01*
X163955795Y-102957214D01*
X163955972Y-102957167D01*
X163955975Y-102957179D01*
X163989547Y-102950500D01*
X164109674Y-102950500D01*
X164182740Y-102935966D01*
X164235017Y-102901036D01*
X164257491Y-102886020D01*
X164265601Y-102880601D01*
X164320966Y-102797740D01*
X164335500Y-102724674D01*
X164335500Y-102581502D01*
X164336347Y-102568580D01*
X164343706Y-102512686D01*
X164355250Y-102425000D01*
X164336347Y-102281420D01*
X164335500Y-102268498D01*
X164335500Y-101306502D01*
X164336347Y-101293580D01*
X164343238Y-101241240D01*
X164355250Y-101150000D01*
X164336347Y-101006420D01*
X164335500Y-100993498D01*
X164335500Y-100031502D01*
X164336347Y-100018580D01*
X164354403Y-99881433D01*
X164355250Y-99875000D01*
X164355001Y-99873111D01*
X164373310Y-99816761D01*
X164422810Y-99780797D01*
X164483996Y-99780797D01*
X164489033Y-99782813D01*
X164489046Y-99782778D01*
X164536612Y-99800091D01*
X164624000Y-99815500D01*
X164646018Y-99815500D01*
X164671140Y-99818740D01*
X164705300Y-99827702D01*
X164705304Y-99827702D01*
X164711069Y-99829215D01*
X164717030Y-99829309D01*
X164717033Y-99829309D01*
X164789782Y-99830452D01*
X164868495Y-99831688D01*
X164885899Y-99827702D01*
X164928265Y-99817999D01*
X164950367Y-99815500D01*
X164976000Y-99815500D01*
X164986457Y-99815043D01*
X164997196Y-99814575D01*
X164997213Y-99814574D01*
X164998264Y-99814528D01*
X164999326Y-99814435D01*
X164999343Y-99814434D01*
X165010534Y-99813455D01*
X165010558Y-99813453D01*
X165011114Y-99813404D01*
X165013761Y-99813114D01*
X165016827Y-99812779D01*
X165016831Y-99812778D01*
X165022202Y-99812190D01*
X165095767Y-99787217D01*
X165112002Y-99781706D01*
X165112003Y-99781706D01*
X165116603Y-99780144D01*
X165150999Y-99760285D01*
X165210847Y-99747563D01*
X165266743Y-99772449D01*
G37*
%TD.AperFunction*%
%TA.AperFunction,Conductor*%
G36*
X159159191Y-100519407D02*
G01*
X159195155Y-100568907D01*
X159200000Y-100599500D01*
X159200000Y-100900500D01*
X159181093Y-100958691D01*
X159131593Y-100994655D01*
X159101000Y-100999500D01*
X159099000Y-100999500D01*
X159040809Y-100980593D01*
X159004845Y-100931093D01*
X159000000Y-100900500D01*
X159000000Y-100665680D01*
X158988437Y-100630092D01*
X158988438Y-100568907D01*
X159024402Y-100519407D01*
X159082592Y-100500500D01*
X159101000Y-100500500D01*
X159159191Y-100519407D01*
G37*
%TD.AperFunction*%
%TA.AperFunction,Conductor*%
G36*
X158358499Y-100519407D02*
G01*
X158394463Y-100568907D01*
X158394463Y-100630093D01*
X158380401Y-100657690D01*
X158380000Y-100658242D01*
X158380000Y-100664259D01*
X158380423Y-100670713D01*
X158385147Y-100706595D01*
X158389724Y-100722299D01*
X158389726Y-100777694D01*
X158387034Y-100786933D01*
X158352604Y-100837512D01*
X158295019Y-100858193D01*
X158236277Y-100841077D01*
X158221983Y-100829243D01*
X158063696Y-100670956D01*
X158035919Y-100616439D01*
X158045490Y-100556007D01*
X158088755Y-100512742D01*
X158133984Y-100504847D01*
X158133893Y-100502543D01*
X158183968Y-100500576D01*
X158187854Y-100500500D01*
X158300308Y-100500500D01*
X158358499Y-100519407D01*
G37*
%TD.AperFunction*%
%TD*%
%TA.AperFunction,Conductor*%
%TO.N,VCC*%
G36*
X130600000Y-104347469D02*
G01*
X130600000Y-104400000D01*
X130959330Y-104442691D01*
X131092216Y-104458479D01*
X131156465Y-104485935D01*
X131195671Y-104543769D01*
X131197386Y-104613617D01*
X131183145Y-104646679D01*
X131137119Y-104721348D01*
X131131076Y-104734307D01*
X131079828Y-104888814D01*
X131077006Y-104901980D01*
X131067322Y-104996490D01*
X131067000Y-105002798D01*
X131067000Y-105028170D01*
X131071404Y-105043169D01*
X131072774Y-105044356D01*
X131080332Y-105046000D01*
X133515169Y-105046000D01*
X133530168Y-105041596D01*
X133531355Y-105040226D01*
X133532999Y-105032668D01*
X133532999Y-105002835D01*
X133532669Y-104996461D01*
X133522614Y-104899552D01*
X133535275Y-104830838D01*
X133583075Y-104779878D01*
X133650838Y-104762850D01*
X133660581Y-104763620D01*
X133795712Y-104779674D01*
X133859961Y-104807130D01*
X133899167Y-104864963D01*
X133901719Y-104931493D01*
X133897909Y-104947516D01*
X133892363Y-104998573D01*
X133892000Y-105005271D01*
X133892000Y-105528170D01*
X133896404Y-105543169D01*
X133897774Y-105544356D01*
X133905332Y-105546000D01*
X136890169Y-105546000D01*
X136905168Y-105541596D01*
X136906355Y-105540226D01*
X136907999Y-105532668D01*
X136907999Y-105005274D01*
X136907636Y-104998571D01*
X136902226Y-104948762D01*
X136914557Y-104879988D01*
X136962111Y-104828799D01*
X137025563Y-104811372D01*
X137053413Y-104811386D01*
X137324471Y-104811522D01*
X137391501Y-104831240D01*
X137437229Y-104884067D01*
X137448409Y-104935455D01*
X137449882Y-107757853D01*
X137449891Y-107775435D01*
X137430241Y-107842485D01*
X137377461Y-107888267D01*
X137325891Y-107899500D01*
X128621359Y-107899500D01*
X128554320Y-107879815D01*
X128508565Y-107827011D01*
X128498621Y-107757853D01*
X128527646Y-107694297D01*
X128561243Y-107667047D01*
X128648780Y-107618525D01*
X128648788Y-107618519D01*
X128654273Y-107615479D01*
X128728606Y-107551768D01*
X128801902Y-107488946D01*
X128801904Y-107488943D01*
X128806671Y-107484858D01*
X128867892Y-107405932D01*
X128925839Y-107331228D01*
X128925841Y-107331224D01*
X128929692Y-107326260D01*
X129018310Y-107146165D01*
X129019894Y-107140084D01*
X129067321Y-106958012D01*
X129067322Y-106958007D01*
X129068905Y-106951929D01*
X129079409Y-106751488D01*
X129055701Y-106594726D01*
X133892001Y-106594726D01*
X133892364Y-106601431D01*
X133897908Y-106652477D01*
X133901478Y-106667488D01*
X133946727Y-106788190D01*
X133955126Y-106803532D01*
X134031798Y-106905835D01*
X134044165Y-106918202D01*
X134146468Y-106994874D01*
X134161810Y-107003273D01*
X134282515Y-107048524D01*
X134297518Y-107052091D01*
X134348573Y-107057637D01*
X134355271Y-107058000D01*
X135128170Y-107058000D01*
X135143169Y-107053596D01*
X135144356Y-107052226D01*
X135146000Y-107044668D01*
X135146000Y-107040169D01*
X135654000Y-107040169D01*
X135658404Y-107055168D01*
X135659774Y-107056355D01*
X135667332Y-107057999D01*
X136444726Y-107057999D01*
X136451431Y-107057636D01*
X136502477Y-107052092D01*
X136517488Y-107048522D01*
X136638190Y-107003273D01*
X136653532Y-106994874D01*
X136755835Y-106918202D01*
X136768202Y-106905835D01*
X136844874Y-106803532D01*
X136853273Y-106788190D01*
X136898524Y-106667485D01*
X136902091Y-106652482D01*
X136907637Y-106601427D01*
X136908000Y-106594729D01*
X136908000Y-106071830D01*
X136903596Y-106056831D01*
X136902226Y-106055644D01*
X136894668Y-106054000D01*
X135671830Y-106054000D01*
X135656831Y-106058404D01*
X135655644Y-106059774D01*
X135654000Y-106067332D01*
X135654000Y-107040169D01*
X135146000Y-107040169D01*
X135146000Y-106071830D01*
X135141596Y-106056831D01*
X135140226Y-106055644D01*
X135132668Y-106054000D01*
X133909831Y-106054000D01*
X133894832Y-106058404D01*
X133893645Y-106059774D01*
X133892001Y-106067332D01*
X133892001Y-106594726D01*
X129055701Y-106594726D01*
X129049395Y-106553027D01*
X129012900Y-106453835D01*
X128982257Y-106370551D01*
X128982257Y-106370550D01*
X128980088Y-106364656D01*
X128874319Y-106194068D01*
X128799683Y-106115142D01*
X128758128Y-106071199D01*
X128726368Y-106008964D01*
X128733297Y-105939439D01*
X128776713Y-105884697D01*
X128848223Y-105862000D01*
X129128170Y-105862000D01*
X129143169Y-105857596D01*
X129144356Y-105856226D01*
X129146000Y-105848668D01*
X129146000Y-105844169D01*
X129654000Y-105844169D01*
X129658404Y-105859168D01*
X129659774Y-105860355D01*
X129667332Y-105861999D01*
X130198726Y-105861999D01*
X130205431Y-105861636D01*
X130256477Y-105856092D01*
X130271488Y-105852522D01*
X130392190Y-105807273D01*
X130407532Y-105798874D01*
X130509835Y-105722202D01*
X130522202Y-105709835D01*
X130598874Y-105607532D01*
X130604549Y-105597165D01*
X131067001Y-105597165D01*
X131067331Y-105603541D01*
X131077268Y-105699318D01*
X131080114Y-105712494D01*
X131131627Y-105866900D01*
X131137698Y-105879859D01*
X131223126Y-106017909D01*
X131232016Y-106029125D01*
X131346906Y-106143816D01*
X131358145Y-106152692D01*
X131496348Y-106237881D01*
X131509307Y-106243924D01*
X131663814Y-106295172D01*
X131676980Y-106297994D01*
X131771490Y-106307678D01*
X131777798Y-106308000D01*
X132028170Y-106308000D01*
X132043169Y-106303596D01*
X132044356Y-106302226D01*
X132046000Y-106294668D01*
X132046000Y-106290169D01*
X132554000Y-106290169D01*
X132558404Y-106305168D01*
X132559774Y-106306355D01*
X132567332Y-106307999D01*
X132822165Y-106307999D01*
X132828541Y-106307669D01*
X132924318Y-106297732D01*
X132937494Y-106294886D01*
X133091900Y-106243373D01*
X133104859Y-106237302D01*
X133242909Y-106151874D01*
X133254125Y-106142984D01*
X133368816Y-106028094D01*
X133377692Y-106016855D01*
X133462881Y-105878652D01*
X133468924Y-105865693D01*
X133520172Y-105711186D01*
X133522994Y-105698020D01*
X133532678Y-105603510D01*
X133533000Y-105597202D01*
X133533000Y-105571830D01*
X133528596Y-105556831D01*
X133527226Y-105555644D01*
X133519668Y-105554000D01*
X132571830Y-105554000D01*
X132556831Y-105558404D01*
X132555644Y-105559774D01*
X132554000Y-105567332D01*
X132554000Y-106290169D01*
X132046000Y-106290169D01*
X132046000Y-105571830D01*
X132041596Y-105556831D01*
X132040226Y-105555644D01*
X132032668Y-105554000D01*
X131084831Y-105554000D01*
X131069832Y-105558404D01*
X131068645Y-105559774D01*
X131067001Y-105567332D01*
X131067001Y-105597165D01*
X130604549Y-105597165D01*
X130607273Y-105592190D01*
X130652524Y-105471485D01*
X130656091Y-105456482D01*
X130661637Y-105405427D01*
X130662000Y-105398729D01*
X130661999Y-104871829D01*
X130657595Y-104856831D01*
X130656226Y-104855644D01*
X130648667Y-104854000D01*
X129671830Y-104854000D01*
X129656831Y-104858404D01*
X129655644Y-104859774D01*
X129654000Y-104867332D01*
X129654000Y-105844169D01*
X129146000Y-105844169D01*
X129146000Y-104470000D01*
X129165685Y-104402961D01*
X129218489Y-104357206D01*
X129270000Y-104346000D01*
X130594996Y-104346000D01*
X130600000Y-104347469D01*
G37*
%TD.AperFunction*%
%TD*%
%TA.AperFunction,Conductor*%
%TO.N,+1V1*%
G36*
X165023566Y-98817313D02*
G01*
X165048876Y-98861150D01*
X165050000Y-98874000D01*
X165050000Y-99486000D01*
X165032687Y-99533566D01*
X164988850Y-99558876D01*
X164976000Y-99560000D01*
X164624000Y-99560000D01*
X164576434Y-99542687D01*
X164551124Y-99498850D01*
X164550000Y-99486000D01*
X164550000Y-99360000D01*
X160700000Y-99360000D01*
X160700000Y-100866000D01*
X160682687Y-100913566D01*
X160638850Y-100938876D01*
X160626000Y-100940000D01*
X160204000Y-100940000D01*
X160156434Y-100922687D01*
X160131124Y-100878850D01*
X160130000Y-100866000D01*
X160130000Y-98874000D01*
X160147313Y-98826434D01*
X160191150Y-98801124D01*
X160204000Y-98800000D01*
X164976000Y-98800000D01*
X165023566Y-98817313D01*
G37*
%TD.AperFunction*%
%TD*%
M02*
