%TF.GenerationSoftware,KiCad,Pcbnew,(6.0.7)*%
%TF.CreationDate,2022-08-26T01:09:57-07:00*%
%TF.ProjectId,RP2040_Injector,52503230-3430-45f4-996e-6a6563746f72,rev?*%
%TF.SameCoordinates,Original*%
%TF.FileFunction,Legend,Top*%
%TF.FilePolarity,Positive*%
%FSLAX46Y46*%
G04 Gerber Fmt 4.6, Leading zero omitted, Abs format (unit mm)*
G04 Created by KiCad (PCBNEW (6.0.7)) date 2022-08-26 01:09:57*
%MOMM*%
%LPD*%
G01*
G04 APERTURE LIST*
%ADD10C,0.150000*%
%ADD11C,0.125000*%
%ADD12C,0.120000*%
%ADD13C,0.200000*%
%ADD14C,0.127000*%
G04 APERTURE END LIST*
D10*
X138690476Y-97447380D02*
X138357142Y-96971190D01*
X138119047Y-97447380D02*
X138119047Y-96447380D01*
X138500000Y-96447380D01*
X138595238Y-96495000D01*
X138642857Y-96542619D01*
X138690476Y-96637857D01*
X138690476Y-96780714D01*
X138642857Y-96875952D01*
X138595238Y-96923571D01*
X138500000Y-96971190D01*
X138119047Y-96971190D01*
X139119047Y-97447380D02*
X139119047Y-96447380D01*
X139500000Y-96447380D01*
X139595238Y-96495000D01*
X139642857Y-96542619D01*
X139690476Y-96637857D01*
X139690476Y-96780714D01*
X139642857Y-96875952D01*
X139595238Y-96923571D01*
X139500000Y-96971190D01*
X139119047Y-96971190D01*
X140071428Y-96542619D02*
X140119047Y-96495000D01*
X140214285Y-96447380D01*
X140452380Y-96447380D01*
X140547619Y-96495000D01*
X140595238Y-96542619D01*
X140642857Y-96637857D01*
X140642857Y-96733095D01*
X140595238Y-96875952D01*
X140023809Y-97447380D01*
X140642857Y-97447380D01*
X141261904Y-96447380D02*
X141357142Y-96447380D01*
X141452380Y-96495000D01*
X141500000Y-96542619D01*
X141547619Y-96637857D01*
X141595238Y-96828333D01*
X141595238Y-97066428D01*
X141547619Y-97256904D01*
X141500000Y-97352142D01*
X141452380Y-97399761D01*
X141357142Y-97447380D01*
X141261904Y-97447380D01*
X141166666Y-97399761D01*
X141119047Y-97352142D01*
X141071428Y-97256904D01*
X141023809Y-97066428D01*
X141023809Y-96828333D01*
X141071428Y-96637857D01*
X141119047Y-96542619D01*
X141166666Y-96495000D01*
X141261904Y-96447380D01*
X142452380Y-96780714D02*
X142452380Y-97447380D01*
X142214285Y-96399761D02*
X141976190Y-97114047D01*
X142595238Y-97114047D01*
X143166666Y-96447380D02*
X143261904Y-96447380D01*
X143357142Y-96495000D01*
X143404761Y-96542619D01*
X143452380Y-96637857D01*
X143500000Y-96828333D01*
X143500000Y-97066428D01*
X143452380Y-97256904D01*
X143404761Y-97352142D01*
X143357142Y-97399761D01*
X143261904Y-97447380D01*
X143166666Y-97447380D01*
X143071428Y-97399761D01*
X143023809Y-97352142D01*
X142976190Y-97256904D01*
X142928571Y-97066428D01*
X142928571Y-96828333D01*
X142976190Y-96637857D01*
X143023809Y-96542619D01*
X143071428Y-96495000D01*
X143166666Y-96447380D01*
X144690476Y-97447380D02*
X144690476Y-96447380D01*
X145166666Y-96780714D02*
X145166666Y-97447380D01*
X145166666Y-96875952D02*
X145214285Y-96828333D01*
X145309523Y-96780714D01*
X145452380Y-96780714D01*
X145547619Y-96828333D01*
X145595238Y-96923571D01*
X145595238Y-97447380D01*
X146071428Y-96780714D02*
X146071428Y-97637857D01*
X146023809Y-97733095D01*
X145928571Y-97780714D01*
X145880952Y-97780714D01*
X146071428Y-96447380D02*
X146023809Y-96495000D01*
X146071428Y-96542619D01*
X146119047Y-96495000D01*
X146071428Y-96447380D01*
X146071428Y-96542619D01*
X146928571Y-97399761D02*
X146833333Y-97447380D01*
X146642857Y-97447380D01*
X146547619Y-97399761D01*
X146500000Y-97304523D01*
X146500000Y-96923571D01*
X146547619Y-96828333D01*
X146642857Y-96780714D01*
X146833333Y-96780714D01*
X146928571Y-96828333D01*
X146976190Y-96923571D01*
X146976190Y-97018809D01*
X146500000Y-97114047D01*
X147833333Y-97399761D02*
X147738095Y-97447380D01*
X147547619Y-97447380D01*
X147452380Y-97399761D01*
X147404761Y-97352142D01*
X147357142Y-97256904D01*
X147357142Y-96971190D01*
X147404761Y-96875952D01*
X147452380Y-96828333D01*
X147547619Y-96780714D01*
X147738095Y-96780714D01*
X147833333Y-96828333D01*
X148119047Y-96780714D02*
X148500000Y-96780714D01*
X148261904Y-96447380D02*
X148261904Y-97304523D01*
X148309523Y-97399761D01*
X148404761Y-97447380D01*
X148500000Y-97447380D01*
X148976190Y-97447380D02*
X148880952Y-97399761D01*
X148833333Y-97352142D01*
X148785714Y-97256904D01*
X148785714Y-96971190D01*
X148833333Y-96875952D01*
X148880952Y-96828333D01*
X148976190Y-96780714D01*
X149119047Y-96780714D01*
X149214285Y-96828333D01*
X149261904Y-96875952D01*
X149309523Y-96971190D01*
X149309523Y-97256904D01*
X149261904Y-97352142D01*
X149214285Y-97399761D01*
X149119047Y-97447380D01*
X148976190Y-97447380D01*
X149738095Y-97447380D02*
X149738095Y-96780714D01*
X149738095Y-96971190D02*
X149785714Y-96875952D01*
X149833333Y-96828333D01*
X149928571Y-96780714D01*
X150023809Y-96780714D01*
X142571428Y-98390714D02*
X142809523Y-99057380D01*
X143047619Y-98390714D01*
X143619047Y-98057380D02*
X143714285Y-98057380D01*
X143809523Y-98105000D01*
X143857142Y-98152619D01*
X143904761Y-98247857D01*
X143952380Y-98438333D01*
X143952380Y-98676428D01*
X143904761Y-98866904D01*
X143857142Y-98962142D01*
X143809523Y-99009761D01*
X143714285Y-99057380D01*
X143619047Y-99057380D01*
X143523809Y-99009761D01*
X143476190Y-98962142D01*
X143428571Y-98866904D01*
X143380952Y-98676428D01*
X143380952Y-98438333D01*
X143428571Y-98247857D01*
X143476190Y-98152619D01*
X143523809Y-98105000D01*
X143619047Y-98057380D01*
X144380952Y-98962142D02*
X144428571Y-99009761D01*
X144380952Y-99057380D01*
X144333333Y-99009761D01*
X144380952Y-98962142D01*
X144380952Y-99057380D01*
X145380952Y-99057380D02*
X144809523Y-99057380D01*
X145095238Y-99057380D02*
X145095238Y-98057380D01*
X145000000Y-98200238D01*
X144904761Y-98295476D01*
X144809523Y-98343095D01*
%TO.C,*%
%TO.C,R2*%
X153833333Y-96352380D02*
X153500000Y-95876190D01*
X153261904Y-96352380D02*
X153261904Y-95352380D01*
X153642857Y-95352380D01*
X153738095Y-95400000D01*
X153785714Y-95447619D01*
X153833333Y-95542857D01*
X153833333Y-95685714D01*
X153785714Y-95780952D01*
X153738095Y-95828571D01*
X153642857Y-95876190D01*
X153261904Y-95876190D01*
X154214285Y-95447619D02*
X154261904Y-95400000D01*
X154357142Y-95352380D01*
X154595238Y-95352380D01*
X154690476Y-95400000D01*
X154738095Y-95447619D01*
X154785714Y-95542857D01*
X154785714Y-95638095D01*
X154738095Y-95780952D01*
X154166666Y-96352380D01*
X154785714Y-96352380D01*
%TO.C,C15*%
X171187142Y-101257142D02*
X171139523Y-101304761D01*
X170996666Y-101352380D01*
X170901428Y-101352380D01*
X170758571Y-101304761D01*
X170663333Y-101209523D01*
X170615714Y-101114285D01*
X170568095Y-100923809D01*
X170568095Y-100780952D01*
X170615714Y-100590476D01*
X170663333Y-100495238D01*
X170758571Y-100400000D01*
X170901428Y-100352380D01*
X170996666Y-100352380D01*
X171139523Y-100400000D01*
X171187142Y-100447619D01*
X172139523Y-101352380D02*
X171568095Y-101352380D01*
X171853809Y-101352380D02*
X171853809Y-100352380D01*
X171758571Y-100495238D01*
X171663333Y-100590476D01*
X171568095Y-100638095D01*
X173044285Y-100352380D02*
X172568095Y-100352380D01*
X172520476Y-100828571D01*
X172568095Y-100780952D01*
X172663333Y-100733333D01*
X172901428Y-100733333D01*
X172996666Y-100780952D01*
X173044285Y-100828571D01*
X173091904Y-100923809D01*
X173091904Y-101161904D01*
X173044285Y-101257142D01*
X172996666Y-101304761D01*
X172901428Y-101352380D01*
X172663333Y-101352380D01*
X172568095Y-101304761D01*
X172520476Y-101257142D01*
D11*
%TO.C,C13*%
X158178571Y-97871428D02*
X158202380Y-97895238D01*
X158226190Y-97966666D01*
X158226190Y-98014285D01*
X158202380Y-98085714D01*
X158154761Y-98133333D01*
X158107142Y-98157142D01*
X158011904Y-98180952D01*
X157940476Y-98180952D01*
X157845238Y-98157142D01*
X157797619Y-98133333D01*
X157750000Y-98085714D01*
X157726190Y-98014285D01*
X157726190Y-97966666D01*
X157750000Y-97895238D01*
X157773809Y-97871428D01*
X158226190Y-97395238D02*
X158226190Y-97680952D01*
X158226190Y-97538095D02*
X157726190Y-97538095D01*
X157797619Y-97585714D01*
X157845238Y-97633333D01*
X157869047Y-97680952D01*
X157726190Y-97228571D02*
X157726190Y-96919047D01*
X157916666Y-97085714D01*
X157916666Y-97014285D01*
X157940476Y-96966666D01*
X157964285Y-96942857D01*
X158011904Y-96919047D01*
X158130952Y-96919047D01*
X158178571Y-96942857D01*
X158202380Y-96966666D01*
X158226190Y-97014285D01*
X158226190Y-97157142D01*
X158202380Y-97204761D01*
X158178571Y-97228571D01*
D10*
%TO.C,*%
%TO.C,C14*%
X146857142Y-104142857D02*
X146904761Y-104190476D01*
X146952380Y-104333333D01*
X146952380Y-104428571D01*
X146904761Y-104571428D01*
X146809523Y-104666666D01*
X146714285Y-104714285D01*
X146523809Y-104761904D01*
X146380952Y-104761904D01*
X146190476Y-104714285D01*
X146095238Y-104666666D01*
X146000000Y-104571428D01*
X145952380Y-104428571D01*
X145952380Y-104333333D01*
X146000000Y-104190476D01*
X146047619Y-104142857D01*
X146952380Y-103190476D02*
X146952380Y-103761904D01*
X146952380Y-103476190D02*
X145952380Y-103476190D01*
X146095238Y-103571428D01*
X146190476Y-103666666D01*
X146238095Y-103761904D01*
X146285714Y-102333333D02*
X146952380Y-102333333D01*
X145904761Y-102571428D02*
X146619047Y-102809523D01*
X146619047Y-102190476D01*
%TO.C,C4*%
X163858333Y-107557142D02*
X163810714Y-107604761D01*
X163667857Y-107652380D01*
X163572619Y-107652380D01*
X163429761Y-107604761D01*
X163334523Y-107509523D01*
X163286904Y-107414285D01*
X163239285Y-107223809D01*
X163239285Y-107080952D01*
X163286904Y-106890476D01*
X163334523Y-106795238D01*
X163429761Y-106700000D01*
X163572619Y-106652380D01*
X163667857Y-106652380D01*
X163810714Y-106700000D01*
X163858333Y-106747619D01*
X164715476Y-106985714D02*
X164715476Y-107652380D01*
X164477380Y-106604761D02*
X164239285Y-107319047D01*
X164858333Y-107319047D01*
%TO.C,C9*%
X156233333Y-99057142D02*
X156185714Y-99104761D01*
X156042857Y-99152380D01*
X155947619Y-99152380D01*
X155804761Y-99104761D01*
X155709523Y-99009523D01*
X155661904Y-98914285D01*
X155614285Y-98723809D01*
X155614285Y-98580952D01*
X155661904Y-98390476D01*
X155709523Y-98295238D01*
X155804761Y-98200000D01*
X155947619Y-98152380D01*
X156042857Y-98152380D01*
X156185714Y-98200000D01*
X156233333Y-98247619D01*
X156709523Y-99152380D02*
X156900000Y-99152380D01*
X156995238Y-99104761D01*
X157042857Y-99057142D01*
X157138095Y-98914285D01*
X157185714Y-98723809D01*
X157185714Y-98342857D01*
X157138095Y-98247619D01*
X157090476Y-98200000D01*
X156995238Y-98152380D01*
X156804761Y-98152380D01*
X156709523Y-98200000D01*
X156661904Y-98247619D01*
X156614285Y-98342857D01*
X156614285Y-98580952D01*
X156661904Y-98676190D01*
X156709523Y-98723809D01*
X156804761Y-98771428D01*
X156995238Y-98771428D01*
X157090476Y-98723809D01*
X157138095Y-98676190D01*
X157185714Y-98580952D01*
%TO.C,*%
%TO.C,C12*%
X153957142Y-101317142D02*
X153909523Y-101364761D01*
X153766666Y-101412380D01*
X153671428Y-101412380D01*
X153528571Y-101364761D01*
X153433333Y-101269523D01*
X153385714Y-101174285D01*
X153338095Y-100983809D01*
X153338095Y-100840952D01*
X153385714Y-100650476D01*
X153433333Y-100555238D01*
X153528571Y-100460000D01*
X153671428Y-100412380D01*
X153766666Y-100412380D01*
X153909523Y-100460000D01*
X153957142Y-100507619D01*
X154909523Y-101412380D02*
X154338095Y-101412380D01*
X154623809Y-101412380D02*
X154623809Y-100412380D01*
X154528571Y-100555238D01*
X154433333Y-100650476D01*
X154338095Y-100698095D01*
X155290476Y-100507619D02*
X155338095Y-100460000D01*
X155433333Y-100412380D01*
X155671428Y-100412380D01*
X155766666Y-100460000D01*
X155814285Y-100507619D01*
X155861904Y-100602857D01*
X155861904Y-100698095D01*
X155814285Y-100840952D01*
X155242857Y-101412380D01*
X155861904Y-101412380D01*
%TO.C,C11*%
X167407142Y-98357142D02*
X167359523Y-98404761D01*
X167216666Y-98452380D01*
X167121428Y-98452380D01*
X166978571Y-98404761D01*
X166883333Y-98309523D01*
X166835714Y-98214285D01*
X166788095Y-98023809D01*
X166788095Y-97880952D01*
X166835714Y-97690476D01*
X166883333Y-97595238D01*
X166978571Y-97500000D01*
X167121428Y-97452380D01*
X167216666Y-97452380D01*
X167359523Y-97500000D01*
X167407142Y-97547619D01*
X168359523Y-98452380D02*
X167788095Y-98452380D01*
X168073809Y-98452380D02*
X168073809Y-97452380D01*
X167978571Y-97595238D01*
X167883333Y-97690476D01*
X167788095Y-97738095D01*
X169311904Y-98452380D02*
X168740476Y-98452380D01*
X169026190Y-98452380D02*
X169026190Y-97452380D01*
X168930952Y-97595238D01*
X168835714Y-97690476D01*
X168740476Y-97738095D01*
%TO.C,*%
D11*
%TO.C,C10*%
X159828571Y-94728571D02*
X159804761Y-94752380D01*
X159733333Y-94776190D01*
X159685714Y-94776190D01*
X159614285Y-94752380D01*
X159566666Y-94704761D01*
X159542857Y-94657142D01*
X159519047Y-94561904D01*
X159519047Y-94490476D01*
X159542857Y-94395238D01*
X159566666Y-94347619D01*
X159614285Y-94300000D01*
X159685714Y-94276190D01*
X159733333Y-94276190D01*
X159804761Y-94300000D01*
X159828571Y-94323809D01*
X160304761Y-94776190D02*
X160019047Y-94776190D01*
X160161904Y-94776190D02*
X160161904Y-94276190D01*
X160114285Y-94347619D01*
X160066666Y-94395238D01*
X160019047Y-94419047D01*
X160614285Y-94276190D02*
X160661904Y-94276190D01*
X160709523Y-94300000D01*
X160733333Y-94323809D01*
X160757142Y-94371428D01*
X160780952Y-94466666D01*
X160780952Y-94585714D01*
X160757142Y-94680952D01*
X160733333Y-94728571D01*
X160709523Y-94752380D01*
X160661904Y-94776190D01*
X160614285Y-94776190D01*
X160566666Y-94752380D01*
X160542857Y-94728571D01*
X160519047Y-94680952D01*
X160495238Y-94585714D01*
X160495238Y-94466666D01*
X160519047Y-94371428D01*
X160542857Y-94323809D01*
X160566666Y-94300000D01*
X160614285Y-94276190D01*
D10*
%TO.C,C3*%
X160233333Y-107557142D02*
X160185714Y-107604761D01*
X160042857Y-107652380D01*
X159947619Y-107652380D01*
X159804761Y-107604761D01*
X159709523Y-107509523D01*
X159661904Y-107414285D01*
X159614285Y-107223809D01*
X159614285Y-107080952D01*
X159661904Y-106890476D01*
X159709523Y-106795238D01*
X159804761Y-106700000D01*
X159947619Y-106652380D01*
X160042857Y-106652380D01*
X160185714Y-106700000D01*
X160233333Y-106747619D01*
X160566666Y-106652380D02*
X161185714Y-106652380D01*
X160852380Y-107033333D01*
X160995238Y-107033333D01*
X161090476Y-107080952D01*
X161138095Y-107128571D01*
X161185714Y-107223809D01*
X161185714Y-107461904D01*
X161138095Y-107557142D01*
X161090476Y-107604761D01*
X160995238Y-107652380D01*
X160709523Y-107652380D01*
X160614285Y-107604761D01*
X160566666Y-107557142D01*
%TO.C,*%
D11*
%TO.C,C7*%
X161366666Y-94728571D02*
X161342857Y-94752380D01*
X161271428Y-94776190D01*
X161223809Y-94776190D01*
X161152380Y-94752380D01*
X161104761Y-94704761D01*
X161080952Y-94657142D01*
X161057142Y-94561904D01*
X161057142Y-94490476D01*
X161080952Y-94395238D01*
X161104761Y-94347619D01*
X161152380Y-94300000D01*
X161223809Y-94276190D01*
X161271428Y-94276190D01*
X161342857Y-94300000D01*
X161366666Y-94323809D01*
X161533333Y-94276190D02*
X161866666Y-94276190D01*
X161652380Y-94776190D01*
D10*
%TO.C,C2*%
X144857142Y-101666666D02*
X144904761Y-101714285D01*
X144952380Y-101857142D01*
X144952380Y-101952380D01*
X144904761Y-102095238D01*
X144809523Y-102190476D01*
X144714285Y-102238095D01*
X144523809Y-102285714D01*
X144380952Y-102285714D01*
X144190476Y-102238095D01*
X144095238Y-102190476D01*
X144000000Y-102095238D01*
X143952380Y-101952380D01*
X143952380Y-101857142D01*
X144000000Y-101714285D01*
X144047619Y-101666666D01*
X144047619Y-101285714D02*
X144000000Y-101238095D01*
X143952380Y-101142857D01*
X143952380Y-100904761D01*
X144000000Y-100809523D01*
X144047619Y-100761904D01*
X144142857Y-100714285D01*
X144238095Y-100714285D01*
X144380952Y-100761904D01*
X144952380Y-101333333D01*
X144952380Y-100714285D01*
%TO.C,C5*%
X167883333Y-102357142D02*
X167835714Y-102404761D01*
X167692857Y-102452380D01*
X167597619Y-102452380D01*
X167454761Y-102404761D01*
X167359523Y-102309523D01*
X167311904Y-102214285D01*
X167264285Y-102023809D01*
X167264285Y-101880952D01*
X167311904Y-101690476D01*
X167359523Y-101595238D01*
X167454761Y-101500000D01*
X167597619Y-101452380D01*
X167692857Y-101452380D01*
X167835714Y-101500000D01*
X167883333Y-101547619D01*
X168788095Y-101452380D02*
X168311904Y-101452380D01*
X168264285Y-101928571D01*
X168311904Y-101880952D01*
X168407142Y-101833333D01*
X168645238Y-101833333D01*
X168740476Y-101880952D01*
X168788095Y-101928571D01*
X168835714Y-102023809D01*
X168835714Y-102261904D01*
X168788095Y-102357142D01*
X168740476Y-102404761D01*
X168645238Y-102452380D01*
X168407142Y-102452380D01*
X168311904Y-102404761D01*
X168264285Y-102357142D01*
%TO.C,C16*%
X167757142Y-96342857D02*
X167804761Y-96390476D01*
X167852380Y-96533333D01*
X167852380Y-96628571D01*
X167804761Y-96771428D01*
X167709523Y-96866666D01*
X167614285Y-96914285D01*
X167423809Y-96961904D01*
X167280952Y-96961904D01*
X167090476Y-96914285D01*
X166995238Y-96866666D01*
X166900000Y-96771428D01*
X166852380Y-96628571D01*
X166852380Y-96533333D01*
X166900000Y-96390476D01*
X166947619Y-96342857D01*
X167852380Y-95390476D02*
X167852380Y-95961904D01*
X167852380Y-95676190D02*
X166852380Y-95676190D01*
X166995238Y-95771428D01*
X167090476Y-95866666D01*
X167138095Y-95961904D01*
X166852380Y-94533333D02*
X166852380Y-94723809D01*
X166900000Y-94819047D01*
X166947619Y-94866666D01*
X167090476Y-94961904D01*
X167280952Y-95009523D01*
X167661904Y-95009523D01*
X167757142Y-94961904D01*
X167804761Y-94914285D01*
X167852380Y-94819047D01*
X167852380Y-94628571D01*
X167804761Y-94533333D01*
X167757142Y-94485714D01*
X167661904Y-94438095D01*
X167423809Y-94438095D01*
X167328571Y-94485714D01*
X167280952Y-94533333D01*
X167233333Y-94628571D01*
X167233333Y-94819047D01*
X167280952Y-94914285D01*
X167328571Y-94961904D01*
X167423809Y-95009523D01*
%TO.C,*%
%TO.C,R3*%
X153833333Y-97652380D02*
X153500000Y-97176190D01*
X153261904Y-97652380D02*
X153261904Y-96652380D01*
X153642857Y-96652380D01*
X153738095Y-96700000D01*
X153785714Y-96747619D01*
X153833333Y-96842857D01*
X153833333Y-96985714D01*
X153785714Y-97080952D01*
X153738095Y-97128571D01*
X153642857Y-97176190D01*
X153261904Y-97176190D01*
X154166666Y-96652380D02*
X154785714Y-96652380D01*
X154452380Y-97033333D01*
X154595238Y-97033333D01*
X154690476Y-97080952D01*
X154738095Y-97128571D01*
X154785714Y-97223809D01*
X154785714Y-97461904D01*
X154738095Y-97557142D01*
X154690476Y-97604761D01*
X154595238Y-97652380D01*
X154309523Y-97652380D01*
X154214285Y-97604761D01*
X154166666Y-97557142D01*
D11*
%TO.C,C8*%
X158816666Y-94728571D02*
X158792857Y-94752380D01*
X158721428Y-94776190D01*
X158673809Y-94776190D01*
X158602380Y-94752380D01*
X158554761Y-94704761D01*
X158530952Y-94657142D01*
X158507142Y-94561904D01*
X158507142Y-94490476D01*
X158530952Y-94395238D01*
X158554761Y-94347619D01*
X158602380Y-94300000D01*
X158673809Y-94276190D01*
X158721428Y-94276190D01*
X158792857Y-94300000D01*
X158816666Y-94323809D01*
X159102380Y-94490476D02*
X159054761Y-94466666D01*
X159030952Y-94442857D01*
X159007142Y-94395238D01*
X159007142Y-94371428D01*
X159030952Y-94323809D01*
X159054761Y-94300000D01*
X159102380Y-94276190D01*
X159197619Y-94276190D01*
X159245238Y-94300000D01*
X159269047Y-94323809D01*
X159292857Y-94371428D01*
X159292857Y-94395238D01*
X159269047Y-94442857D01*
X159245238Y-94466666D01*
X159197619Y-94490476D01*
X159102380Y-94490476D01*
X159054761Y-94514285D01*
X159030952Y-94538095D01*
X159007142Y-94585714D01*
X159007142Y-94680952D01*
X159030952Y-94728571D01*
X159054761Y-94752380D01*
X159102380Y-94776190D01*
X159197619Y-94776190D01*
X159245238Y-94752380D01*
X159269047Y-94728571D01*
X159292857Y-94680952D01*
X159292857Y-94585714D01*
X159269047Y-94538095D01*
X159245238Y-94514285D01*
X159197619Y-94490476D01*
D10*
%TO.C,R1*%
X168792380Y-106326666D02*
X168316190Y-106660000D01*
X168792380Y-106898095D02*
X167792380Y-106898095D01*
X167792380Y-106517142D01*
X167840000Y-106421904D01*
X167887619Y-106374285D01*
X167982857Y-106326666D01*
X168125714Y-106326666D01*
X168220952Y-106374285D01*
X168268571Y-106421904D01*
X168316190Y-106517142D01*
X168316190Y-106898095D01*
X168792380Y-105374285D02*
X168792380Y-105945714D01*
X168792380Y-105660000D02*
X167792380Y-105660000D01*
X167935238Y-105755238D01*
X168030476Y-105850476D01*
X168078095Y-105945714D01*
%TO.C,*%
%TO.C,C1*%
X132657142Y-101866666D02*
X132704761Y-101914285D01*
X132752380Y-102057142D01*
X132752380Y-102152380D01*
X132704761Y-102295238D01*
X132609523Y-102390476D01*
X132514285Y-102438095D01*
X132323809Y-102485714D01*
X132180952Y-102485714D01*
X131990476Y-102438095D01*
X131895238Y-102390476D01*
X131800000Y-102295238D01*
X131752380Y-102152380D01*
X131752380Y-102057142D01*
X131800000Y-101914285D01*
X131847619Y-101866666D01*
X132752380Y-100914285D02*
X132752380Y-101485714D01*
X132752380Y-101200000D02*
X131752380Y-101200000D01*
X131895238Y-101295238D01*
X131990476Y-101390476D01*
X132038095Y-101485714D01*
%TO.C,C6*%
X164733333Y-96757142D02*
X164685714Y-96804761D01*
X164542857Y-96852380D01*
X164447619Y-96852380D01*
X164304761Y-96804761D01*
X164209523Y-96709523D01*
X164161904Y-96614285D01*
X164114285Y-96423809D01*
X164114285Y-96280952D01*
X164161904Y-96090476D01*
X164209523Y-95995238D01*
X164304761Y-95900000D01*
X164447619Y-95852380D01*
X164542857Y-95852380D01*
X164685714Y-95900000D01*
X164733333Y-95947619D01*
X165590476Y-95852380D02*
X165400000Y-95852380D01*
X165304761Y-95900000D01*
X165257142Y-95947619D01*
X165161904Y-96090476D01*
X165114285Y-96280952D01*
X165114285Y-96661904D01*
X165161904Y-96757142D01*
X165209523Y-96804761D01*
X165304761Y-96852380D01*
X165495238Y-96852380D01*
X165590476Y-96804761D01*
X165638095Y-96757142D01*
X165685714Y-96661904D01*
X165685714Y-96423809D01*
X165638095Y-96328571D01*
X165590476Y-96280952D01*
X165495238Y-96233333D01*
X165304761Y-96233333D01*
X165209523Y-96280952D01*
X165161904Y-96328571D01*
X165114285Y-96423809D01*
D12*
%TO.C,R2*%
X155846359Y-96380000D02*
X156153641Y-96380000D01*
X155846359Y-95620000D02*
X156153641Y-95620000D01*
%TO.C,C15*%
X171722164Y-99290000D02*
X171937836Y-99290000D01*
X171722164Y-100010000D02*
X171937836Y-100010000D01*
%TO.C,U1*%
X140460000Y-106910000D02*
X140460000Y-105650000D01*
X140460000Y-100090000D02*
X140460000Y-101350000D01*
X134450000Y-100090000D02*
X140460000Y-100090000D01*
X136700000Y-106910000D02*
X140460000Y-106910000D01*
%TO.C,C13*%
X158350000Y-95987836D02*
X158350000Y-95772164D01*
X157630000Y-95987836D02*
X157630000Y-95772164D01*
%TO.C,C14*%
X146660000Y-106207836D02*
X146660000Y-105992164D01*
X145940000Y-106207836D02*
X145940000Y-105992164D01*
%TO.C,C4*%
X163917164Y-106310000D02*
X164132836Y-106310000D01*
X163917164Y-105590000D02*
X164132836Y-105590000D01*
%TO.C,C9*%
X154707836Y-98340000D02*
X154492164Y-98340000D01*
X154707836Y-99060000D02*
X154492164Y-99060000D01*
%TO.C,U2*%
X149375000Y-107225000D02*
X149375000Y-106965000D01*
X149375000Y-101775000D02*
X149375000Y-102035000D01*
X152100000Y-101775000D02*
X154825000Y-101775000D01*
X152100000Y-107225000D02*
X149375000Y-107225000D01*
X152100000Y-107225000D02*
X154825000Y-107225000D01*
X154825000Y-106965000D02*
X156500000Y-106965000D01*
X154825000Y-101775000D02*
X154825000Y-102035000D01*
X152100000Y-101775000D02*
X149375000Y-101775000D01*
X154825000Y-107225000D02*
X154825000Y-106965000D01*
%TO.C,C12*%
X154707836Y-100160000D02*
X154492164Y-100160000D01*
X154707836Y-99440000D02*
X154492164Y-99440000D01*
D13*
%TO.C,J1*%
X130800000Y-104600000D02*
G75*
G03*
X130800000Y-104600000I-100000J0D01*
G01*
D12*
%TO.C,C11*%
X167942164Y-100110000D02*
X168157836Y-100110000D01*
X167942164Y-99390000D02*
X168157836Y-99390000D01*
%TO.C,C10*%
X160450000Y-95987836D02*
X160450000Y-95772164D01*
X159730000Y-95987836D02*
X159730000Y-95772164D01*
%TO.C,C3*%
X160292164Y-106310000D02*
X160507836Y-106310000D01*
X160292164Y-105590000D02*
X160507836Y-105590000D01*
%TO.C,J2*%
X169640000Y-102875000D02*
X169640000Y-101545000D01*
X169640000Y-104145000D02*
X169640000Y-106745000D01*
X172300000Y-104145000D02*
X172300000Y-106745000D01*
X169640000Y-104145000D02*
X172300000Y-104145000D01*
X169640000Y-106745000D02*
X172300000Y-106745000D01*
X169640000Y-101545000D02*
X170970000Y-101545000D01*
%TO.C,C7*%
X160780000Y-95987836D02*
X160780000Y-95772164D01*
X161500000Y-95987836D02*
X161500000Y-95772164D01*
%TO.C,C2*%
X143665000Y-105511252D02*
X143665000Y-104988748D01*
X145135000Y-105511252D02*
X145135000Y-104988748D01*
%TO.C,C5*%
X167942164Y-101210000D02*
X168157836Y-101210000D01*
X167942164Y-100490000D02*
X168157836Y-100490000D01*
%TO.C,C16*%
X168190000Y-95927836D02*
X168190000Y-95712164D01*
X168910000Y-95927836D02*
X168910000Y-95712164D01*
%TO.C,R3*%
X155846359Y-97480000D02*
X156153641Y-97480000D01*
X155846359Y-96720000D02*
X156153641Y-96720000D01*
%TO.C,C8*%
X159400000Y-95987836D02*
X159400000Y-95772164D01*
X158680000Y-95987836D02*
X158680000Y-95772164D01*
%TO.C,R1*%
X166790000Y-106006359D02*
X166790000Y-106313641D01*
X167550000Y-106006359D02*
X167550000Y-106313641D01*
%TO.C,C1*%
X131565000Y-104611252D02*
X131565000Y-104088748D01*
X133035000Y-104611252D02*
X133035000Y-104088748D01*
D14*
%TO.C,U3*%
X166035000Y-104650000D02*
X166035000Y-104170000D01*
X159035000Y-104650000D02*
X159515000Y-104650000D01*
X159035000Y-104650000D02*
X159035000Y-104170000D01*
X159035000Y-97650000D02*
X159035000Y-98130000D01*
X166035000Y-104650000D02*
X165555000Y-104650000D01*
X159035000Y-97650000D02*
X159515000Y-97650000D01*
X166035000Y-97650000D02*
X165555000Y-97650000D01*
X166035000Y-97650000D02*
X166035000Y-98130000D01*
D13*
X159460000Y-105625000D02*
G75*
G03*
X159460000Y-105625000I-100000J0D01*
G01*
D12*
%TO.C,HSE1*%
X172550000Y-98850000D02*
X172550000Y-94850000D01*
X169350000Y-98850000D02*
X172550000Y-98850000D01*
%TO.C,C6*%
X163910000Y-95982836D02*
X163910000Y-95767164D01*
X163190000Y-95982836D02*
X163190000Y-95767164D01*
%TD*%
M02*
