%TF.GenerationSoftware,KiCad,Pcbnew,(6.0.7)*%
%TF.CreationDate,2022-08-28T18:35:31-07:00*%
%TF.ProjectId,RP2040_Injector,52503230-3430-45f4-996e-6a6563746f72,rev?*%
%TF.SameCoordinates,Original*%
%TF.FileFunction,Copper,L3,Inr*%
%TF.FilePolarity,Positive*%
%FSLAX46Y46*%
G04 Gerber Fmt 4.6, Leading zero omitted, Abs format (unit mm)*
G04 Created by KiCad (PCBNEW (6.0.7)) date 2022-08-28 18:35:31*
%MOMM*%
%LPD*%
G01*
G04 APERTURE LIST*
%TA.AperFunction,ComponentPad*%
%ADD10C,0.600000*%
%TD*%
%TA.AperFunction,ComponentPad*%
%ADD11R,1.350000X1.350000*%
%TD*%
%TA.AperFunction,ComponentPad*%
%ADD12O,1.350000X1.350000*%
%TD*%
%TA.AperFunction,ComponentPad*%
%ADD13R,1.508000X1.508000*%
%TD*%
%TA.AperFunction,ComponentPad*%
%ADD14C,1.508000*%
%TD*%
%TA.AperFunction,ComponentPad*%
%ADD15O,3.150000X1.575000*%
%TD*%
%TA.AperFunction,ViaPad*%
%ADD16C,0.800000*%
%TD*%
G04 APERTURE END LIST*
D10*
%TO.N,GND*%
%TO.C,*%
X116400000Y-91550000D03*
%TD*%
D11*
%TO.N,GND*%
%TO.C,J2*%
X118650000Y-99070000D03*
D12*
%TO.N,/~{USB_BOOT}*%
X116650000Y-99070000D03*
%TD*%
D10*
%TO.N,GND*%
%TO.C,*%
X115125000Y-91550000D03*
%TD*%
%TO.N,GND*%
%TO.C,*%
X115125000Y-92825000D03*
%TD*%
%TO.N,GND*%
%TO.C,*%
X113850000Y-94100000D03*
%TD*%
%TO.N,GND*%
%TO.C,*%
X116400000Y-92825000D03*
%TD*%
%TO.N,GND*%
%TO.C,*%
X116400000Y-94100000D03*
%TD*%
%TO.N,GND*%
%TO.C,*%
X113850000Y-92825000D03*
%TD*%
%TO.N,GND*%
%TO.C,*%
X113850000Y-91550000D03*
%TD*%
%TO.N,GND*%
%TO.C,*%
X115125000Y-94100000D03*
%TD*%
D13*
%TO.N,VCC*%
%TO.C,J1*%
X98337500Y-90255750D03*
D14*
%TO.N,USB_D-*%
X98337500Y-92755750D03*
%TO.N,USB_D+*%
X98337500Y-94755750D03*
%TO.N,GND*%
X98337500Y-97255750D03*
D15*
X96237500Y-88055750D03*
X96237500Y-99455750D03*
%TD*%
D16*
%TO.N,+3V3*%
X116150000Y-87350000D03*
X110680000Y-89410000D03*
X107150000Y-97650000D03*
X121170000Y-92726302D03*
X109980000Y-87390000D03*
X112560000Y-87310000D03*
X107150000Y-96650000D03*
X100410000Y-100240000D03*
X112190000Y-98310000D03*
X109400000Y-92475000D03*
X101930000Y-87870000D03*
X115300000Y-97450000D03*
%TO.N,GND*%
X96260000Y-89530000D03*
X107700000Y-98800000D03*
X99300000Y-98500000D03*
X113460000Y-98290000D03*
X108330000Y-90379802D03*
X94200000Y-88000000D03*
X99300000Y-99400000D03*
X107950000Y-95648802D03*
X103150000Y-88990000D03*
X106800000Y-98800000D03*
X114280000Y-88060000D03*
X108320000Y-88140000D03*
X114550000Y-99110000D03*
X121880000Y-90710000D03*
X107201844Y-92906113D03*
X108330000Y-89320000D03*
X106800000Y-99800000D03*
X121800000Y-100200000D03*
X122008186Y-91820000D03*
X107700000Y-99800000D03*
X122370000Y-93370000D03*
X96300000Y-97900000D03*
X94200000Y-99400000D03*
X117830000Y-88050000D03*
%TD*%
%TA.AperFunction,Conductor*%
%TO.N,+3V3*%
G36*
X123541621Y-86970502D02*
G01*
X123588114Y-87024158D01*
X123599500Y-87076500D01*
X123599500Y-100423500D01*
X123579498Y-100491621D01*
X123525842Y-100538114D01*
X123473500Y-100549500D01*
X122493782Y-100549500D01*
X122425661Y-100529498D01*
X122379168Y-100475842D01*
X122369064Y-100405568D01*
X122377373Y-100375283D01*
X122381883Y-100364395D01*
X122381884Y-100364390D01*
X122385044Y-100356762D01*
X122405682Y-100200000D01*
X122385044Y-100043238D01*
X122324536Y-99897159D01*
X122251453Y-99801915D01*
X122233305Y-99778264D01*
X122228282Y-99771718D01*
X122219199Y-99764748D01*
X122153849Y-99714604D01*
X122102841Y-99675464D01*
X121956762Y-99614956D01*
X121800000Y-99594318D01*
X121643238Y-99614956D01*
X121497159Y-99675464D01*
X121446151Y-99714604D01*
X121380802Y-99764748D01*
X121371718Y-99771718D01*
X121366695Y-99778264D01*
X121348547Y-99801915D01*
X121275464Y-99897159D01*
X121214956Y-100043238D01*
X121194318Y-100200000D01*
X121214956Y-100356762D01*
X121218116Y-100364390D01*
X121218117Y-100364395D01*
X121222627Y-100375283D01*
X121230216Y-100445873D01*
X121198436Y-100509360D01*
X121137377Y-100545586D01*
X121106218Y-100549500D01*
X108080847Y-100549500D01*
X108012726Y-100529498D01*
X107966233Y-100475842D01*
X107956129Y-100405568D01*
X107985623Y-100340988D01*
X108004143Y-100323537D01*
X108121736Y-100233305D01*
X108128282Y-100228282D01*
X108149984Y-100200000D01*
X108219509Y-100109392D01*
X108224536Y-100102841D01*
X108285044Y-99956762D01*
X108305682Y-99800000D01*
X108285044Y-99643238D01*
X108224536Y-99497159D01*
X108150000Y-99400022D01*
X108132108Y-99376704D01*
X108106508Y-99310483D01*
X108120773Y-99240935D01*
X108132108Y-99223296D01*
X108212760Y-99118188D01*
X108224536Y-99102841D01*
X108285044Y-98956762D01*
X108287137Y-98940868D01*
X108304430Y-98809507D01*
X108305682Y-98800000D01*
X108285044Y-98643238D01*
X108224536Y-98497159D01*
X108128282Y-98371718D01*
X108021785Y-98290000D01*
X112854318Y-98290000D01*
X112874956Y-98446762D01*
X112935464Y-98592841D01*
X112978229Y-98648574D01*
X113017935Y-98700319D01*
X113031718Y-98718282D01*
X113157159Y-98814536D01*
X113303238Y-98875044D01*
X113460000Y-98895682D01*
X113468188Y-98894604D01*
X113608574Y-98876122D01*
X113616762Y-98875044D01*
X113762841Y-98814536D01*
X113769392Y-98809509D01*
X113769396Y-98809507D01*
X113770978Y-98808293D01*
X113772554Y-98807684D01*
X113776546Y-98805379D01*
X113776905Y-98806002D01*
X113837198Y-98782694D01*
X113906747Y-98796960D01*
X113957542Y-98846562D01*
X113973457Y-98915752D01*
X113969387Y-98940868D01*
X113968118Y-98945604D01*
X113964956Y-98953238D01*
X113944318Y-99110000D01*
X113964956Y-99266762D01*
X114025464Y-99412841D01*
X114121718Y-99538282D01*
X114247159Y-99634536D01*
X114393238Y-99695044D01*
X114550000Y-99715682D01*
X114558188Y-99714604D01*
X114597778Y-99709392D01*
X114706762Y-99695044D01*
X114852841Y-99634536D01*
X114978282Y-99538282D01*
X115074536Y-99412841D01*
X115135044Y-99266762D01*
X115155682Y-99110000D01*
X115150416Y-99070000D01*
X115769678Y-99070000D01*
X115770368Y-99076565D01*
X115784928Y-99215091D01*
X115788915Y-99253029D01*
X115845786Y-99428059D01*
X115937805Y-99587440D01*
X115942223Y-99592347D01*
X115942224Y-99592348D01*
X116047621Y-99709404D01*
X116060950Y-99724207D01*
X116066292Y-99728088D01*
X116066294Y-99728090D01*
X116165270Y-99800000D01*
X116209839Y-99832381D01*
X116215867Y-99835065D01*
X116215869Y-99835066D01*
X116359865Y-99899177D01*
X116377966Y-99907236D01*
X116459355Y-99924536D01*
X116551524Y-99944128D01*
X116551529Y-99944128D01*
X116557981Y-99945500D01*
X116742019Y-99945500D01*
X116748471Y-99944128D01*
X116748476Y-99944128D01*
X116840645Y-99924536D01*
X116922034Y-99907236D01*
X116940135Y-99899177D01*
X117084131Y-99835066D01*
X117084133Y-99835065D01*
X117090161Y-99832381D01*
X117134730Y-99800000D01*
X117233706Y-99728090D01*
X117233708Y-99728088D01*
X117239050Y-99724207D01*
X117252379Y-99709404D01*
X117357776Y-99592348D01*
X117357777Y-99592347D01*
X117362195Y-99587440D01*
X117454214Y-99428059D01*
X117511085Y-99253029D01*
X117523190Y-99137857D01*
X117550203Y-99072201D01*
X117555779Y-99068310D01*
X117555526Y-99067916D01*
X117742008Y-99067916D01*
X117772444Y-99128361D01*
X117774500Y-99151028D01*
X117774500Y-99764748D01*
X117775707Y-99770816D01*
X117783033Y-99807644D01*
X117786133Y-99823231D01*
X117830448Y-99889552D01*
X117896769Y-99933867D01*
X117908938Y-99936288D01*
X117908939Y-99936288D01*
X117931025Y-99940681D01*
X117955252Y-99945500D01*
X119344748Y-99945500D01*
X119368975Y-99940681D01*
X119391061Y-99936288D01*
X119391062Y-99936288D01*
X119403231Y-99933867D01*
X119469552Y-99889552D01*
X119513867Y-99823231D01*
X119516968Y-99807644D01*
X119524293Y-99770816D01*
X119525500Y-99764748D01*
X119525500Y-98375252D01*
X119518659Y-98340861D01*
X119516288Y-98328939D01*
X119516288Y-98328938D01*
X119513867Y-98316769D01*
X119469552Y-98250448D01*
X119403231Y-98206133D01*
X119391062Y-98203712D01*
X119391061Y-98203712D01*
X119350816Y-98195707D01*
X119344748Y-98194500D01*
X117955252Y-98194500D01*
X117949184Y-98195707D01*
X117908939Y-98203712D01*
X117908938Y-98203712D01*
X117896769Y-98206133D01*
X117830448Y-98250448D01*
X117786133Y-98316769D01*
X117783712Y-98328938D01*
X117783712Y-98328939D01*
X117781341Y-98340861D01*
X117774500Y-98375252D01*
X117774500Y-98988972D01*
X117754498Y-99057093D01*
X117742008Y-99067916D01*
X117555526Y-99067916D01*
X117527604Y-99024470D01*
X117523190Y-99002143D01*
X117511775Y-98893535D01*
X117511775Y-98893534D01*
X117511085Y-98886971D01*
X117506320Y-98872304D01*
X117456256Y-98718226D01*
X117454214Y-98711941D01*
X117362195Y-98552560D01*
X117356342Y-98546059D01*
X117243472Y-98420704D01*
X117243471Y-98420703D01*
X117239050Y-98415793D01*
X117233708Y-98411912D01*
X117233706Y-98411910D01*
X117095503Y-98311500D01*
X117095502Y-98311499D01*
X117090161Y-98307619D01*
X117084133Y-98304935D01*
X117084131Y-98304934D01*
X116928065Y-98235449D01*
X116928064Y-98235449D01*
X116922034Y-98232764D01*
X116829176Y-98213026D01*
X116748476Y-98195872D01*
X116748471Y-98195872D01*
X116742019Y-98194500D01*
X116557981Y-98194500D01*
X116551529Y-98195872D01*
X116551524Y-98195872D01*
X116470824Y-98213026D01*
X116377966Y-98232764D01*
X116371936Y-98235449D01*
X116371935Y-98235449D01*
X116215869Y-98304934D01*
X116215867Y-98304935D01*
X116209839Y-98307619D01*
X116204498Y-98311499D01*
X116204497Y-98311500D01*
X116066294Y-98411910D01*
X116066292Y-98411912D01*
X116060950Y-98415793D01*
X116056529Y-98420703D01*
X116056528Y-98420704D01*
X115943659Y-98546059D01*
X115937805Y-98552560D01*
X115845786Y-98711941D01*
X115843744Y-98718226D01*
X115793681Y-98872304D01*
X115788915Y-98886971D01*
X115788225Y-98893534D01*
X115788225Y-98893535D01*
X115774463Y-99024470D01*
X115769678Y-99070000D01*
X115150416Y-99070000D01*
X115135044Y-98953238D01*
X115074536Y-98807159D01*
X114978282Y-98681718D01*
X114852841Y-98585464D01*
X114706762Y-98524956D01*
X114550000Y-98504318D01*
X114393238Y-98524956D01*
X114247159Y-98585464D01*
X114240608Y-98590491D01*
X114240604Y-98590493D01*
X114239022Y-98591707D01*
X114237446Y-98592316D01*
X114233454Y-98594621D01*
X114233095Y-98593998D01*
X114172802Y-98617306D01*
X114103253Y-98603040D01*
X114052458Y-98553438D01*
X114036543Y-98484248D01*
X114040613Y-98459132D01*
X114041882Y-98454396D01*
X114045044Y-98446762D01*
X114065682Y-98290000D01*
X114052597Y-98190608D01*
X114046122Y-98141426D01*
X114045044Y-98133238D01*
X113984536Y-97987159D01*
X113888282Y-97861718D01*
X113762841Y-97765464D01*
X113616762Y-97704956D01*
X113460000Y-97684318D01*
X113303238Y-97704956D01*
X113157159Y-97765464D01*
X113031718Y-97861718D01*
X112935464Y-97987159D01*
X112874956Y-98133238D01*
X112873878Y-98141426D01*
X112867403Y-98190608D01*
X112854318Y-98290000D01*
X108021785Y-98290000D01*
X108002841Y-98275464D01*
X107856762Y-98214956D01*
X107814530Y-98209396D01*
X107732829Y-98198640D01*
X107700000Y-98194318D01*
X107667171Y-98198640D01*
X107585471Y-98209396D01*
X107543238Y-98214956D01*
X107397159Y-98275464D01*
X107358753Y-98304934D01*
X107326704Y-98329526D01*
X107260484Y-98355126D01*
X107190935Y-98340861D01*
X107173296Y-98329526D01*
X107141247Y-98304934D01*
X107102841Y-98275464D01*
X106956762Y-98214956D01*
X106914530Y-98209396D01*
X106832829Y-98198640D01*
X106800000Y-98194318D01*
X106767171Y-98198640D01*
X106685471Y-98209396D01*
X106643238Y-98214956D01*
X106497159Y-98275464D01*
X106371718Y-98371718D01*
X106275464Y-98497159D01*
X106214956Y-98643238D01*
X106194318Y-98800000D01*
X106195570Y-98809507D01*
X106212864Y-98940868D01*
X106214956Y-98956762D01*
X106275464Y-99102841D01*
X106287240Y-99118188D01*
X106367892Y-99223296D01*
X106393492Y-99289517D01*
X106379227Y-99359065D01*
X106367892Y-99376704D01*
X106350000Y-99400022D01*
X106275464Y-99497159D01*
X106214956Y-99643238D01*
X106194318Y-99800000D01*
X106214956Y-99956762D01*
X106275464Y-100102841D01*
X106280491Y-100109392D01*
X106350017Y-100200000D01*
X106371718Y-100228282D01*
X106378264Y-100233305D01*
X106495857Y-100323537D01*
X106537724Y-100380875D01*
X106541946Y-100451746D01*
X106507182Y-100513649D01*
X106444469Y-100546930D01*
X106419153Y-100549500D01*
X97576965Y-100549500D01*
X97508844Y-100529498D01*
X97462351Y-100475842D01*
X97452247Y-100405568D01*
X97481741Y-100340988D01*
X97515879Y-100313298D01*
X97586193Y-100274322D01*
X97591773Y-100271229D01*
X97744171Y-100140608D01*
X97819699Y-100043238D01*
X97863280Y-99987054D01*
X97863282Y-99987051D01*
X97867192Y-99982010D01*
X97875626Y-99964871D01*
X97952991Y-99807644D01*
X97955810Y-99801915D01*
X97983367Y-99696122D01*
X98004795Y-99613861D01*
X98004795Y-99613858D01*
X98006405Y-99607679D01*
X98015818Y-99428059D01*
X98016575Y-99413620D01*
X98016575Y-99413616D01*
X98016909Y-99407238D01*
X97986895Y-99208777D01*
X97984692Y-99202791D01*
X97984691Y-99202785D01*
X97919794Y-99026402D01*
X97917588Y-99020406D01*
X97914222Y-99014978D01*
X97914220Y-99014973D01*
X97815183Y-98855244D01*
X97811819Y-98849818D01*
X97687379Y-98718226D01*
X97678298Y-98708623D01*
X97678297Y-98708622D01*
X97673909Y-98703982D01*
X97668678Y-98700319D01*
X97514717Y-98592514D01*
X97514715Y-98592513D01*
X97509491Y-98588855D01*
X97369131Y-98528116D01*
X97331143Y-98511677D01*
X97331141Y-98511676D01*
X97325282Y-98509141D01*
X97307356Y-98505396D01*
X97133552Y-98469086D01*
X97133548Y-98469086D01*
X97128807Y-98468095D01*
X97123968Y-98467841D01*
X97123965Y-98467841D01*
X97123941Y-98467840D01*
X97122224Y-98467750D01*
X96876768Y-98467750D01*
X96808647Y-98447748D01*
X96762154Y-98394092D01*
X96752050Y-98323818D01*
X96776805Y-98265047D01*
X96819507Y-98209396D01*
X96819509Y-98209392D01*
X96824536Y-98202841D01*
X96885044Y-98056762D01*
X96886813Y-98043329D01*
X96904604Y-97908188D01*
X96905682Y-97900000D01*
X96885044Y-97743238D01*
X96824536Y-97597159D01*
X96728282Y-97471718D01*
X96602841Y-97375464D01*
X96456762Y-97314956D01*
X96300000Y-97294318D01*
X96143238Y-97314956D01*
X95997159Y-97375464D01*
X95871718Y-97471718D01*
X95775464Y-97597159D01*
X95714956Y-97743238D01*
X95694318Y-97900000D01*
X95695396Y-97908188D01*
X95713188Y-98043329D01*
X95714956Y-98056762D01*
X95775464Y-98202841D01*
X95780491Y-98209392D01*
X95780493Y-98209396D01*
X95823195Y-98265047D01*
X95848795Y-98331267D01*
X95834530Y-98400816D01*
X95784928Y-98451612D01*
X95723232Y-98467750D01*
X95399841Y-98467750D01*
X95396445Y-98468095D01*
X95256660Y-98482294D01*
X95256659Y-98482294D01*
X95250311Y-98482939D01*
X95058778Y-98542961D01*
X95053189Y-98546059D01*
X94987802Y-98582304D01*
X94883227Y-98640271D01*
X94730829Y-98770892D01*
X94670985Y-98848042D01*
X94613431Y-98889608D01*
X94542539Y-98893459D01*
X94508922Y-98880130D01*
X94502841Y-98875464D01*
X94356762Y-98814956D01*
X94200000Y-98794318D01*
X94043238Y-98814956D01*
X93897159Y-98875464D01*
X93890608Y-98880491D01*
X93883204Y-98886172D01*
X93816983Y-98911772D01*
X93747435Y-98897507D01*
X93696639Y-98847906D01*
X93680500Y-98786209D01*
X93680500Y-97242359D01*
X97378475Y-97242359D01*
X97378991Y-97248502D01*
X97389653Y-97375464D01*
X97394139Y-97428889D01*
X97445735Y-97608825D01*
X97448550Y-97614302D01*
X97448551Y-97614305D01*
X97514813Y-97743238D01*
X97531297Y-97775312D01*
X97535120Y-97780136D01*
X97535123Y-97780140D01*
X97599782Y-97861718D01*
X97647568Y-97922009D01*
X97790118Y-98043329D01*
X97795496Y-98046335D01*
X97795498Y-98046336D01*
X97840914Y-98071718D01*
X97953518Y-98134650D01*
X98131543Y-98192494D01*
X98317414Y-98214658D01*
X98323549Y-98214186D01*
X98323551Y-98214186D01*
X98497908Y-98200770D01*
X98497913Y-98200769D01*
X98504049Y-98200297D01*
X98509984Y-98198640D01*
X98561851Y-98184159D01*
X98632841Y-98185106D01*
X98692050Y-98224282D01*
X98720679Y-98289251D01*
X98717511Y-98337070D01*
X98714956Y-98343238D01*
X98713879Y-98351422D01*
X98713878Y-98351424D01*
X98699698Y-98459132D01*
X98694318Y-98500000D01*
X98714956Y-98656762D01*
X98775464Y-98802841D01*
X98828765Y-98872304D01*
X98829526Y-98873296D01*
X98855126Y-98939516D01*
X98840861Y-99009065D01*
X98829527Y-99026703D01*
X98775464Y-99097159D01*
X98714956Y-99243238D01*
X98694318Y-99400000D01*
X98714956Y-99556762D01*
X98775464Y-99702841D01*
X98791859Y-99724207D01*
X98850017Y-99800000D01*
X98871718Y-99828282D01*
X98878264Y-99833305D01*
X98880559Y-99835066D01*
X98997159Y-99924536D01*
X99143238Y-99985044D01*
X99151426Y-99986122D01*
X99186154Y-99990694D01*
X99300000Y-100005682D01*
X99308188Y-100004604D01*
X99448574Y-99986122D01*
X99456762Y-99985044D01*
X99602841Y-99924536D01*
X99719441Y-99835066D01*
X99721736Y-99833305D01*
X99728282Y-99828282D01*
X99749984Y-99800000D01*
X99808141Y-99724207D01*
X99824536Y-99702841D01*
X99885044Y-99556762D01*
X99905682Y-99400000D01*
X99885044Y-99243238D01*
X99824536Y-99097159D01*
X99770474Y-99026704D01*
X99744874Y-98960484D01*
X99759139Y-98890935D01*
X99770474Y-98873296D01*
X99771235Y-98872304D01*
X99824536Y-98802841D01*
X99885044Y-98656762D01*
X99905682Y-98500000D01*
X99885044Y-98343238D01*
X99824536Y-98197159D01*
X99728282Y-98071718D01*
X99602841Y-97975464D01*
X99456762Y-97914956D01*
X99300000Y-97894318D01*
X99291812Y-97895396D01*
X99288430Y-97895396D01*
X99220309Y-97875394D01*
X99173816Y-97821738D01*
X99163712Y-97751464D01*
X99178874Y-97707159D01*
X99213698Y-97645858D01*
X99272783Y-97468241D01*
X99296244Y-97282530D01*
X99296618Y-97255750D01*
X99278352Y-97069456D01*
X99224249Y-96890259D01*
X99210123Y-96863691D01*
X99139264Y-96730424D01*
X99139262Y-96730421D01*
X99136370Y-96724982D01*
X99132480Y-96720212D01*
X99132477Y-96720208D01*
X99021957Y-96584698D01*
X99021954Y-96584695D01*
X99018062Y-96579923D01*
X99007134Y-96570882D01*
X98878581Y-96464534D01*
X98873832Y-96460605D01*
X98709173Y-96371574D01*
X98594192Y-96335982D01*
X98536244Y-96318044D01*
X98536241Y-96318043D01*
X98530357Y-96316222D01*
X98524232Y-96315578D01*
X98524231Y-96315578D01*
X98350324Y-96297299D01*
X98350323Y-96297299D01*
X98344196Y-96296655D01*
X98267643Y-96303622D01*
X98163918Y-96313062D01*
X98163915Y-96313063D01*
X98157779Y-96313621D01*
X98151873Y-96315359D01*
X98151869Y-96315360D01*
X98016575Y-96355179D01*
X97978208Y-96366471D01*
X97812322Y-96453194D01*
X97807522Y-96457054D01*
X97807521Y-96457054D01*
X97798218Y-96464534D01*
X97666440Y-96570486D01*
X97546119Y-96713880D01*
X97543155Y-96719272D01*
X97543152Y-96719276D01*
X97495918Y-96805195D01*
X97455941Y-96877913D01*
X97454080Y-96883780D01*
X97454079Y-96883782D01*
X97450153Y-96896159D01*
X97399341Y-97056338D01*
X97378475Y-97242359D01*
X93680500Y-97242359D01*
X93680500Y-95956590D01*
X95358211Y-95956590D01*
X95358568Y-95963406D01*
X95358568Y-95963411D01*
X95363364Y-96054910D01*
X95368167Y-96146551D01*
X95409512Y-96296655D01*
X95415404Y-96318044D01*
X95418681Y-96329943D01*
X95507398Y-96498210D01*
X95630178Y-96643501D01*
X95635602Y-96647648D01*
X95635603Y-96647649D01*
X95775872Y-96754893D01*
X95775876Y-96754896D01*
X95781293Y-96759037D01*
X95953693Y-96839428D01*
X96036221Y-96857875D01*
X96134290Y-96879797D01*
X96134296Y-96879798D01*
X96139334Y-96880924D01*
X96145165Y-96881250D01*
X96285017Y-96881250D01*
X96426609Y-96865868D01*
X96606896Y-96805195D01*
X96769947Y-96707224D01*
X96850208Y-96631325D01*
X96903204Y-96581210D01*
X96903205Y-96581209D01*
X96908158Y-96576525D01*
X96957835Y-96503427D01*
X97011244Y-96424838D01*
X97011245Y-96424836D01*
X97015078Y-96419196D01*
X97034855Y-96369752D01*
X97083185Y-96248918D01*
X97083186Y-96248916D01*
X97085721Y-96242577D01*
X97116789Y-96054910D01*
X97111994Y-95963411D01*
X97107190Y-95871762D01*
X97106833Y-95864949D01*
X97056319Y-95681557D01*
X96967602Y-95513290D01*
X96844822Y-95367999D01*
X96839397Y-95363851D01*
X96699128Y-95256607D01*
X96699124Y-95256604D01*
X96693707Y-95252463D01*
X96521307Y-95172072D01*
X96428026Y-95151221D01*
X96340710Y-95131703D01*
X96340704Y-95131702D01*
X96335666Y-95130576D01*
X96329835Y-95130250D01*
X96189983Y-95130250D01*
X96048391Y-95145632D01*
X95868104Y-95206305D01*
X95705053Y-95304276D01*
X95632154Y-95373213D01*
X95576329Y-95426004D01*
X95566842Y-95434975D01*
X95563007Y-95440618D01*
X95491162Y-95546336D01*
X95459922Y-95592304D01*
X95457390Y-95598633D01*
X95457389Y-95598636D01*
X95391815Y-95762582D01*
X95389279Y-95768923D01*
X95358211Y-95956590D01*
X93680500Y-95956590D01*
X93680500Y-94742359D01*
X97378475Y-94742359D01*
X97394139Y-94928889D01*
X97445735Y-95108825D01*
X97448550Y-95114302D01*
X97448551Y-95114305D01*
X97503138Y-95220520D01*
X97531297Y-95275312D01*
X97535120Y-95280136D01*
X97535123Y-95280140D01*
X97641039Y-95413771D01*
X97647568Y-95422009D01*
X97652262Y-95426004D01*
X97761921Y-95519331D01*
X97790118Y-95543329D01*
X97795496Y-95546335D01*
X97795498Y-95546336D01*
X97829896Y-95565560D01*
X97953518Y-95634650D01*
X98131543Y-95692494D01*
X98317414Y-95714658D01*
X98323549Y-95714186D01*
X98323551Y-95714186D01*
X98497908Y-95700770D01*
X98497913Y-95700769D01*
X98504049Y-95700297D01*
X98509979Y-95698641D01*
X98509981Y-95698641D01*
X98622864Y-95667123D01*
X98684341Y-95649959D01*
X98686631Y-95648802D01*
X107344318Y-95648802D01*
X107364956Y-95805564D01*
X107425464Y-95951643D01*
X107521718Y-96077084D01*
X107647159Y-96173338D01*
X107793238Y-96233846D01*
X107950000Y-96254484D01*
X107958188Y-96253406D01*
X108098574Y-96234924D01*
X108106762Y-96233846D01*
X108252841Y-96173338D01*
X108378282Y-96077084D01*
X108474536Y-95951643D01*
X108535044Y-95805564D01*
X108555682Y-95648802D01*
X108535044Y-95492040D01*
X108474536Y-95345961D01*
X108378282Y-95220520D01*
X108356920Y-95204128D01*
X108313203Y-95170583D01*
X108252841Y-95124266D01*
X108106762Y-95063758D01*
X107950000Y-95043120D01*
X107793238Y-95063758D01*
X107647159Y-95124266D01*
X107586797Y-95170583D01*
X107543081Y-95204128D01*
X107521718Y-95220520D01*
X107425464Y-95345961D01*
X107364956Y-95492040D01*
X107344318Y-95648802D01*
X98686631Y-95648802D01*
X98714648Y-95634650D01*
X98798477Y-95592304D01*
X98851421Y-95565560D01*
X98879876Y-95543329D01*
X98994071Y-95454110D01*
X98994072Y-95454110D01*
X98998927Y-95450316D01*
X99121238Y-95308617D01*
X99213698Y-95145858D01*
X99272783Y-94968241D01*
X99296244Y-94782530D01*
X99296618Y-94755750D01*
X99278352Y-94569456D01*
X99224249Y-94390259D01*
X99155954Y-94261814D01*
X99139264Y-94230424D01*
X99139262Y-94230421D01*
X99136370Y-94224982D01*
X99132480Y-94220212D01*
X99132477Y-94220208D01*
X99029399Y-94093823D01*
X113344391Y-94093823D01*
X113345555Y-94102725D01*
X113345555Y-94102728D01*
X113346814Y-94112354D01*
X113362980Y-94235979D01*
X113420720Y-94367203D01*
X113426497Y-94374076D01*
X113426498Y-94374077D01*
X113445060Y-94396159D01*
X113512970Y-94476948D01*
X113520447Y-94481925D01*
X113623417Y-94550468D01*
X113632313Y-94556390D01*
X113769157Y-94599142D01*
X113778129Y-94599306D01*
X113778132Y-94599307D01*
X113843463Y-94600504D01*
X113912499Y-94601770D01*
X113921533Y-94599307D01*
X114042158Y-94566421D01*
X114042160Y-94566420D01*
X114050817Y-94564060D01*
X114172991Y-94489045D01*
X114269200Y-94382754D01*
X114331710Y-94253733D01*
X114355496Y-94112354D01*
X114355647Y-94100000D01*
X114354762Y-94093823D01*
X114619391Y-94093823D01*
X114620555Y-94102725D01*
X114620555Y-94102728D01*
X114621814Y-94112354D01*
X114637980Y-94235979D01*
X114695720Y-94367203D01*
X114701497Y-94374076D01*
X114701498Y-94374077D01*
X114720060Y-94396159D01*
X114787970Y-94476948D01*
X114795447Y-94481925D01*
X114898417Y-94550468D01*
X114907313Y-94556390D01*
X115044157Y-94599142D01*
X115053129Y-94599306D01*
X115053132Y-94599307D01*
X115118463Y-94600504D01*
X115187499Y-94601770D01*
X115196533Y-94599307D01*
X115317158Y-94566421D01*
X115317160Y-94566420D01*
X115325817Y-94564060D01*
X115447991Y-94489045D01*
X115544200Y-94382754D01*
X115606710Y-94253733D01*
X115630496Y-94112354D01*
X115630647Y-94100000D01*
X115629762Y-94093823D01*
X115894391Y-94093823D01*
X115895555Y-94102725D01*
X115895555Y-94102728D01*
X115896814Y-94112354D01*
X115912980Y-94235979D01*
X115970720Y-94367203D01*
X115976497Y-94374076D01*
X115976498Y-94374077D01*
X115995060Y-94396159D01*
X116062970Y-94476948D01*
X116070447Y-94481925D01*
X116173417Y-94550468D01*
X116182313Y-94556390D01*
X116319157Y-94599142D01*
X116328129Y-94599306D01*
X116328132Y-94599307D01*
X116393463Y-94600504D01*
X116462499Y-94601770D01*
X116471533Y-94599307D01*
X116592158Y-94566421D01*
X116592160Y-94566420D01*
X116600817Y-94564060D01*
X116722991Y-94489045D01*
X116819200Y-94382754D01*
X116881710Y-94253733D01*
X116905496Y-94112354D01*
X116905647Y-94100000D01*
X116897473Y-94042924D01*
X116886596Y-93966968D01*
X116886595Y-93966965D01*
X116885323Y-93958082D01*
X116825984Y-93827572D01*
X116795106Y-93791736D01*
X116738260Y-93725763D01*
X116738257Y-93725760D01*
X116732400Y-93718963D01*
X116612095Y-93640985D01*
X116474739Y-93599907D01*
X116465763Y-93599852D01*
X116465762Y-93599852D01*
X116405555Y-93599484D01*
X116331376Y-93599031D01*
X116193529Y-93638428D01*
X116072280Y-93714930D01*
X116066338Y-93721658D01*
X116066337Y-93721659D01*
X116024829Y-93768659D01*
X115977377Y-93822388D01*
X115916447Y-93952163D01*
X115915066Y-93961035D01*
X115895812Y-94084698D01*
X115894391Y-94093823D01*
X115629762Y-94093823D01*
X115622473Y-94042924D01*
X115611596Y-93966968D01*
X115611595Y-93966965D01*
X115610323Y-93958082D01*
X115550984Y-93827572D01*
X115520106Y-93791736D01*
X115463260Y-93725763D01*
X115463257Y-93725760D01*
X115457400Y-93718963D01*
X115337095Y-93640985D01*
X115199739Y-93599907D01*
X115190763Y-93599852D01*
X115190762Y-93599852D01*
X115130555Y-93599484D01*
X115056376Y-93599031D01*
X114918529Y-93638428D01*
X114797280Y-93714930D01*
X114791338Y-93721658D01*
X114791337Y-93721659D01*
X114749829Y-93768659D01*
X114702377Y-93822388D01*
X114641447Y-93952163D01*
X114640066Y-93961035D01*
X114620812Y-94084698D01*
X114619391Y-94093823D01*
X114354762Y-94093823D01*
X114347473Y-94042924D01*
X114336596Y-93966968D01*
X114336595Y-93966965D01*
X114335323Y-93958082D01*
X114275984Y-93827572D01*
X114245106Y-93791736D01*
X114188260Y-93725763D01*
X114188257Y-93725760D01*
X114182400Y-93718963D01*
X114062095Y-93640985D01*
X113924739Y-93599907D01*
X113915763Y-93599852D01*
X113915762Y-93599852D01*
X113855555Y-93599484D01*
X113781376Y-93599031D01*
X113643529Y-93638428D01*
X113522280Y-93714930D01*
X113516338Y-93721658D01*
X113516337Y-93721659D01*
X113474829Y-93768659D01*
X113427377Y-93822388D01*
X113366447Y-93952163D01*
X113365066Y-93961035D01*
X113345812Y-94084698D01*
X113344391Y-94093823D01*
X99029399Y-94093823D01*
X99021957Y-94084698D01*
X99021954Y-94084695D01*
X99018062Y-94079923D01*
X98873832Y-93960605D01*
X98709173Y-93871574D01*
X98706065Y-93870612D01*
X98651798Y-93826414D01*
X98629728Y-93758936D01*
X98647642Y-93690236D01*
X98698858Y-93642626D01*
X98747186Y-93618213D01*
X98851421Y-93565560D01*
X98879876Y-93543329D01*
X98994071Y-93454110D01*
X98994072Y-93454110D01*
X98998927Y-93450316D01*
X99098987Y-93334395D01*
X99117209Y-93313285D01*
X99117210Y-93313283D01*
X99121238Y-93308617D01*
X99213698Y-93145858D01*
X99272783Y-92968241D01*
X99280632Y-92906113D01*
X106596162Y-92906113D01*
X106616800Y-93062875D01*
X106677308Y-93208954D01*
X106682335Y-93215505D01*
X106767585Y-93326605D01*
X106773562Y-93334395D01*
X106899003Y-93430649D01*
X107045082Y-93491157D01*
X107201844Y-93511795D01*
X107210032Y-93510717D01*
X107350418Y-93492235D01*
X107358606Y-93491157D01*
X107504685Y-93430649D01*
X107583725Y-93370000D01*
X121764318Y-93370000D01*
X121765396Y-93378188D01*
X121779853Y-93487997D01*
X121784956Y-93526762D01*
X121845464Y-93672841D01*
X121941718Y-93798282D01*
X122067159Y-93894536D01*
X122186662Y-93944036D01*
X122201882Y-93950340D01*
X122213238Y-93955044D01*
X122221426Y-93956122D01*
X122236314Y-93958082D01*
X122370000Y-93975682D01*
X122378188Y-93974604D01*
X122518574Y-93956122D01*
X122526762Y-93955044D01*
X122538119Y-93950340D01*
X122553338Y-93944036D01*
X122672841Y-93894536D01*
X122798282Y-93798282D01*
X122894536Y-93672841D01*
X122955044Y-93526762D01*
X122960148Y-93487997D01*
X122974604Y-93378188D01*
X122975682Y-93370000D01*
X122955044Y-93213238D01*
X122894536Y-93067159D01*
X122798282Y-92941718D01*
X122672841Y-92845464D01*
X122526762Y-92784956D01*
X122481560Y-92779005D01*
X122378188Y-92765396D01*
X122370000Y-92764318D01*
X122361812Y-92765396D01*
X122258441Y-92779005D01*
X122213238Y-92784956D01*
X122067159Y-92845464D01*
X121941718Y-92941718D01*
X121845464Y-93067159D01*
X121784956Y-93213238D01*
X121764318Y-93370000D01*
X107583725Y-93370000D01*
X107630126Y-93334395D01*
X107636104Y-93326605D01*
X107721353Y-93215505D01*
X107726380Y-93208954D01*
X107786888Y-93062875D01*
X107807526Y-92906113D01*
X107796034Y-92818823D01*
X113344391Y-92818823D01*
X113345555Y-92827725D01*
X113345555Y-92827728D01*
X113348532Y-92850491D01*
X113362980Y-92960979D01*
X113366597Y-92969199D01*
X113404213Y-93054687D01*
X113420720Y-93092203D01*
X113426497Y-93099076D01*
X113426498Y-93099077D01*
X113507190Y-93195072D01*
X113512970Y-93201948D01*
X113632313Y-93281390D01*
X113769157Y-93324142D01*
X113778129Y-93324306D01*
X113778132Y-93324307D01*
X113843463Y-93325504D01*
X113912499Y-93326770D01*
X113921533Y-93324307D01*
X114042158Y-93291421D01*
X114042160Y-93291420D01*
X114050817Y-93289060D01*
X114172991Y-93214045D01*
X114184506Y-93201324D01*
X114263178Y-93114407D01*
X114269200Y-93107754D01*
X114331710Y-92978733D01*
X114355496Y-92837354D01*
X114355647Y-92825000D01*
X114354762Y-92818823D01*
X114619391Y-92818823D01*
X114620555Y-92827725D01*
X114620555Y-92827728D01*
X114623532Y-92850491D01*
X114637980Y-92960979D01*
X114641597Y-92969199D01*
X114679213Y-93054687D01*
X114695720Y-93092203D01*
X114701497Y-93099076D01*
X114701498Y-93099077D01*
X114782190Y-93195072D01*
X114787970Y-93201948D01*
X114907313Y-93281390D01*
X115044157Y-93324142D01*
X115053129Y-93324306D01*
X115053132Y-93324307D01*
X115118463Y-93325504D01*
X115187499Y-93326770D01*
X115196533Y-93324307D01*
X115317158Y-93291421D01*
X115317160Y-93291420D01*
X115325817Y-93289060D01*
X115447991Y-93214045D01*
X115459506Y-93201324D01*
X115538178Y-93114407D01*
X115544200Y-93107754D01*
X115606710Y-92978733D01*
X115630496Y-92837354D01*
X115630647Y-92825000D01*
X115629762Y-92818823D01*
X115894391Y-92818823D01*
X115895555Y-92827725D01*
X115895555Y-92827728D01*
X115898532Y-92850491D01*
X115912980Y-92960979D01*
X115916597Y-92969199D01*
X115954213Y-93054687D01*
X115970720Y-93092203D01*
X115976497Y-93099076D01*
X115976498Y-93099077D01*
X116057190Y-93195072D01*
X116062970Y-93201948D01*
X116182313Y-93281390D01*
X116319157Y-93324142D01*
X116328129Y-93324306D01*
X116328132Y-93324307D01*
X116393463Y-93325504D01*
X116462499Y-93326770D01*
X116471533Y-93324307D01*
X116592158Y-93291421D01*
X116592160Y-93291420D01*
X116600817Y-93289060D01*
X116722991Y-93214045D01*
X116734506Y-93201324D01*
X116813178Y-93114407D01*
X116819200Y-93107754D01*
X116881710Y-92978733D01*
X116905496Y-92837354D01*
X116905647Y-92825000D01*
X116885323Y-92683082D01*
X116825984Y-92552572D01*
X116807598Y-92531234D01*
X116738260Y-92450763D01*
X116738257Y-92450760D01*
X116732400Y-92443963D01*
X116612095Y-92365985D01*
X116474739Y-92324907D01*
X116465763Y-92324852D01*
X116465762Y-92324852D01*
X116405555Y-92324484D01*
X116331376Y-92324031D01*
X116193529Y-92363428D01*
X116072280Y-92439930D01*
X115977377Y-92547388D01*
X115916447Y-92677163D01*
X115915066Y-92686035D01*
X115900042Y-92782530D01*
X115894391Y-92818823D01*
X115629762Y-92818823D01*
X115610323Y-92683082D01*
X115550984Y-92552572D01*
X115532598Y-92531234D01*
X115463260Y-92450763D01*
X115463257Y-92450760D01*
X115457400Y-92443963D01*
X115337095Y-92365985D01*
X115199739Y-92324907D01*
X115190763Y-92324852D01*
X115190762Y-92324852D01*
X115130555Y-92324484D01*
X115056376Y-92324031D01*
X114918529Y-92363428D01*
X114797280Y-92439930D01*
X114702377Y-92547388D01*
X114641447Y-92677163D01*
X114640066Y-92686035D01*
X114625042Y-92782530D01*
X114619391Y-92818823D01*
X114354762Y-92818823D01*
X114335323Y-92683082D01*
X114275984Y-92552572D01*
X114257598Y-92531234D01*
X114188260Y-92450763D01*
X114188257Y-92450760D01*
X114182400Y-92443963D01*
X114062095Y-92365985D01*
X113924739Y-92324907D01*
X113915763Y-92324852D01*
X113915762Y-92324852D01*
X113855555Y-92324484D01*
X113781376Y-92324031D01*
X113643529Y-92363428D01*
X113522280Y-92439930D01*
X113427377Y-92547388D01*
X113366447Y-92677163D01*
X113365066Y-92686035D01*
X113350042Y-92782530D01*
X113344391Y-92818823D01*
X107796034Y-92818823D01*
X107794866Y-92809950D01*
X107787966Y-92757539D01*
X107786888Y-92749351D01*
X107726380Y-92603272D01*
X107630126Y-92477831D01*
X107504685Y-92381577D01*
X107376897Y-92328645D01*
X107366235Y-92324229D01*
X107358606Y-92321069D01*
X107201844Y-92300431D01*
X107045082Y-92321069D01*
X107037453Y-92324229D01*
X107026791Y-92328645D01*
X106899003Y-92381577D01*
X106773562Y-92477831D01*
X106677308Y-92603272D01*
X106616800Y-92749351D01*
X106615722Y-92757539D01*
X106608822Y-92809950D01*
X106596162Y-92906113D01*
X99280632Y-92906113D01*
X99296244Y-92782530D01*
X99296618Y-92755750D01*
X99278352Y-92569456D01*
X99224249Y-92390259D01*
X99199938Y-92344536D01*
X99139264Y-92230424D01*
X99139262Y-92230421D01*
X99136370Y-92224982D01*
X99132480Y-92220212D01*
X99132477Y-92220208D01*
X99021957Y-92084698D01*
X99021954Y-92084695D01*
X99018062Y-92079923D01*
X99007134Y-92070882D01*
X98878581Y-91964534D01*
X98873832Y-91960605D01*
X98709173Y-91871574D01*
X98583764Y-91832754D01*
X98536244Y-91818044D01*
X98536241Y-91818043D01*
X98530357Y-91816222D01*
X98524232Y-91815578D01*
X98524231Y-91815578D01*
X98350324Y-91797299D01*
X98350323Y-91797299D01*
X98344196Y-91796655D01*
X98267643Y-91803622D01*
X98163918Y-91813062D01*
X98163915Y-91813063D01*
X98157779Y-91813621D01*
X98151873Y-91815359D01*
X98151869Y-91815360D01*
X98016575Y-91855179D01*
X97978208Y-91866471D01*
X97812322Y-91953194D01*
X97807522Y-91957054D01*
X97807521Y-91957054D01*
X97798218Y-91964534D01*
X97666440Y-92070486D01*
X97546119Y-92213880D01*
X97543155Y-92219272D01*
X97543152Y-92219276D01*
X97485081Y-92324907D01*
X97455941Y-92377913D01*
X97454080Y-92383780D01*
X97454079Y-92383782D01*
X97425838Y-92472808D01*
X97399341Y-92556338D01*
X97378475Y-92742359D01*
X97394139Y-92928889D01*
X97395838Y-92934814D01*
X97442940Y-93099077D01*
X97445735Y-93108825D01*
X97448550Y-93114302D01*
X97448551Y-93114305D01*
X97528482Y-93269835D01*
X97531297Y-93275312D01*
X97535120Y-93280136D01*
X97535123Y-93280140D01*
X97582107Y-93339418D01*
X97647568Y-93422009D01*
X97790118Y-93543329D01*
X97795496Y-93546335D01*
X97795498Y-93546336D01*
X97829896Y-93565560D01*
X97953518Y-93634650D01*
X97959379Y-93636554D01*
X97965027Y-93639022D01*
X97964287Y-93640715D01*
X98015743Y-93675896D01*
X98043383Y-93741291D01*
X98031280Y-93811249D01*
X97983276Y-93863557D01*
X97976580Y-93867322D01*
X97968447Y-93871574D01*
X97812322Y-93953194D01*
X97807522Y-93957054D01*
X97807521Y-93957054D01*
X97773359Y-93984521D01*
X97666440Y-94070486D01*
X97546119Y-94213880D01*
X97543155Y-94219272D01*
X97543152Y-94219276D01*
X97519767Y-94261814D01*
X97455941Y-94377913D01*
X97454080Y-94383780D01*
X97454079Y-94383782D01*
X97450153Y-94396159D01*
X97399341Y-94556338D01*
X97378475Y-94742359D01*
X93680500Y-94742359D01*
X93680500Y-91456590D01*
X95358211Y-91456590D01*
X95358568Y-91463406D01*
X95358568Y-91463411D01*
X95363361Y-91554859D01*
X95368167Y-91646551D01*
X95386143Y-91711814D01*
X95415404Y-91818044D01*
X95418681Y-91829943D01*
X95507398Y-91998210D01*
X95630178Y-92143501D01*
X95635602Y-92147648D01*
X95635603Y-92147649D01*
X95775872Y-92254893D01*
X95775876Y-92254896D01*
X95781293Y-92259037D01*
X95953693Y-92339428D01*
X96036221Y-92357875D01*
X96134290Y-92379797D01*
X96134296Y-92379798D01*
X96139334Y-92380924D01*
X96145165Y-92381250D01*
X96285017Y-92381250D01*
X96426609Y-92365868D01*
X96606896Y-92305195D01*
X96769947Y-92207224D01*
X96859180Y-92122841D01*
X96903204Y-92081210D01*
X96903205Y-92081209D01*
X96908158Y-92076525D01*
X96928587Y-92046464D01*
X97011244Y-91924838D01*
X97011245Y-91924836D01*
X97015078Y-91919196D01*
X97034855Y-91869752D01*
X97083185Y-91748918D01*
X97083186Y-91748916D01*
X97085721Y-91742577D01*
X97116789Y-91554910D01*
X97116280Y-91545184D01*
X97116209Y-91543823D01*
X113344391Y-91543823D01*
X113345555Y-91552725D01*
X113345555Y-91552728D01*
X113346814Y-91562354D01*
X113362980Y-91685979D01*
X113420720Y-91817203D01*
X113426497Y-91824076D01*
X113426498Y-91824077D01*
X113429954Y-91828188D01*
X113512970Y-91926948D01*
X113632313Y-92006390D01*
X113769157Y-92049142D01*
X113778129Y-92049306D01*
X113778132Y-92049307D01*
X113843463Y-92050504D01*
X113912499Y-92051770D01*
X113921533Y-92049307D01*
X114042158Y-92016421D01*
X114042160Y-92016420D01*
X114050817Y-92014060D01*
X114172991Y-91939045D01*
X114185851Y-91924838D01*
X114263178Y-91839407D01*
X114269200Y-91832754D01*
X114331710Y-91703733D01*
X114355496Y-91562354D01*
X114355647Y-91550000D01*
X114354762Y-91543823D01*
X114619391Y-91543823D01*
X114620555Y-91552725D01*
X114620555Y-91552728D01*
X114621814Y-91562354D01*
X114637980Y-91685979D01*
X114695720Y-91817203D01*
X114701497Y-91824076D01*
X114701498Y-91824077D01*
X114704954Y-91828188D01*
X114787970Y-91926948D01*
X114907313Y-92006390D01*
X115044157Y-92049142D01*
X115053129Y-92049306D01*
X115053132Y-92049307D01*
X115118463Y-92050504D01*
X115187499Y-92051770D01*
X115196533Y-92049307D01*
X115317158Y-92016421D01*
X115317160Y-92016420D01*
X115325817Y-92014060D01*
X115447991Y-91939045D01*
X115460851Y-91924838D01*
X115538178Y-91839407D01*
X115544200Y-91832754D01*
X115606710Y-91703733D01*
X115630496Y-91562354D01*
X115630647Y-91550000D01*
X115629762Y-91543823D01*
X115894391Y-91543823D01*
X115895555Y-91552725D01*
X115895555Y-91552728D01*
X115896814Y-91562354D01*
X115912980Y-91685979D01*
X115970720Y-91817203D01*
X115976497Y-91824076D01*
X115976498Y-91824077D01*
X115979954Y-91828188D01*
X116062970Y-91926948D01*
X116182313Y-92006390D01*
X116319157Y-92049142D01*
X116328129Y-92049306D01*
X116328132Y-92049307D01*
X116393463Y-92050504D01*
X116462499Y-92051770D01*
X116471533Y-92049307D01*
X116592158Y-92016421D01*
X116592160Y-92016420D01*
X116600817Y-92014060D01*
X116722991Y-91939045D01*
X116735851Y-91924838D01*
X116813178Y-91839407D01*
X116819200Y-91832754D01*
X116881710Y-91703733D01*
X116905496Y-91562354D01*
X116905647Y-91550000D01*
X116885323Y-91408082D01*
X116878955Y-91394075D01*
X116856922Y-91345617D01*
X116825984Y-91277572D01*
X116774143Y-91217408D01*
X116738260Y-91175763D01*
X116738257Y-91175760D01*
X116732400Y-91168963D01*
X116612095Y-91090985D01*
X116474739Y-91049907D01*
X116465763Y-91049852D01*
X116465762Y-91049852D01*
X116405555Y-91049484D01*
X116331376Y-91049031D01*
X116193529Y-91088428D01*
X116072280Y-91164930D01*
X116066338Y-91171658D01*
X116066337Y-91171659D01*
X116042529Y-91198617D01*
X115977377Y-91272388D01*
X115916447Y-91402163D01*
X115915066Y-91411035D01*
X115897355Y-91524789D01*
X115894391Y-91543823D01*
X115629762Y-91543823D01*
X115610323Y-91408082D01*
X115603955Y-91394075D01*
X115581922Y-91345617D01*
X115550984Y-91277572D01*
X115499143Y-91217408D01*
X115463260Y-91175763D01*
X115463257Y-91175760D01*
X115457400Y-91168963D01*
X115337095Y-91090985D01*
X115199739Y-91049907D01*
X115190763Y-91049852D01*
X115190762Y-91049852D01*
X115130555Y-91049484D01*
X115056376Y-91049031D01*
X114918529Y-91088428D01*
X114797280Y-91164930D01*
X114791338Y-91171658D01*
X114791337Y-91171659D01*
X114767529Y-91198617D01*
X114702377Y-91272388D01*
X114641447Y-91402163D01*
X114640066Y-91411035D01*
X114622355Y-91524789D01*
X114619391Y-91543823D01*
X114354762Y-91543823D01*
X114335323Y-91408082D01*
X114328955Y-91394075D01*
X114306922Y-91345617D01*
X114275984Y-91277572D01*
X114224143Y-91217408D01*
X114188260Y-91175763D01*
X114188257Y-91175760D01*
X114182400Y-91168963D01*
X114062095Y-91090985D01*
X113924739Y-91049907D01*
X113915763Y-91049852D01*
X113915762Y-91049852D01*
X113855555Y-91049484D01*
X113781376Y-91049031D01*
X113643529Y-91088428D01*
X113522280Y-91164930D01*
X113516338Y-91171658D01*
X113516337Y-91171659D01*
X113492529Y-91198617D01*
X113427377Y-91272388D01*
X113366447Y-91402163D01*
X113365066Y-91411035D01*
X113347355Y-91524789D01*
X113344391Y-91543823D01*
X97116209Y-91543823D01*
X97107190Y-91371762D01*
X97106833Y-91364949D01*
X97056319Y-91181557D01*
X96976147Y-91029498D01*
X97383000Y-91029498D01*
X97394633Y-91087981D01*
X97438948Y-91154302D01*
X97505269Y-91198617D01*
X97517438Y-91201038D01*
X97517439Y-91201038D01*
X97557684Y-91209043D01*
X97563752Y-91210250D01*
X99111248Y-91210250D01*
X99117316Y-91209043D01*
X99157561Y-91201038D01*
X99157562Y-91201038D01*
X99169731Y-91198617D01*
X99236052Y-91154302D01*
X99280367Y-91087981D01*
X99292000Y-91029498D01*
X99292000Y-89482002D01*
X99280367Y-89423519D01*
X99236052Y-89357198D01*
X99169731Y-89312883D01*
X99157562Y-89310462D01*
X99157561Y-89310462D01*
X99117316Y-89302457D01*
X99111248Y-89301250D01*
X97563752Y-89301250D01*
X97557684Y-89302457D01*
X97517439Y-89310462D01*
X97517438Y-89310462D01*
X97505269Y-89312883D01*
X97438948Y-89357198D01*
X97394633Y-89423519D01*
X97383000Y-89482002D01*
X97383000Y-91029498D01*
X96976147Y-91029498D01*
X96967602Y-91013290D01*
X96844822Y-90867999D01*
X96832495Y-90858574D01*
X96699128Y-90756607D01*
X96699124Y-90756604D01*
X96693707Y-90752463D01*
X96521307Y-90672072D01*
X96438779Y-90653625D01*
X96340710Y-90631703D01*
X96340704Y-90631702D01*
X96335666Y-90630576D01*
X96329835Y-90630250D01*
X96189983Y-90630250D01*
X96048391Y-90645632D01*
X95868104Y-90706305D01*
X95705053Y-90804276D01*
X95566842Y-90934975D01*
X95563007Y-90940618D01*
X95471131Y-91075811D01*
X95459922Y-91092304D01*
X95457390Y-91098633D01*
X95457389Y-91098636D01*
X95394746Y-91255254D01*
X95389279Y-91268923D01*
X95374471Y-91358372D01*
X95365753Y-91411035D01*
X95358211Y-91456590D01*
X93680500Y-91456590D01*
X93680500Y-88613791D01*
X93700502Y-88545670D01*
X93754158Y-88499177D01*
X93824432Y-88489073D01*
X93883204Y-88513828D01*
X93897159Y-88524536D01*
X94043238Y-88585044D01*
X94051426Y-88586122D01*
X94063382Y-88587696D01*
X94200000Y-88605682D01*
X94208188Y-88604604D01*
X94348574Y-88586122D01*
X94356762Y-88585044D01*
X94463864Y-88540681D01*
X94534452Y-88533092D01*
X94597939Y-88564871D01*
X94619162Y-88590687D01*
X94663181Y-88661682D01*
X94801091Y-88807518D01*
X94806321Y-88811180D01*
X94806322Y-88811181D01*
X94921341Y-88891718D01*
X94965509Y-88922645D01*
X95064405Y-88965441D01*
X95143857Y-88999823D01*
X95143859Y-88999824D01*
X95149718Y-89002359D01*
X95155968Y-89003665D01*
X95155969Y-89003665D01*
X95341448Y-89042414D01*
X95341452Y-89042414D01*
X95346193Y-89043405D01*
X95351032Y-89043659D01*
X95351035Y-89043659D01*
X95351059Y-89043660D01*
X95352776Y-89043750D01*
X95624361Y-89043750D01*
X95692482Y-89063752D01*
X95738975Y-89117408D01*
X95749079Y-89187682D01*
X95735422Y-89227142D01*
X95735464Y-89227159D01*
X95732306Y-89234783D01*
X95700400Y-89311812D01*
X95674956Y-89373238D01*
X95654318Y-89530000D01*
X95674956Y-89686762D01*
X95735464Y-89832841D01*
X95831718Y-89958282D01*
X95957159Y-90054536D01*
X96103238Y-90115044D01*
X96260000Y-90135682D01*
X96268188Y-90134604D01*
X96408574Y-90116122D01*
X96416762Y-90115044D01*
X96562841Y-90054536D01*
X96688282Y-89958282D01*
X96784536Y-89832841D01*
X96845044Y-89686762D01*
X96865682Y-89530000D01*
X96845044Y-89373238D01*
X96819601Y-89311812D01*
X96787694Y-89234783D01*
X96784536Y-89227159D01*
X96785106Y-89226923D01*
X96769782Y-89163750D01*
X96793005Y-89096659D01*
X96848814Y-89052774D01*
X96895639Y-89043750D01*
X97075159Y-89043750D01*
X97149696Y-89036179D01*
X97218340Y-89029206D01*
X97218341Y-89029206D01*
X97224689Y-89028561D01*
X97347739Y-88990000D01*
X102544318Y-88990000D01*
X102564956Y-89146762D01*
X102625464Y-89292841D01*
X102721718Y-89418282D01*
X102847159Y-89514536D01*
X102993238Y-89575044D01*
X103150000Y-89595682D01*
X103158188Y-89594604D01*
X103298574Y-89576122D01*
X103306762Y-89575044D01*
X103452841Y-89514536D01*
X103578282Y-89418282D01*
X103674536Y-89292841D01*
X103735044Y-89146762D01*
X103755682Y-88990000D01*
X103735044Y-88833238D01*
X103674536Y-88687159D01*
X103593756Y-88581884D01*
X103583305Y-88568264D01*
X103578282Y-88561718D01*
X103452841Y-88465464D01*
X103306762Y-88404956D01*
X103150000Y-88384318D01*
X102993238Y-88404956D01*
X102847159Y-88465464D01*
X102721718Y-88561718D01*
X102716695Y-88568264D01*
X102706244Y-88581884D01*
X102625464Y-88687159D01*
X102564956Y-88833238D01*
X102544318Y-88990000D01*
X97347739Y-88990000D01*
X97416222Y-88968539D01*
X97591773Y-88871229D01*
X97744171Y-88740608D01*
X97826055Y-88635044D01*
X97863280Y-88587054D01*
X97863282Y-88587051D01*
X97867192Y-88582010D01*
X97871474Y-88573309D01*
X97952991Y-88407644D01*
X97955810Y-88401915D01*
X97981213Y-88304391D01*
X98004795Y-88213861D01*
X98004795Y-88213858D01*
X98006405Y-88207679D01*
X98009952Y-88140000D01*
X107714318Y-88140000D01*
X107734956Y-88296762D01*
X107795464Y-88442841D01*
X107891718Y-88568282D01*
X107898264Y-88573305D01*
X107898268Y-88573309D01*
X107977199Y-88633875D01*
X108019066Y-88691213D01*
X108023288Y-88762084D01*
X107988524Y-88823986D01*
X107977198Y-88833800D01*
X107908267Y-88886692D01*
X107908264Y-88886695D01*
X107901718Y-88891718D01*
X107805464Y-89017159D01*
X107744956Y-89163238D01*
X107724318Y-89320000D01*
X107744956Y-89476762D01*
X107805464Y-89622841D01*
X107901718Y-89748282D01*
X107908264Y-89753305D01*
X107914109Y-89759150D01*
X107912083Y-89761176D01*
X107945745Y-89807280D01*
X107949964Y-89878151D01*
X107915198Y-89940053D01*
X107911527Y-89943234D01*
X107908264Y-89946497D01*
X107901718Y-89951520D01*
X107805464Y-90076961D01*
X107744956Y-90223040D01*
X107724318Y-90379802D01*
X107744956Y-90536564D01*
X107805464Y-90682643D01*
X107901718Y-90808084D01*
X108027159Y-90904338D01*
X108173238Y-90964846D01*
X108330000Y-90985484D01*
X108338188Y-90984406D01*
X108478574Y-90965924D01*
X108486762Y-90964846D01*
X108632841Y-90904338D01*
X108758282Y-90808084D01*
X108833544Y-90710000D01*
X121274318Y-90710000D01*
X121294956Y-90866762D01*
X121355464Y-91012841D01*
X121451718Y-91138282D01*
X121458264Y-91143305D01*
X121554837Y-91217408D01*
X121596704Y-91274746D01*
X121600926Y-91345617D01*
X121578095Y-91394075D01*
X121488680Y-91510603D01*
X121488678Y-91510606D01*
X121483650Y-91517159D01*
X121423142Y-91663238D01*
X121402504Y-91820000D01*
X121423142Y-91976762D01*
X121483650Y-92122841D01*
X121579904Y-92248282D01*
X121705345Y-92344536D01*
X121851424Y-92405044D01*
X122008186Y-92425682D01*
X122016374Y-92424604D01*
X122156760Y-92406122D01*
X122164948Y-92405044D01*
X122311027Y-92344536D01*
X122436468Y-92248282D01*
X122532722Y-92122841D01*
X122593230Y-91976762D01*
X122613868Y-91820000D01*
X122593230Y-91663238D01*
X122532722Y-91517159D01*
X122436468Y-91391718D01*
X122333349Y-91312592D01*
X122291482Y-91255254D01*
X122287260Y-91184383D01*
X122310091Y-91135925D01*
X122399506Y-91019397D01*
X122399509Y-91019392D01*
X122404536Y-91012841D01*
X122465044Y-90866762D01*
X122485682Y-90710000D01*
X122465044Y-90553238D01*
X122404536Y-90407159D01*
X122308282Y-90281718D01*
X122182841Y-90185464D01*
X122036762Y-90124956D01*
X121880000Y-90104318D01*
X121723238Y-90124956D01*
X121577159Y-90185464D01*
X121451718Y-90281718D01*
X121355464Y-90407159D01*
X121294956Y-90553238D01*
X121274318Y-90710000D01*
X108833544Y-90710000D01*
X108854536Y-90682643D01*
X108915044Y-90536564D01*
X108935682Y-90379802D01*
X108915044Y-90223040D01*
X108854536Y-90076961D01*
X108758282Y-89951520D01*
X108751736Y-89946497D01*
X108745891Y-89940652D01*
X108747917Y-89938626D01*
X108714255Y-89892522D01*
X108710036Y-89821651D01*
X108744802Y-89759749D01*
X108748473Y-89756568D01*
X108751736Y-89753305D01*
X108758282Y-89748282D01*
X108854536Y-89622841D01*
X108915044Y-89476762D01*
X108935682Y-89320000D01*
X108915044Y-89163238D01*
X108854536Y-89017159D01*
X108758282Y-88891718D01*
X108751736Y-88886695D01*
X108751732Y-88886691D01*
X108672801Y-88826125D01*
X108630934Y-88768787D01*
X108626712Y-88697916D01*
X108661476Y-88636014D01*
X108672802Y-88626200D01*
X108741733Y-88573308D01*
X108741736Y-88573305D01*
X108748282Y-88568282D01*
X108844536Y-88442841D01*
X108905044Y-88296762D01*
X108925682Y-88140000D01*
X108915150Y-88060000D01*
X113674318Y-88060000D01*
X113675396Y-88068188D01*
X113692562Y-88198574D01*
X113694956Y-88216762D01*
X113755464Y-88362841D01*
X113790205Y-88408116D01*
X113838067Y-88470491D01*
X113851718Y-88488282D01*
X113977159Y-88584536D01*
X114123238Y-88645044D01*
X114280000Y-88665682D01*
X114288188Y-88664604D01*
X114428574Y-88646122D01*
X114436762Y-88645044D01*
X114582841Y-88584536D01*
X114708282Y-88488282D01*
X114721934Y-88470491D01*
X114769795Y-88408116D01*
X114804536Y-88362841D01*
X114865044Y-88216762D01*
X114867439Y-88198574D01*
X114884604Y-88068188D01*
X114885682Y-88060000D01*
X114884365Y-88050000D01*
X117224318Y-88050000D01*
X117244956Y-88206762D01*
X117305464Y-88352841D01*
X117401718Y-88478282D01*
X117527159Y-88574536D01*
X117673238Y-88635044D01*
X117830000Y-88655682D01*
X117838188Y-88654604D01*
X117978574Y-88636122D01*
X117986762Y-88635044D01*
X118132841Y-88574536D01*
X118258282Y-88478282D01*
X118354536Y-88352841D01*
X118415044Y-88206762D01*
X118435682Y-88050000D01*
X118425363Y-87971619D01*
X118416122Y-87901426D01*
X118415044Y-87893238D01*
X118354536Y-87747159D01*
X118258282Y-87621718D01*
X118132841Y-87525464D01*
X117986762Y-87464956D01*
X117830000Y-87444318D01*
X117673238Y-87464956D01*
X117527159Y-87525464D01*
X117401718Y-87621718D01*
X117305464Y-87747159D01*
X117244956Y-87893238D01*
X117243878Y-87901426D01*
X117234637Y-87971619D01*
X117224318Y-88050000D01*
X114884365Y-88050000D01*
X114865044Y-87903238D01*
X114804536Y-87757159D01*
X114708282Y-87631718D01*
X114582841Y-87535464D01*
X114436762Y-87474956D01*
X114280000Y-87454318D01*
X114123238Y-87474956D01*
X113977159Y-87535464D01*
X113851718Y-87631718D01*
X113755464Y-87757159D01*
X113694956Y-87903238D01*
X113674318Y-88060000D01*
X108915150Y-88060000D01*
X108905044Y-87983238D01*
X108844536Y-87837159D01*
X108748282Y-87711718D01*
X108622841Y-87615464D01*
X108476762Y-87554956D01*
X108320000Y-87534318D01*
X108163238Y-87554956D01*
X108017159Y-87615464D01*
X107891718Y-87711718D01*
X107795464Y-87837159D01*
X107734956Y-87983238D01*
X107714318Y-88140000D01*
X98009952Y-88140000D01*
X98014668Y-88050000D01*
X98016575Y-88013620D01*
X98016575Y-88013616D01*
X98016909Y-88007238D01*
X97986895Y-87808777D01*
X97984692Y-87802791D01*
X97984691Y-87802785D01*
X97919794Y-87626402D01*
X97917588Y-87620406D01*
X97914222Y-87614978D01*
X97914220Y-87614973D01*
X97821205Y-87464956D01*
X97811819Y-87449818D01*
X97673909Y-87303982D01*
X97509491Y-87188855D01*
X97503870Y-87186422D01*
X97454228Y-87135796D01*
X97439819Y-87066276D01*
X97465283Y-87000003D01*
X97522534Y-86958017D01*
X97565404Y-86950500D01*
X123473500Y-86950500D01*
X123541621Y-86970502D01*
G37*
%TD.AperFunction*%
%TD*%
M02*
