M48
; DRILL file {KiCad (6.0.7)} date Sun Aug 28 18:35:30 2022
; FORMAT={-:-/ absolute / metric / decimal}
; #@! TF.CreationDate,2022-08-28T18:35:30-07:00
; #@! TF.GenerationSoftware,Kicad,Pcbnew,(6.0.7)
; #@! TF.FileFunction,MixedPlating,1,4
FMAT,2
METRIC
; #@! TA.AperFunction,Plated,PTH,ComponentDrill
T1C0.350
; #@! TA.AperFunction,Plated,PTH,ViaDrill
T2C0.400
; #@! TA.AperFunction,Plated,PTH,ComponentDrill
T3C0.800
; #@! TA.AperFunction,Plated,PTH,ComponentDrill
T4C1.000
; #@! TA.AperFunction,Plated,PTH,ComponentDrill
T5C1.050
; #@! TA.AperFunction,NonPlated,NPTH,ComponentDrill
T6C1.250
%
G90
G05
T1
X113.85Y-91.55
X113.85Y-92.825
X113.85Y-94.1
X115.125Y-91.55
X115.125Y-92.825
X115.125Y-94.1
X116.4Y-91.55
X116.4Y-92.825
X116.4Y-94.1
T2
X94.2Y-88.0
X94.2Y-99.4
X96.26Y-89.53
X96.3Y-97.9
X99.3Y-98.5
X99.3Y-99.4
X100.41Y-100.24
X101.93Y-87.87
X103.15Y-88.99
X106.8Y-98.8
X106.8Y-99.8
X107.15Y-96.65
X107.15Y-97.65
X107.202Y-92.906
X107.7Y-98.8
X107.7Y-99.8
X107.95Y-95.649
X108.32Y-88.14
X108.33Y-89.32
X108.33Y-90.38
X109.4Y-92.475
X109.98Y-87.39
X110.68Y-89.41
X112.19Y-98.31
X112.56Y-87.31
X113.46Y-98.29
X114.28Y-88.06
X114.55Y-99.11
X115.3Y-97.45
X116.15Y-87.35
X117.83Y-88.05
X121.17Y-92.726
X121.8Y-100.2
X121.88Y-90.71
X122.008Y-91.82
X122.37Y-93.37
T3
X116.65Y-99.07
X118.65Y-99.07
T4
X98.337Y-90.256
X98.337Y-92.756
X98.337Y-94.756
X98.337Y-97.256
T6
X96.237Y-91.506
X96.237Y-96.006
T5
G00X95.462Y-88.056
M15
G01X97.012Y-88.056
M16
G05
G00X95.462Y-99.456
M15
G01X97.012Y-99.456
M16
G05
T0
M30
