%TF.GenerationSoftware,KiCad,Pcbnew,(6.0.7)*%
%TF.CreationDate,2022-08-28T18:35:31-07:00*%
%TF.ProjectId,RP2040_Injector,52503230-3430-45f4-996e-6a6563746f72,rev?*%
%TF.SameCoordinates,Original*%
%TF.FileFunction,Copper,L1,Top*%
%TF.FilePolarity,Positive*%
%FSLAX46Y46*%
G04 Gerber Fmt 4.6, Leading zero omitted, Abs format (unit mm)*
G04 Created by KiCad (PCBNEW (6.0.7)) date 2022-08-28 18:35:31*
%MOMM*%
%LPD*%
G01*
G04 APERTURE LIST*
G04 Aperture macros list*
%AMRoundRect*
0 Rectangle with rounded corners*
0 $1 Rounding radius*
0 $2 $3 $4 $5 $6 $7 $8 $9 X,Y pos of 4 corners*
0 Add a 4 corners polygon primitive as box body*
4,1,4,$2,$3,$4,$5,$6,$7,$8,$9,$2,$3,0*
0 Add four circle primitives for the rounded corners*
1,1,$1+$1,$2,$3*
1,1,$1+$1,$4,$5*
1,1,$1+$1,$6,$7*
1,1,$1+$1,$8,$9*
0 Add four rect primitives between the rounded corners*
20,1,$1+$1,$2,$3,$4,$5,0*
20,1,$1+$1,$4,$5,$6,$7,0*
20,1,$1+$1,$6,$7,$8,$9,0*
20,1,$1+$1,$8,$9,$2,$3,0*%
G04 Aperture macros list end*
%TA.AperFunction,ComponentPad*%
%ADD10C,0.600000*%
%TD*%
%TA.AperFunction,SMDPad,CuDef*%
%ADD11RoundRect,0.140000X-0.170000X0.140000X-0.170000X-0.140000X0.170000X-0.140000X0.170000X0.140000X0*%
%TD*%
%TA.AperFunction,ComponentPad*%
%ADD12R,1.350000X1.350000*%
%TD*%
%TA.AperFunction,ComponentPad*%
%ADD13O,1.350000X1.350000*%
%TD*%
%TA.AperFunction,SMDPad,CuDef*%
%ADD14RoundRect,0.140000X0.140000X0.170000X-0.140000X0.170000X-0.140000X-0.170000X0.140000X-0.170000X0*%
%TD*%
%TA.AperFunction,SMDPad,CuDef*%
%ADD15RoundRect,0.135000X0.185000X-0.135000X0.185000X0.135000X-0.185000X0.135000X-0.185000X-0.135000X0*%
%TD*%
%TA.AperFunction,SMDPad,CuDef*%
%ADD16RoundRect,0.140000X-0.140000X-0.170000X0.140000X-0.170000X0.140000X0.170000X-0.140000X0.170000X0*%
%TD*%
%TA.AperFunction,SMDPad,CuDef*%
%ADD17R,1.200000X1.400000*%
%TD*%
%TA.AperFunction,SMDPad,CuDef*%
%ADD18RoundRect,0.135000X-0.135000X-0.185000X0.135000X-0.185000X0.135000X0.185000X-0.135000X0.185000X0*%
%TD*%
%TA.AperFunction,SMDPad,CuDef*%
%ADD19RoundRect,0.006000X0.094000X-0.414000X0.094000X0.414000X-0.094000X0.414000X-0.094000X-0.414000X0*%
%TD*%
%TA.AperFunction,SMDPad,CuDef*%
%ADD20RoundRect,0.020000X0.400000X-0.080000X0.400000X0.080000X-0.400000X0.080000X-0.400000X-0.080000X0*%
%TD*%
%TA.AperFunction,SMDPad,CuDef*%
%ADD21R,3.100000X3.100000*%
%TD*%
%TA.AperFunction,SMDPad,CuDef*%
%ADD22RoundRect,0.150000X0.650000X0.150000X-0.650000X0.150000X-0.650000X-0.150000X0.650000X-0.150000X0*%
%TD*%
%TA.AperFunction,SMDPad,CuDef*%
%ADD23RoundRect,0.135000X0.135000X0.185000X-0.135000X0.185000X-0.135000X-0.185000X0.135000X-0.185000X0*%
%TD*%
%TA.AperFunction,SMDPad,CuDef*%
%ADD24RoundRect,0.140000X0.170000X-0.140000X0.170000X0.140000X-0.170000X0.140000X-0.170000X-0.140000X0*%
%TD*%
%TA.AperFunction,ComponentPad*%
%ADD25R,1.508000X1.508000*%
%TD*%
%TA.AperFunction,ComponentPad*%
%ADD26C,1.508000*%
%TD*%
%TA.AperFunction,ComponentPad*%
%ADD27O,3.150000X1.575000*%
%TD*%
%TA.AperFunction,ViaPad*%
%ADD28C,0.800000*%
%TD*%
%TA.AperFunction,Conductor*%
%ADD29C,0.200000*%
%TD*%
%TA.AperFunction,Conductor*%
%ADD30C,0.500000*%
%TD*%
%TA.AperFunction,Conductor*%
%ADD31C,0.300000*%
%TD*%
%TA.AperFunction,Conductor*%
%ADD32C,0.250000*%
%TD*%
%TA.AperFunction,Conductor*%
%ADD33C,0.261620*%
%TD*%
G04 APERTURE END LIST*
D10*
%TO.P,,57*%
%TO.N,GND*%
X116400000Y-91550000D03*
%TD*%
D11*
%TO.P,C6,1*%
%TO.N,+3V3*%
X114550000Y-97460000D03*
%TO.P,C6,2*%
%TO.N,GND*%
X114550000Y-98420000D03*
%TD*%
D12*
%TO.P,J2,1,Pin_1*%
%TO.N,GND*%
X118650000Y-99070000D03*
D13*
%TO.P,J2,2,Pin_2*%
%TO.N,/~{USB_BOOT}*%
X116650000Y-99070000D03*
%TD*%
D14*
%TO.P,C14,1*%
%TO.N,XIN*%
X122702512Y-99509302D03*
%TO.P,C14,2*%
%TO.N,GND*%
X121742512Y-99509302D03*
%TD*%
D15*
%TO.P,R2,1*%
%TO.N,Net-(C15-Pad1)*%
X120270000Y-94140000D03*
%TO.P,R2,2*%
%TO.N,XOUT*%
X120270000Y-93120000D03*
%TD*%
D16*
%TO.P,C4,1*%
%TO.N,+3V3*%
X116131814Y-88066802D03*
%TO.P,C4,2*%
%TO.N,GND*%
X117091814Y-88066802D03*
%TD*%
D10*
%TO.P,,57*%
%TO.N,GND*%
X115125000Y-91550000D03*
%TD*%
D17*
%TO.P,HSE1,1,1*%
%TO.N,XIN*%
X122701814Y-97909302D03*
%TO.P,HSE1,2,2*%
%TO.N,GND*%
X122701814Y-95709302D03*
%TO.P,HSE1,3,3*%
%TO.N,Net-(C15-Pad1)*%
X121101814Y-95709302D03*
%TO.P,HSE1,4,4*%
%TO.N,GND*%
X121101814Y-97909302D03*
%TD*%
D10*
%TO.P,,57*%
%TO.N,GND*%
X115125000Y-92825000D03*
%TD*%
D16*
%TO.P,C10,1*%
%TO.N,+1V1*%
X120231814Y-90716802D03*
%TO.P,C10,2*%
%TO.N,GND*%
X121191814Y-90716802D03*
%TD*%
D10*
%TO.P,,57*%
%TO.N,GND*%
X113850000Y-94100000D03*
%TD*%
%TO.P,,57*%
%TO.N,GND*%
X116400000Y-92825000D03*
%TD*%
%TO.P,,57*%
%TO.N,GND*%
X116400000Y-94100000D03*
%TD*%
%TO.P,,57*%
%TO.N,GND*%
X113850000Y-92825000D03*
%TD*%
%TO.P,,57*%
%TO.N,GND*%
X113850000Y-91550000D03*
%TD*%
D18*
%TO.P,R4,1*%
%TO.N,USB_D+*%
X105611814Y-92129302D03*
%TO.P,R4,2*%
%TO.N,Net-(R4-Pad2)*%
X106631814Y-92129302D03*
%TD*%
D19*
%TO.P,U2,1,IOVDD*%
%TO.N,+3V3*%
X112511814Y-96251802D03*
%TO.P,U2,2,GPIO0*%
%TO.N,unconnected-(U2-Pad2)*%
X112911814Y-96251802D03*
%TO.P,U2,3,GPIO1*%
%TO.N,unconnected-(U2-Pad3)*%
X113311814Y-96251802D03*
%TO.P,U2,4,GPIO2*%
%TO.N,unconnected-(U2-Pad4)*%
X113711814Y-96251802D03*
%TO.P,U2,5,GPIO3*%
%TO.N,unconnected-(U2-Pad5)*%
X114111814Y-96251802D03*
%TO.P,U2,6,GPIO4*%
%TO.N,unconnected-(U2-Pad6)*%
X114511814Y-96251802D03*
%TO.P,U2,7,GPIO5*%
%TO.N,unconnected-(U2-Pad7)*%
X114911814Y-96251802D03*
%TO.P,U2,8,GPIO6*%
%TO.N,unconnected-(U2-Pad8)*%
X115311814Y-96251802D03*
%TO.P,U2,9,GPIO7*%
%TO.N,unconnected-(U2-Pad9)*%
X115711814Y-96251802D03*
%TO.P,U2,10,IOVDD*%
%TO.N,+3V3*%
X116111814Y-96251802D03*
%TO.P,U2,11,GPIO8*%
%TO.N,unconnected-(U2-Pad11)*%
X116511814Y-96251802D03*
%TO.P,U2,12,GPIO9*%
%TO.N,unconnected-(U2-Pad12)*%
X116911814Y-96251802D03*
%TO.P,U2,13,GPIO10*%
%TO.N,unconnected-(U2-Pad13)*%
X117311814Y-96251802D03*
%TO.P,U2,14,GPIO11*%
%TO.N,unconnected-(U2-Pad14)*%
X117711814Y-96251802D03*
D20*
%TO.P,U2,15,GPIO12*%
%TO.N,unconnected-(U2-Pad15)*%
X118546814Y-95416802D03*
%TO.P,U2,16,GPIO13*%
%TO.N,unconnected-(U2-Pad16)*%
X118546814Y-95016802D03*
%TO.P,U2,17,GPIO14*%
%TO.N,unconnected-(U2-Pad17)*%
X118546814Y-94616802D03*
%TO.P,U2,18,GPIO15*%
%TO.N,unconnected-(U2-Pad18)*%
X118546814Y-94216802D03*
%TO.P,U2,19,TESTEN*%
%TO.N,GND*%
X118546814Y-93816802D03*
%TO.P,U2,20,XIN*%
%TO.N,XIN*%
X118546814Y-93416802D03*
%TO.P,U2,21,XOUT*%
%TO.N,XOUT*%
X118546814Y-93016802D03*
%TO.P,U2,22,IOVDD*%
%TO.N,+3V3*%
X118546814Y-92616802D03*
%TO.P,U2,23,DVDD*%
%TO.N,+1V1*%
X118546814Y-92216802D03*
%TO.P,U2,24,SWCLK*%
%TO.N,unconnected-(U2-Pad24)*%
X118546814Y-91816802D03*
%TO.P,U2,25,SWD*%
%TO.N,unconnected-(U2-Pad25)*%
X118546814Y-91416802D03*
%TO.P,U2,26,RUN*%
%TO.N,unconnected-(U2-Pad26)*%
X118546814Y-91016802D03*
%TO.P,U2,27,GPIO16*%
%TO.N,unconnected-(U2-Pad27)*%
X118546814Y-90616802D03*
%TO.P,U2,28,GPIO17*%
%TO.N,unconnected-(U2-Pad28)*%
X118546814Y-90216802D03*
D19*
%TO.P,U2,29,GPIO18*%
%TO.N,unconnected-(U2-Pad29)*%
X117711814Y-89381802D03*
%TO.P,U2,30,GPIO19*%
%TO.N,unconnected-(U2-Pad30)*%
X117311814Y-89381802D03*
%TO.P,U2,31,GPIO20*%
%TO.N,unconnected-(U2-Pad31)*%
X116911814Y-89381802D03*
%TO.P,U2,32,GPIO21*%
%TO.N,unconnected-(U2-Pad32)*%
X116511814Y-89381802D03*
%TO.P,U2,33,IOVDD*%
%TO.N,+3V3*%
X116111814Y-89381802D03*
%TO.P,U2,34,GPIO22*%
%TO.N,unconnected-(U2-Pad34)*%
X115711814Y-89381802D03*
%TO.P,U2,35,GPIO23*%
%TO.N,unconnected-(U2-Pad35)*%
X115311814Y-89381802D03*
%TO.P,U2,36,GPIO24*%
%TO.N,unconnected-(U2-Pad36)*%
X114911814Y-89381802D03*
%TO.P,U2,37,GPIO25*%
%TO.N,unconnected-(U2-Pad37)*%
X114511814Y-89381802D03*
%TO.P,U2,38,GPIO26/ADC0*%
%TO.N,unconnected-(U2-Pad38)*%
X114111814Y-89381802D03*
%TO.P,U2,39,GPIO27/ADC1*%
%TO.N,unconnected-(U2-Pad39)*%
X113711814Y-89381802D03*
%TO.P,U2,40,GPIO28/ADC2*%
%TO.N,unconnected-(U2-Pad40)*%
X113311814Y-89381802D03*
%TO.P,U2,41,GPIO29/ADC3*%
%TO.N,unconnected-(U2-Pad41)*%
X112911814Y-89381802D03*
%TO.P,U2,42,IOVDD*%
%TO.N,+3V3*%
X112511814Y-89381802D03*
D20*
%TO.P,U2,43,ADC_AVDD*%
X111676814Y-90216802D03*
%TO.P,U2,44,VREG_VIN*%
X111676814Y-90616802D03*
%TO.P,U2,45,VREG_VOUT*%
%TO.N,+1V1*%
X111676814Y-91016802D03*
%TO.P,U2,46,USB_DM*%
%TO.N,Net-(R3-Pad2)*%
X111676814Y-91416802D03*
%TO.P,U2,47,USB_DP*%
%TO.N,Net-(R4-Pad2)*%
X111676814Y-91816802D03*
%TO.P,U2,48,USB_VDD*%
%TO.N,+3V3*%
X111676814Y-92216802D03*
%TO.P,U2,49,IOVDD*%
X111676814Y-92616802D03*
%TO.P,U2,50,DVDD*%
%TO.N,+1V1*%
X111676814Y-93016802D03*
%TO.P,U2,51,QSPI_SD3*%
%TO.N,/QSPI_SD3*%
X111676814Y-93416802D03*
%TO.P,U2,52,QSPI_SCLK*%
%TO.N,/QSPI_SCLK*%
X111676814Y-93816802D03*
%TO.P,U2,53,QSPI_SD0*%
%TO.N,/QSPI_SD0*%
X111676814Y-94216802D03*
%TO.P,U2,54,QSPI_SD2*%
%TO.N,/QSPI_SD2*%
X111676814Y-94616802D03*
%TO.P,U2,55,QSPI_SD1*%
%TO.N,/QSPI_SD1*%
X111676814Y-95016802D03*
%TO.P,U2,56,QSPI_CSN*%
%TO.N,/QSPI_CSN*%
X111676814Y-95416802D03*
D21*
%TO.P,U2,57,GND*%
%TO.N,GND*%
X115111814Y-92816802D03*
%TD*%
D16*
%TO.P,C15,1*%
%TO.N,Net-(C15-Pad1)*%
X121421814Y-94109302D03*
%TO.P,C15,2*%
%TO.N,GND*%
X122381814Y-94109302D03*
%TD*%
D14*
%TO.P,C11,1*%
%TO.N,+1V1*%
X109991814Y-90439302D03*
%TO.P,C11,2*%
%TO.N,GND*%
X109031814Y-90439302D03*
%TD*%
D18*
%TO.P,R3,1*%
%TO.N,USB_D-*%
X105611814Y-90879302D03*
%TO.P,R3,2*%
%TO.N,Net-(R3-Pad2)*%
X106631814Y-90879302D03*
%TD*%
D14*
%TO.P,C2,1*%
%TO.N,+3V3*%
X109991814Y-88139302D03*
%TO.P,C2,2*%
%TO.N,GND*%
X109031814Y-88139302D03*
%TD*%
%TO.P,C8,1*%
%TO.N,+3V3*%
X109991814Y-89289302D03*
%TO.P,C8,2*%
%TO.N,GND*%
X109031814Y-89289302D03*
%TD*%
D22*
%TO.P,U3,1,~{CS}*%
%TO.N,/QSPI_CSN*%
X109241814Y-99564302D03*
%TO.P,U3,2,DO(IO1)*%
%TO.N,/QSPI_SD1*%
X109241814Y-98294302D03*
%TO.P,U3,3,IO2*%
%TO.N,/QSPI_SD2*%
X109241814Y-97024302D03*
%TO.P,U3,4,GND*%
%TO.N,GND*%
X109241814Y-95754302D03*
%TO.P,U3,5,DI(IO0)*%
%TO.N,/QSPI_SD0*%
X102041814Y-95754302D03*
%TO.P,U3,6,CLK*%
%TO.N,/QSPI_SCLK*%
X102041814Y-97024302D03*
%TO.P,U3,7,IO3*%
%TO.N,/QSPI_SD3*%
X102041814Y-98294302D03*
%TO.P,U3,8,VCC*%
%TO.N,+3V3*%
X102041814Y-99564302D03*
%TD*%
D23*
%TO.P,R5,1*%
%TO.N,/~{USB_BOOT}*%
X114500000Y-100070000D03*
%TO.P,R5,2*%
%TO.N,/QSPI_CSN*%
X113480000Y-100070000D03*
%TD*%
D16*
%TO.P,C7,1*%
%TO.N,+3V3*%
X112481814Y-97566802D03*
%TO.P,C7,2*%
%TO.N,GND*%
X113441814Y-97566802D03*
%TD*%
%TO.P,C5,1*%
%TO.N,+3V3*%
X120350000Y-91816802D03*
%TO.P,C5,2*%
%TO.N,GND*%
X121310000Y-91816802D03*
%TD*%
D10*
%TO.P,,57*%
%TO.N,GND*%
X115125000Y-94100000D03*
%TD*%
D14*
%TO.P,C1,1*%
%TO.N,+3V3*%
X108811814Y-92469302D03*
%TO.P,C1,2*%
%TO.N,GND*%
X107851814Y-92469302D03*
%TD*%
%TO.P,C9,1*%
%TO.N,+1V1*%
X108811814Y-93469302D03*
%TO.P,C9,2*%
%TO.N,GND*%
X107851814Y-93469302D03*
%TD*%
D16*
%TO.P,C3,1*%
%TO.N,+3V3*%
X112581814Y-88066802D03*
%TO.P,C3,2*%
%TO.N,GND*%
X113541814Y-88066802D03*
%TD*%
D24*
%TO.P,C16,1*%
%TO.N,+3V3*%
X100420000Y-99510000D03*
%TO.P,C16,2*%
%TO.N,GND*%
X100420000Y-98550000D03*
%TD*%
D25*
%TO.P,J1,1,VCC*%
%TO.N,VCC*%
X98337500Y-90255750D03*
D26*
%TO.P,J1,2,D-*%
%TO.N,USB_D-*%
X98337500Y-92755750D03*
%TO.P,J1,3,D+*%
%TO.N,USB_D+*%
X98337500Y-94755750D03*
%TO.P,J1,4,GND*%
%TO.N,GND*%
X98337500Y-97255750D03*
D27*
%TO.P,J1,S1,SHIELD*%
X96237500Y-88055750D03*
%TO.P,J1,S2,SHIELD*%
X96237500Y-99455750D03*
%TD*%
D28*
%TO.N,+3V3*%
X116150000Y-87350000D03*
X110680000Y-89410000D03*
X107150000Y-97650000D03*
X121170000Y-92726302D03*
X109980000Y-87390000D03*
X112560000Y-87310000D03*
X107150000Y-96650000D03*
X100410000Y-100240000D03*
X112190000Y-98310000D03*
X109400000Y-92475000D03*
X101930000Y-87870000D03*
X115300000Y-97450000D03*
%TO.N,GND*%
X96260000Y-89530000D03*
X107700000Y-98800000D03*
X99300000Y-98500000D03*
X113460000Y-98290000D03*
X108330000Y-90379802D03*
X94200000Y-88000000D03*
X99300000Y-99400000D03*
X107950000Y-95648802D03*
X103150000Y-88990000D03*
X106800000Y-98800000D03*
X114280000Y-88060000D03*
X108320000Y-88140000D03*
X114550000Y-99110000D03*
X121880000Y-90710000D03*
X107201844Y-92906113D03*
X108330000Y-89320000D03*
X106800000Y-99800000D03*
X121800000Y-100200000D03*
X122008186Y-91820000D03*
X107700000Y-99800000D03*
X122370000Y-93370000D03*
X96300000Y-97900000D03*
X94200000Y-99400000D03*
X117830000Y-88050000D03*
%TD*%
D29*
%TO.N,+3V3*%
X111676814Y-90216802D02*
X111676814Y-89824302D01*
X118546814Y-92616802D02*
X119550000Y-92616802D01*
D30*
X116131814Y-88066802D02*
X116131814Y-87368186D01*
D29*
X109658198Y-92216802D02*
X109400000Y-92475000D01*
X111319314Y-90616802D02*
X109991814Y-89289302D01*
D30*
X108858814Y-92516302D02*
X108811814Y-92469302D01*
X121075114Y-92726302D02*
X121170000Y-92726302D01*
X109400000Y-92475000D02*
X108817512Y-92475000D01*
X112581814Y-88066802D02*
X112581814Y-87331814D01*
X120350000Y-91816802D02*
X120350000Y-92001188D01*
D29*
X116111814Y-96251802D02*
X116111814Y-96938186D01*
D31*
X100420000Y-99510000D02*
X101987512Y-99510000D01*
D29*
X111676814Y-92216802D02*
X109658198Y-92216802D01*
D30*
X100420000Y-100230000D02*
X100410000Y-100240000D01*
X109991814Y-89289302D02*
X110559302Y-89289302D01*
X115290000Y-97460000D02*
X115300000Y-97450000D01*
D29*
X111676814Y-92616802D02*
X109541802Y-92616802D01*
X109541802Y-92616802D02*
X109400000Y-92475000D01*
D30*
X120350000Y-92001188D02*
X121075114Y-92726302D01*
X110559302Y-89289302D02*
X110680000Y-89410000D01*
X114550000Y-97460000D02*
X115290000Y-97460000D01*
X109991814Y-88139302D02*
X109991814Y-87401814D01*
X116131814Y-87368186D02*
X116150000Y-87350000D01*
D29*
X108959314Y-92616802D02*
X108811814Y-92469302D01*
X116111814Y-89381802D02*
X116111814Y-88086802D01*
X112511814Y-96251802D02*
X112511814Y-97536802D01*
D30*
X112481814Y-98018186D02*
X112190000Y-98310000D01*
X112581814Y-87331814D02*
X112560000Y-87310000D01*
D29*
X119550000Y-92616802D02*
X120350000Y-91816802D01*
X116111814Y-96938186D02*
X115600000Y-97450000D01*
D31*
X101987512Y-99510000D02*
X102041814Y-99564302D01*
D30*
X109991814Y-87401814D02*
X109980000Y-87390000D01*
D29*
X112511814Y-89381802D02*
X112511814Y-88136802D01*
D30*
X112481814Y-97566802D02*
X112481814Y-98018186D01*
X108817512Y-92475000D02*
X108811814Y-92469302D01*
D29*
X115600000Y-97450000D02*
X115300000Y-97450000D01*
X111676814Y-90616802D02*
X111319314Y-90616802D01*
D30*
X100420000Y-99510000D02*
X100420000Y-100230000D01*
D29*
X111676814Y-89824302D02*
X109991814Y-88139302D01*
X109400500Y-92616802D02*
X109300000Y-92516302D01*
X112511814Y-97536802D02*
X112481814Y-97566802D01*
D30*
%TO.N,GND*%
X107638655Y-92469302D02*
X107201844Y-92906113D01*
X98337500Y-97255750D02*
X98337500Y-97277500D01*
X96237500Y-88055750D02*
X94255750Y-88055750D01*
D31*
X122701814Y-94429302D02*
X122381814Y-94109302D01*
X121101814Y-98868604D02*
X121742512Y-99509302D01*
D30*
X96237500Y-88055750D02*
X96237500Y-89507500D01*
X117813198Y-88066802D02*
X117830000Y-88050000D01*
X121880000Y-90710000D02*
X121198616Y-90710000D01*
X107851814Y-93469302D02*
X107765033Y-93469302D01*
X108360698Y-89289302D02*
X108330000Y-89320000D01*
X94255750Y-99455750D02*
X94200000Y-99400000D01*
X117091814Y-88066802D02*
X117813198Y-88066802D01*
X108389500Y-90439302D02*
X108330000Y-90379802D01*
X109031814Y-90439302D02*
X108389500Y-90439302D01*
D29*
X116111814Y-93816802D02*
X115111814Y-92816802D01*
D30*
X94255750Y-88055750D02*
X94200000Y-88000000D01*
X122004988Y-91816802D02*
X122008186Y-91820000D01*
X109031814Y-88139302D02*
X108320698Y-88139302D01*
X121742512Y-100142512D02*
X121800000Y-100200000D01*
X114550000Y-98420000D02*
X114550000Y-99110000D01*
D29*
X118546814Y-93816802D02*
X116111814Y-93816802D01*
D30*
X107851814Y-92469302D02*
X107638655Y-92469302D01*
X121742512Y-99509302D02*
X121742512Y-100142512D01*
X96237500Y-89507500D02*
X96260000Y-89530000D01*
X113441814Y-97566802D02*
X113441814Y-98271814D01*
X121198616Y-90710000D02*
X121191814Y-90716802D01*
X122381814Y-93381814D02*
X122370000Y-93370000D01*
X114273198Y-88066802D02*
X114280000Y-88060000D01*
X121310000Y-91816802D02*
X122004988Y-91816802D01*
X113441814Y-98271814D02*
X113460000Y-98290000D01*
X113541814Y-88066802D02*
X114273198Y-88066802D01*
X109241814Y-95754302D02*
X108055500Y-95754302D01*
X109031814Y-89289302D02*
X108360698Y-89289302D01*
D31*
X121101814Y-97909302D02*
X121101814Y-98868604D01*
D30*
X108320698Y-88139302D02*
X108320000Y-88140000D01*
X107765033Y-93469302D02*
X107201844Y-92906113D01*
X108055500Y-95754302D02*
X107950000Y-95648802D01*
X122381814Y-94109302D02*
X122381814Y-93381814D01*
D31*
X122701814Y-95709302D02*
X122701814Y-94429302D01*
D29*
%TO.N,+1V1*%
X112883198Y-91016802D02*
X112900000Y-91000000D01*
X119411814Y-91884350D02*
X119411814Y-91039302D01*
X111676814Y-91016802D02*
X110569314Y-91016802D01*
X110569314Y-91016802D02*
X109991814Y-90439302D01*
X109855710Y-93016802D02*
X109403210Y-93469302D01*
X118546814Y-92216802D02*
X117416802Y-92216802D01*
X119734314Y-90716802D02*
X120231814Y-90716802D01*
X109403210Y-93469302D02*
X108811814Y-93469302D01*
X119079362Y-92216802D02*
X119411814Y-91884350D01*
X111676814Y-91016802D02*
X112883198Y-91016802D01*
X119411814Y-91039302D02*
X119734314Y-90716802D01*
X111676814Y-93016802D02*
X109855710Y-93016802D01*
X112783198Y-93016802D02*
X112900000Y-92900000D01*
X111676814Y-93016802D02*
X112783198Y-93016802D01*
X118546814Y-92216802D02*
X119079362Y-92216802D01*
%TO.N,XIN*%
X119561814Y-96069302D02*
X120401814Y-96909302D01*
D31*
X122701814Y-99508604D02*
X122702512Y-99509302D01*
D29*
X120401814Y-96909302D02*
X122001814Y-96909302D01*
X119079362Y-93416802D02*
X119561814Y-93899254D01*
X122701814Y-97609302D02*
X122701814Y-97909302D01*
X118546814Y-93416802D02*
X119079362Y-93416802D01*
X122001814Y-96909302D02*
X122701814Y-97609302D01*
D31*
X122701814Y-97909302D02*
X122701814Y-99508604D01*
D29*
X119561814Y-93899254D02*
X119561814Y-96069302D01*
D31*
%TO.N,Net-(C15-Pad1)*%
X121421814Y-95389302D02*
X121101814Y-95709302D01*
D32*
X120270000Y-94140000D02*
X120270000Y-94877488D01*
D31*
X121421814Y-94109302D02*
X121421814Y-95389302D01*
D32*
X120270000Y-94877488D02*
X121101814Y-95709302D01*
D29*
%TO.N,/~{USB_BOOT}*%
X115650000Y-100070000D02*
X116650000Y-99070000D01*
X114500000Y-100070000D02*
X115650000Y-100070000D01*
%TO.N,XOUT*%
X120166802Y-93016802D02*
X120270000Y-93120000D01*
X118546814Y-93016802D02*
X120166802Y-93016802D01*
%TO.N,Net-(R3-Pad2)*%
X106831814Y-91079302D02*
X106631814Y-90879302D01*
X110359314Y-91416802D02*
X110021814Y-91079302D01*
X110021814Y-91079302D02*
X106831814Y-91079302D01*
X111676814Y-91416802D02*
X110359314Y-91416802D01*
%TO.N,Net-(R4-Pad2)*%
X109950000Y-91600000D02*
X107161116Y-91600000D01*
X107161116Y-91600000D02*
X106631814Y-92129302D01*
X111676814Y-91816802D02*
X110166802Y-91816802D01*
X110166802Y-91816802D02*
X109950000Y-91600000D01*
%TO.N,/QSPI_CSN*%
X111676814Y-95416802D02*
X111676814Y-97295698D01*
X109408210Y-99564302D02*
X109241814Y-99564302D01*
X111676814Y-97295698D02*
X109408210Y-99564302D01*
X112974302Y-99564302D02*
X113480000Y-100070000D01*
X109241814Y-99564302D02*
X112974302Y-99564302D01*
%TO.N,/QSPI_SD3*%
X100541814Y-97309302D02*
X101526814Y-98294302D01*
X109561814Y-94149302D02*
X101637525Y-94149302D01*
X101637525Y-94149302D02*
X100541814Y-95245013D01*
X101526814Y-98294302D02*
X102041814Y-98294302D01*
X100541814Y-95245013D02*
X100541814Y-97309302D01*
X111676814Y-93416802D02*
X110294314Y-93416802D01*
X110294314Y-93416802D02*
X109561814Y-94149302D01*
%TO.N,/QSPI_SCLK*%
X100941814Y-96090698D02*
X101875418Y-97024302D01*
X101875418Y-97024302D02*
X102041814Y-97024302D01*
X110460000Y-93816802D02*
X109727500Y-94549302D01*
X109727500Y-94549302D02*
X101803210Y-94549302D01*
X111676814Y-93816802D02*
X110460000Y-93816802D01*
X100941814Y-95410698D02*
X100941814Y-96090698D01*
X101803210Y-94549302D02*
X100941814Y-95410698D01*
%TO.N,/QSPI_SD0*%
X102846814Y-94949302D02*
X102041814Y-95754302D01*
X111676814Y-94216802D02*
X110625686Y-94216802D01*
X109893186Y-94949302D02*
X102846814Y-94949302D01*
X110625686Y-94216802D02*
X109893186Y-94949302D01*
%TO.N,/QSPI_SD2*%
X111676814Y-94616802D02*
X110791372Y-94616802D01*
X110341814Y-96460698D02*
X109778210Y-97024302D01*
X109778210Y-97024302D02*
X109241814Y-97024302D01*
X110791372Y-94616802D02*
X110341814Y-95066360D01*
X110341814Y-95066360D02*
X110341814Y-96460698D01*
%TO.N,/QSPI_SD1*%
X110741814Y-97460698D02*
X109908210Y-98294302D01*
X110965710Y-95016802D02*
X110741814Y-95240698D01*
X109908210Y-98294302D02*
X109241814Y-98294302D01*
X110741814Y-95240698D02*
X110741814Y-97460698D01*
X111676814Y-95016802D02*
X110965710Y-95016802D01*
D33*
%TO.N,USB_D+*%
X101356538Y-91736712D02*
X105219224Y-91736712D01*
X98337500Y-94755750D02*
X101356538Y-91736712D01*
X105219224Y-91736712D02*
X105611814Y-92129302D01*
%TO.N,USB_D-*%
X101164003Y-91271892D02*
X105219224Y-91271892D01*
X105219224Y-91271892D02*
X105611814Y-90879302D01*
X98337500Y-92755750D02*
X99680145Y-92755750D01*
X99680145Y-92755750D02*
X101164003Y-91271892D01*
%TD*%
%TA.AperFunction,Conductor*%
%TO.N,GND*%
G36*
X95337828Y-96017313D02*
G01*
X95363138Y-96061150D01*
X95364161Y-96070126D01*
X95367957Y-96142548D01*
X95368167Y-96146551D01*
X95418681Y-96329943D01*
X95420550Y-96333488D01*
X95467487Y-96422511D01*
X95507398Y-96498210D01*
X95630178Y-96643501D01*
X95781293Y-96759037D01*
X95784921Y-96760729D01*
X95784923Y-96760730D01*
X95867493Y-96799232D01*
X95953693Y-96839428D01*
X95957600Y-96840301D01*
X95957602Y-96840302D01*
X96066260Y-96864590D01*
X96139334Y-96880924D01*
X96142362Y-96881093D01*
X96142367Y-96881094D01*
X96144156Y-96881194D01*
X96144171Y-96881194D01*
X96145165Y-96881250D01*
X96285017Y-96881250D01*
X96287013Y-96881033D01*
X96287016Y-96881033D01*
X96422624Y-96866301D01*
X96422625Y-96866301D01*
X96426609Y-96865868D01*
X96606896Y-96805195D01*
X96769947Y-96707224D01*
X96772854Y-96704475D01*
X96772858Y-96704472D01*
X96846752Y-96634593D01*
X96908158Y-96576525D01*
X96995512Y-96447986D01*
X97745605Y-96447986D01*
X97746290Y-96452408D01*
X98328274Y-97034392D01*
X98337913Y-97038887D01*
X98343812Y-97037306D01*
X98925312Y-96455806D01*
X98929807Y-96446167D01*
X98928601Y-96441669D01*
X98904430Y-96421673D01*
X98898465Y-96417649D01*
X98731631Y-96327442D01*
X98724993Y-96324652D01*
X98543818Y-96268569D01*
X98536758Y-96267120D01*
X98348138Y-96247295D01*
X98340939Y-96247245D01*
X98152064Y-96264434D01*
X98144987Y-96265784D01*
X97963046Y-96319331D01*
X97956370Y-96322029D01*
X97788293Y-96409897D01*
X97782267Y-96413841D01*
X97751115Y-96438888D01*
X97745605Y-96447986D01*
X96995512Y-96447986D01*
X97015078Y-96419196D01*
X97085721Y-96242577D01*
X97115630Y-96061913D01*
X97140478Y-96017814D01*
X97188635Y-96000000D01*
X99263000Y-96000000D01*
X99310566Y-96017313D01*
X99322200Y-96029600D01*
X100225031Y-97233375D01*
X100239778Y-97274996D01*
X100240859Y-97303794D01*
X100241262Y-97314544D01*
X100241314Y-97317319D01*
X100241314Y-97337250D01*
X100241938Y-97340602D01*
X100242251Y-97343993D01*
X100242061Y-97344011D01*
X100242520Y-97348057D01*
X100243588Y-97376510D01*
X100246285Y-97382787D01*
X100246286Y-97382792D01*
X100249230Y-97389645D01*
X100253988Y-97405304D01*
X100256605Y-97419355D01*
X100260190Y-97425170D01*
X100260191Y-97425174D01*
X100271544Y-97443592D01*
X100276540Y-97453209D01*
X100287778Y-97479365D01*
X100291792Y-97484251D01*
X100298223Y-97490682D01*
X100308890Y-97504177D01*
X100315346Y-97514650D01*
X100320785Y-97518786D01*
X100339926Y-97533341D01*
X100347460Y-97539919D01*
X100705425Y-97897884D01*
X100726817Y-97943760D01*
X100713716Y-97992655D01*
X100672252Y-98021689D01*
X100641524Y-98023299D01*
X100623566Y-98020455D01*
X100617782Y-98020000D01*
X100583048Y-98020000D01*
X100573052Y-98023638D01*
X100570000Y-98028925D01*
X100570000Y-98626000D01*
X100552687Y-98673566D01*
X100508850Y-98698876D01*
X100496000Y-98700000D01*
X99873049Y-98700000D01*
X99863053Y-98703638D01*
X99860001Y-98708925D01*
X99860001Y-98717781D01*
X99860456Y-98723564D01*
X99873554Y-98806267D01*
X99877109Y-98817208D01*
X99927908Y-98916906D01*
X99934667Y-98926209D01*
X100017907Y-99009449D01*
X100016809Y-99010547D01*
X100041120Y-99046587D01*
X100035829Y-99096928D01*
X100021644Y-99116816D01*
X99966776Y-99171684D01*
X99916028Y-99280513D01*
X99909500Y-99330099D01*
X99909501Y-99689900D01*
X99916028Y-99739487D01*
X99918419Y-99744615D01*
X99918421Y-99744621D01*
X99942831Y-99796967D01*
X99947244Y-99847393D01*
X99934473Y-99873289D01*
X99888416Y-99933311D01*
X99888414Y-99933315D01*
X99885464Y-99937159D01*
X99824956Y-100083238D01*
X99804318Y-100240000D01*
X99824956Y-100396762D01*
X99826810Y-100401239D01*
X99828067Y-100405928D01*
X99825719Y-100406557D01*
X99827552Y-100448230D01*
X99796750Y-100488398D01*
X99756970Y-100500000D01*
X97567875Y-100500000D01*
X97520309Y-100482687D01*
X97494999Y-100438850D01*
X97503789Y-100389000D01*
X97533134Y-100360662D01*
X97598727Y-100325786D01*
X97604726Y-100321800D01*
X97756791Y-100197779D01*
X97761902Y-100192703D01*
X97886976Y-100041515D01*
X97891013Y-100035530D01*
X97984340Y-99862926D01*
X97987131Y-99856288D01*
X98045156Y-99668837D01*
X98046605Y-99661777D01*
X98051130Y-99618727D01*
X98048557Y-99608407D01*
X98044900Y-99605750D01*
X94434867Y-99605750D01*
X94424871Y-99609388D01*
X94422521Y-99613460D01*
X94425618Y-99647494D01*
X94426968Y-99654571D01*
X94482370Y-99842814D01*
X94485068Y-99849490D01*
X94575979Y-100023389D01*
X94579923Y-100029415D01*
X94702881Y-100182343D01*
X94707922Y-100187490D01*
X94858237Y-100313619D01*
X94864181Y-100317690D01*
X94943240Y-100361153D01*
X94976582Y-100399240D01*
X94977642Y-100449848D01*
X94945924Y-100489297D01*
X94907590Y-100500000D01*
X93774000Y-100500000D01*
X93726434Y-100482687D01*
X93701124Y-100438850D01*
X93700000Y-100426000D01*
X93700000Y-99292773D01*
X94423870Y-99292773D01*
X94426443Y-99303093D01*
X94430100Y-99305750D01*
X96074452Y-99305750D01*
X96084448Y-99302112D01*
X96087500Y-99296825D01*
X96087500Y-99292702D01*
X96387500Y-99292702D01*
X96391138Y-99302698D01*
X96396425Y-99305750D01*
X98040133Y-99305750D01*
X98050129Y-99302112D01*
X98052479Y-99298040D01*
X98049382Y-99264006D01*
X98048032Y-99256929D01*
X97992630Y-99068686D01*
X97989932Y-99062010D01*
X97899021Y-98888111D01*
X97895077Y-98882085D01*
X97772119Y-98729157D01*
X97767078Y-98724010D01*
X97616763Y-98597881D01*
X97610819Y-98593810D01*
X97438860Y-98499275D01*
X97432243Y-98496439D01*
X97245199Y-98437105D01*
X97238160Y-98435609D01*
X97085458Y-98418481D01*
X97081330Y-98418250D01*
X96400548Y-98418250D01*
X96390552Y-98421888D01*
X96387500Y-98427175D01*
X96387500Y-99292702D01*
X96087500Y-99292702D01*
X96087500Y-98431298D01*
X96083862Y-98421302D01*
X96078575Y-98418250D01*
X95400616Y-98418250D01*
X95397001Y-98418427D01*
X95251110Y-98432732D01*
X95244042Y-98434131D01*
X95056190Y-98490847D01*
X95049532Y-98493591D01*
X94876273Y-98585714D01*
X94870274Y-98589700D01*
X94718209Y-98713721D01*
X94713098Y-98718797D01*
X94588024Y-98869985D01*
X94583987Y-98875970D01*
X94490660Y-99048574D01*
X94487869Y-99055212D01*
X94429844Y-99242663D01*
X94428395Y-99249723D01*
X94423870Y-99292773D01*
X93700000Y-99292773D01*
X93700000Y-98386952D01*
X99860000Y-98386952D01*
X99863638Y-98396948D01*
X99868925Y-98400000D01*
X100256952Y-98400000D01*
X100266948Y-98396362D01*
X100270000Y-98391075D01*
X100270000Y-98033049D01*
X100266362Y-98023053D01*
X100261075Y-98020001D01*
X100222219Y-98020001D01*
X100216436Y-98020456D01*
X100133733Y-98033554D01*
X100122792Y-98037109D01*
X100023094Y-98087908D01*
X100013791Y-98094667D01*
X99934667Y-98173791D01*
X99927908Y-98183094D01*
X99877110Y-98282791D01*
X99873554Y-98293734D01*
X99860455Y-98376436D01*
X99860000Y-98382218D01*
X99860000Y-98386952D01*
X93700000Y-98386952D01*
X93700000Y-98065955D01*
X97744571Y-98065955D01*
X97745826Y-98070636D01*
X97758975Y-98081827D01*
X97764888Y-98085937D01*
X97930446Y-98178465D01*
X97937047Y-98181349D01*
X98117417Y-98239954D01*
X98124462Y-98241503D01*
X98312772Y-98263958D01*
X98319984Y-98264109D01*
X98509075Y-98249559D01*
X98516174Y-98248307D01*
X98698847Y-98197304D01*
X98705555Y-98194702D01*
X98874839Y-98109191D01*
X98880927Y-98105328D01*
X98923425Y-98072124D01*
X98929062Y-98063102D01*
X98928464Y-98058846D01*
X98346726Y-97477108D01*
X98337087Y-97472613D01*
X98331188Y-97474194D01*
X97749066Y-98056316D01*
X97744571Y-98065955D01*
X93700000Y-98065955D01*
X93700000Y-97245275D01*
X97329043Y-97245275D01*
X97344913Y-97434260D01*
X97346214Y-97441347D01*
X97398490Y-97623656D01*
X97401141Y-97630352D01*
X97487833Y-97799037D01*
X97491738Y-97805095D01*
X97520900Y-97841889D01*
X97529959Y-97847462D01*
X97534297Y-97846821D01*
X98116142Y-97264976D01*
X98120252Y-97256163D01*
X98554363Y-97256163D01*
X98555944Y-97262062D01*
X99138428Y-97844546D01*
X99148067Y-97849041D01*
X99152843Y-97847761D01*
X99159515Y-97840032D01*
X99163674Y-97834134D01*
X99257350Y-97669237D01*
X99260280Y-97662658D01*
X99320144Y-97482698D01*
X99321741Y-97475664D01*
X99345706Y-97285968D01*
X99345994Y-97281859D01*
X99346329Y-97257812D01*
X99346157Y-97253697D01*
X99327497Y-97063398D01*
X99326098Y-97056330D01*
X99271281Y-96874767D01*
X99268537Y-96868109D01*
X99179498Y-96700652D01*
X99175512Y-96694653D01*
X99154658Y-96669083D01*
X99145521Y-96663636D01*
X99141016Y-96664366D01*
X98558858Y-97246524D01*
X98554363Y-97256163D01*
X98120252Y-97256163D01*
X98120637Y-97255337D01*
X98119056Y-97249438D01*
X97537262Y-96667644D01*
X97527623Y-96663149D01*
X97523034Y-96664379D01*
X97507403Y-96683008D01*
X97503335Y-96688949D01*
X97411965Y-96855151D01*
X97409129Y-96861768D01*
X97351781Y-97042550D01*
X97350285Y-97049589D01*
X97329144Y-97238066D01*
X97329043Y-97245275D01*
X93700000Y-97245275D01*
X93700000Y-96074000D01*
X93717313Y-96026434D01*
X93761150Y-96001124D01*
X93774000Y-96000000D01*
X95290262Y-96000000D01*
X95337828Y-96017313D01*
G37*
%TD.AperFunction*%
%TD*%
%TA.AperFunction,Conductor*%
%TO.N,+1V1*%
G36*
X117573566Y-90417313D02*
G01*
X117598876Y-90461150D01*
X117600000Y-90474000D01*
X117600000Y-92326000D01*
X117582687Y-92373566D01*
X117538850Y-92398876D01*
X117526000Y-92400000D01*
X116936314Y-92400000D01*
X116888748Y-92382687D01*
X116863438Y-92338850D01*
X116862314Y-92326000D01*
X116862314Y-91760747D01*
X116869718Y-91728483D01*
X116881710Y-91703733D01*
X116905496Y-91562354D01*
X116905647Y-91550000D01*
X116885323Y-91408082D01*
X116868950Y-91372071D01*
X116862314Y-91341443D01*
X116862314Y-91247054D01*
X116850681Y-91188571D01*
X116808629Y-91125636D01*
X116806366Y-91122250D01*
X116807506Y-91121488D01*
X116800000Y-91109706D01*
X116800000Y-91100000D01*
X116791076Y-91100000D01*
X116786160Y-91097162D01*
X116754403Y-91087529D01*
X116740045Y-91077935D01*
X116695519Y-91069078D01*
X116685132Y-91067012D01*
X116685131Y-91067012D01*
X116681562Y-91066302D01*
X116540387Y-91066302D01*
X116519184Y-91063199D01*
X116479792Y-91051418D01*
X116479791Y-91051418D01*
X116474739Y-91049907D01*
X116401103Y-91049457D01*
X116336646Y-91049063D01*
X116336645Y-91049063D01*
X116331376Y-91049031D01*
X116295488Y-91059288D01*
X116280914Y-91063453D01*
X116260579Y-91066302D01*
X115265387Y-91066302D01*
X115244184Y-91063199D01*
X115204792Y-91051418D01*
X115204791Y-91051418D01*
X115199739Y-91049907D01*
X115126103Y-91049457D01*
X115061646Y-91049063D01*
X115061645Y-91049063D01*
X115056376Y-91049031D01*
X115020488Y-91059288D01*
X115005914Y-91063453D01*
X114985579Y-91066302D01*
X113990387Y-91066302D01*
X113969184Y-91063199D01*
X113929792Y-91051418D01*
X113929791Y-91051418D01*
X113924739Y-91049907D01*
X113851103Y-91049457D01*
X113786646Y-91049063D01*
X113786645Y-91049063D01*
X113781376Y-91049031D01*
X113745488Y-91059288D01*
X113730914Y-91063453D01*
X113710579Y-91066302D01*
X113542066Y-91066302D01*
X113538497Y-91067012D01*
X113538496Y-91067012D01*
X113528109Y-91069078D01*
X113483583Y-91077935D01*
X113469225Y-91087529D01*
X113428113Y-91100000D01*
X113400000Y-91100000D01*
X113400000Y-91125636D01*
X113387529Y-91166748D01*
X113372947Y-91188571D01*
X113361314Y-91247054D01*
X113361314Y-91429405D01*
X113360433Y-91440789D01*
X113344391Y-91543823D01*
X113345074Y-91549046D01*
X113345074Y-91549049D01*
X113360689Y-91668459D01*
X113361314Y-91678054D01*
X113361314Y-92704405D01*
X113360433Y-92715789D01*
X113344391Y-92818823D01*
X113345074Y-92824046D01*
X113345074Y-92824049D01*
X113360689Y-92943459D01*
X113361314Y-92953054D01*
X113361314Y-93026000D01*
X113344001Y-93073566D01*
X113300164Y-93098876D01*
X113287314Y-93100000D01*
X112774000Y-93100000D01*
X112726434Y-93082687D01*
X112701124Y-93038850D01*
X112700000Y-93026000D01*
X112700000Y-90474000D01*
X112717313Y-90426434D01*
X112761150Y-90401124D01*
X112774000Y-90400000D01*
X117526000Y-90400000D01*
X117573566Y-90417313D01*
G37*
%TD.AperFunction*%
%TD*%
M02*
